{
  "title" : "",
  "description" : "",
  "author" : "",
  "targetLoudness" : -18.0,
  "shouldApplyLoudnessNormalization" : true,
  "videoFormatFrameRate" : 30,
  "audioFormatSampleRate" : 44100,
  "allowSubFrameEditing" : false,
  "width" : 1920.0,
  "height" : 1080.0,
  "version" : "8.0",
  "editRate" : 705600000,
  "authoringClientName" :  {
    "name" : "Camtasia",
    "platform" : "Windows",
    "version" : "2024.1.7"
  },
  "sourceBin" : [
    {
      "id" : 1,
      "src" : "C:\\aws\\bigdata\\ps-track-deep-work-time-rescuetime\\m1\\m1d-01--daily-goal.mp4",
      "rect" : [0, 0, 1920, 1080],
      "lastMod" : "20250813T211908",
      "loudnessNormalization" : true,
      "sourceTracks" : [
        {
          "range" : [0, 65900],
          "type" : 0,
          "editRate" : 1000,
          "trackRect" : [0, 0, 1920, 1080],
          "sampleRate" : 30,
          "bitDepth" : 24,
          "numChannels" : 0,
          "integratedLUFS" : 100.0,
          "peakLevel" : -1.0,
          "metaData" : "m1d-01--daily-goal.mp4;"
        },
        {
          "range" : [0, 65835],
          "type" : 2,
          "editRate" : 1000,
          "trackRect" : [0, 0, 0, 0],
          "sampleRate" : 48000,
          "bitDepth" : 16,
          "numChannels" : 2,
          "integratedLUFS" : -1.79769313486232e+308,
          "peakLevel" : 0.0,
          "metaData" : "m1d-01--daily-goal.mp4;"
        }
      ],
      "metadata" : {
        "timeAdded" : "20250813T212404.234269"
      }
    },
    {
      "id" : 2,
      "src" : "C:\\aws\\bigdata\\ps-track-deep-work-time-rescuetime\\m1\\m1d-02--categorize-activities.mp4",
      "rect" : [0, 0, 1920, 1080],
      "lastMod" : "20250813T215404",
      "loudnessNormalization" : true,
      "sourceTracks" : [
        {
          "range" : [0, 110167],
          "type" : 0,
          "editRate" : 1000,
          "trackRect" : [0, 0, 1920, 1080],
          "sampleRate" : "299729/10000",
          "bitDepth" : 24,
          "numChannels" : 0,
          "integratedLUFS" : 100.0,
          "peakLevel" : -1.0,
          "metaData" : "m1d-02--categorize-activities.mp4;"
        },
        {
          "range" : [0, 110016],
          "type" : 2,
          "editRate" : 1000,
          "trackRect" : [0, 0, 0, 0],
          "sampleRate" : 48000,
          "bitDepth" : 16,
          "numChannels" : 2,
          "integratedLUFS" : -1.79769313486232e+308,
          "peakLevel" : 0.0,
          "metaData" : "m1d-02--categorize-activities.mp4;"
        }
      ],
      "metadata" : {
        "timeAdded" : "20250813T220251.868239"
      }
    },
    {
      "id" : 3,
      "src" : "C:\\aws\\bigdata\\ps-track-deep-work-time-rescuetime\\m1\\m1d-03--dashboard-productivity-category.mp4",
      "rect" : [0, 0, 1920, 1080],
      "lastMod" : "20250813T215642",
      "loudnessNormalization" : true,
      "sourceTracks" : [
        {
          "range" : [0, 58034],
          "type" : 0,
          "editRate" : 1000,
          "trackRect" : [0, 0, 1920, 1080],
          "sampleRate" : "299831/10000",
          "bitDepth" : 24,
          "numChannels" : 0,
          "integratedLUFS" : 100.0,
          "peakLevel" : -1.0,
          "metaData" : "m1d-03--dashboard-productivity-category.mp4;"
        },
        {
          "range" : [0, 57942],
          "type" : 2,
          "editRate" : 1000,
          "trackRect" : [0, 0, 0, 0],
          "sampleRate" : 48000,
          "bitDepth" : 16,
          "numChannels" : 2,
          "integratedLUFS" : -1.79769313486232e+308,
          "peakLevel" : 0.0,
          "metaData" : "m1d-03--dashboard-productivity-category.mp4;"
        }
      ],
      "metadata" : {
        "timeAdded" : "20250813T220317.262579"
      }
    },
    {
      "id" : 4,
      "src" : "C:\\aws\\bigdata\\ps-track-deep-work-time-rescuetime\\m1\\m1d.03--distractions.mp4",
      "rect" : [0, 0, 1920, 1080],
      "lastMod" : "20250813T220615",
      "loudnessNormalization" : true,
      "sourceTracks" : [
        {
          "range" : [0, 32967],
          "type" : 0,
          "editRate" : 1000,
          "trackRect" : [0, 0, 1920, 1080],
          "sampleRate" : "300007/10000",
          "bitDepth" : 24,
          "numChannels" : 0,
          "integratedLUFS" : 100.0,
          "peakLevel" : -1.0,
          "metaData" : "m1d.03--distractions.mp4;"
        },
        {
          "range" : [0, 32918],
          "type" : 2,
          "editRate" : 1000,
          "trackRect" : [0, 0, 0, 0],
          "sampleRate" : 48000,
          "bitDepth" : 16,
          "numChannels" : 2,
          "integratedLUFS" : -1.79769313486232e+308,
          "peakLevel" : 0.0,
          "metaData" : "m1d.03--distractions.mp4;"
        }
      ],
      "metadata" : {
        "timeAdded" : "20250813T232720.221943"
      }
    },
    {
      "id" : 5,
      "src" : "C:\\aws\\bigdata\\ps-track-deep-work-time-rescuetime\\m1\\m1d-04--timeline-view.mp4",
      "rect" : [0, 0, 1920, 1080],
      "lastMod" : "20250813T220737",
      "loudnessNormalization" : true,
      "sourceTracks" : [
        {
          "range" : [0, 40000],
          "type" : 0,
          "editRate" : 1000,
          "trackRect" : [0, 0, 1920, 1080],
          "sampleRate" : "299499/10000",
          "bitDepth" : 24,
          "numChannels" : 0,
          "integratedLUFS" : 100.0,
          "peakLevel" : -1.0,
          "metaData" : "m1d-04--timeline-view.mp4;"
        },
        {
          "range" : [0, 39872],
          "type" : 2,
          "editRate" : 1000,
          "trackRect" : [0, 0, 0, 0],
          "sampleRate" : 48000,
          "bitDepth" : 16,
          "numChannels" : 2,
          "integratedLUFS" : -1.79769313486232e+308,
          "peakLevel" : 0.0,
          "metaData" : "m1d-04--timeline-view.mp4;"
        }
      ],
      "metadata" : {
        "timeAdded" : "20250813T232731.360796"
      }
    },
    {
      "id" : 6,
      "src" : "C:\\aws\\bigdata\\ps-track-deep-work-time-rescuetime\\m1\\m1d.05--start-focus.mp4",
      "rect" : [0, 0, 1920, 1080],
      "lastMod" : "20250813T221923",
      "loudnessNormalization" : true,
      "sourceTracks" : [
        {
          "range" : [0, 176834],
          "type" : 0,
          "editRate" : 1000,
          "trackRect" : [0, 0, 1920, 1080],
          "sampleRate" : "150001/5000",
          "bitDepth" : 24,
          "numChannels" : 0,
          "integratedLUFS" : 100.0,
          "peakLevel" : -1.0,
          "metaData" : "m1d.05--start-focus.mp4;"
        },
        {
          "range" : [0, 176768],
          "type" : 2,
          "editRate" : 1000,
          "trackRect" : [0, 0, 0, 0],
          "sampleRate" : 48000,
          "bitDepth" : 16,
          "numChannels" : 2,
          "integratedLUFS" : -1.79769313486232e+308,
          "peakLevel" : 0.0,
          "metaData" : "m1d.05--start-focus.mp4;"
        }
      ],
      "metadata" : {
        "timeAdded" : "20250813T232736.722028"
      }
    }
  ],
  "timeline" : {
    "id" : 7,
    "sceneTrack" : {
      "scenes" : [
        {
          "csml" : {
            "tracks" : [
              {
                "trackIndex" : 0,
                "medias" : [
                ]
              },
              {
                "trackIndex" : 1,
                "medias" : [
                  {
                    "id" : 8,
                    "_type" : "StitchedMedia",
                    "minMediaStart" : 0,
                    "attributes" : {
                      "ident" : "m1d-01--daily-goal",
                      "gain" : 1.0,
                      "mixToMono" : false,
                      "loudnessNormalization" : true,
                      "sourceFileOffset" : 0
                    },
                    "parameters" : {
                      "geometryCrop0" : 0.0,
                      "geometryCrop1" : 0.0,
                      "geometryCrop2" : 0.0,
                      "geometryCrop3" : 0.0,
                      "volume" : 1.0,
                      "smoothCursorAcrossEditDuration" : 0
                    },
                    "medias" : [
                        {
                          "id" : 9,
                          "_type" : "UnifiedMedia",
                          "video" : 
                              {
                                "id" : 10,
                                "_type" : "VMFile",
                                "src" : 1,
                                "trackNumber" : 0,
                                "attributes" : {
                                  "ident" : "m1d-01--daily-goal"
                                },
                                "parameters" : {
                                  "geometryCrop0" : 0.0,
                                  "geometryCrop1" : 0.0,
                                  "geometryCrop2" : 0.0,
                                  "geometryCrop3" : 0.0
                                },
                                "effects" : [

                                ],
                                "start" : 0,
                                "duration" : 22884960000,
                                "mediaStart" : 0,
                                "mediaDuration" : 22884960000,
                                "scalar" : 1,
                                "animationTracks" : {

                                }
                              },
                          "audio" : 
                              {
                                "id" : 11,
                                "_type" : "AMFile",
                                "src" : 1,
                                "trackNumber" : 1,
                                "attributes" : {
                                  "ident" : "",
                                  "gain" : 1.0,
                                  "mixToMono" : false,
                                  "loudnessNormalization" : true,
                                  "sourceFileOffset" : 0
                                },
                                  "channelNumber" : "0,1",
                                "effects" : [

                                ],
                                "start" : 0,
                                "duration" : 22884960000,
                                "mediaStart" : 0,
                                "mediaDuration" : 22884960000,
                                "scalar" : 1,
                                "animationTracks" : {

                                }
                              }
,
                          "start" : 0,
                          "duration" : 22884960000,
                          "mediaStart" : 0,
                          "mediaDuration" : 22884960000,
                          "scalar" : 1,
                          "metadata" : {
                            "audiateLinkedSession" : "",
                            "clipSpeedAttribute" : { "type": "bool", "value" : false},
                            "colorAttribute" : { "type": "color", "value" : [ 0, 0, 0, 0]}
                          }
                        },
                        {
                          "id" : 12,
                          "_type" : "UnifiedMedia",
                          "video" : 
                              {
                                "id" : 13,
                                "_type" : "VMFile",
                                "src" : 1,
                                "trackNumber" : 0,
                                "attributes" : {
                                  "ident" : "m1d-01--daily-goal"
                                },
                                "parameters" : {
                                  "geometryCrop0" : 0.0,
                                  "geometryCrop1" : 0.0,
                                  "geometryCrop2" : 0.0,
                                  "geometryCrop3" : 0.0
                                },
                                "effects" : [

                                ],
                                "start" : 22884960000,
                                "duration" : 22367520000,
                                "mediaStart" : 24084480000,
                                "mediaDuration" : 22367520000,
                                "scalar" : 1,
                                "animationTracks" : {

                                }
                              },
                          "audio" : 
                              {
                                "id" : 14,
                                "_type" : "AMFile",
                                "src" : 1,
                                "trackNumber" : 1,
                                "attributes" : {
                                  "ident" : "",
                                  "gain" : 1.0,
                                  "mixToMono" : false,
                                  "loudnessNormalization" : true,
                                  "sourceFileOffset" : 0
                                },
                                  "channelNumber" : "0,1",
                                "effects" : [

                                ],
                                "start" : 22884960000,
                                "duration" : 22367520000,
                                "mediaStart" : 24084480000,
                                "mediaDuration" : 22367520000,
                                "scalar" : 1,
                                "animationTracks" : {

                                }
                              }
,
                          "start" : 22884960000,
                          "duration" : 22367520000,
                          "mediaStart" : 24084480000,
                          "mediaDuration" : 22367520000,
                          "scalar" : 1,
                          "metadata" : {
                            "audiateLinkedSession" : "",
                            "clipSpeedAttribute" : { "type": "bool", "value" : false},
                            "colorAttribute" : { "type": "color", "value" : [ 0, 0, 0, 0]}
                          }
                        }
                    ],
                    "effects" : [

                    ],
                    "start" : 32904480000,
                    "duration" : 28906080000,
                    "mediaStart" : 2634240000,
                    "mediaDuration" : 28906080000,
                    "scalar" : 1,
                    "metadata" : {
                      "audiateLinkedSession" : "",
                      "clipSpeedAttribute" : { "type": "bool", "value" : false},
                      "colorAttribute" : { "type": "color", "value" : [ 0, 0, 0, 0]},
                      "effectApplied" : "none"
                    },
                    "animationTracks" : {

                    }
                  },
                  {
                    "id" : 15,
                    "_type" : "UnifiedMedia",
                    "video" : 
                        {
                          "id" : 16,
                          "_type" : "VMFile",
                          "src" : 2,
                          "trackNumber" : 0,
                          "attributes" : {
                            "ident" : "m1d-02--categorize-activities"
                          },
                          "parameters" : {
                            "geometryCrop0" : {
                              "type" : "double",
                              "defaultValue" : 0.0,
                              "interp" : "eioe"
                            },
                            "geometryCrop1" : {
                              "type" : "double",
                              "defaultValue" : 0.0,
                              "interp" : "eioe"
                            },
                            "geometryCrop2" : {
                              "type" : "double",
                              "defaultValue" : 0.0,
                              "interp" : "eioe"
                            },
                            "geometryCrop3" : {
                              "type" : "double",
                              "defaultValue" : 0.0,
                              "interp" : "eioe"
                            }
                          },
                          "effects" : [

                          ],
                          "start" : 78133440000,
                          "duration" : 6303360000,
                          "mediaStart" : 8090880000,
                          "mediaDuration" : 6303360000,
                          "scalar" : 1,
                          "animationTracks" : {

                          }
                        },
                    "audio" : 
                        {
                          "id" : 17,
                          "_type" : "AMFile",
                          "src" : 2,
                          "trackNumber" : 1,
                          "attributes" : {
                            "ident" : "",
                            "gain" : 1.0,
                            "mixToMono" : false,
                            "loudnessNormalization" : true,
                            "sourceFileOffset" : 0
                          },
                            "channelNumber" : "0,1",
                          "effects" : [

                          ],
                          "start" : 78133440000,
                          "duration" : 6303360000,
                          "mediaStart" : 8090880000,
                          "mediaDuration" : 6303360000,
                          "scalar" : 1,
                          "animationTracks" : {

                          }
                        }
,
                    "start" : 78133440000,
                    "duration" : 6303360000,
                    "mediaStart" : 8090880000,
                    "mediaDuration" : 6303360000,
                    "scalar" : 1,
                    "metadata" : {
                      "audiateLinkedSession" : "",
                      "clipSpeedAttribute" : { "type": "bool", "value" : false},
                      "colorAttribute" : { "type": "color", "value" : [ 0, 0, 0, 0]},
                      "effectApplied" : "none"
                    }
                  },
                  {
                    "id" : 18,
                    "_type" : "UnifiedMedia",
                    "video" : 
                        {
                          "id" : 19,
                          "_type" : "VMFile",
                          "src" : 2,
                          "trackNumber" : 0,
                          "attributes" : {
                            "ident" : "m1d-02--categorize-activities"
                          },
                          "parameters" : {
                            "geometryCrop0" : {
                              "type" : "double",
                              "defaultValue" : 0.0,
                              "interp" : "eioe"
                            },
                            "geometryCrop1" : {
                              "type" : "double",
                              "defaultValue" : 0.0,
                              "interp" : "eioe"
                            },
                            "geometryCrop2" : {
                              "type" : "double",
                              "defaultValue" : 0.0,
                              "interp" : "eioe"
                            },
                            "geometryCrop3" : {
                              "type" : "double",
                              "defaultValue" : 0.0,
                              "interp" : "eioe"
                            }
                          },
                          "effects" : [

                          ],
                          "start" : 84436800000,
                          "duration" : 37773120000,
                          "mediaStart" : 14394240000,
                          "mediaDuration" : 54754560000,
                          "scalar" : "803/1164",
                          "animationTracks" : {

                          }
                        },
                    "audio" : 
                        {
                          "id" : 20,
                          "_type" : "AMFile",
                          "src" : 2,
                          "trackNumber" : 1,
                          "attributes" : {
                            "ident" : "",
                            "gain" : 1.0,
                            "mixToMono" : false,
                            "loudnessNormalization" : true,
                            "sourceFileOffset" : 0
                          },
                            "channelNumber" : "0,1",
                          "effects" : [

                          ],
                          "start" : 84436800000,
                          "duration" : 37773120000,
                          "mediaStart" : 14394240000,
                          "mediaDuration" : 54754560000,
                          "scalar" : "803/1164",
                          "animationTracks" : {

                          }
                        }
,
                    "start" : 84436800000,
                    "duration" : 37773120000,
                    "mediaStart" : 14394240000,
                    "mediaDuration" : 54754560000,
                    "scalar" : "803/1164",
                    "metadata" : {
                      "audiateLinkedSession" : "",
                      "clipSpeedAttribute" : { "type": "bool", "value" : true},
                      "colorAttribute" : { "type": "color", "value" : [ 0, 0, 0, 0]},
                      "effectApplied" : "none"
                    }
                  },
                  {
                    "id" : 21,
                    "_type" : "UnifiedMedia",
                    "video" : 
                        {
                          "id" : 22,
                          "_type" : "VMFile",
                          "src" : 2,
                          "trackNumber" : 0,
                          "attributes" : {
                            "ident" : "m1d-02--categorize-activities"
                          },
                          "parameters" : {
                            "geometryCrop0" : {
                              "type" : "double",
                              "defaultValue" : 0.0,
                              "interp" : "eioe"
                            },
                            "geometryCrop1" : {
                              "type" : "double",
                              "defaultValue" : 0.0,
                              "interp" : "eioe"
                            },
                            "geometryCrop2" : {
                              "type" : "double",
                              "defaultValue" : 0.0,
                              "interp" : "eioe"
                            },
                            "geometryCrop3" : {
                              "type" : "double",
                              "defaultValue" : 0.0,
                              "interp" : "eioe"
                            }
                          },
                          "effects" : [

                          ],
                          "start" : 122209920000,
                          "duration" : 8467200000,
                          "mediaStart" : 69148800000,
                          "mediaDuration" : 8467200000,
                          "scalar" : 1,
                          "animationTracks" : {

                          }
                        },
                    "audio" : 
                        {
                          "id" : 23,
                          "_type" : "AMFile",
                          "src" : 2,
                          "trackNumber" : 1,
                          "attributes" : {
                            "ident" : "",
                            "gain" : 1.0,
                            "mixToMono" : false,
                            "loudnessNormalization" : true,
                            "sourceFileOffset" : 0
                          },
                            "channelNumber" : "0,1",
                          "effects" : [

                          ],
                          "start" : 122209920000,
                          "duration" : 8467200000,
                          "mediaStart" : 69148800000,
                          "mediaDuration" : 8467200000,
                          "scalar" : 1,
                          "animationTracks" : {

                          }
                        }
,
                    "start" : 122209920000,
                    "duration" : 8467200000,
                    "mediaStart" : 69148800000,
                    "mediaDuration" : 8467200000,
                    "scalar" : 1,
                    "metadata" : {
                      "audiateLinkedSession" : "",
                      "clipSpeedAttribute" : { "type": "bool", "value" : false},
                      "colorAttribute" : { "type": "color", "value" : [ 0, 0, 0, 0]},
                      "effectApplied" : "none"
                    }
                  },
                  {
                    "id" : 24,
                    "_type" : "UnifiedMedia",
                    "video" : 
                        {
                          "id" : 25,
                          "_type" : "VMFile",
                          "src" : 3,
                          "trackNumber" : 0,
                          "attributes" : {
                            "ident" : "m1d-03--dashboard-productivity-category"
                          },
                          "parameters" : {
                            "geometryCrop0" : 0.0,
                            "geometryCrop1" : 0.0,
                            "geometryCrop2" : 0.0,
                            "geometryCrop3" : 0.0
                          },
                          "effects" : [

                          ],
                          "start" : 168144480000,
                          "duration" : 37584960000,
                          "mediaStart" : 0,
                          "mediaDuration" : 37584960000,
                          "scalar" : 1,
                          "animationTracks" : {

                          }
                        },
                    "audio" : 
                        {
                          "id" : 26,
                          "_type" : "AMFile",
                          "src" : 3,
                          "trackNumber" : 1,
                          "attributes" : {
                            "ident" : "",
                            "gain" : 1.0,
                            "mixToMono" : false,
                            "loudnessNormalization" : true,
                            "sourceFileOffset" : 0
                          },
                            "channelNumber" : "0,1",
                          "effects" : [

                          ],
                          "start" : 168144480000,
                          "duration" : 37584960000,
                          "mediaStart" : 0,
                          "mediaDuration" : 37584960000,
                          "scalar" : 1,
                          "animationTracks" : {

                          }
                        }
,
                    "start" : 168144480000,
                    "duration" : 37584960000,
                    "mediaStart" : 0,
                    "mediaDuration" : 37584960000,
                    "scalar" : 1,
                    "metadata" : {
                      "audiateLinkedSession" : "",
                      "clipSpeedAttribute" : { "type": "bool", "value" : false},
                      "colorAttribute" : { "type": "color", "value" : [ 0, 0, 0, 0]},
                      "effectApplied" : "none"
                    }
                  },
                  {
                    "id" : 27,
                    "_type" : "UnifiedMedia",
                    "video" : 
                        {
                          "id" : 28,
                          "_type" : "VMFile",
                          "src" : 4,
                          "trackNumber" : 0,
                          "attributes" : {
                            "ident" : "m1d.03--distractions"
                          },
                          "parameters" : {
                            "geometryCrop0" : 0.0,
                            "geometryCrop1" : 0.0,
                            "geometryCrop2" : 0.0,
                            "geometryCrop3" : 0.0
                          },
                          "effects" : [

                          ],
                          "start" : 221887680000,
                          "duration" : 23214240000,
                          "mediaStart" : 0,
                          "mediaDuration" : 23214240000,
                          "scalar" : 1,
                          "animationTracks" : {

                          }
                        },
                    "audio" : 
                        {
                          "id" : 29,
                          "_type" : "AMFile",
                          "src" : 4,
                          "trackNumber" : 1,
                          "attributes" : {
                            "ident" : "",
                            "gain" : 1.0,
                            "mixToMono" : false,
                            "loudnessNormalization" : true,
                            "sourceFileOffset" : 0
                          },
                            "channelNumber" : "0,1",
                          "effects" : [

                          ],
                          "start" : 221887680000,
                          "duration" : 23214240000,
                          "mediaStart" : 0,
                          "mediaDuration" : 23214240000,
                          "scalar" : 1,
                          "animationTracks" : {

                          }
                        }
,
                    "start" : 221887680000,
                    "duration" : 23214240000,
                    "mediaStart" : 0,
                    "mediaDuration" : 23214240000,
                    "scalar" : 1,
                    "metadata" : {
                      "audiateLinkedSession" : "",
                      "clipSpeedAttribute" : { "type": "bool", "value" : false},
                      "colorAttribute" : { "type": "color", "value" : [ 0, 0, 0, 0]},
                      "default-scale" : "1",
                      "effectApplied" : "none",
                      "lockAspectRatio" : { "type": "bool", "value" : true}
                    }
                  },
                  {
                    "id" : 30,
                    "_type" : "StitchedMedia",
                    "minMediaStart" : 0,
                    "attributes" : {
                      "ident" : "m1d-04--timeline-view",
                      "gain" : 1.0,
                      "mixToMono" : false,
                      "loudnessNormalization" : true,
                      "sourceFileOffset" : 0
                    },
                    "parameters" : {
                      "geometryCrop0" : 0.0,
                      "geometryCrop1" : 0.0,
                      "geometryCrop2" : 0.0,
                      "geometryCrop3" : 0.0,
                      "volume" : 1.0,
                      "smoothCursorAcrossEditDuration" : 0
                    },
                    "medias" : [
                        {
                          "id" : 31,
                          "_type" : "UnifiedMedia",
                          "video" : 
                              {
                                "id" : 32,
                                "_type" : "VMFile",
                                "src" : 5,
                                "trackNumber" : 0,
                                "attributes" : {
                                  "ident" : "m1d-04--timeline-view"
                                },
                                "parameters" : {
                                  "geometryCrop0" : {
                                    "type" : "double",
                                    "defaultValue" : 0.0,
                                    "interp" : "eioe"
                                  },
                                  "geometryCrop1" : {
                                    "type" : "double",
                                    "defaultValue" : 0.0,
                                    "interp" : "eioe"
                                  },
                                  "geometryCrop2" : {
                                    "type" : "double",
                                    "defaultValue" : 0.0,
                                    "interp" : "eioe"
                                  },
                                  "geometryCrop3" : {
                                    "type" : "double",
                                    "defaultValue" : 0.0,
                                    "interp" : "eioe"
                                  }
                                },
                                "effects" : [

                                ],
                                "start" : 0,
                                "duration" : 7385280000,
                                "mediaStart" : 0,
                                "mediaDuration" : 7385280000,
                                "scalar" : 1,
                                "animationTracks" : {

                                }
                              },
                          "audio" : 
                              {
                                "id" : 33,
                                "_type" : "AMFile",
                                "src" : 5,
                                "trackNumber" : 1,
                                "attributes" : {
                                  "ident" : "",
                                  "gain" : 1.0,
                                  "mixToMono" : false,
                                  "loudnessNormalization" : true,
                                  "sourceFileOffset" : 0
                                },
                                  "channelNumber" : "0,1",
                                "effects" : [

                                ],
                                "start" : 0,
                                "duration" : 7385280000,
                                "mediaStart" : 0,
                                "mediaDuration" : 7385280000,
                                "scalar" : 1,
                                "animationTracks" : {

                                }
                              }
,
                          "start" : 0,
                          "duration" : 7385280000,
                          "mediaStart" : 0,
                          "mediaDuration" : 7385280000,
                          "scalar" : 1,
                          "metadata" : {
                            "audiateLinkedSession" : "",
                            "clipSpeedAttribute" : { "type": "bool", "value" : false},
                            "colorAttribute" : { "type": "color", "value" : [ 0, 0, 0, 0]},
                            "default-scale" : "1",
                            "effectApplied" : "none",
                            "lockAspectRatio" : { "type": "bool", "value" : true}
                          }
                        },
                        {
                          "id" : 34,
                          "_type" : "UnifiedMedia",
                          "video" : 
                              {
                                "id" : 35,
                                "_type" : "VMFile",
                                "src" : 5,
                                "trackNumber" : 0,
                                "attributes" : {
                                  "ident" : "m1d-04--timeline-view"
                                },
                                "parameters" : {
                                  "geometryCrop0" : {
                                    "type" : "double",
                                    "defaultValue" : 0.0,
                                    "interp" : "eioe"
                                  },
                                  "geometryCrop1" : {
                                    "type" : "double",
                                    "defaultValue" : 0.0,
                                    "interp" : "eioe"
                                  },
                                  "geometryCrop2" : {
                                    "type" : "double",
                                    "defaultValue" : 0.0,
                                    "interp" : "eioe"
                                  },
                                  "geometryCrop3" : {
                                    "type" : "double",
                                    "defaultValue" : 0.0,
                                    "interp" : "eioe"
                                  }
                                },
                                "effects" : [

                                ],
                                "start" : 7385280000,
                                "duration" : 15546720000,
                                "mediaStart" : 12583200000,
                                "mediaDuration" : 15546720000,
                                "scalar" : 1,
                                "animationTracks" : {

                                }
                              },
                          "audio" : 
                              {
                                "id" : 36,
                                "_type" : "AMFile",
                                "src" : 5,
                                "trackNumber" : 1,
                                "attributes" : {
                                  "ident" : "",
                                  "gain" : 1.0,
                                  "mixToMono" : false,
                                  "loudnessNormalization" : true,
                                  "sourceFileOffset" : 0
                                },
                                  "channelNumber" : "0,1",
                                "effects" : [

                                ],
                                "start" : 7385280000,
                                "duration" : 15546720000,
                                "mediaStart" : 12583200000,
                                "mediaDuration" : 15546720000,
                                "scalar" : 1,
                                "animationTracks" : {

                                }
                              }
,
                          "start" : 7385280000,
                          "duration" : 15546720000,
                          "mediaStart" : 12583200000,
                          "mediaDuration" : 15546720000,
                          "scalar" : 1,
                          "metadata" : {
                            "audiateLinkedSession" : "",
                            "clipSpeedAttribute" : { "type": "bool", "value" : false},
                            "colorAttribute" : { "type": "color", "value" : [ 0, 0, 0, 0]},
                            "default-scale" : "1",
                            "effectApplied" : "none",
                            "lockAspectRatio" : { "type": "bool", "value" : true}
                          }
                        }
                    ],
                    "effects" : [

                    ],
                    "start" : 260766240000,
                    "duration" : 18604320000,
                    "mediaStart" : 0,
                    "mediaDuration" : 18604320000,
                    "scalar" : 1,
                    "metadata" : {
                      "audiateLinkedSession" : "",
                      "clipSpeedAttribute" : { "type": "bool", "value" : false},
                      "colorAttribute" : { "type": "color", "value" : [ 0, 0, 0, 0]},
                      "default-scale" : "1",
                      "effectApplied" : "none",
                      "lockAspectRatio" : { "type": "bool", "value" : true}
                    },
                    "animationTracks" : {

                    }
                  },
                  {
                    "id" : 37,
                    "_type" : "StitchedMedia",
                    "minMediaStart" : 0,
                    "attributes" : {
                      "ident" : "m1d.05--start-focus",
                      "gain" : 1.0,
                      "mixToMono" : false,
                      "loudnessNormalization" : true,
                      "sourceFileOffset" : 0
                    },
                    "parameters" : {
                      "geometryCrop0" : 0.0,
                      "geometryCrop1" : 0.0,
                      "geometryCrop2" : 0.0,
                      "geometryCrop3" : 0.0,
                      "volume" : 1.0,
                      "smoothCursorAcrossEditDuration" : 0
                    },
                    "medias" : [
                        {
                          "id" : 38,
                          "_type" : "UnifiedMedia",
                          "video" : 
                              {
                                "id" : 39,
                                "_type" : "VMFile",
                                "src" : 6,
                                "trackNumber" : 0,
                                "attributes" : {
                                  "ident" : "m1d.05--start-focus"
                                },
                                "parameters" : {
                                  "geometryCrop0" : {
                                    "type" : "double",
                                    "defaultValue" : 0.0,
                                    "interp" : "eioe"
                                  },
                                  "geometryCrop1" : {
                                    "type" : "double",
                                    "defaultValue" : 0.0,
                                    "interp" : "eioe"
                                  },
                                  "geometryCrop2" : {
                                    "type" : "double",
                                    "defaultValue" : 0.0,
                                    "interp" : "eioe"
                                  },
                                  "geometryCrop3" : {
                                    "type" : "double",
                                    "defaultValue" : 0.0,
                                    "interp" : "eioe"
                                  }
                                },
                                "effects" : [

                                ],
                                "start" : 0,
                                "duration" : 102994080000,
                                "mediaStart" : 0,
                                "mediaDuration" : 102994080000,
                                "scalar" : 1,
                                "animationTracks" : {

                                }
                              },
                          "audio" : 
                              {
                                "id" : 40,
                                "_type" : "AMFile",
                                "src" : 6,
                                "trackNumber" : 1,
                                "attributes" : {
                                  "ident" : "",
                                  "gain" : 1.0,
                                  "mixToMono" : false,
                                  "loudnessNormalization" : true,
                                  "sourceFileOffset" : 0
                                },
                                  "channelNumber" : "0,1",
                                "effects" : [

                                ],
                                "start" : 0,
                                "duration" : 102994080000,
                                "mediaStart" : 0,
                                "mediaDuration" : 102994080000,
                                "scalar" : 1,
                                "animationTracks" : {

                                }
                              }
,
                          "start" : 0,
                          "duration" : 102994080000,
                          "mediaStart" : 0,
                          "mediaDuration" : 102994080000,
                          "scalar" : 1,
                          "metadata" : {
                            "audiateLinkedSession" : "",
                            "clipSpeedAttribute" : { "type": "bool", "value" : false},
                            "colorAttribute" : { "type": "color", "value" : [ 0, 0, 0, 0]},
                            "default-scale" : "1",
                            "effectApplied" : "none",
                            "lockAspectRatio" : { "type": "bool", "value" : true}
                          }
                        },
                        {
                          "id" : 41,
                          "_type" : "UnifiedMedia",
                          "video" : 
                              {
                                "id" : 42,
                                "_type" : "VMFile",
                                "src" : 6,
                                "trackNumber" : 0,
                                "attributes" : {
                                  "ident" : "m1d.05--start-focus"
                                },
                                "parameters" : {
                                  "geometryCrop0" : {
                                    "type" : "double",
                                    "defaultValue" : 0.0,
                                    "interp" : "eioe"
                                  },
                                  "geometryCrop1" : {
                                    "type" : "double",
                                    "defaultValue" : 0.0,
                                    "interp" : "eioe"
                                  },
                                  "geometryCrop2" : {
                                    "type" : "double",
                                    "defaultValue" : 0.0,
                                    "interp" : "eioe"
                                  },
                                  "geometryCrop3" : {
                                    "type" : "double",
                                    "defaultValue" : 0.0,
                                    "interp" : "eioe"
                                  }
                                },
                                "effects" : [

                                ],
                                "start" : 102994080000,
                                "duration" : 470400000,
                                "mediaStart" : 104405280000,
                                "mediaDuration" : 470400000,
                                "scalar" : 1,
                                "animationTracks" : {

                                }
                              },
                          "audio" : 
                              {
                                "id" : 43,
                                "_type" : "AMFile",
                                "src" : 6,
                                "trackNumber" : 1,
                                "attributes" : {
                                  "ident" : "",
                                  "gain" : 1.0,
                                  "mixToMono" : false,
                                  "loudnessNormalization" : true,
                                  "sourceFileOffset" : 0
                                },
                                  "channelNumber" : "0,1",
                                "effects" : [

                                ],
                                "start" : 102994080000,
                                "duration" : 470400000,
                                "mediaStart" : 104405280000,
                                "mediaDuration" : 470400000,
                                "scalar" : 1,
                                "animationTracks" : {

                                }
                              }
,
                          "start" : 102994080000,
                          "duration" : 470400000,
                          "mediaStart" : 104405280000,
                          "mediaDuration" : 470400000,
                          "scalar" : 1,
                          "metadata" : {
                            "audiateLinkedSession" : "",
                            "clipSpeedAttribute" : { "type": "bool", "value" : false},
                            "colorAttribute" : { "type": "color", "value" : [ 0, 0, 0, 0]},
                            "default-scale" : "1",
                            "effectApplied" : "none",
                            "lockAspectRatio" : { "type": "bool", "value" : true}
                          }
                        },
                        {
                          "id" : 44,
                          "_type" : "UnifiedMedia",
                          "video" : 
                              {
                                "id" : 45,
                                "_type" : "VMFile",
                                "src" : 6,
                                "trackNumber" : 0,
                                "attributes" : {
                                  "ident" : "m1d.05--start-focus"
                                },
                                "parameters" : {
                                  "geometryCrop0" : {
                                    "type" : "double",
                                    "defaultValue" : 0.0,
                                    "interp" : "eioe"
                                  },
                                  "geometryCrop1" : {
                                    "type" : "double",
                                    "defaultValue" : 0.0,
                                    "interp" : "eioe"
                                  },
                                  "geometryCrop2" : {
                                    "type" : "double",
                                    "defaultValue" : 0.0,
                                    "interp" : "eioe"
                                  },
                                  "geometryCrop3" : {
                                    "type" : "double",
                                    "defaultValue" : 0.0,
                                    "interp" : "eioe"
                                  }
                                },
                                "effects" : [

                                ],
                                "start" : 103464480000,
                                "duration" : 13288800000,
                                "mediaStart" : 111437760000,
                                "mediaDuration" : 13288800000,
                                "scalar" : 1,
                                "animationTracks" : {

                                }
                              },
                          "audio" : 
                              {
                                "id" : 46,
                                "_type" : "AMFile",
                                "src" : 6,
                                "trackNumber" : 1,
                                "attributes" : {
                                  "ident" : "",
                                  "gain" : 1.0,
                                  "mixToMono" : false,
                                  "loudnessNormalization" : true,
                                  "sourceFileOffset" : 0
                                },
                                  "channelNumber" : "0,1",
                                "effects" : [

                                ],
                                "start" : 103464480000,
                                "duration" : 13288800000,
                                "mediaStart" : 111437760000,
                                "mediaDuration" : 13288800000,
                                "scalar" : 1,
                                "animationTracks" : {

                                }
                              }
,
                          "start" : 103464480000,
                          "duration" : 13288800000,
                          "mediaStart" : 111437760000,
                          "mediaDuration" : 13288800000,
                          "scalar" : 1,
                          "metadata" : {
                            "audiateLinkedSession" : "",
                            "clipSpeedAttribute" : { "type": "bool", "value" : false},
                            "colorAttribute" : { "type": "color", "value" : [ 0, 0, 0, 0]},
                            "default-scale" : "1",
                            "effectApplied" : "none",
                            "lockAspectRatio" : { "type": "bool", "value" : true}
                          }
                        }
                    ],
                    "effects" : [

                    ],
                    "start" : 295669920000,
                    "duration" : 30552480000,
                    "mediaStart" : 73358880000,
                    "mediaDuration" : 30552480000,
                    "scalar" : 1,
                    "metadata" : {
                      "audiateLinkedSession" : "",
                      "clipSpeedAttribute" : { "type": "bool", "value" : false},
                      "colorAttribute" : { "type": "color", "value" : [ 0, 0, 0, 0]},
                      "default-scale" : "1",
                      "effectApplied" : "none",
                      "lockAspectRatio" : { "type": "bool", "value" : true}
                    },
                    "animationTracks" : {

                    }
                  }
                ]
              },
              {
                "trackIndex" : 2,
                "medias" : [
                ]
              }            ]
          }
        }
      ]
    },
    "trackAttributes" : [
      {
        "ident" : "",
        "audioMuted" : false,
        "videoHidden" : false,
        "magnetic" : false,
        "matte" : 0,
        "solo" : false,
        "metadata" : {
          "IsLocked" : "False",
          "WinTrackHeight" : "56",
          "trackHeight" : "54"
        }
      },
      {
        "ident" : "",
        "audioMuted" : false,
        "videoHidden" : false,
        "magnetic" : false,
        "matte" : 0,
        "solo" : false,
        "metadata" : {
          "IsLocked" : "False",
          "WinTrackHeight" : "56",
          "trackHeight" : "54"
        }
      },
      {
        "ident" : "",
        "audioMuted" : false,
        "videoHidden" : false,
        "magnetic" : false,
        "matte" : 0,
        "solo" : false,
        "metadata" : {
          "IsLocked" : "False",
          "WinTrackHeight" : "56",
          "trackHeight" : "54"
        }
      }
    ],
    "captionAttributes" : {
      "enabled" : true,
      "fontName" : "Arial",
      "fontSize" : 64,
      "backgroundColor" : [ 0, 0, 0, 191],
      "foregroundColor" : [ 255, 255, 255, 255],
      "lang" : "en",
      "alignment" : 0,
      "defaultFontSize" : true,
      "opacity" : 0.5,
      "backgroundEnabled" : true,
      "backgroundOnlyAroundText" : true
    },
    "gain" : 1.0,
    "legacyAttenuateAudioMix" : false,
    "backgroundColor" : [ 0, 0, 0, 255]
  },
  "metadata" : {
    "AutoSaveFile" : "",
    "CanvasZoom" : { "type": "int", "value" : 60},
    "Date" : "2025-08-13 03:23:37 PM",
    "IsAutoSave" : { "type": "bool", "value" : false},
    "IsStandalone" : { "type": "bool", "value" : false},
    "Language" : "ENU",
    "ProfileName" : "",
    "ProjectDimensionsChanged" : "1",
    "ProjectThumbnail" : "iVBORw0KGgoAAAANSUhEUgAAAoAAAAFoCAYAAADHMkpRAAAAAXNSR0IArs4c6QAAAARnQU1BAACx\r\njwv8YQUAAAAJcEhZcwAAEnQAABJ0Ad5mH3gAAP+lSURBVHhe7L0FfBTX3v/f/+/5Pb/nub23xb12\r\n65RixbXu7W2pQ92FlkJxK25JcNfgkIQIEUiIu7u7QUJcN1n//F/fc3Z2Z2c3grXITPtmJ2eOzpw5\r\n85nvkbnrpON5SDnt5H1NOJzxsQK5n7fgtNM5mavgFPul833BCpbXREZGRkZGRkZG4C6p+GM4nLPK\r\nqXbEIR0T/DCcJDiSaPGyxFHmimDnzBMnHDxwypHOvVT8+VhcGxkZGRkZGRkZMUYBKAg3B2cfePuG\r\nITAk1kRoLAKCY+BxLhCnmQAhIUhCg+DizvmsL4KCYxEflYbY6FTERKeyX7Yfk4qomBRExspcDyJi\r\nkuEbGAFHZ0FYW15YGRkZGRkZGZm2MBOAbh5BSEjJR1ZeCbLyiixIz8lHeHQinFx9ccqRW5tOOnrB\r\n/VwQUjIKkJtfgsL8EhTkFyI/v8BAPiM7rwCZuYUyuUVW3K4Ufj3ik7PgctaPXQOyDpq6iC0vtIyM\r\njIyMjIyMgFEA0ji9+OR8ZOeXIyOnCBk5BVbJzC1BcHgSTjpQBD444+aLxNQ8ZOeXICWrBKGJJQhM\r\nKIdPbDl8YsrgH1+OgITLiE0tQkZ2PiNdhDT+O4nMXNHf4v1OkpVXiui4DDgYLIFtCUC6tlI3GRkZ\r\nGRkZmb8fR+cLjGt9VkvDS/+Wchf9Q2P3zl0IRUZuMbdQkbggcgv5L4kVEh3Z+cjMKURqeh6cXX1x\r\n2uEcfP0jkZ17Ebl5mQhLKMOMffVYfKgR52Nq4ZdYBRunZvywXYnjPpeYFTA7qwCZWSQ0i5FDkHVR\r\nSE8CS9MKFDa38CL7JUuY9Hh7CNZMsqR1FJb8UBr0m5Nf0mYYsTv5lx4XoGNi0ZuZV2gkw2Ddk4Zh\r\naReUsP3cwlKJH9ovgvu5YMN4QMJynGZ7YzdlZGRkZGRk/npIoNEQrgOHz2D/ISccOuJi4edKOOHg\r\nZRR9Jx3P4fgpTws/YgwC0AsBIdHIzucihsRXRlYeMrPzkUsCiESL4W8Bd48AnDzlieCQOOTkXkRe\r\nbh5CEi5h4X4ltrm2olGpgUqng3OMCr/vU+KYdxWy8vKRk1WArOx8HDvlhH0HjyAiKg6FRReRV1DC\r\n0qJfEoX5haXILeBd0YIQIyGUW1SKM26esN28nf0GhUUxdzEkqOg3u8BcjFFc5N8/OBzR8clsP7/k\r\nEos7m8KJ0iGiE5Lh7ReEqLgknPXyQVxSGi4EhCCv+CJLg/ktLEViaiZ8A0OZQHM/d4GJPCEu2qd0\r\nU7Ny4eXjz/NlEK45hSVIy8pDbGKKURBm5RcZBGEB26d8nnR0QWFpOU44OiMmIcVMhFI6Pn6RBous\r\nJWdc/bBl+2FWsZxcfC2Oy8jIyMjIyHQeElmC1e5qLXe0MsqJ017YuecENtjtxXq7Pdi45SDsj7pe\r\nVXzEjt3Hcfj4Wba/ffcxHD3hzvIn9SdgFICBoTFGYUFCLDAoHLNmz2cC7Y/ZCxAYHM6EGYk/Eohn\r\n3QNw8qQnAoNimADMzy2Cf0wZLsTUQqkBLtcpEZ3TBKUKyChV4pRvGTLzCpCTVYiMjFxs2r4Lzm6e\r\nOHbCAe6e3jjt4ILQ8GgcPnoSUdEJOHr8NJyczzLBFR4dj5CIGDi6uMPhjBviklJht3k74pPT4Ont\r\nB+ezXth36CiOnnTEKScXJKRk4OCRE/D09jVa/Eh40S+JuB17D8D+2Ck4uXpg975D8A8OY+mQ2PIL\r\nDMWhIyfgGxCCxJQMbNmxG6fPuGLeoqUsv6ecXJl4PX8hgIWzP3oSXj5+LP0zbh5Yb7eF5TMhJR3u\r\n53yY2CNxuHXnXthu3obA0EgcO+WIqLhEJggjouPh4x+E2IQUpGXlMhGeRUKQCcwiJKVlYdGfK/Hb\r\nrDlY9OcKpKRnI9tMABZZFYBUgY6f9sLBw85YuWYbNm+zx8EjzrI1UEZGRkZG5hrYtfcktu44gm07\r\nj7Jfes5eqWgj//sOOTHRdvSkB/bbn4Hd5gNXFZcQHz3ft+48io1bD+HI8bPtij/CJABDTAKQBB6J\r\nva3bd+OFl17Djl37jOLPTACeMgnA3NwS+EVfQmhqHQANmhVqxOaooNRoUF6rgsMFkwDMzMrDirUb\r\nsGzlWpxxccefy1Zj3YaN2LvfHnv2HWLiz/PcBSYI9x84DO8Lgdi0eTv+XL4aa9fbITI6Hnv2HkJy\r\naibLo92mbThxygm79x5i4bfv2IPVa21gu3ErsnMLmXg9ftIRqenZzLJI8VO4fQcOs7i2bNvFyhgS\r\nGoX9B49g3fqNSMvIYUJ4956DzO+uPQewc/d+ti/EvWjJcmyw2YyDh47hp59n4KzHeSYoKY6D9sfg\r\neMaNnTcKR3mgdLwvBLAynDx9hpU9KiYBQSERSE7JZGkK3d+Ub/pledh7EM8+/zIrG1lIhWPURd6W\r\nACToTWKd7R4sXLqBi8Dth6/LOo8yMjIyMjJ3KmS5E0PD6KR+OoIE254DDqzrl3rqSATabtp/1QKQ\r\nOOFwjonSTdsOcUtgB/FYtQAKAoTES0BgqHGcnoUAFFkAaeZwYGw1Np5thVdCIzRaLQAt4vKV2Hmh\r\nFSd9yg1dwIVIz8jB7v32uOAfzMQWCSMSfAFBYUzM0d9kCfT1D2aCa/PWnUyACf5IKJEoSkxOZ+KK\r\n9klYkeCicCTAyL9/YCgrB/lPScti+SYBdc7bDw5OrrA/cgKnHJyZWNu+cy+Lh8KR0BK6o8nfqjUb\r\nmLgjAUqijdL0DwhlIpCslH4BIewYxbNtxx6ERcQwcUj5o/RJRFJa62028fJs2cHyetb9PM77+DP/\r\nJE4pn3R+KYxw/kmgrli1DkkpGVi2Yg2zyHZGAAqWPqpYNpv2Yd9BRzi7+VtUABkZGRkZGZm/FhJ5\r\nJP5IsJHoI0sgddtejZgU2Ln3JA4fc2NrL1OvHxmBaIxhW0vFGSeB+AVGs1ml6dk0CaTQCJv8QPvZ\r\nfPJGFh3PKobbWX+cPOVhFIA5uYUIiq/CD7uaMcO+CekVKlQ2arDduxUfblXjiM9l5OblIzubC0wa\r\ny0bxksAJDo1kIoqsYST6SATR39GxiQiPjIWPbyATSGQpI5FI4WPjk9m4RPolyBpIgis+MZUJKQpD\r\ncQtiSRBVBPklQUW/gqCMiUtiIpLC074QhoQj/U1+KD5yJ3+Ut4SkNLZP6VJcJM6oDCTqSEiSiKQ4\r\nKE5yo3xSeah7neIMj4hl8RJsjGWWSWCLoXhIDNKv2J0LwEKc940QTQIxhyoZVQgaDHq1bxUyMjIy\r\nMjIy1xfqkTtgzyeAEGRNvJbnNGk54yQQBz4JpEMBSNYiZzdftpZfRg7NOCVLoDmZ2dR1W4jsnBJE\r\nRafCgT5H5uCOoOAY5OSVIjcnH1HppTgYcBEH/WtwPLACpwKrcMy3ESd9WxEUTRbAPGTk0ixYPmuW\r\nBIwgbASRQ1Y3segRjpOQEvzRccEqKfgRCzxCmEwiFVOCsBP7E6xt4n2xXyF+wV2IWxxGOE75CwmL\r\nQkpqFnMT4hCHEZdNCCvNY2fgs6QL4e0X2aYAJK6lQsnIyMjIyMjcGOj5LCA9dqNhApCWDqFPi/kG\r\nRiI9m5Y9oRmxImhh6JwSZOcUIzklF65nL+A0LTzs6ImIyETk5NBxEjH5yMnLRk5+NguTlpePrPw8\r\nFJNQyi1CRm4uMnLz+ASGXC5gpKLmdkAQe1cr7DqL0AXsHxSLkw7y2D4ZGRkZGRmZzmEUgPw7sx7w\r\n8g5GREwK4pOzEZfEof3YxCwEh8XD1d0XDo5ejDMu55Ccmo2sbC7+skmYZJPAo67MIrbcS3YOWbhI\r\nDFHXptC9adnNKXPlsK753GJEx2ewhaBp3R/2VRcrF1pGRkZGRkZGRsAoAPkXJDxx0tGdf1rMicSE\r\nl5ETDp446eDJvzhhEIBhEQkGy59IlBjHsJnGs11LN6dMe9B6gWSxLYVfYAxb9oUsgUKfvxjphZeR\r\nkZGRkZG5c7mLWf9oPJ8jiTt3nHQ4y7qDLTjtwQTgaScvuLj5ICwiEVnZNB6vLQFo2pfF342BjwGk\r\nsZQlrOs+KCwBZ1wvsOtE1+vEaXcD/PqRiJeRkZGRkbkpEJ5NHWIlbFvhpX6Yvyvxa8XfrZ6+A1+q\r\nRkBYJeQusua5ul2An38EgoKjGMGhMRYEhUQjLDwesXFpSM/IQ05esYX4k/m7oOtAE3QKkZicgZjY\r\nVISGxyEoxPI6ysjIyMjI/N3Q84l0RWexDG/p50r9Sv1diV/p8avxK/V3JX6lx9vzGxwSy77aRnj7\r\nhMLpzDk4OnnhLg/PQKSk0vIuNMmjiEHiLiePJjKIITey5snj925WhHUas3NptjR9Wk9GRkZGRubm\r\nw1JjyNw4SpGTW4rsnFKm9chIRHM47kpIzGIHaCIHW+vPyjp0HHLPM9CWn5uHtsshIyMjIyMjc7Ng\r\nMl6YL+fWmfkD5v7a9nu1cV6JX+mxtvzdKL/SY0Zooi6bmMvJyS1BWHgc7mKzdXOEde8EgWeNW0NQ\r\n0YLKtM5e6aUKVNc2oq5BcQfSJCMjIyMjc1NTW0/P6CbU1DXgUnkF8gpIi4iNTSYys3PNkB43IvGX\r\nmW3Fz5XGeU1+LY9b90dxSuM1nQtLv5bxteWXC2wS2hwSyvRxjbuYIjSqZsuIzDNiKbhuOIYvh3QG\r\nKmRh8SXUN7agRam1iqJVc0vSIkF63Bw1FK0qGRkZGRmZm54WpZrR0KRAycWyNsRQW3TWnxjrIvPv\r\nh5bOoyF5XMhmZefwXwt/V4qlfiOL4V1SR3P+/m5foSvXWpeu2OxJlj+y+pEAalXpmAi8VFaFopIy\r\nFJeW41J5FRqaWkUiiQQhiSnVVdPaqkarUmuBUJnFtCrVUBp+xftSf9yvZZyqVi3Urfy3tUWDFoLE\r\noNXw5rC0RPk23nRtIL052/PbUTgZGRkZmVsf6XOmLaThriR8q4qezSqUXiqXWLksu0Vz6KMS+dnI\r\nyqUuTeo+zkNObhHS6YtduYb5CrkFyMor5L9G3UBfFiO4tZH88bkNeW3Occhm8XGtIfZP8yIKi0uN\r\n8yPahofPyROXQRxGSCcfubm5yM7OQXpGGrKyk5Gbm4P8PPrimFj3SPNo0mrStNs6f50SgCySaxCA\r\nwkm7EqgLt6DoIiO/sNTiG7hSSBySv+YWqnwaVFTVIb/AFE4YX0Bf6Kitb+YCkAkrDRNGVw+JK60E\r\nnUWlJkiESWlLAFrGaRKABAlAZasOrW0IQJWawvA0VCoNQ0li1ZBv4w1pUR7TcR5Xx34FZAEoIyMj\r\nc5siecaQUFPr9FBpdVCqzY0eFmGthG9RWX92CXHTsye/sFgkAq3oj9xCZNJqJCTk8gqRSf5I7OXk\r\nIjufjtNnZ/ORyQSgSYdw4cdXMZF2lQpiSYogmPjfNMysEEUlpYiIisZB+yPMraCIJreQH6n1jUQZ\r\njyclLVMUn1hM0vFCZGdnITrMB04ndyIq1AuRIa6ICPJBRGi0Uc9Y11TmAtBy38r5yyloWwCSYCK1\r\nGhOXgMTkVCuKs334kiTpiIlLavObvNagQgaHRGLdho3YtGUH3D294eR8tkMRSKJPqdIxgUfpUbqe\r\n5y6wcpCQpK5hOnEUD1kCqTtYLACVTMQo2a+yVYnWFqq4av53ixqtChVaWpQGv2q00j65kyBrVUKr\r\n1qNVqYOiSYkW6oJVKXn8ShJTKqgEQaZUQ03pCDeLSrDSUX5oX2MUfWT5E/bVSg3UrWqoWrigq62u\r\nQwOlpaJ4NGhRqVhYSqu2ppZZB+l8NNY1oL6plYtFlmdeLma9lIg4laG8rUolqmtqWTjhhpYFoIyM\r\njMydCevlMTyzSPDRmD0Pr3M45eDEBAYZHZi/NgQgE3YG40RVTR0CAoNZPNLeKmYUoWeRSoPq6lpk\r\nZ+dxLARMIXKzclHmfRpVDjtREBnLxGCZ73lUnt6GohAvZOaTKBSMWKawpE0ofE5uAXJzC5CXV4y8\r\nfPrNZ7/WJpKIBSCNU3Rwcsbc+Qvx7nsf4NHHn8Qvv87AoiV/IjI61qoIpLBpGTk47xPIxuCZrHAG\r\n618urembh9BAfzge2onfPp+CNfN/gsO+FTi8bSW++PQzxMaTlqKw1kSgYMEsQGp6JqZ99iXcPc8h\r\nr4B001UIQDKlxsQl47SjC5JTs5j1zDJR65AAI6GVkpoFBydXxMR2TgSSn5CwKPzw0684fOQk9h04\r\njHETnsWs2fNZV67UvzicMO6P/JHoW/LnShYPxbHeZhPWrrczitGLZZVGAUhCTK3SAVpAqVFDr9VD\r\nr+YWM51OC7Vaw47r1Gpo1Fpo2N8UhsKSO6DT6pCenIrK2gaEBoWjsVkJHXRQ6wGtVg+VTscqtFan\r\nZ3AxqIJWq4NWp4NSw9+mdORPrYFeB+i1JtQqPbtxEuNiUVFRCdoiQ0KRV1QOjZ7ewoBWtRpqDYVX\r\nIdTPB42tOugBpEbHIKuwBFqdlglbrZrKBKhIVKp00Gh0vIzkbgivhRbhISHILSpjN6nQAEhFn4yM\r\njIzMnQU9M48fOwlnZzd4eZ3Hnj37UF5eYRxq1Bb0DNTrgZCQMCxcuBiXLpWz549Fz5jBINPc3II8\r\nEkhZucghg1R2gZGs3GKURQWjzPkQStKSUeS0H+X+bih0P4Xi1BSUntyEwuxMZLFu4TzkkE4whM3N\r\nKUB+XiHCohNxyicAB519semQL1Zvd8OeU0HIyS+10Bi8S5mLNtJCpEkO2h+Df2Aowy8gBAsXL8PJ\r\n02eYwUkangnA9Byc9w5hn8kVuqCZpiJLZn4hYuLj4HrmBE4d2onP33kZn/3nJRyyWYgtqxfj3w8/\r\njoWLVyC/kAxZFM5SBwnQcLgzLh6IjU+2OCbFqgCkTFHg3XsP4qzHefgHhOKCXxCiYxM7FHIUloQW\r\n+Q8ICmNWuH37D7P4OhKQZKXbYLsZpxyc2Zg9svz9Pmsujhw7xbp4pf4JoWu3WaFGk0JlFKq79hzA\r\nb7/Phq9/MLtAlBea9ULH6AI1t5B1TgONRovi4lKc93JnayAG+PvDNzgM5RdL4OPmirjkLBTkp8PV\r\n+QyCQkKRkZaBqopKpKalozivGGecvdj++uVL4OHth/jYBOTlFsPD3RVOnt7w9fFCQEAQqptbEeTj\r\nCf+AYNS06qFTq5AUHQjnM67IK7kIX/9zcHQ/h6qqSvhdCICHmycCAkLh7uKByso6NDfVIjQgEuWX\r\nyxCfEANXB0dkF1xCSloG4hMTUVPbgKi4BGRmZsDXywPBkfHIyruIjLg4nA8MRUx0NBoaG5Gbk4eI\r\niFiUlJShorIG0dGxKCoqQXF+CaKTElFacgkx8dE4c/o08orL0armYzJkASgjIyNzZ0MCra6uAfb2\r\nR3Dy5GnY2NjB0fEMkhJToFZRb5hlGCGcn18ANm3agmPHTiA8LBI7d+7G9m07mcBjw5REApCgHquC\r\n/CKrApCseIVpObjsdBDF4T4oDb+AAl9n5MdFo9j7NIp9XZmFLycnm42pI9FnFIC5+cjPL4BfcBT8\r\nE+Lh6BuGdbvO4bs527HpgA9yC0nAWVrMBAFIWmTHzn1YtmIN0xKkOWj+wZZtu/DHnAXG5WykYdPS\r\nc+HtE4bMbNMYRCHOrIJiuLi7YteujdjvchC/fP8Jvn7/DZzYsgprF8/DQ/8ejFdfe5+t48fDWmoh\r\nIZ30zFymo4JDI5lek+ZFjFUBKHShkogiAUjqlgRdZ7pzBQFIwovCURfunn2HEJeQ0m5GCBKAZKkj\r\nFV1y8TLDzf0cU9rWVLUAXYCWVi2zAorToBNB+SXxt3X7biQmpUsEoBY6HRASGoJTLp4I9nbD0WPH\r\nsGvnDtgfOIi9h0+ioDAXh3ZuQ2lFA2IjI3HG1R1FhcU4fPwEdmzbC08PD2zdsh2njh9jYw0OHTgE\r\nb28vOLr5wt5+H/yDAuF4eC+OnjiFg8ecsHnzTiRmFKCqLB8H9x9CTWMjvEmwRSQiNT4KR48ew5Yd\r\nexEbEwWbbfsRHuwNF69QFOSlID0tF+HBYbhcWQH/cz5szEN8UhJOODghLCoSnuf8cbm8HL4erigs\r\nrYC3tw9iw8MRl5aF7KxkeJy/gNDgUNTU1sHL0x/5+cUIDAiCh4cXgv39kZGbiwC/AFyuroWvtzdy\r\nCy8ZB+XKAlBGRkbmzkYYV37ixCm4u3vCx8eXibqLpWUdCsCKy1XYv+8gUlLSWC8WCcdz57yhaG5l\r\nPW5iK6Aw3KqQujCzclgXcDYTfgay+WdQ8zIyUeV0AOUHFqPk9CbU7JmHCn9nZOfR+D8+mYIsgEIY\r\nHp6Gt+XDNyga2w+6Y/shbyxddwxTPp2D3fZnkV90Gdm0bp64K1hkASRNkZCUhm+//9loVCLtQkPW\r\nho8YY9VQRn5S03Nx3ifUYAEUoK5oLirPODrgh+8+xxcrf8fXn7yNhdM/RajLXoR7HcPWDctgu341\r\nK0NOBwKQupqXr1zLhtJRT2x7usuqACQEEci7gDM7jEgKhU9KyWBdwGT962gMH5GbV4zAoHD8+PNv\r\nzAro4OjK9klMtpc2xU0TQAg6kSQIHc+44dcZf8DGbgsWLVmO7374xSgk6WKx2cJMAOoRHh6M0MhE\r\n+J13h739CURFkYXsIgK9vbB73xHY7z2Ei1X1SE9MxJETJxEREYVte49ii50NfAICkZyRC6dTp5Cc\r\nnY2DB/bjgr83oqOT4eLuhqSUNDif2I8D+45i/+FTiIxORmFBCRKTYnDQ/hSam5Tw8nBHcGQC0uIT\r\ncezIMRw/5YTiwnwcPHkGySnhOO7sh4jwaNTVNyDY5zwqKivhf84X53x9EBAZAU9Pb6RlZCI9MxXn\r\nPHwR4n0eFU1KBHq7IzgoCFHJ6UhNT4LXBX8EBoezN7hzXr446+qB9LRMuLi4ITQ4GOUVlfD1C0B5\r\nVT28PDyRU1AqC0AZGRkZGSMk0Gpr6ln3r6vrWfbr4OCEpiZFu93AtNGzc9++A8zosG3rDlRV1UCl\r\n0qJFYRhfLwpPwpCsdWQBtGaRy8kpQkF6Mgo97HHZaQcu7V+OCvdDKPY5gZx8En98LB6bCGEmmPKQ\r\nV1CIk2e88OqUX/Hqe7/htSm/4433Z2DLbgdkZBYjL6fYEN4QRiQASWMsXroCO3btY0Yq0hPUY0lG\r\npu079lrtrSSxl5KWh3PGLmCRoKS5CTmFyEtPR8g5dxzeaosZ33yCtXO/RYjLQUR5HsHi6R/D9YQ9\r\nCvNLWbnNy2MOWSDJ8CYYvKTHxbQpACkgCSsSgWS9kx7vCApP4Tor/gSzaV5+CTNd0rg9W7utbEwg\r\nhbe2DIw4bE1dE1v+pbyihv2dnpWHlLQs1h/u4enDJpWQMqc0LlfWGsYA8jF+hYV5yM27iJaGenif\r\n80ZIWCRysrPh6X4OGbmFKMrOgrOLGzJzi+FzwR8e7h6IS8pAXk4OXNw9kFtQipzMHPiyrtY45OTm\r\noqi4FOkZmSi9WIak+DhculSBC+d9EBweh6z0TKTk5CEpOhLuZ31QcqkKvue94Ol5gYm7+LgkVFfU\r\nID4xC5cul8EvJAoRsdHQa7WoLL2I6OgYxEXGoqgkHxFxkYiKTUFWfh7i4hPZGwLlt6VZhdwcEu4F\r\nCIuORVR8Cps0kpGdjojwSFwsLWfjImJj45GeloH8giLUNzShrLwakdHxrMu4orqh05NAZGRkZGRu\r\nc1pUBrFGY+J1DOpFCwoKYWKQrIMWYQzCjsbDuzi74dQpB6QkpzEBmJqaweKgeMUWQIqHDBXZ2dR9\r\na1gbz0JjFKMgPhIVpzej3GUXSs4eQJnbYVxy2Ia8nGxDGGFZFHFYPjGDJktExMYhIjYe0bFpiIxO\r\nREhYOLIy85FL3bTtCMAFi/7EmrW2rHeTekr3HzyCn6f/zgxmBawLWZpXEoC5OHc+GJnZlsux0LO4\r\nIDsbUX4+WD77N7z1/Dj88cP7sJ3/HXYu/w2+Z/YhPT4aufSp3nYEIMVFVsmPPvmMiUAyhkn9iGlX\r\nAIppT4BZg88ibr//Wepf2CfBR6qarHUdiUchb6UXK5ioIytgcQmtIcSXfsnMMglL2qdJIuRHPAtY\r\nreZr76laWwGdnk2IYJM2tHpo2DIqWmhoMgf9qnXQ0sBVtQYqugF0YFYyGkuoVCuh0aihVvOZtDSh\r\nQ6nUQKsBm3yh0+ihJDM5zehVKqHWgE34UGv07JfSI/+UvkKhhFZDkz+AxkYFahuamJlcraR86KBR\r\n6fgsYZUeGjW58XCUR5qkomppRSubYczdNWqwmcBK5o8G3moMZaB8a/nUe7pZVVQ2HZsQ0ixaUFoW\r\ngDIyMjIyjBbTviDYaCKI0HUrRRB2tbX17HlEopH8NtBzjXX5igSgYYWKSxfLmfUvj8SX2ZrE/Nmf\r\nQWP8svJREhCEwohIFGVmIdfPDxkxscjN48KHdZkauo3NtQPFRxMwzMfj0conwoQRCmv0LxKARFhE\r\nDI4eP22G0Fsq7f7lOqWIWf7iEtLZZ9nM9RXlL4+NVcxMTcLW9avw4VuvYPo3H2LLyt8Q4LoXJbmp\r\nTAjThzGEcNI0xFA3sNTNGjdMAF4L0rTbK6xwjH5pKRgSMDQZhAZlii8EdS/T7F86Rn7EApAqHFVG\r\nQjBBm8YimFd2evsRzNUmdwpHS600Q6lsgVJJcdEvxWOIyyx8KxN49Lcw+FV6wxjHRbTS7F0Orf/X\r\nNpZxmEHHBb9CXqxM128LWQDKyMjIyLRFW9Y/QmzZE+8LYcwEoFLNloDJoYWWSRgxC6B4WRX+TCeR\r\nlpdFkzpKkEPLutCYfxJ1eXy4Gok+PuuX9i01RCaJSDGGGbmmiSYi/2ItJFqrmA8549C+NfHHw5PA\r\nLEGOQZiK4+PWSSpXDrJzc1FQUIiUlBRERkYjNSMTuQWCBjJpnY40UWeNb20KQCGizkRyvTGdmCsT\r\ngFRoEoHC1z7qG1pQW9fM1gakpVkE4WeCKh9fE48qIK+EBjfRmkQCYn+mdfS4H77fysQfC0d+mLAT\r\nZjYZ4qJ1+EgECmsKGtITp8OEmcHMTusMsq9+dISVOMwgq6cVv1Kh1xYW8d1xGM4f+xRfB+daRkZG\r\n5g5FKv6kIlCKcEwQgyT+hLF/Odl5DHMByI1RxiVh2D73xxaDZoKRCzhh2RfrFkCpG+kI0UxjkQWQ\r\nxcesgJZhOobyY1j6hbpvhfwZrYrkx1RG5pZXhJz8i8jKLUVWHs38NXXlcouhNA0TndFNAu0KwFsR\r\nslRSNy+JPmFiiPR7wNYQRKMgDAXE39iV/s2/KGJ+nMPjM8VlnoZ5nNbdTfG1fZzRQZ46wlqZrLm1\r\niTW/1tzawppfa25tYc2vNTcZGRkZmaumw2eR4I960ww9ZUYMPWxtoVC0su7g0tJLzOpH4k8sAK1i\r\nsBBa7Lflp7MIYa40XIfQUjZSNyuI0iVRyGYtS/20hSAgO2lAu4ubFW8vhJW2ySRbUHQJhcVl7FdG\r\nRkZGRkbmRnERhYUl1ilom/z8IvZVDvrqh7lQov02IGHExJHo7478dAYhzJWGaxexUJMeawupwJMe\r\ntwL78gmJPtMag+2JwLuoL1sgJ+/2wHp5xGvvyMi0AdUTua7IyMjIXDH0BTFapy6Hxrt1lhyCukeL\r\n2S+50bg+masjm8ZA0rJ9rBuZvk9cijzSRHmFFtwVGh6FMAO0HxoWyaClUIR9a243+/HQcAlW/LdH\r\nh/FbcWvruDX3W4W28m/NraPjnTlX1vatuV3L8bbKJPUn5Urcr8WtLXdrbm25X4tbW+7W3Npyvxa3\r\nttytubXlfi1ubblbc2vL/Vrc2nK35taW+7W4teVuza0t92txa8vdmltb7tfi1pa7Nbe23K/FrS13\r\na25tuV+LW1vuYrd2j5OeiLhyQg1I3WU6RjhvdO6DwqIQGBqJoLAEhESkISQ8EeHhcQgPj7LgrlEj\r\n34PAyJFTMHKEAdrvBCMMSN07y98d/kZxM+bpWrkRZbrW63fdwl9hvZeRkZGRkfIORo58EyNHvtEp\r\nRhiQustcLW9hxKh3MWLk+xgx8hM8Pfht2G3eh8bGFrbodnV1Daqqqo3c1bvPRPTuM4HRywD7uzf9\r\n0rFJBkz+hOPkt2ffcQwWjoURc/OE79WbmNgpLOORQnFONvya54l+e/YZz/PVZ7yVsLcmPdm55r/M\r\nzeIctXFOjNC5GGf4FV8/Ti8K1/vvCD+R0auvkH/CWvnEdFRWgXbqrwWdjfNK/Mrpy+nL6cvp36D0\r\n2TN1ggF6dgrP2PHo2WscekkgNwH2d+9x6G6A9qV+ZK4cOvfserDrPRF3/3Mo1m3Yxb7CotezH0AP\r\n6LWcu3r3n4i26NN/Ivr2n8yg/d79JxiOmX57DRjHMLndnOH79p+EPv06hzQeKaY8kV9puhPQc8BY\r\n9Ow/Fr36j0PvfhPQu9/4W55e/cejZ//x6DWAyisgLjedi8kG+Hno038C+jLoWoxHb7pOkmvVawDn\r\nbwlvCMvCD5iEPm2G5/umdAV/prrC6xrH/LyYx0m/5nEK7tL8m8fJ6780TlP9E+dVnJY0Tp6+tTil\r\n6cvll8svl18uf0flF9yl4dvLvwGz9tfKcZmrgp9zum4TcW/XEbCx2810X3NzCy74+OFSSRmgBXRq\r\n4C66MFLYBR1AF50imsTFE8PSX68BJAro4cr935zhSbA9i779nkWffpPRt98E9O03Hn37TUSfftzd\r\nJBQNYpMJHXFaghudWJ4nQjjpgh8SEX0feB59H3we/R54Af0fePH24MGX0PehF9HngRfQe8CzZuWm\r\nxoFfH474mKkBGI8+AwyIzhcJSiYqmQD7G8N3mH8xVEf4CwAvu1DXBL+8/vE4hDhN8Qr+zOMlf0K8\r\nPA5p+kJja+1cdxynKa9iv6Z7xTJOafpy+eXyy+WXyy+O0+T3SsIL5TEXgGJ3cRxtuYndrbndqeHF\r\n15cE4AaDAAwICMTq1WtxxP4oFI2tTARaFYBcVJFlbXwbCZisar0NfnnFvFnCc6ugeXhuBu/bbxL6\r\n9xuP/v3GoV+/Cdzi15duCpMApBuCxSkWC8Y8UVqGE2/2BsP9PvL423hyyCd4YuhUPDl0Kp5iTOuA\r\n9vy0d6wzfto71nk/A4dNxZPDqVwf4/5H3kRPdp7o3JCoGmdssPj5F6DGgL8VsmMGAWaqoNT4mCy4\r\nNyI8NVSdCi96gbCePsVlWf94nLz8xkZVqJNm9UdUV6zGKbyokPsEQ5ymvNK+UP+McbZhARWOU/z9\r\nRC81LM5bofyUF0leaf9qy0+Yyj/uispvqj9XUn4hzqss/3W+/ublvwWuv1z+W6b8pvSFNMXhubvl\r\n89uEcF6shTcThaI4jW5m5b+K8OJ8itytuVkNf63p36Dw4vNLAtB28z5U1FRgnc16rNuwHqtWrUZg\r\nYDD7HF+7AlBcgcWIK4CpslsKuM6EN/m9uvCdSZ/EQc8+o7Bpy1FkZuchOS0DyanpSE7NQGpGLr74\r\naj669RhljJf8S+MU0qG4TW7iCzAeAx54HoOGfISBQ6fhyaGfYeDQz/CUkU9F+x25teXeWbe23Dvr\r\nZuk+cNg0PE4icNg0PDroA/QiKyB7QLYtAIVuVeNb7RUKMMvwlg9woVG0Ft5SAFoLT9eVXhQsw5un\r\nb9kAMrereABYj7OzAsh6nBbniiF+qJAfylPnBVBH5Rc/AIUuh+tRfmY9kZbf+ACUWnDN8yp9AIrL\r\nb73+Ga6/lfJ3RgBSeH5OpeUn986X3zyvggAwxXk9rr/1+n/1119c/y3Lf2XX3yyvN6j+y+W/vuXn\r\n9V/wK6QpDm9yE2NK31SGjsKbnz9LNzm8yV18flkX8MY9UGlbkZicgPikBMTHJ6Ck5CK0Wr11Acgb\r\nYPNGUYx5BTD4FT1ArYWXurGHh9i9g/BXlD5zp7cXSmMSerOu3rGIikk1jII032xsD+DeLiPQt/9z\r\nhnjpZjYXNdbyxN5uDCe/V/+J6PfASxg4ZKpBAH7KGGjAJKzMEY6LkfppD2nYtsJL/bSHNKwQ/gkq\r\n17BpeGzQB+jDBKDpoWp2roznhdyoMTP4aeMBLL1+vFtWONf8GvJjhviERpGlY/6gNUvf0ACaGjDz\r\nfHLIj7ghNl1TXn+sNYDiMLx8VJZ+/SaiH7mZ5V+aJ54md5uEXv0nMygNU14N51UsAIznykqcFnk1\r\nlUXIqxCH+EElPv9m5ac8DeBv96Z4pQ8r8/ILeeXhpXk1+ecNlfiamufVdEyA4hDi579m5TY2fuJr\r\nLc6TkLYpPoqHnwdedukLQNv1x1R+S6RlEf9tqvM8v/ya035f9rCfgL4DBGsNiQrhnhHXVek5vbLr\r\nz/4W7keLOiVtf63FaSqjtfovxMvz1U5e2d+WcZrHaxmnXP524rTIq7U4r3/5WX02K5e1slpian+s\r\n+23XTSyA2hFL5ufG5E8soIS8SPMnDtdR+lb9WnP7C8OLzy/rArblXcBs9oew6QGdpg0B2BGmtwrz\r\nCtwevKE1vG0YMi/101k6Tp9XWhJ+3XuNYfTsMQohoXGs7PTdwaysXOO5WLNmF+6+eyh60Eya3sLD\r\ngd6UzB+M7dGLzO0PvIwnh5jEnxipoBJEldRfW36tcSXh2/JrDWlYgtyfGEL70/DEoA/QdwCdY5G4\r\nM2usDLBjY9F7wBj25skbG9MbqIV/hvit1PTAF/uR/t2WG9FWXeH+xV0k1upSWw2gZf5J/A3oNxH9\r\n6WXD6G7lnIiO0Y3bfcCz6DFgMnoaBBcXXSZ/4nulrTJy2noAiBGLP2l4MSROTPkR4hQeEjxP5mUT\r\n8mkt7+IXNsu0zP3Tr/kLnlBnzC0sPSUWFv5AMlxLVu+kFkTenUW//N4eg779qW5aWgBN8Dh5/ZGW\r\nn/sR1x+TG88P/yXGoZ8o/z0HTEb3AdzS2fe+ceh731j0u288+g+YwDDeU4ZxZO1fd1Ne27v+Yrer\r\ni7P9+n9l8VrG2Va8nY9TLv/fXX4hbqmb9Hh74a3RVpzkbk0Aio/3FAk/qQCk+5Paa+JK8nOzI5xf\r\nQjwGUK1WorKiAi1NCq4F2xoD2BHih6pQmTpC6JYVm7Cvlo7TJ/E3GQ88/DxGjnsXo8e/izFjP0K0\r\nwQJYW1OH/fuOGAXgnr0OGDb8Pxg34QOMHP0u+t9HDw5zC2BHCAKQLIBSQUU8NvgT/PuJD/DI4x/g\r\nsSc/xsAhvIuYHxd+TQJsEO0/PRUDB9EYPC68BDFGx1i37NBP8fjgqXh8yDQ89vTHeHjgRwZ/vCv3\r\nycFT8diTH+HJIeSPhCmHLJRcEPI4yO2JYdO4hc8o+sTdwSIBSP46EIA9+09El+6jcG/3Ebi3+3B0\r\n7TEcXXsOR48+Y5g//jAUwogbQdoXhgXwh3KPPuPRqw/55eM5yR+vT/TLuyCo+50qe+++45l/Fpdg\r\nFTJO8DHVD3F61sSheX7abgB5nBPQrddI9Ow1molA1pAwiw5Zdybz5XP6T8K99BLSm5eDW4QmoVuv\r\ncejWewx69JuMHv0mokuf8ejWk4QJj5c3VjxdJhYs8tdWXk3uZnntMwFdu41A127D2bILzAIo8idc\r\nT2aZHDAJXXuPRQ+axc6utSDIuH9auuFf3YejOy2tI9QFg8jp0XsMuvYcy61Z/WiJiLFcnA2YxCxe\r\npmvP6UlxsPNG0DUxTcoSxJy5ALS0sIpFY69+Y9GlB5VzGL8uAyahR+/x6N5jDLr3HoWuPcl9BHr0\r\nGY17eo9A9z5juCXO7FxyhPrDx1JOYnnt1mOk4bwJlhBev3qxJYmo/OPQo+cIVgeorvejtqQvhRvN\r\nZtR3p2WHmACciH73kQgcj34DJhgQWcuv4AW0o+tv6b8ztF//Lf13Fss4iWuLVy7/31F+of3o0W8c\r\nuvUczdypjt/bc7RBmAn31SR07z0WvfqOR8/e1Dbw3ghjW05tfd/x6EL3CN3DfcaxfZ6e+MXL1Ab1\r\nZOmMZD1GPH+8PWH+BkxEt96j0a33KMMkQUEAmu5zEoD00s56bW4jhOtD8FnAe5jOOevuCpsNG3Bg\r\n735UXq5iIvCaBKDQ4HYGCkcXWWo5uBo6Tn8iunYfhfmLNqNZpUVdUyvqG1uhVGvZiSgpKcO8OWvZ\r\nIEjalEoNO97YrER1bRMmPvsRevTila+ztCcAH3t6Kia+PRfrtxzF9h1n8MfMdXhy+Gd46OmP8cig\r\nz/DEkGl4aNA0PDR4Kh4Z9gUTbo88OhU/zziGH39eiwef/IgLtEEfYuCQT/Dk05/jsaem4bGnPsPI\r\nyb9i2KhP8ObnSzFv3gY88eSHeGzY53jw6WkY98I8LFu6A0+P/hpjXvgJjw6cgicHfcImfTw2iHdV\r\nDxr6CR5/8kM8SkKS0hg2DQOf/giPDPyA+SM/RgFIYrADAUhCpv+T72D+0u1YsWIzVqzajYUz7DB3\r\nxiq88sLb6N5tDHr2HIcevcaiV+/R6NWHHtAj2LqJXfqMYV1jPfqPRdfeo3Fv90n46KvVmPbJL7in\r\n6yj06j8WffqPQZfe43FvX36T9+wzGd16jWcP5vsefQ5PPPkSuvccw9dh7D0BffqSJYYe4uPQpRcX\r\nK9Td1nfAs+jOBNg4tlyP9Hpy2m8AqaHp3mskpnw4F2+9Ng3d+wxmeerRhxqfSejR50U8OewddH/g\r\nOUz5aRneeHUKE8R9+o/CvV3H440p8/DFlO/xwKMvYcDDkzDx7R/xyw+/oXefEejSewy69KXxZ8+i\r\nR++J6NprAnr1M51no2CymleTu5DXnj1HYuTIr7Fk5SGsXr8Tz058k42L7dF7LLr0ofNK52gMazBJ\r\nLN07YBxmLtuEoSNewT10fns/i95MDI1Dr77jMPnlH7Fq5S688PwH6NF3rEH8Po/uvSdh8uvT8en7\r\nP6JH91EYOuJ9LFu6EwMG8GvSpe8YPhaR1guja9TvWTw99FX0HTDKcM1I8JPwIsFoqGOGMpsaNkF0\r\nCdeFfmn4Bg1LGIc+D07GzzPWY7Pdbrz92je4u8cojH7hF+zffRTvTfsVGzYfwNp1+/HLnPmY9tNC\r\nvPr6++jWfRR69BmLnn3ogfAcevUdy9oANnGs/2T0v+959OszEcPGTMM33/2BPv2GsXNGD7Ruvcai\r\nZ68xeOSJ13HfwxPw/Ou/4Ofv5qJrj1HoOWAMevcYj6FDp+HXGSvR76GXMGjoe0wk96RyspcEWmqJ\r\n9zr06cctl9KXqo5p//pb+u8M7dd/S/+dxTJO4trilcv/V5dfoHffcRg47FN8/fVC9OszDv9+6nVM\r\n/3o+nqDnQd+R6NZnNHoPeB7zlmzCq29OxbxFdujT7xl06zWKtT3d+09Gt/7D8fTYDzFrxhI80OcZ\r\nDHzmQ/z++3I8+sAo9OhFL2lj+UsctQ8k5HqOxxPDPsOvs1ahZ/9x6NZnPDtOkzq79ZmAf/Ychbff\r\n+wPvvfs1uvUdg759J+OeniPRs/8EdL+P9/z06TUW9/YezXqp+rT5DLj1EF8bNglk017UN9Vhvc16\r\nrN+wDqtXr0ZkZBTTPtdBAHYOaWW/FqRxW2Io+EZ7VkiSfaT1tHqu+NLTc/Dh+z9z9SfZyDL64suf\r\no3tPEoCdz3N7AvDhJz/EF/MPIb+wGIsW70Z4XD4W/bkFz736O975cA5GjP0E73+yFG/85zc8Nugd\r\nPDP2J0yZsgQnnBKwcc9hTH7lJwwb8TlefPNXDBn5AUY8/xumfboGz700Gw5+8Ti8+SC++mkTbNbu\r\nw+tv/oqnhnyGMRN/wsdfbIDtGnvMW3UEYcGRmPrJHEyc/C0eHfIZXn/rR4wY8RGeGPIZfp67Ay89\r\n9w0efWoK7h/8Lka88D3mzLbB4GGfYCDr9u28ACQryH2Pv45vfl2H84Gp8D5/Ht9+NQ+LlmzGh29+\r\njlGjP8Rzz3+GUUPfxuQXvsDwEa+he48RGDTqIzz/8pfofv94PPTkG3jl7a/x+KDXsXzTGRzYexCT\r\nn/0MjzwwGfcOeBaTX/4OY0ZMYQ/eJwZPwYtvfIV+D07Cgo2H4XrcCY8/8SxGjvoEL776OR74Ny2M\r\nOQ6PPTMVX307E337DkevfpPQtcc4vP3OL3jttU+ZYOMDnqXXtf0GkETno4++hLj0iwjx8MZ9fUej\r\nd6/nMXDkVLz0+vcYO/ZTnA+IxZffz8FPc9bih6++xYjBrzDRMHT4e/j6+5X4+vPF2LzfHZs2bseU\r\nT37Dgl/nolvfUZj00nSMGvkOK+MzY6bh5be+w0OPPY9eNHPd8IYrtWa29QCgxa8fHToNEeE52LF1\r\nLxav2I7vv5qPe3s8i5GTv8RzL37OFsnu/8BLeP7VrzBm4lQMfuZN+ITE4tWXPsBjQ97Ea2//gEcH\r\nvYo+fcayoRWOnhE4vN8ZricOoGu3p9Gd0uv7Au7t9ywcfKKQnxSJxx+cgJEvfIfgwAQM6D0Wz0z6\r\nDM9O+hj33z8Oo8a+i+cmfI7x78xEWHQipv3nQ/z7sdfw2uvfYsgzr6NPvzHof/9zZmURLLjie513\r\n65quUZdeE7BqmwMueAVg/pLDiInOw0fv/oj9ZyPgeeY0dtqfRFRoJFZsPg23c874cdYKfPDBpxg4\r\n+n1Mev5TjJvwEfr1HoVHn3wVr775JR5+fBL69B2L+wc8j27dX8TG3T4oLS3DuPGv494e4/HAU//B\r\ni2/+iMFDp2D7IR9s3rQW70z9BUtmr8bYMe+iR79RePzpd/DWm7Mxf6Edvp2/HR4XPPHyS5/jmeFv\r\noGuf8Rg+dioe/jetRjDWXABeUW9J29f/RgkAS/+dxTJO4trilcv/V5dfoEfP0XjpzTUIDAhGl38+\r\njUfGfonUiBQM7T8KgyZ8ihdfmIr7738R3kGJ+GH6LJz382eicez4r/H8S5+gz4DR6NV/MB549HWc\r\n94nB8vlLcdgpBFtWrkeP/kPxwiufYNS4tzF+/NsYO/5d9O07Bk8OfAMvvfULFi6xQ8++4zH+ha8x\r\nZuJH6H3/OAwb/zGeGf0Fdh4IwRabHbi721AMeOJ1fP/jbDx0/yT06DsZXXqMwYRJn2Pq+9+hG73M\r\nMaMA74GwPA+3FuJrQzrIbtM+1DXUYIPdBmywXY81a9cgLCyM6Z3rIACl1jfrSCv7tdBx+hPQhQ1+\r\nPMgKqdLrodbpoNFxC2B4eAIefmgctm3dg4CAMFRU1DDhx0UiCcDPrq8AHPghPp5nj+zsbCxauhP+\r\nCdnYtfs48gurcPqMD046+sPXJwQh4Sn4ffpSOLoE4exZf6TkVWD7sbMIj43DGy/9CP/wXHz762r4\r\nRKXjpMN5rFl/CNFpeQjxOIc/7Rxx4pgfgkOy8cFbc2HvGIn9e9xw/mwk9py6gLzsLBxzDMC5M+fx\r\n3JS5iIyKx9hRH+GBp6bB5sg5pMQmY/L4j/DY+F/hGZ2Nk4ecMXDQB4aZzJ0XgPxcjMH/98/BWG7j\r\njmWLl+OufwzGlmM+mPvDCkQl5OH0CSckpGXg8AkX+Pudw7RPfoCXZwjcnTywYsFSHDvtC/tjLvhx\r\n+lwsXnME8ZGJcL8QjHUrbDBr5S6ccvSA5zkfvPf+93Bzi8Cpk17Yv+8w9p09j8jgaMz4Yz0CgqNh\r\nt/UwXnr5A3TrPhIPP/0x/OOzYLvaFvfeMxT/eX8+stNy8OF/PkePXqbxW+bwiUR8MLRlA9i92wh8\r\nN3MTdm09jH0nz2Hqm9Mw8tW58AlLwK59x7FkqR2SMi9i08a9OHDyDA7s2QNfD08MHTwFHj5h2Lnt\r\nKNZtPIOzFxJw3tUdS5bvws4127Fg+XacdvTAOY/z+OKzBQgOSsLOnUfx5jvfsm4UcfepkCchnzyv\r\npjJQPsm69cmcrQg874on7x+PH6evw0fvTsfnv26Gn08gPL0CMPv3BVi57jDOup6He1AEjmzcCyfX\r\nC/jss5/hHRSP3bsOYerUX9Gj5xh06TUe2w6fR0lBERbMXY3fZy3AgH4j0aXneLw85XecOHECG3Y4\r\nYslPszB03FS4eQbi8++W4Ly7H867n8PvMxfCLzEdLqdc8NOiLcgqvoiVi9fAwTUIR4+4YtYfK9Cr\r\nL03KepY3yBYDt033P78uVG4+VKD/Q68jMDENb0x+D3f9v1GYb3scbodd4BORjLMnT8PJMxTRFwIx\r\nc+NhnHY5g217T2LugiU4H5+EA0ePITw2GW+98imcnC7g2DEXHD/mggf6P4N+Pcdj8Kjv4O7hi2Ur\r\n92HHxt2474GX4OwdhiOHXbF6+Q64+ifC1dUZM1dsxOHtJxDoHY3xk6di59Hz2L7RGU6nL2DVPjek\r\npKZh7XoHuLmfxcBn3sD5wHgMGfwiyz97WF9RF7BQD4Q6ann9pQJAENLW67yYtgQA7767ujgJyzg7\r\nitcyDinivHYuzo7jlctvLa9CnEYB2Gs0Jr+8EpkZhbBdvxc7DrsjLjQB0z6YC+fzITjj5oF5M9fA\r\nySMU3/48Ay5n/fH5dyvh7x0BV7dQrFxli569R6B3rxF4ZMSXKCxVIMzRGb26PYM5Ngfg4RUAl3NB\r\n8PA8Cz//EDw77j3Y2ntii+0hHDt5Ft9Mt4Wrix/cPEPw5U/zERCfjePH3LD5gBuWLFiFe7oNR59/\r\nv4HjXjE4fsAe/bs/gxHjv0FCQiHmfj8bXXuPRN/7JqLvfZMYlufh1sK6AKyGzUYb2NhtwNq1a6+P\r\nAOQNr3mFagtpHNdCR+mz7r6uw7HB7oBBAOqg1mmgoaWvAVwsrcDcOcuwetUmOJ/xxsXSSpEA1F83\r\nAUiC6fFhn+LfAz/ClHl7UVBYgB3bjuHr6YvxxofzEB+bjmeGfoGYxEK89/LnWLDuBPx9kxCbmIBx\r\nQ9+G3YEg7HXwQWRCEl6c/D38w7OwYa8nQkPDMeDfz6L/E9Nw3CsWC6f/gY8W7oHDLkcsX+cAn6Bw\r\nBPpG4eNv1iHQPxjfzN0O77OueHj4Z/CLzYFHQCw2b9iGJ5/4AI8P+xiPDvkQu474IDomA0GRmXA4\r\ndhpPDf4Ajw390jSe8EoE4ICx+Gf3kbDZ6IFVy1fjv7qPxC6XIMz6dRXcL4Rg1Igp8I9NxPjhnzBx\r\ncOjYYcSERmPLluPYtt4Wy1fvxOGjbpgzfRnW25zGiiU2mPj1Mri4n0FEaDwOHnTCAfuzsN19Emnp\r\n6dhudwT7tu3HrBXbsGPlZjz4+Gs4fOosjh05ibffmMq6m7v3mYDBIz5DSGQWHI65IDkhBZ98+AW6\r\nGsaZ0LU21SteDqpL1iZmsAcqrSX5wMsIjsyA6yFHuHknwOPQKSxadQindu7D//vvR/GPnpPh5hOG\r\nIaNexdrjnpj5+zzsPRUEV5fzsLPdi1l/7sGCJTuxdPVp/Pzjj3jpl9U4teM4QoJicXr/SZw45oJf\r\nvl+I3fZe2H/UCe+++z2696H80qQC80lKpjEu5vWSCdXuo/D+L1sQ7O+O+x6ZjEVr7eHl44vd5/3x\r\n24cfYfKrMxASFIWg8CSMGvYCvpm/Dad3HMZZ90C8/9632L7vDI4fdcWPn/6Ce7uNxvPvzYGnx3ms\r\nt9mD4LAkHNu+HX16jcC9fSbC3iUY/n6+sD9xHgn+wXjppc/g7BmI3SfPIeS8N/bsd8HCVTvgHR6D\r\nMUMnoscTbyMoPBxPPzQOC1cfw6mTHvhz0Wr07Utd/qJGWVQu85c/4YE0ji3u3u+BV+EXm4aPXvsY\r\n/+d/RsJ2nwu2rF6HjQe8MPPzH/HDrE3Yu8YWr09dBUd3Z+w45oRlyxbjXFgIBj7zPBzcg7BqgR3y\r\nMwqxdcNenD7ugqGPPYduXUZivu0JpMbFY+suR+Smp2Dap3MQGR6H7vc+if+5ezRsbd0x66epeOXX\r\npTi8YTfmLN4BD49AnHN2x5R3/oD32QuY8v0qOJ2wxz+6DMEJjzCcOOOJzZvXoUt3skxLl7HpCLr/\r\n+NIebXUXWxOA7Q2cN6ctASCMke64/lnHMk4+LlZSp9u4/6xjTQAZ6oVkPLdc/utTfv7LLYAvvL4S\r\nSYnZ+OGb+Zi9fCvCAiKxc7M7wkOjsXGnA9av2Qk3r0B8+9PPOH72AnY6+mDOz99ixORZCIuIQt8B\r\nw9GlxyS88NEKZOZcRHSAH5564kV4haTg7Qmv4Z1f1sLl9BHMXL4Tbu7+8HTywuv/mQnXcwHY4xEI\r\n/zNuOHXwNH77czt8ooIxfPAovP/lcnz++XT06jkCPWgs4COv4ohXNJydziEyOgOLf1mGe7qPamMC\r\n2K1LxwLwOlkAr0QgXU86Sp8qZpeuz8B2E7cAqqGHRq+FRqeBVq8xdAqLNx37jzYSgi+9cn26gJ8Y\r\nxgXgQwM/wtSF+xAaEIgHHnsf/R97F298MBeBEdEY+PT72HPcF56evgiNSsP8uVvh7JOMs6fckZBR\r\niM07TsI7IhXOZwKQV1KBn3/bitCEPBw57opffrLFur2eCLoQhIXbnXB670mMmvQ9yuoU2LJiG16e\r\nsgqBQTF458t1SC8owncfLsfCje6orKvF8899gccHf4xBQz/GwMEf4omnP8dGex8cOnKa/z3kOzw5\r\n9AvjsjBXKgD/1X00bO28sGrFKvyf7iOw2zkAM6cvxxlPPzzzzDs4HxmFccM/gptHMKb//icCAsKx\r\ndeNO/PzdAsyab4v9Rz1xzjkItjansWThKjz31VKcdnDExq1OcHPyxmrb/Xjtg9kICIrC7u17MXvm\r\nCnz4/TLERCXg199WYdma/fALjcGC2QvRpdsz6HH/GHTvOQyDRnwBH69IfPHed+jSjTe2/KXBigAU\r\nNerixpJuLBrzNe3LZQjw8mddzS++PQt+/tFYuMgWgUFJ2G13EP957SscOuWDnQcP44CHH6Z/+wNe\r\nmroY1bVVeHbsa5i15BCWLrHB9Lm7cME7ELPX7MGh9Qdgt/EUzjqdw6YNezBlym9YvXYvzgdGwe7P\r\nFbi3xwjDw8L8nLf1AKK80li7+574AGd9YnHy2GnstneB0xlH/LhgMy64+cHVxR/rl9jCdq8rTp90\r\ngmNIMo5sOY7TbuGY9skcLFm9G2c9I3Fw6z7c02UUJr27EGFh0bBbR1btApw/7ogH75+EYc/9jMiQ\r\nMLz99kd47uWv4OQWDtt1W+DoGowff9uEIN9AbLTZi2nfL4B3eCSeGTIR3R98Fb7BKdi6YRvmL9yF\r\nvYfdcMHHBw8MGIUe9ACjrhnJW7mlADRcv34T0a3nKPy6cDuig+Owa68rYiOSMHrsG9h0wg/zv/4R\r\nP83ZiQMbtuLNL5fB0eMsdtk7YOnyVTgTFIanh78IB49I/PDZUpz1jcD+fUexZuk6PNR7BPo9/R58\r\nwxLx3dRfMPmlr7HtuBe2btuOC+disG/nSXz3/XzMWLoHF865Y/HavTi6bi8efvJdXLpYj5UzF2Hc\r\n5D/g6emDCe/MRExmHt5+9RN8+M0qNFQ14PnxL+Nf9P1wNvlG/ADviNtcALZx/1nnrxdAd3r5jQKw\r\n12i8+OZK+PkFots/h+KpMR8j6EI4vvlqIfyCo2C7eT++/nQuXN3D8PWPs+Di5oMvZ9jBy/sCnJx8\r\nsHfDRnTpORiPjf4aITHUK/MBFm08jaP77LFuyymccXSHo08sPE+exJPD3kLpRQXW/bEEo5//AWfc\r\nA/Hz3N3wvhCKLRu24YPPZuFcaDiGDZyA72fuxK+/zUHPHqPRvx+N+RuCXo+9jX3OgVg8fT56dBvO\r\nXjIty31r87cLQDbZo82lFa6djtKnm6lL9xFYtHQzK6QaWqh1emgIvR46AyT29PSr4+MDddCiRanA\r\n5OfIanR9JoEwK+CQaRg++Se88sZ0PDFsKpttO2T0d3jp7V/w+LAP8fTIb/HVTxvwyaeL8MSgjzHy\r\n2d/xw2/r8P6Hv2P8pG8x+Y3Z+OnXdXjn/TkY8synmPTGbPw2awNefvErDB73LX74aS1e+s90PP/i\r\nD3js6Y/w6puzMHrUFxgy+hu88vZMPDbsM3zw9Sp8NXUJdp8MwqH9x/HIk+/h3898gSeGfs4hoTpk\r\nKu4f/BEeHfoFnhz6peFLJlcuANkyHf0mYOjwTzB46Ivo1m8choydgoGDXsGIMW9jwIOTMWLyO7j/\r\n/kkYM/Z93PfgOEx+7jN889UfGD7sDUx4/gt8+fksDBn0Gp4e8jaGP/0q7hv4KkaOeht9H3wJ73z4\r\nB97/8Hs88MAEDBv1Pj77Zh6eHzcFPQeMx6vv/YYXXvwI//nwN7z13g948AG+HBDVlZ4PjEWvfhPZ\r\noPw+Pfmaj6ZraEUAGhphhuhaCzfXsGf+g+FDXkaXXsPRpddojBj9Hwx64jmMefYLfPv57xjy2Et4\r\nbPD7+Gjq7xg96SMMeuJ59Lt/IsZOnMrO2RND3sKQwa+g38Mv4P2Pf8Wkse9h9OA30eeBF/HORzPw\r\n4Xs/YeCTr+HtD3/Gf977GY88TOvH8QePpQAUreknuiZCXrv1GYP7HnsNUz+ei2nTpmP0UCr/c3hj\r\nyu/4aMr3rAv3/odfwidTZ+O5177EkGHvYMTod/DoE6/jjXd+weef/IonH36Bzert0/d5jHn+W3zz\r\n5SwMH/winhv3ETvPDw6agjEj30Gv7kPxz14j8djQlzB+/H8wYsy76HX/C2ys3LTPZuGxIS9j9Ph3\r\n8MgDY9C793gMG/sF3nv/Bzz74jRM/fwPPD34ddNsbqtYeygZBGE/mlU9Fs+9+j1++GY2hg99GV37\r\njMHgsVMw+IkJePSptzF8yIt4YOArGDH2dQwd8SYGDX4NoyZMwQP3j8awsR/jsYeex8ND3sZnX83B\r\ni89+in69x6P3o69hzPiP0Lf3M+jeYyTue/ItjBzzDp58+l18/tV8PDv2FfR+9DlM+Xgmxo17D+OG\r\nvMXKNnbcJ3j0wXF44N+vYcT4N/Gv+8bj2Xd/wivPf4mlq/fh9KETeKD7M0z8sTIMeNZYLl7/DGua\r\nChjLbPi1cv+JsSYArdVp67QlAKheSeqfKF7LeKRYxsnrKtVr63FeWV6lcUrvlauJUy6/4C6UX+gG\r\npjbhgUfexNix76Ffn/G476EXMWHsu6yXYvJLX+KLr2Zi2OA3MGrM+3j8qZcwZuwUdO8/Hq/85yd8\r\n8tG3eJRWUug/CQ8NfReTJ36Mnj2Ho89DL+HZ5z/CA0+8gnc/+R2vvv4pRo56C737jsbYMXSPvoQH\r\nH30Nz4x7H33uewGvvP0Dpk39DU89TffZFNw3YAyeHjkNQ0e+yVYFoNm+9C377n1HoTub4DUBPUQr\r\nS9xOWBOANQ3V2LDRho0DXL12DUJvpAAUlnwRr9N1PekofWoQe/Ybi4cefQEvvvw1Xn71G7z48qeI\r\nTUxjhaZuXi000BkWRjxy+CQmT/oAr7zyOZ6d/DEG3E9pmL/hdURbAlDMo4P4Mis0Y4pm/j4yaCr7\r\nJR4e+DEeeYo+tfYpHh0yFQ899REeHvQxHh/8CR4Z9CEeGfgxHn9qKpuU8djTn+DfAz/B44M/xcAh\r\n0/DowE/wxNOf4tGnefy0JAzN5n1s2DQ89DT9foH7n/wEb368Etv2nsa40R/isafJOvmVafHnYYYv\r\nfjDB97mIK18GhrvR8h40q5K70z5NEGEztfqP43/3H8uWhqHxF/Tbpfsz6EFT93uNZEvI8GUDJrKu\r\nsT59J7DwbNmVnmPQrSefjEATOGhCR3cmGMaxWbk9aWmVniOZFZcmTQgzzwVrEi0fwLsUxWsMWgrA\r\nthBuLrKs9ehLs8j4p+hoVnEPWiaEZrf1GI6efXkeu/Xky9lwITqBlYvSpWUPaAAzdSf36DmKTVbp\r\nTmXsNx5dqYw0U7ovlXcsKzObAMKsPZaNOqurgjXICH9D5wKAl7trr7Ho0nM0m63d575n2VI0XXvw\r\n80zXqmt3WjdzHEuLlmKg3269xqBLz1GsG703zYalh0jv0ez89uhD5aF8TGKTW9gYRXZ+Kb1xbJYx\r\nzeDrQ2vf9eLLPNC56N5zPPr0NZxH8tNzLLqz5WNGG2fFttU4C5+n4mMeDQ9KEXRtaUYvnT9afoXW\r\n1qMJFlR+qnc9+vLZtnStyB+vlxOYNYDySvWyd58xbHIS5Z/yQueB/Pa9ny/UzGYsk9Wu72i2LExP\r\nWuKILYUxhtXl7v2ozDR7ehy77r37jUPX3mPQrf9o/KM7zXL8DOs22ePpwRPRr/cYDOj/HAb0f5bB\r\n6yAvI1kEpVh7KLeFNQHYedoSANcSJ2EZJ3Ft8VoTQNczTrn80jjNoHurF91X49kED7qf6b6he4ba\r\nE3LrTe0AudG91pfaRWrnJqBnP97u9u47Cd160xqfk5hY60r3Zz8aczwKXei50Hcs0xbsucDaQrrP\r\neTtIbW43g9GG2iF6WaKlaWhyWo/7JqEH+WVfE+LLa/WkX8OEutsN8XXhs4D3obqxGus32mC9QQCG\r\n3HgB+DdaAJkAoYaXZoBSxaQH7HAEhcaIBKDWKADXr9uCf/1zEFuepFdv3pBLx1h1hEkAWl8IeuAw\r\n87X+mKCi9fes+KduY4Ksck8M/QRPDjMtxyKIMRanaJ0+s/jZd3un4Ynhn+GxoZ/h8WFfsPgeG/Il\r\n/v3kx3hy8Fd8bN8Q+hW+Vyz+bjEJvy8sBaCFBVAkOswEYNtdUvw4F42Ctarv/SRG6IYkwUE3twAd\r\nN1lF2Hgws1laQgNlcBPiMwgkekNlAtBwowvjyShey27FKxeA7G2dlhBgywhQWiRWeXo0KYFEIT9P\r\nbdVVcjN1Y9K+5RgwcRlNgpvXTVH9NNR5qQAUFiOm8ELXD+v+ofLfT+V9ls2KFmPtXJM46kEC677n\r\n2Pp+bH074/1t/uARi2peJr7cCfkRp9O7H5+0JazDZRRw9Ntu42z9nArhhevcb8BE4+LKfQ0LStN1\r\nMZ4rVkfpnJqnJa4/9DdffofPEOx3v1BOWr+P13V6WRTaCy5AhZcikQA3LF7dg15SBkxClwET8S8S\r\n+SRE2dqHkzGg32TWVSULwKtBnNcbEadcfmmcYtgan3S/0L1ihO4RQ1vSnxY6J3i8vJ0R4jbH1E6Z\r\nPtUpxpgPURvF7ztDWgaojetFL/xM8HELoND2sd9225hbF/F1EQTgDbcACouzivkrBaA4fWPDLjzU\r\nyYLUbwwioq1/Cs7Wdj+6dqVZhxSvkI5pkUpWWazkQ0wveiA++CITUVJBd21YCsQrgUSbaaHpzxkD\r\nDWP7pAtQmyB36TH6+3NmKXxi0EdsDTThPFmKPenfJpg1TnhAWsM4XqUza0YKjYihHkgEoHANjf6p\r\n8elUF82VIJRfXO+kfsS0l19rLxziMpoLQEsroCF9g3VTGpcguI3dxPcZ4pOkLVjRLMJb5E3A/MFj\r\nElmG/LF962nxlwixaLd2DjrGfMUB8THhmoivjXif/Fu/HtLZkywdi2UipHGLBaCpC57c2eLe4s9v\r\nGRaoJbgQtnwBkVo3274GJjo/xqsj2hIAlnWP0hLStYxHimWc/FyZX/8raX/N82otTlNeO39+5PJb\r\ny2t794epzpvfE/S38DUcik/6fW0xxrpuRVOIBaC1Nsoa0vun8+W/NZEKQDYGsL4adnY2sLXdgHVr\r\n1iI89LoLQN7tay4Ar64x74iO0jf5Faw6k9g08x27TiE9Ox/JqRlITktHSmomMrPy8f33i9hSIdIG\r\nVnxTd1RZaGxW3weew1NDP7pm0XbjuZr8CQLwczz+1IcGAWj9Bu4Q4QHZFlL/bSI0UIZ8WDzArySu\r\na4XSFqyh0mMC0vwKH2cXsJZfcRhh0L9Qvg4srVIsLIQSpP47jeTBI43XAnEjLnzqrb1z0DFXYsE1\r\n0db1uMb6w+ohL6dYAJqOW56Hq8u/dTrbZnVMewJAngQhl9/6GDqxALHuZhmnNfjXkMw1hfnz/ero\r\nfPlvTawJwHqDALS7cQLQUq3/tQJQbAGU+qVPUo1F776j2NcO+vWjLxcQ9PmukejTZwQbwyBN50re\r\nwHrRzXDfJDwx+D08NfwzPDXsCyaWbhcGDvsCA4d9iUHDPsejT05h3XdXvWimVPBJkfpvF1E9+FsF\r\noHg8pPSYAOVTfM74WzIfTN2WkBMaYfo1WdFM5WsrnBWk51mK1H+nkZRLGq81jGH539d+za5WQN2A\r\n+mMsI8Vh/iDkCMfF164z+ZdYGtvg+j3g2hMA5vm/dgF061nA5PJbr4vXVwC2YwG8Sjpf/lsTawKQ\r\nLIC2N9IC+FfScfqmCmY6GXwgOH0vti8tuEqDR+kbpH1pzB99f/XaKxaNKeh///N48NE38eCjb+PB\r\nR9+6TXgbDz3GefDRN9Dvvudu8PiJzjUQbSG15N7sXE1+ryZMx1zbee88woPFPJ1rK5M1AWX9AdYR\r\n15YPc6QPQrGbubu1/Iv90kPXtPRGe0jzcPVYP3/Xno5lnMS1xWtNAF3POOXydzbOtu4fk7tlnDcK\r\nYQy0GKmf2w1xWdkYwM18DCAtAUOsuV4LQVuOt/lr6Dh9UwWTXnyiP32vlj4Cbfj+JufaBQ17Y6GJ\r\nJ/1pTa9xtxXGN7D+fMartOzXl7+ugZAR81edd+HBcv3Ssd6Fav0B9ldi7aFj7WFkPf9iv2LLpGWb\r\nZi3Oa8f6+bv2tG5EnH+9ALr6eG9EnLd2+W8U4rxeW55vHcRlFQRgbUMNbOysfAmEBiVbwmf9WcKP\r\n9aElJNjSBtLjUr+djVOK1I/Yb2fT57B1y9q0VolnLdHsTf6GIo3DPH3r+RTebsisTB+ctoZgehYj\r\n9XMl/m6UX6kfsT9Tudu7Tu2fq479TRLRkd+2uBK/fw1UN6wh9ff30dZ5vxFc33T4w4Rjfg9f33Su\r\nBLEVRMiT1DIi+LWWf3O/1IbxbmXLdsyc9tuwK8X8/LWV/yvDsp5de/4t47R2/q+ctuOUy29yuzJM\r\nn620PHb9sCzL1eb31kIoJ7UZfBbwQdTU12ODrR1jzZo1CA0NNQhANsjSnN730Xg2WvOLfvk+twC1\r\n5dccqR9hIKc0zrb83oj02ay7vzF9U/nFWPdrSt9E2+lL4xQGzkqxjPP6pH+l5Ted07b8SuO7MenL\r\nyMjIyFwtve4bj573y9ycTECf+8aha/dnYLfJHjV19VhvY8dYvXo1QkJCuAAMiMiGlMBI60j9teVX\r\n6qctfzfKr9RPW/5ulF+pn7b83Si/Uj9t+btRfqV+2vJ3o/xK/bTlz6pfcpO6W3MT3K25Sd2tucnh\r\n23aTultzk8O37SZ1t+Ymh2/bTepuzU0Oz9z8o2RuVoKIsCwUldbiYvllbLDdaCkAq1oBKZUtVrDm\r\n7zr4lfqT07f0c6VxXolfqb87Lf0KGRkZGZkrQm47b24uG6hsBhRKPS6WlYsE4FqEhBjGAJY2AlJK\r\nGnSWNOot/LXlV+qH+WvUW/hr068Vf3L6cvpSf235lfppL30ZGRkZGZnbjeIGoLReg8YWDS6WVWC9\r\nUQCuQ0hIOBeAlxr1EChr4L+lDYTOnEY9LkogNwt/V+TX0h/zK6dv6deaP6txXolfyXGjPyt+Ox3n\r\nlfi19Mf8/mXpy1jjErUDEoznsLOwayhCfB06dU3aDiuOQ5rPq8qrFEn9o8ZUqKtif22lT36FMGK/\r\n1rBIW0bmFqDj+1fm74WuDXCxQYumVi0ulVUwC+AGqQAsb9BCyqVGmTuNi41alBqQHpO5s7jcqMPl\r\nRr3hl1PepEPZdUXPfi81WqeMMBy3DMuhPInzKCD1d6XwPNC5MO3zYzzPAm2lLw4vjVtG5vZAuH8t\r\n2w+ZmwUdLjbooVDpcbmsHLZ2drC1tcXaNesRFhohCEAdpJSRNZBdYBPSBlpGwHSyb2UuMrgQlB67\r\n05DW/faQhr3S8H83l6gRF2MUf+Zwv5bh/y6EvEjz+VfltcP0qS5YCScNLyNzKyNt+2RuJuh5rmMC\r\nsLz8EhOAdrZ25gLQrPEiAWhF/IkvttTtTkRovMvZw1KD8kYNyshKcAueH7MhAMZrzytPWdOdxZWX\r\nmd8vAnT+xH/f9FipD4RU0BBt+f07oTxJ8ykIsL8Ca+mTG6MZN+U5k5G53rBnh/jvmxRpvm9X6EVe\r\neBaRZmtW6XCpnFsAbaQCsKIZIC6LGjNphDLWoe6eikY1KokmDSqatFwMNqhvDerVqGjSo6KZV5bL\r\njWBwE7/GgCB2hL/vBKRCzxoalDdRd6mlCJC5sxHaVNauWjkuIAvEvwKgrFnmRsFedG4ixPmyrAt3\r\nFvQsp2dUo1qHUloGpj0ByEUgR3pSjQhvt7cQwsmw5iZ1v1JIPJH4q2pUoaJOgcs1Daisa0RlbcNN\r\nTwWjEeXVTahqUKK6WY8KMwEoFTydhyodjY/iv3xf6udqMI/zSriy9MubdZ3iMp0zutHESASAzDUg\r\ntrCxFxXubia2mgxuIr/8pcZKfDcCSl+K1E87mNUdA9J2RkDq705HOC9CO85+6Z5sBqppOYxmPS7W\r\nqlBc3YLiaoXMDaCwqsWCopuEi3VqVCrAENeV6/X8v3mh8hq0XCMJQK1IAErGAFYq9JBS0ayzQOrn\r\npqVZj6omMCrpJBiEbWWTDlVNOvZ7vcpFDUxVs4YJqYqaOqi0OugBI7o2EPux5l/6txRrYTqDtTBq\r\nrQ7VJAZrGlHdpDU8mITzQ3+rDdA+dxeLIGk9aeu8So9fDdI4rwRpXNcL8zTaT0eap78SaV5uByqb\r\n+T0tRnp/30ispU9I/bUF+aUXLynS+ASk/u50quh+U+hxmeq34be6Fbhcq0JsUi4CQmMRGBaD0MhY\r\nhEVZJzQqxoIwK0j9mKA4pEj9XA+kabSdDi9bnAQeRlr+jhDSCo+KRUR0nBnhUXEWeaIwEX8jkew3\r\nDmGRcQgMi4VfeBJS8i+jSgFWZypo4pbxBf7vbZNvHNQ20f1BL6Q6KNQ6tg6gje0G2Nisx+rVaxAS\r\nYvgUXKVCCynGBs4i4lsDKng1icBmvhAivQFQY1FNDamh4a6gk8SwDN9Zqui3SY3KmjqjwKJNr9cz\r\ndHo9tHqYoZMqMAN6kR/z8AKi8OSZdnT8R5oG968TheVxCfGK49LrddDpdKiqqUNVo1LykGpfAF7x\r\nDdRs2qcGW3BjdY1dE5H7jYDS70Ser7X+i8+h9NjfBgkOw3nuCPJH90vHWIa9nrB8GO4zcVosbeZm\r\nEkvVzSaBJPi9nvmzfk4sRRohDiONg347EoAynYOuARN+LZwqFZBVUokLgWHIzStES6uaNa83cpO+\r\nxN8ornWTxnel3IqbTgfUNioQl5yBgPB4lNW2oLpFewcIQK7j6B6hF2KFhhaCLmPijwtA0ZdApOKP\r\nc2ufmGqm9sFUfw2JP3ITGg7abwHzw/1zgXg1UFyX6xRoaFLwCme4U5h40+mYuCLxpdHpoaFfdszw\r\nj5bUG6BnCo43UzqdWKhReOsCkB3XaU0VndwMYlBo8Fi00Iusf0KclCdJXAAamxW4XNdseHvQsTeH\r\nqhZ6o6ZfLaoV/AFIIoq6PunmYQ8x9oCmXymGh7Th75pWoEZF18XcD12HOnJv0VqJQ4oQ55UghKNy\r\n6Fha0vpyLVTR10wIibtU/LE8CH7/Buj6VVOjIPP3IBKoQp0wEzQKPWurCKnQERCOG/1J47AS1+0I\r\ntRl8n5eV7q3aViCjqBL+YTFoUal5OwzTS7EGemihZqrAvF29Duh0ZlAbfiOgtDQ6XYeQP+qLkoa/\r\nNvhjSwy5aXSWSP39FfBnIH92mhlXDNvlqhp4+4ew53UVM3Jp+UuZxfPiVsVUFnMBqDUIQLIA2sDG\r\nxsbcAljdooMU6UNOeNAx4XQLUGOAGt2KRi1q6SFIVkFCAdQrgbIGFW9IBL9W4pDuS/1RvJdrm9Gs\r\naOUNDhNmJkubRqs13pRqEl7CuxRTaqTYdNBTt7EOaFGroNOqoGEVWQvoNIBea4zLZBXkDRo1aZcr\r\nLqOuromaOe4XOmjVLSguKucNH3S8IWB5o4ZPA70oTrqxeWMBNLUocLm2ATUkFKji0DTyWiVKKppR\r\nUqlAaX0L6jVAPT3IaOwjE9b8HEsfdjUtOjNqW/W4VFWPpLwy1LVoUaPQMH90I1IXelpmIS43q1Ej\r\nfWiK47QSr1kaVtykVLYokZB5iY0LlNbvq0VcH+gekR4X+PvvH8vrJPMX0pYAJLEmarNYG2NF2DHB\r\nI/HH2zgrfq34ux2po5dHas9bgIsVzfAPiYWSGlBq7wQhwptZaiH5ZlALxjaQBJsEaZsrtJVSf2aI\r\njkvDXk8s0rWCRRgG5VGKtWNS4cePSwWXILqk4u/vEoDMkCJsZj1rBg8AKiqrERwWhXp6ljR3/Ey5\r\nVaG2nowdNWQVb9aiRQO2ELSNjS3DbCFoqfjjgW+GB9bVwxqIVqCusQkrVm5CZE4FGlVArQJQ6IBd\r\nB4/DPSwVLWreeNS36FGnIKhB0aPeuC+G+6Fj3D8PW1HbjJaWVva6ySqhqCK6uJxDQEAU2zfUQXi7\r\nemHDjsP8DxJ5AHKzUrH30Bn+zqpTAnoNQCLQYAVkCKZ4kQDcuH4rotOKWE3XGF538jPSsHz1Qf6X\r\nxvSWqmMCkcRfGwJQoUBFXQNqWnVoUAMxqcmY9vU8/Ll6H/5cuw+/z9uKzbudUVanRF0r2Fgbfq7p\r\ngWMuLkiMMVr5sUYNEBEaijl/7kCNnsLRzccti5UNNZjx83ykX25GncG/OC7yZ6rc/IY1xt+iNwo/\r\nqQCsbTW50S/luayxGl//tBT55S0s/0yYtYWVenUrI1wni/NrdDMhPo8dYSF0OoU4TdPf5m4mv2J/\r\n5kjjNdFW/izdTOmal8vS7Vowzz8JOgNWhM2VwMSiBH6tLf3ebtQrgIZmoLkVCI9KQVlFDW9WedNp\r\naJOFhrMFWVlZULQqeVtqRVxdDYLgYumK22sLOpOmKTzbRMdY/EzgcSnL0rUi/oT8sF+DwYHFa8Wf\r\nOe2LS7HAEjSVoeOKjSNn7vTI+ZsEIJk6qiouMuMHP0EmASicf9oSk1KRXXARDWTAuY0FIMEEoEKL\r\nFq0gADfCZoPkSyB1JGaM6ET7sEJb7jcbJAyAZjUQFRCC6Yu3oloNKPRATEQC5izdgstKQK0GahuU\r\nqFXSatlAo0KLOqWWdSew7uMWNZqokSUxSQJQDTQotahuUjLx10Aiok6BFrIAsopI/xh+AZw5cw4H\r\njrnzmgc9mqqqMePnP/Drsm38jZR5a8Xa1asQnVnM662uBSq1iln19DoNNIZ3V71WjVaN0hAXoFbU\r\nY+GcNbis4N0dQqfHOUdnHDzlz/8ydDELNy+3Npo3UiQC6WizQoHKugYmlpq0QFhEKOYt2YpGLVn9\r\n1GioVeLQgdOYu3oPKtRAXasWzTo6LypUKlRoJDclVTw9mlVAg4q6kVVM/DXpgOiQQCz88yAa6U2s\r\nsRX1Gh2qlHpUNdRg5o9LUVCtRL2iFTVKLhiFB1kz7TepUNnC32Qof9WtemaNrGvVoEqhQZMGqFJS\r\nl5AWTUqw/NcqNGzMFYlZhZLioHC1+PGn+ci9rGD1pLZZj1rqPmoP9jC1dGduhntF7JdhLbzZfca7\r\nrKRuJFJJNFu6Wfq15kZ+24IEcU0r1W0ujklMC/tXCxfknUca/lqRxn81SOO8UZinS250DTnSv6Vu\r\n1o53xNWEuVWooV/Ds6qRrO61rQgJizG2eca3ZZNmwYGdy9Glaz9EJuRxfyJRwDf6g6sGLsToRdl8\r\nX2xaolaTXp5pS09Ox357QzuvNw3NEaKnNle88ecDte/kbvAvzosOKMgtM4ob2lJjE2G3ZQdWr7FD\r\ncmq+IYxBfDIFRKZO6jmi13y++Xi4w92fz/YU9JtRXLJ9U15Zvg3HSPAZdkzHASgVTSi+xAUW13w6\r\nBAdEYo3NFuzffxpV9BDVUzc774Y1CTR+rq3T3rHOQ9vu9XNx332DEJqQxv42Pt9E17qhsRkhkfHs\r\n2W3Wdt420H0hQD1UGrSSACyvgK2tHWxtbLFmzVqEhoax83EXWbNuV+gh36oHtmzdhyPOIVA1KfDH\r\nH+uQVFiPmtZW7Np3FAsXbML85Qfgn1QIGskXERQOj6AE1GqABq0GDo7nEJdXjqyCYmza74a1W+1h\r\nu92ViZ06pQpVJADpFVTc6LC7TYfQgGCs32aw9gGw37YTPgHhWL52D5q0/OYL8vbC9n1ObD88JBSb\r\nNu7Ewvk2OH02yGDT0yM8OBgb7LZj7oINcD4bxFzz0lOwcp0928/JzMXBwx5Qq7TYtHYbYtPy4XTS\r\nCaXllca040Mi4esXzWM0e+vkd4ZCoUBVbQPqFFwAxoWHY8Gfe0AdzM1NvKHVqbWYOWsVfNNL2LkK\r\nvuCHOfNXYu7KvTh+yh+HT/kzwZWcloYlq+0wc8lW2O48iUv1KkRFheL7Xzdhy56TmDl7LVZtPI6i\r\nejVqGuvx6w/LsOewGxYuXoVZC7YgNKYQrUzUNePoaSfMXmCHOYt3wsM/hYnDWh3g5e2LWfM3YO7y\r\nfTh12h/7HPzYMQcnT9gf9WRhgjLLkZ+XicV/bsFvC3fjoL0Lfvj2T2RXtqKZXhSYVVfXPuwBruU3\r\nlODGHq5k6dSa+WVu5PdvDi8jcydA90ajEsgpLEdaehZv6JgANIg5JnB0OLhjPbr8v//Cf/2/HgiO\r\nyzW0gQJCOyj0jnQetcHGtn/TLsyYuR15FytY3FVV1WhqaYVa3YrLl6uYW1ZmAWITU1FysQqtLS0o\r\nvnQRaq0e9XUVqG1ogKKpAfGxCSjKv4SKkiL89O0SNnlBz7t7kJ9XhGZFM+stWr3+GC8rG9IjKDvD\r\nsCGDAFS01GP5kjWYvWo3WlR8bOLFS5VsGFJDQwPq6xugVSuQHJeEzOwClFRWo6mhBWVVNTSQCJXl\r\nFdCqVSi7WIaIqETmHnTOH78vsMHFygpW7tqyQixbvQMtWj3Ounlgy2FPnhcmRk3KjAkxKxZE8/N/\r\nbdC2Y90s3HXXXej96CAExKQb0+bwlwMSrkHhsahuVDMRKNUMtwWtWg5ZAVs1UOqAsvLL/EsgdrZY\r\nu3YNwsLuAAHI3hjVOlQ31mPxwg2Yt2ITjp+PYpMx9u09gXWH3FHZokNWZia+n7UO2Q0KeDg4YtOJ\r\nQKi0gBI6rFm7AwGJuchMT8JLb81AeMZFXFaQ1bAV9SQA65tFApBqmSAAtciIjcHS1QfYic5KiMWm\r\nbYeh16mwfPFWXNZooWioxKLFNqhtVSP4wjkcPOSCVo0eOqUC8xetQ0ldPYIueOPAQScmrLTKZsxe\r\nuAFlDa3wdnPGCdcQhPuGYN1GexRW1EDfUol581aiSaPFphWb4RaawtKur63DzAV2KKusN2TP8uYx\r\nCsAWHZqZAIzA/D/3olHPBSCZlGmk4+5N23DSNwHZWZn4caYdcioaUd/UCLtVtvh65nq06IFF8xfg\r\nQmw+FBogPCkTJdVNSIyNwStv/ozIzELUKluw2W4ndp8NQ6umFe+98S02HfNFXYsGOamp+P6XJSio\r\nU+Gs+wUsWXOQfWXlcmklfv1tOcLyK5GZnoXvZqxHTlkj6hsaYLfCBp/O3MqsoPPnLMISu+OobNCg\r\ntrYGs2csxYWYXGa59XF1x6Q3f0ZOvYZZBes70QAYBVirrl03Xt/4g6nD8AYBd6PCy8jcCVD9b1IB\r\naVlFyMvnPSj8rdkgAAEkRbqgy//8N/7nv/8v/ucffREUf70EIB++U5Kdg90HXZCbmoZ9x7yY2949\r\n+xCZmov6slxs2HEUEVFBsLOxR0hAOL7/aQXyikqxePl21lZeOOsKZ58w7Nu5C94+4YiOzEBeejq+\r\n/XwOLgRHQqMhyxwvWlRgCBYutoOLeyR30Guh1WqgUqmhUakNY8d5X1BYwHm4B0TAz9MDF8ISWd/s\r\noiXb0ADgvIcXLnhfgOORQzh20h3Op10wc+kOJMUmYfP+0yy83catSE3PwqpV2xAWkYDk+GRcOO2C\r\nr2YsR1bBReanrrIYS5baorC8Eo7H7DF9wWZufSQBqAdUSiUqq7gApq2mqhathi54YbSUVMhdLbTt\r\nXPsH/u9d/4W7/r+78Njw51BBb/lGEWiwDgMIjYxHZUMrGugZIGnvbwusCEBmARS+Bbx2rUkA0km4\r\nXWlU6pnKJytghK8vpv28GrVsvFsDZszYiKwqJZSGXtWdtvtwJioL3m4O2OEQADWrnBqs37Abfsl5\r\nSE+Jx+IVB9gNVK/Wo1GlY1TXt/AxgLymiQQgcDEnDrOWb4JCp8TaFZtRUl7PhOGqVbYoU6hw5KAj\r\n3ANiAFUtPv9yDg6c8oKLqxfOuLphzkIbFBbmY9pXM2B/ygtn3M7jjMs5/D5vNSqbFNiy2g7fTl+D\r\nU2cuQEVmd+hRmJ6CBWt2sLTPnjyMLacusP3tm/fiXEgSz6NoADT702DmZwKwrhH1rXo2ZiAuIgpz\r\nlx1AMx1r5qJDBQ22bdqJU4GpOHP0MHa4RTHRRbdZemIsZizdxvxv33UQ6zefQGRsFi63aJifyEjq\r\nUj7ERCRZD73PeWLtIU+o1K2Y/v1SZFW3sE/WUK42b9wDz/BMrFizCxEpF6E0vNU6OTjhgKM3Tp1w\r\nxGHnIBYXVe6shARMX7SFpbNy5UYEZ+azeNJiUzHvz52s25msg4rGRvw4fTWyaxRoUenRoNShgepI\r\nO9QrdQxzv9yNu1tzM7lbc7vR4WVk7hRo+Ed6XjGycguMTbBJAOqhqC/GZx+/gv+66y78790PIShe\r\n6AKWQm2i0OXbPsK4ONr2bzmAZduOIsDbC7/8MA+NKi327z6JiPQiNFXkwm6HPXbs2oPknFLmf92W\r\nTcgpKsKy5TtYmxbg5YxTvtEIOOuHfQcdEBiRwNrE9X/uZkYIZlcwCJeywhKc9/GF7ZajbFUJGgee\r\nlp6ApUtWw97eia/sQCH0CiyYNR/2Zy7A6bgDZi3chlaVCn8uJgGoh7enB1xdfWDz5wb2PFM3VmD5\r\nliNIiI7FrgMOLC27jfuQl1+Gw/uP4vipM0jNK0J+Ri627D3Fjgvj/9KS4nDoyCmcOekBm+0OYI9T\r\nQ4ZVzQ1YvcwO8RnFyM8owKLl23FZ0cquDB+XLnSvGwZtCqqQDeIkMSt2M1h0Dd3cAoK4o2332un4\r\n77vuwn/9T0+s2noENJDKNCnTMCSKCcA49vEGqV64fTA9L+hFqZUJQG4BvKMEoABZojLjk7DM5hTq\r\naBxASwP+mLkO+TVqqEgdQo99W47gTGg6zrs5YYdToGFMnRbr1+3ChZQ8ZKQmYMWaI+yGaVBp0KTS\r\nokmlQ00DCUCDihQLQD3QeLkA85bawuGMGxzcAgx+tNhitwueF8Kwcv1B5pQRH4dFy7YiIacQCanp\r\nSEpLR2FpBdITYrFguR1ScwqRmJKJpNRM9vaoamnAzN+X4ONvZuFCJLfy0ebh5Ir9Dt5sPzYiGKu2\r\nOyA+NhK2W3hXsfDmKoi/vLw8lJfzMR0tLS2orm9i50vJBGAM5iy3Z2KtpQVQKnVQqTT4ZcZKxJVW\r\nweGAPQ57xLCbrFkPZCXHY+af20HDsBuVGgQHRmLjTgfMnb8FSZdqEBcbjYV/HmFirEkPeLt7Yq39\r\nOdZNMuPn5citV7Pxe9Qo7tx+CB6h6Vi1egsiMi+ziTv0vu3u6o29Dj44fdQBp9xDed50QGFKCmYt\r\n3cX8rFi9HSHpBez6JcUkYuHKPVzEqoAWRRN++W0dsmua0KLSMqug6WaxDj1kqLtf6k5udEzq15rb\r\nXx1eRuZOgXpGCsurEJ+camjj2L+GLmBqnQCVohKff/Qa7rrrX/CPzTT6s8TSstQWtFVduoilSzYi\r\nLjUdqamZOH7oFM64X8DpY0446RmJcD9vzFmxBV7nzmPPXiekJKThh+l/orjsMlYsXof8govYuNYW\r\nhz3CUF5WhuL8PCyYtwWFJSVYs2QT8vIuGQVgbGQCCnJKkZ6SgCVLN7GeIq1eDY1aidZWNVpUSijZ\r\nug9AUlQk1tnsREpGLtIzsrB+zQ6ER6Vi7ZINSCu6CLt16+HmEYoDO3fDxTsCvh4+mLFiCzIyM7F8\r\n1XaUXCpmvTDZxZXIKypDXHQE5q3cjoK0HCxbuQ0NLTTlUM+eQzGRcbhYWYWD+4/hbBA3Mpido8ul\r\n+GPun/h5rg1yyy6z60JL8lD3OReA9DyirmuJAGTd2WKxZ83N/HpsWj4dd93131i17QQ/bzQ1xHjN\r\n+DVWa3QIjohFPU12tKIVbg+EZ4KePSfEAtBOKgBpDMXtDlm0UuMSsGTNYSZAqFnYuHE3jrgHQq0D\r\nKsor8fv0Fci6XI+QAG/M23CMCYiqqsv44IOfEJJaiKzkZCxbfYSNiSPxp1Dp0KzUoUZkAWQVUSQA\r\ntS3V+Oqj6Zi3dBvqtGTF4uP+9truwIdTlyCzqIz9nZaYij8WbDaITqDkUhVa1BpkJUVi7vz1xkG9\r\n9DmXVrUW+WkpWLlhL6pryvHtV38gNIO//dqstEFwcj4TQpdKSzD958VYuGwLami6HBvcbHizAlBc\r\nXIzjx4+jpKSE/U0CsKahiZ0vEoBRERGYtXgn6mmmdKMGFZdrsNPuAFZsOMKEV2J4DGYs2IZqMjHr\r\ngR2bNuHL6SuZQM4pKGLr7dG2Y8tOHPGNRXx8NOYsNlkAfc56YsNBD+j0Gnzw9nc4ci6SDVa9XF6J\r\nGb8tQk55IxxOncWavWfZZJOG5losnLsOoSmlSI2LxfSFtqhp1rEwe+y24ovfbFjjt2LFZoSl5TOr\r\nb01lNb7/bTXSCquYRTc0LByvvPEDCuuUUBgsgI0yMjK3NPUtagSFRpgmL7DN8MQ3NJ7N9ZexcfM2\r\nFFbSGDd+SKQjrCx9Yh0mJgwpFBcUIyXVMPaQeiMaFPAPjkJlZSUOH3SEwxkfnA9JhE7bguCAKHif\r\n88PK1dtw6XItUuKTceiQE1wc3ZFScBHRwZE4ctwLnr7RLP64iDg4O/uxNGlLTUrD4X1ncOSgEwry\r\n+XODFvsnCxcVW4MWqNHCRiUmRCWgpIzPiKatvLAEyfGZyEhIxBF7R7icOYu8ghI0N7fA2d0HF7z9\r\nMX/jAbRo1fB08YLDKS84eASioqYarq7nsf+EN2LTsqDTqXDmpDvi4riI1ugU8Dvvg737T8DFN4Sd\r\naq7jhBUm6EzrUFtTjdJaejLwPJMAZOsySs6r5IJ0CCu7SADGhPnj8NHT3MIIHZrZ2reCH34uLldU\r\nISouBQqtVDTdPpjuDd6DxLuAL/NJIFIBqFDqcLtDgiYjMw179p+BQq9Hs1qHsopqrFhth3V2ezFz\r\nyXp4BsQw83VjUzVWrd6IVWt2wm7zPixfsQMpuWUoyczH7gPuzJrUotRzaAHj+hY0t7YaF1pms7uE\r\nQa9aLVYsWo+glGx2smkWLm2uR52w9QCf+AGdCnqtAvt2H8LiJRuwcdNB7NrlhPoGkklK7N99GAuX\r\n7ILN5r3YtesEWlqVCAwJx5lzgSx4cXoiFi/ZjKr6Ruyy24eKZpK4NDakEe+//Rnco/mMKOONA6Co\r\nqIiJv4MHD+LiRT6egwvAZlaByGKanJmEDz/7DTPnrcTvc5Zj3uKVOHrqHBNN1O1CN5D9MUfMW7AW\r\nazfaY92m3di005GJwRMnXbBo1WZs2rIbK2z2oqJehbT0TNjtcYVKz7vko4JDccIzGCqtCutWboft\r\ntiPYaLMbf8xdh/MX4lilrWluxKZNh7B23S4sWLoSxx182ASVVihx6LgL5syzZV0Vtra7sGK3M2s4\r\nDx44jqScUp5HHRAaFc3iXLfhEDZvPYJV63fgUq0CDTTruxVoatWjicYStUEzzRBX6pnYN7lRvSI3\r\n87DkRvxV4Vn9Zi8jMjJ3Js0qLXsJTM7IRmYOnx3LZYdhY+2eSRiSSLFYyPkqMcbJ/ubDV6xtZaVl\r\nOHXSHQ4OXrCz2w8lPZBEmzScKGozC5d4E1u1+L6whp+prIK79U2PpKhYODp4YfueozjiyIcLiTdp\r\nSJP05XEbHifGjT3yrCB4oyUapccErOi7TiGOw5gPw2QPszwYjoeGRaG8uoGtEEIiqUmlv+0w3R86\r\ndn+Q8eNi2WVssLHDehtaBkb0JRDycCfQqCSrjxYtSi2aW9Xs+3g00/RyTTNqWjTMKqhQ06rZgEqr\r\nR22tAo3krgFbQ1Ct1KBFRejQoiS4AKxpaEVji8KKAKS3M7rRyVyuhUarhk6r4+j4O5BW1wqtnsQj\r\nH8PX3KhAMy1QZOjCEBaOVjQq0UzTcMl+pldDSwODaZ1ogzVPpdFCTYtOCwMzAHh6emC7YWkC5o+9\r\n9gIlRUU4duwYDhw4gEOHDqK0lI9NIQFYaxCA7C1CRTNLNahubEFVYwvrLlVBhWaNFg2tWnacKhZZ\r\nQC/Xt7Ju4AY175Jp1enRVFeNS7RItl6LJg3vMq9nXedqNtZP0aphcTRThVUCtHh/TXUj6ppUTPw1\r\nqkioa9n5r6ptRFUjyT4VmpQUB5jQrGlQoLZeARUtR0PXlSq9ktChmWYItmqY+buxVYuKuha236LR\r\no7mVAGj1HqOYv2XhdVpG5k6lldr4FjVCwqJQWU2jvEXixWBZojZZKuBuFFywGSA3rRb5hUVITM5C\r\nMw0XMogRk3i78TDBxMQqwTpH0dqqQFpqFlIy87loFvXCCuJS2JcKL2sC7GZFqAvpaVlISc1kzxcS\r\nSvwZw5eLEyMcu1WRah9BAJL4sxCAJIRue1Q6NKlpHTktG8tGIqFZqeHHtCQEaXwb0MoqhA6taj2U\r\nGh1a2D7QpNZDoaF9NVpVNINUyyYREI0talTX89m1UgGoZUKPd7vSbC0tTWagL4PQCAgdfSVECbWe\r\nBCJfiJOPUtVAr6PjPD6KgW3s7lQY1vKjmk1dunzQL3vzYyMe9CivqMaWLbuxadsxJmbZO6+wxhNV\r\nhNKLyM7OQV5ePnJz89DURJ3aQG19AxpbVEyQMajM7Pxp0Mwg4aZiAo6EVRO9Pan1/NyoSchp0KhW\r\no5HOj0rNzlWLlqyF/NxTHAqVkgk4EoAk4qgblhbjVqj5uWxV66BU0XEuGBUkupWGuNRqKFQqA2pu\r\nAWNh6U2H8tOKBkqfrrOahDqNKaSBvmo063RQ6LRo1mqg0FI4nh4T84breGtC+RdeTGRk7mS0qG1o\r\nQlBoOEou8S5S2virtPH917h/oxCkn9TNlB/TBJK/cpPmU5ovbhm19HMrY7Q86nRM+MXGJkNpeN7Q\r\n+H1mfGDPL3Po2Sc8A29F6F4QQ8PczAXgWtOn4Ejk3Akw6x+dHKNg0RoFIh0n8dfKRCBVEBNk5WMT\r\nCDT0uTZuXhWHJarrGtDYTJ3Dwq1veLMT3WBmb2RiN8NfXECa/Eg35mZoXdhRMy+mPyorq5Gckmlm\r\nru9oa2puRnVdo+lcCCLKDHKj7kcuntk5EL1lNJEAJNHFLHzc/MxvJsObFf0t8s+Ok4BR69mAZvo1\r\ndncKfkRv+Uy0W7Hs8sk4ZOFVM0sjidBmjQYKjRZNTJCq0awl8cdREBots2TSNxJJgLaHsR50wr2z\r\nbm25d9bN5C6IdBmZOx3eFdzYqkJkbCLCo2JRUFyKuqYmtiafoqWVjdWmRfvZ743AEHczQ2mA79NE\r\nQUKhaEVzswKtra0MizhuEFR+BfWCtZqg4USE2O12gc57dW0dMrNyERgcjoysAtabxJ7vhmeXVCPc\r\nLpCRSoxGR98CJgG40SAARV8CEUSRIIxuZ6jLl6BuQOkxEnrWBCCJP0EACg9cQQCy86YhAaNFXX0D\r\n6hvq0aKgT8PRxJC/B6WyBSpNE5pbm02NXhsoFC2ora1FTW0tqzim80TWUi78aJ+h5WXlwk6EQciR\r\n1a6ZxBZZC4UxCOx8mYsVcTrsb3b+DKLGcK6NaRi7203piCFRaYREqpb/ksBrIaFn3Kd0uAWY3I0Y\r\n6kN7CGKLftt1Y/XD4P4XhedY1nOZ2w9xOy3TNiQCqeOjsrYeSemZiIiJRUhEJMLD/xoiIqIQHhmN\r\niKgYMyIjYxEVGYvISNqPRlRkJCIjDf6txHPdiYhBZFQcIqJiEREVx/Yjo29fqJyx8cnIzS9Gk0LF\r\nPlGnND7fTfeU0KaKIXfp/XcrYSkADRZAW8ECKBKAKq0OBHV5mtDeprRTRrUeKur6bQ8Kpya/5vHx\r\nMXgkVFRobG5BY7Piimiw4tbZY8Jxc39NFn6lCP4VShXLv8X5kKASzpux7OJzJ6CRHCP/wvkTzrn1\r\nc2h+rqXxivxb2zdgrRzkZs3dMn8yMjK3C2oSgvr2Jx7cUQgTI6RI/d1mkPihZxc92wXMn/9S7WNF\r\nG9xiCM889txT01AzEoBl2GBnhw229Ck40ZdA6HM0HC5kODr2920HletKyyb4F/+2GYdwLm8t6AXA\r\nsiyS8krL3eY56ATW4rqW+MTxWNu39rfg1gHim6l9N8n9065fa24dh5eRkZG5nli0iW1gCmN57GaE\r\nt6eW7lYR/HXW/y0GCWESgDZ2trCRLgNjEgKmiywVCDIydyqCMOM3k+Au3CtiN/Jref9cr/AyMjIy\r\n1xfz9qd9hHZM6i5zs0OzEi6WlXckAGVkZGRkZGRkZG4XrlgAUp+xjIwM2rwnmLuFG8fMzeD32sLL\r\nyMjIXGck7U978DCW7ZjMzQ+tB3KpvBwbSADaSQQgX5vOClYWuJSRueOQ7wcZGZk7HbkdvDWhRdBJ\r\nANIYQFtuAaRJIKGhhnUApSuGy8jIyMjIyMgY0fEFrC3cZW56aLt06RJsbWxhY2Nj/iUQqWcZGRkZ\r\nGRkZGQESf7IAvDUxCkCyAMoCUEZGRkZGRkbm9kcWgDIyMjIyMjIydxiyAJSRkZGRkZGRucOQBaCM\r\njIyMjIyMzB0GbWVlZbCzs2Mi0GwZGKlnGRkZGRkZGRmZWx9ZAMrIyMjIyMjI3GHIAlBGRkZGRkZG\r\n5g5DFoAyMjIyHQFAx754oGsXjQjpMa3WEoqT2mGL9GRkZGRuMLIAlJGRkWkD6GmBWx0USjUuVtaj\r\nrKYe5YwGlNc24XJtE9snd4FLov2y6npcqqrjVNehrLrBjPLqerS0qqDXa0VoDL+W+ZGxRKvn3zXV\r\nir5xyj5zZcUvXUvQ/+zTZVpodRrodNoOFzMWjlM4nRZmmPulvwVMaZqurWXcMjJ/F7TJs4BlZGRk\r\nrEACkD6ZXlXXhMomNWpadKhWaNmvQLXgptCy/apWHapbdagVjpO7IUydUo86JYxUNapQXVtH9kWj\r\nSAAIYbPM01+BMXUrx9rjWvLcXpriTXqMhB+JQNoEEcgEoBVBx64nCTcdD6DTa6A1E4B0vU3psF+j\r\n+NNZiD8mAM3EpiwAZW4daJMFoIyMjIwVBAFYWduIqmYNE3G1rXpUtwA1LXrUqIE6FVDdqsdlpR61\r\nGqBBqUNdswYNSqBBBdQ061DbrEY9E4F6Fl6gplmD6roG6KGD1ig+tCguLEReQSHUWqYweH5ItLBu\r\naA00bFcQMXoG+eHd1KK/DdYr7o+LEu6fix1eTkGgGLqkAVRXV6CmoZEpGR6XzhinCZNIEvJRUVGO\r\nRoUS0JtEFceQNtsnq5spf2pDscvLLqLkUrkhMo1RwNGmVauQnZOL0ouX2PVg+ReElw5QtbSgsLQU\r\nKmah4+fBmkWPZZpOhLYFFy8WoEGpNORJCz11yeuBlpZGFJaUolXZgvLyciYqWV4McZoJQXauDeFZ\r\nerIAlLl1oE0WgDIyMjJWsCYAOVpUKdQIT8lETMZFXFYBVVogITMfqcWVaFJpUFVdhdiMXNQoger6\r\nRhRcqkF1K5h4JKpagMpmLSrqG6lXkgmv1qYqzFsyH/OWrcGq1WuwcvUaKFqVBonFN5VWZWYjFG9k\r\nCdOKRJl0o+N0VKtXs1+DK7NA0ia4OTjawysw0uiDNvIhWM7EW2F+AkLjM9j+zl27EJ9eKIqJNsO5\r\nNNu4GxOGABIiQ7Dsz2X4c8VShMXFcx+GtGoqirBg9kKssd2MP5cvhf3hw5K4gIqiJMxatALGMyUR\r\np8yJ/S246bBk0SwkFBbzv3RqY9mKi7Mwe8lSlJbkYeuWzRbnmlkEpY4ANBpB4EkFoIzMzQltsgD8\r\nm9BqtWhsbGQnW3pMRkbm70cqAIXu3AY14HrWC1//MhPvvvcx7M+GwcX5JKZO+xrvf/oZgpMzsPzP\r\nNfjqlznwDEvBoYMH4OYbiUYtCT9uQZQKQNoObF+FdbsOGWXKpbJy1qWZnJSIw0ePITkth7nnF2Qg\r\nNj4Rx085oqC4GP6BgTjj5olmlRo1l0sQk5wBJxdXxCQkITU1DcePn0bl5Uo0KxqRkZ3L4qiqqkBB\r\nYRGqqouRnJwJF1cn+AYEs27Ri4VZKC8rZ2In0P88jp52QEnpRaaf/H394OjshoyMNBSUlmHTqtn4\r\n7Of5yM3PR3ZeHmrqFWhVKuDm5ganM86oa1JAp6xDcloqAoJ94HjaBXV1zbzdMxTc6egBnHE9C6fT\r\n+3HG25sfM5wEZ3s72O09wf8gsVdRwX6LCvNx7NgRBEbEo6wwGXNmzYG3TwArd7OilfnJzsnCyZMn\r\nkZaWzv5ubm5g1ynQ/wLmLpyD1IIC5GSlo0XZCmWrEhmZuSgpzcSMRYvR3FyNjPQ0VNc3ISUlDefO\r\n+cDtrDuaFC0srpiYCJw+cRIpSSnIzc0ziE5rFkAZmZsT2mQB+DdBArCujsb/yI2FjMzNiLkA5F24\r\nNQo9ahXAxQYl4rPysWjuDNjuccBXP34L36wCuB3bgT/mrsWvM5fj4ElH/DF/AWbOW4zAsBhcqmth\r\nXcY1ZAlsNQjAukaDlUmNGTN+QGxuGftLw8YDAkkxYZg+dxkiokLx+++zEJ+Vi01rl2H+nxvg5eGK\r\nV159Dy5evrBdsxzHznghPuwc3p36M8IjwzH1g/ewcechuDkcxdylK5GTHYfZS1eyeEP8XLBxx1HE\r\nRHjinQ++Q0xcJP6YOQPBsYlwOLEPZ8954+S+HczyFhIchPiEBLg4nMTcJasRGxuDLz5+H/auF2C/\r\nYxWmz/0T1bWXYbN2JUKScmC7fi32n3CCq+MRLF2yFs0NJXjzP+/B2dML9vt2YMWqjSwP1L+qBlBS\r\nkI0JY8dh4bpdaKwrR1RYID8OICM1Gt9/9y3sDx9DRAy3DpYXZeD7n2bCNzgYZ88HoiQ7Bm/+5234\r\n+Idjh91q7Nh3BCX5GVi4bDWSkpKwauVK5OdkYeWqZdh7zAH+Xg548Y03kVFUiAWzZuJyfRPqqi9i\r\n5pwFKC7Jxrw/l+NiSTaWLl6E3NwsvP72ewgKiYTN8hU4fPoMkuMi8NOMPxAVE4d5v32LlWu3sXxR\r\ndeF1R/orI3PzQZsgAIk1a9YgNDSUucsC8AZDY0nq6+t5w2Hl+I2Eb5buMjIyJswFIHX9AjUKoF4B\r\ntOiBYydP4cOP3sHuQ2fw2dc/Ia6sDv5uRzFjyU54ertj5aoN+PGnn/HVT79gzoJFWGmzGQ0agwBk\r\nFkAdKmqbDAJQgzm/fYeYbOpCpW5abh7bs2E5nINj2L6vjxO22B/Frs0b4ReRDmjq8M23c0H9CAlB\r\nbrDZfhjJEeewdtMh5n/VgpmIziwFmkrw07ylyEoLx+w/V7Nj0YEuWLPjOJLCPbFm0z7m5nrmOI46\r\nu8Hx1H6cdnHG3F9/QgFl1LAtnvMzkvP5OD37bWtx9HwIogJOY729I3PbsHoVfHz8Mf33WVAwFxXm\r\n/vELMjMT8etv80F2uaqybMyYOxtKaoZ0ejQ0VmPZssXw8vXH4mVLcerUMezec4SFJusnbdXlhTh/\r\n3h0rli3F2g0b4eFgD9s9PM+0VZYk49cFS9h+dko0VqzdCocDmzBryTp4e3vDdsM6eHucxW8zZ4CX\r\nRovf5sxBem42Fs6eh9KmFtTX5GLGvPkoKsrCvCV/4mJpNpYuWYi8nCTMXLiUhcqIDMdKu+3YvtkW\r\n5/wjmFuEnyNW2dnzjJjVH9kaKHNzQ5u8DIyEq9mkcXSGzglA85lp0o0PzObhO7OxONng6asckGw2\r\ntsd8M+WXDyi3tpmOW4lbRuYmwygA67gFsLpZz2hQ6+EbEITzAZHYumEdflxgi2Ur1mDd5gOY//uP\r\n2Hr6AhN1fue9sWnzHqz8cw627j+KGXOX8EkjhnGATADWNRlnsTod2Y2lK9ZDpdZAqVYhtyAPJ/du\r\nwZZjbuz4/r0bcdTNAztsbHAhNBVqRQV++mkhqEM1ys8ZNluPICHMHavtDjD/KxfOQlRmCVqr8/D9\r\nrIUoyI3D9zPns7w5Ht6GFVsOITHCA2s37WX+zziSADyL08f3wumsC1YumIvg+Cx2TK1uwtrlC+AR\r\nFMf+Xj7zB9h7hiHU9xj+3MkF27rlfyIgJAq//PobCqoaoWy4iN9++AGlxemY/usfrAu8vDQbM+fN\r\nh8pQ5pzkKPzyxwK2n58aiqcGDoGDXzT7my5BeWkhysq46FTUFuO7r6bD5/xZzF62hrVGihYVygsS\r\n8PP8xcyamB4fghWrt8Db2R4bduyDSqVEfW016qvK8c3336CwuhGq5gq89+EnyC7Mw9zfZyCnvBq5\r\nGZH49LsfUFycg9kLFzEBuGjhPOTkpGD24j9Z+kkhIdiwYTvcnI9h7cbd0EKPvXYLsMJmPy+MmdiT\r\nBaDMzQ1tsgAUQVtLSwsUCkWnaG5uhlpNzY7lJo1bSmcFIG1qlQrR0YnYuecw1tnuxL5Dp5FTcJEd\r\nE8Zl11TXYdvWQ7Cz3YeNtvsN7IOtzV7Y2exHSTHvWnI+cx7jRr+LrZv5Q8IyTeuwtACkZuThgL0T\r\ny8fO3YeRmMgHgPMB1hrWlUVbTkER9h08jbUbduPICVdcLLtsSE9Y98xylp6MzM2ERRewgs/+rWvV\r\nIiI6HvOWrMGyVRsRV1yF/MvVWLrKDpt37MTFRjWqVVq4ePghv6wByRlZWGW7E6FxGahTmwtAipul\r\nRfeXugVbtm7G9Ok/Y+YfM7Ft5w7U1VZi6arVWLN2PVat2oAWTQtO2B9AXHwuVKpKrFu3EUotEBfr\r\nixOnXZGWEo6DR7lgPLjDBslFFWiuL8Z6u41QabVYuWYDli5fjSULZuGEgwfS0kJx+Kgn8+/n543z\r\nASHw9nJFQHAIcvNyMGveAqxYsQL+/r4oKcrFrNlzYLPRDgtn/gK/yARUlyfhmx+/xfnAaBw+cADJ\r\nWRcRHnQBcxfMx8IlC+DpFQCN8jLWrbdDqxaorLiITVu2spaCNrWqGXYbN2PFyhVYt3IFTjo5YoPt\r\nFtQ1NLDjGRnJmD17DhYtWoTZM3/DBd9AOlHYsnkLlixdjPWbt6E0Lw6bdu1gceZnpmDP3oPQqBRY\r\nt84Gq9etw9p161FVWQV/3wv4Y/ZcbLVdh99mz8Wlmjqccz6DWbNnY9U6G3aeL5dfwubde1FxuRg7\r\nt29BYUkRduziAjklMRm7DxyFHkrs32aHZctWY9nKhbA1WFzlGb8ytxK0yQLQAG15eXmsyyAwMBAB\r\nAQEdQv58fX2NkznEmzR+KZ0RgLQlJqTizdc/RdcuT+Pue4bgX11H4X//OQoPPfo6jp/mA6Zpy8nJ\r\nw/39x6PrPcPQo8tIdO8yAt27PIPu945Gj65jER6WwPzt2XUS/+//PIo5s9cY0u5YiNF28dJlfPXd\r\nIvToOwJ33/s0/tV1OP7xr8Ho338EVq3cYphgxzuzTp72wiNPPIf//dcg/Kvr0/jHvY9j0JDn4HUu\r\nwJAmicCO05WR+Tux2gXcAtQpdGhWAiodmPWtSg1UKvm+Qg++BqBCj0YNUNsK1KsAhY4vGVOl0LMJ\r\nIHwSiEgAsrT4C1+LoglNzc18xi4bKqdGQyO1FbSMCV9KRU9Lj7ClVDTQaDWGr4/oodbypWBUNL5O\r\np4Vaq4FSq2ULH1N8lEJ9QxPrPdBqqB0S1h7k4oXi1mrVDNo0GhVrp7Qafm/rtCr24kvhNVo+m7hV\r\n3YoWZQu/pw3LztCEk0ZFE9un8c46LeVXA51ey2bMsvX6qNg8VjQ1NqBVqTKkSfnm5WHh1So01Neh\r\nVcnzxN21aG6qg0qthFpPZdWwpVz4dGVhkT4t6hsa0KKkWb4sKJTNjWhpaWXeaDkdltfmRijUOkNQ\r\nHYtPWCSarjFdGgpPy8yo9UBTQz2yMtPZpJLDuzdi90l3HpFR/MkCUObmhzZZABqgLTw8HCUlJVAq\r\nlWhtbe0QjUaDiIgIFBfz5QTEmzR+KZ0VgO7u3njk4WGYN3ctfHyjEJOQjZVrdqFHn2EY+PQrKL1U\r\nyfzl5OTj4X+PwPDhryI6Ohnp6RlISUlFSnImUpJy0dTIR7/s23sa//zHQCyYv16UW94QszWtWNrm\r\neaItKzsXTzz5PD77chZc3H0Rl5QF+6POeOzxCejTawhCQ2KZv7TUXDzyyPO478HJ2LH3FBJSs7Bp\r\n+wH0HTAMjz4yCelpeTw9Q7y0Bho9FIRHAbXgPB/8GHenB53cqMr81fD6V1XbgJomNepb9IzGFh2a\r\nWnVobNGirlXHxvTRun5kGWxo1aKuRYN6WvhZoUM9YQjHLIjMisiFYZVCh6o6vt4eh4QLiRyD8CFh\r\no9UYlnYxLGJMYo4JQJ4/Jqh0BK0lKKzzB2hIdNHadBo9msmPoUwkuti9ZfgiBlvDjh2jZMlRxdMT\r\nDT8R1r/j6orfjyRAWVpMinFhamhEmEhiUk2vIvXHBBVfUJlEFYlAng+eF14OljeWcR6eHTcs6MzO\r\nC2sDqFzkTvGpAYOgpPPB0mACkAXkIlan4ZpZ6CmhuPjnO5i1kASgqeXh6/ixcwYSzIZzxSZ2CPnh\r\nfRwNdbU4tHcL1ttuwvYdB9DQXM8i4cJP/pKLzK0BbeJJIHe8ACQxd/HiRfbGSuKuPajrV6VSsTAk\r\nGll7ZyXetuiMACTobbWggA8MFzbK7QsvTkX3Hs8gIiKJuWXn5OPBf4/DiDHvQqHib9LiTVi6au/e\r\n07j7HwMxfwEXgK0qJWpq69gDg/kzNnymhVyF/Obl5Yti5Nvvv6/CP+9+Cnv3nWJ/29ntwz/+MQgL\r\nF2838zdn/nrc/Y+nsHDRJvY3mzHHXtj5Q0apbkFNXTU0OlPe6a2+sroKTQrDshHyeBqZv4GmpiZU\r\nVtagqrYe1XWNbPFm+q2hsYF1DUzEcbg7HSfRSHC/BH06ToEyRjMu1TTjYlUDGg1LllA6XACKFn9m\r\nosgk7MSLEXMxIyyITGKM/AlrAXKRxO5l4VeCeRn5vWVUSmJYXkjUCMLG0sIlLBLNw1MQSoPyxlZL\r\nNiw8LfjnL5kmAcjTFhZv5v6l+TPABCGPg5eZl5uLXiv+De7G82coqOBG6WtI7hnzJOybzpk0Xvpb\r\nkIymMdHWvzwiI3MzQ5u8DIwB2jojAOkYWQjpoUDcaAFobausasAzI97DQw9PRH5eKXPLzs3H/SQA\r\nx01B6eUaJKdnIzYxDZW1Ney42hAXE4B3D8ScOetx+LAzxo79AEOHvoM33/wBYeF8mQX2nt/JvHw6\r\nbSbuvWcYvL35m8O8+Wvxj/8dhH0HzrK/VYZwu/aexr33DMHrr33J/o4Ij8Gzk97F5k1H4OISiAkT\r\npmDY8FfwzrvfIjOzCAmJmXjzjZ8x+Ok3MXHi+3B0FNYHs8yXjMyNhO5VsvhLxwBfGS1obmmFoqWV\r\n/TY2099Ks+/WcgGoYSLQmLZI1Jn8mQSaOJ9mAtCK6LMuaoQXK0EASoSgmeizLgCN+RKFlx4TIy6T\r\nIAA5ln6tIx5r177wMgk7624dIRWAMjK3C7TJAtAAEyUSAUi/bPyKTsf+JuFH419IuNEafrR/owUg\r\nQVtWVjY2bNiDtWt34aWXPkP/AROwYxeffUdbdk4BHnpkMh589DmMHv8BunYfhS5dR+KZUW/hxGkv\r\n47sqCcBu3YbjqadexjPPvIpvv12EF1/4DPfe8wzGjJmC6ho++FqaB6E7rKa6Htu2HIHNhr2Y+vF0\r\n9Os7Ar/8sgRKFR+fs2vXKdz9j8H4ZNps42eeWlQaTPngJ3TpOgKjx0xBU0srQkJj0KPbM3jqqbcx\r\nYuRb+Pqb+ZgwcQruuWcIxo37BKPGvIX3P5iFd6f8jG7dhuKxR19GXh51tfO8WOZPRub6Q/cptQG0\r\nf903ZkwymMIN8LF9pvptZowziCSxABSLQMESZong1eRmXk6DABREoBA/OyaILd4lbFV0GTNnKIZZ\r\n3NbDm8pkSt88nDWEOMRxSf2YY3kuBMQWRHNLovi4ND4ZmdsF2mQBaIA2awJQEH5k7SPBVltby/ir\r\nBaCLy1nc/Y+nce89I3D33UMxcvQHSEjiSzTQlplVgD79x6Hvfc/iq2+XwHbjIXz7w2L07T8GffuN\r\nh5/h004kALvcOwRDh76J7Bw+drGmthETxn+KHt1HISiYL/MgzQMXgEB2diHu7z8BXf75DLr8czge\r\nffgluLheMOajuKQSw4a9hXvufQbvvvcbVq/bh5df+RKPPvYq7rv/RTwz8l3UNjQhKjoZ/fqOw333\r\nT0RQGB8/mJlbiEcffw3/vGcY1m7gM+9UOh3efucn/Otfw+Ds7GUQgNQdJc2fjMyth+nDsnxsmvS4\r\nSRyZsNpVa1zeSSrQxGGlcV871oSoOVLLoYDUX2ewVr7OY7LqCeJRiuBXfPzq0pKRudmhTRaABmgT\r\nBCCN76MuHxJ4DQ0NTOxZ468UgNVVNYiKSUZsfAb27HXAY0+8jKcGvYnsbJ52ZVUd7Dbvgr9h0Vhh\r\nW7F6M/737ifw4898odS9+6gL+EnM+J1/EYA/TYBPP52DLvcOg4enMFPXSj7Yx9KVSEzIRHxcBtxc\r\nvTF+3Pvo3Ws0vM6ZVu+PiErEK69/iZ69R6Fbj2fw+pvf4NjJc7jvgRcwbsInaFVrERmVhF69RuH5\r\nFz5DK31Hk2YnNisxctTH6N1nDOISM43xzZxth3/872AcPHDSkLerfYDIyFw5t84mmPFutk3I1/XI\r\n39WHN0+9ozy15S5vd9ImbQtuJ2iTBaAB2kjMlZaWMmufIPIEix+JNSl/hQA0bpK2aMmfu/C//3ga\r\nO3ccNz/A57Ox8TW0hYTHoWv3YXj3vZ/Z3/v2ObLJGPMX2LK/hWi/+GIe7r13CM56+HN3UT7FeZE2\r\niS6ufqzL99vv5pkdb1GqkJaRjbRM/h1OFzcv3HvvU/jo4+ns74jIRPTqOQqvv/4dlGouAOsaFBg5\r\n8gP06zsWSSnZxjTmztuEu+9+GvsNE034QPD2z5uMzPWAtqaWFmQVFSCjMB8Z7PcqobBSKE4B5ib8\r\nXgUWcd0EiPN0rfm71vBFBUhnv1byYxan2O3q07qjMav7dC4LkFlUeGtQWIic4mI2VleYeCVtF24H\r\naJNnARtEDm3R0dFGAUhr+wnQ3yT2CGHyB0GLRkdGRrIwTJhYibstOiMAaaurbUA+G/tmvi1cvI0J\r\nwM2b+ILOZLXMyuIfehdvJ0574B//HIRvv1/E/t67zwF3/2MQ5s23YX8LM9m++JwE4GC4uftxd7N8\r\n6KFUqpCeaRm/s4s3mwTyxRdz2N+KVhXyC/ki1eJt6rSf8a9/PYEdO46xv8MjxAKQLwtb19CMUYIA\r\nTDZ1b8+duxH/vPtpHNjvwP6WBaDMXwHr2qT1QYuLcNbvAs4G+MLNGoHXgp8I6bEr5XrGdb0Q5+la\r\n83et4duKy1qc1txkrpoAP7gF+MP1FuCsvz/O+voit6CI3f+3swAsK7skrwMoXGRXV1d4eXnhwoUL\r\n8PPzY9A+LfgcFxfHfmmhaHITOH36NBIS+CLL0njbo7MCcNsWezzy0ESsWrET4aGJSKb19+wd8djj\r\nL6Nnz5EICuKfTQoPi8a/HxyBn39cCu/z4UhOycWp0x4YMvQNdO8xHGc9ubDbu9eJWezmzbfjaRtW\r\nwiIB2OXeZ3DWnVsAjYOhDeI4KCgcDz34HKZPXwZvn2Am0M56XMCkyVNwz7+GYOcu3j3r5haAhx8e\r\nj4WL1iI8PAmxcRmYOWs1unR5CmPHvoOKKl7m8IgE9Oo5mglAleFrKvUNCiYA+/efgKQUUxfw3Ll2\r\nLM+yAJT5KxEEYG5hAdz9feER6A/3ICkB8AiWkZHpCM/goFuDoCCcDfBHVkEhM4/QUkptT6C6RTG0\r\nbfJC0AahRdY8Z2dnnD17Fm5ubuzX3d2d/drb22Pfvn04cuSI0U2ARKPQby6Ntz06KwDPnwvAmJFv\r\no+s9Q9G9yzD06DoM9/5zJB64/3ls2XKEDwqnCRSZ+Xj3P9+hZ7dh6HLPYHTvMgr3/GMY7hswnvmj\r\nwc+07dzpgLvuegyzZq3iabOlTXX4+OPp+O//+ySz6NFGXw4QlmmgLTU1G//5z3fo0WMY7r13ELp2\r\nGYJ//fNp9O41Cr//vhpNhvXMomPS8Pzzn7HxhF27PIMuXQbjX/96CpMmfYi4hEQeGXVNh8XinrsH\r\n4fnnp0Kt4Wv/1dY3Y/DgV9Gt61AkJKUZ/c74fQXuuuth7DaITFkAyvwViAWgq58PnAN94RjkCycz\r\n/HAmWEZGpiOcgwJuCVyCAuHs74eMQi4Aha/WWF+66BaFL+qBskuXYWe7Cba2G7F2zXqEhUawNu+O\r\nEoACJAKtdfnSOl50jP6m4zQxRAx1v0rj6ojOCEBh5m1DfRMCA6KwbctBbFi/E/v3n0JmFu8W5heU\r\nP6hUKh3iYlOwa+cRrFuzAwf2OyIzi49PFMYExsWnYvXqLfybmrwOMCugi6sXVq7cgrQM3s1LC6Ky\r\nys4WzzfEr9YhJi4Zu3Yfw/r1e7Bj53HExmYYx/1paA0z+rRSiwqBQTHYuvUgbGy3w9nFA7X1/HN5\r\nND6RtuLiMmxYvwP2h89ArVWzBaEp3L79x7F+w06UlVcYl68+7x2E5Ss2Iy6Wi0JTRZaeLxmZ64cg\r\nACvrahESH4uAuGj4WyNeRkamIwLi424JAuPiEBwbi6qaWvacua0FYNll2NnJAtDI1WzSODpD5wSg\r\nni1F09YmCDTm12AVs7ZRDKwSG9blEzZmzmaizPyA+UKookpj5su0UWiKnz5HRZ+lEkSedGPxiSao\r\nCJtGT5+70khyQenR2AtzN9Onqzq3DpiMzLXC6jf7FJnl0isyMjKdw/gll5scMnjQpxPZ88ZsYfDb\r\nSQDy8pVdKpcF4N9B5wUgVUjhwrEFwJjwIcFEgsv8M0v8otIPVWL2ywSXngk0YZFW+uwS3+eijn/9\r\nUm3o9jV837OdlfCp7ojfiAguALkVUMtEmlGzGb47ytMR8sMWXmV+ddBQuobvb7J9JuxM4U16Urw+\r\nl/B5qttzgK6MjIyMzN+LuQBs+5l468HNLUwAyl3ABgyqmIst7iZs/G++Ar3YFsbfBqzE1QGdEYDW\r\nDWlc8FAXLROAJOYMIkgQg7QJ2WQCzyDQBGsh/+4mF4GGGA3ij0s02tqr7FIBSGkQXAjyfAkCk8Uv\r\n3mfzjoWC8dX2NezboVz8cQFpafnjm1j8CYu0mn87lA/U5e6mPIv/Nrczigf3Ci+rxrckUZxm54Cd\r\nc/O42Jsjy7RQhyzPm9GvheXSun8ZGRkZmb+P21cA8ufRJVkAcoQtMycPLSql8W+VqgWtGhrbJjzc\r\ndVA0NaKkqAjZuXkmjXaFD/GOBCBtTY1NiI6Igd+FYMQlpKLkYrkxX8LGfXIhInS9FuaXor5OYfTD\r\nLHrGv6xvgpSpry9Hdl4+22+vsou3gqJC1NU3GcKYHWIbObW0qFB8qYr9rVIoUHqpDHm5+VBoDIJJ\r\n5FurV7chfmmzLIkeNIlEEK7UnSz2QxEZ/mZx6nGpvAJlZRXIL+XnUywJyScTuKzbT+wq2kR5u1hY\r\njPJafh1pq6muQFFJpeEvcSHUSExKROkly2so3uij8mQZlZ5vmb8HaTeWjIxMB7T5JRVrbmK/1tz+\r\n/vAmA4HwecArC3+t6d+o8LTRLGC+DqAd1qxZh9DQcOZ+RwlA2urrG5GTlgZHFzfUNtYiJy8flbW1\r\niAm5gAvhcWhRNCI7K5N9KaS+pg4Fubnw9g9EY0MdcrJyUdtYz21bVuK3RkcCkPnRaFFbVQ035/No\r\nVCiQlpaBxMQUBIWEITo2BeFhMaisa0BGRjrCIsJR39TM4vP3D0FuVhGio2MRlpiCJoUC8VFJCAkO\r\nQVFZGZJiUxASEIiS0jKkpqYjOjYeilYlElOTceb0KbifCzUKkra22to6REXGIC09C37+YThz5hyS\r\nUjPR0qpERGQU4uOSUFVRgdLSMlRUVOC8TyDsj3uwsDmpKTh85AScnVzh5R+D7JxC1NbXICw8EplZ\r\nudBBA5VKgcSEVCQkJKOpuRkpKcmIiU1EeVkFgkIjERkeg+i4JHZOampr2YLc2dm0dAyJJzUyM1IR\r\nGRGJ8rLLSExMQHx8PNQqDaBVw/7QCZafQydcER6dhPqWZqRmZCMkKg71zQqo9UBKTi4u19YjOTUD\r\nl8ovIzu3CNGRMcjKzEVjYxMiIxOQm1uK8JBgxGRms8kwKh2Ql5eN3QdcERcTgxalEjlpOQiLjcal\r\nkhJs37ILebkFiIgKR2ZmFi5dKkF4eBCKiooRERaGzCzKv8pg1ZW5GbB4uMnIyHRA5wQI5+oFjKVf\r\na25y+LbCkwahia20wsmaNWtgY2OHbMNawneQACSTjwbe3j7Iz87CKUcn+AeFws/3As55nUOwtz8u\r\nxMUi1D+APfzdXc8hIS4JoUHBCA4Nh39AAFsMmr4aQptl/NbpjACkzLU0VcHLyw9KdSPcnM/ixElX\r\nZGdk4uBpN6RmZMLh9BmcOuGIgKBgnPPj6j0kNBTOp1yRmp6NmIhIHDruwpZVCQwOxEn7owiPSUVs\r\nRCj2H3KEm5M7/AJC/n/2/jNIjiRN0wRRVVmke2V/rOyd3MqJ3O7dj73dnh2Z25menZkuXtVFsjKB\r\nrKru6uKZlQycJ1hmAgkgQROcIxAMNMBJBBAEwSmCIDjnnPNwzt3fk0/VzN3c3DzCAxEIAqhBHriH\r\nmqqZmpma6uufqn6Km7cfID2rBA119UjJKmLH6enrQ3t7Ozra29knQQKYtvq6OiQ/zWCzdp/EZ6Cm\r\nupWt6Xv37gNUNjSi+FkBHsUnoeR5KcpLyvHgUSKbGUxbf2cHktMykRSfgsaOPjx6EIs7t+OQ/6wU\r\nN24+wcQErbk8hGtXb6Gioh6dXT3ISE/H1Wv3EfsoBckZ+UhNzER5VQPi45JxO+Ye8vOLcSMmBuNj\r\nBtjtRqSnZeLu/TjcuhOL27ceoaK0DhYr9zeYnJiG588rEZech+clxbj/JAU3b91DRlY+UrNyWJzU\r\nrFwkpWfjYsRNpKZkIzzqNnJy83Hv3hNEXL6DZ3lliL2bgrgH8di7/wiqG9uZxbCtpRZxacVobKzD\r\ng4dP2LlzMnOYH8b4+AykJqSio6sLaekZuH//McorqhH34BGynxXi5s07GB2mcqR8aQXzSWDjJiA8\r\nNMZYI1wbeRCwOlzwShKiAOG8uIAJjKsVJtIHS08TTEmHDA8PMwNKS3MbaM4p8doIQDarx2VAfGI8\r\ndBPjuP8oFgnx6SguqEJnWw/qKipR2tiErLRUDI9NIONJKoqelyAjMwM5mVkYHBxEZlYmCsvLJhVz\r\naqYSgMwBswcwGYbx6HEybHYD4u/F48GDVIz09yPmcRKaO1twL+YuHt6PR3FxEQoquJuUnNxs3Lvz\r\nEKU1zajOL8L1Gw9RXVWF/NxniIm5g7zSalQ+L0HU9cdIjktBSVEhUkjoZpagub4WCancubQsAJX0\r\n9vUxKxuJ0sLCIty+dRv37yeitroROc9ycevWPZTUNqHweRHikjPxLKcI2WkZzM1MThYfXzDc24mn\r\n6RlITUrH4IQJj+4+xJ07j1BYWIHUlFwYjFY4nU40N7cg9t4T3L6dhNSnOYhPSsG9u49RVNqC7LQs\r\nNLV24GlCBu7euo/nhZVITc6AyWzD6OAQbt6LRfazItyLjUVrZy8e33qI6vp2dv7MlHS2EklWYS3q\r\na/Jx8348Yu88QVFxGcoqqliczuYOnD5/GY8eJ+HqrcdITEpHSt5zZl29dusxcvPKkZtRiKTHT3H7\r\n7mOkSw65m5srkJD6DM11dXj4MBH378ajoKgYuYXlSEzIQGJSJlo7u5Cano37D1PQ2tKNxLgnyCso\r\nY4LapLPwgQYaZUIw93i7f6QhFv5jRmeANECAvqvPyWciSuNm2YmpkpJm7skzFdlQAf/xry8b8iKg\r\nxEmzJd1uNmZXRv5bTgMajkHuobyz90PDe31BrOGy2FCHCwSC0CABSO0s0xpMiHDx53R6Xh8ByCpT\r\neJiVKScnD8UlJRgbHUZRfgka69ug142g8HkV+vu7kZf7DGXPyzE4MIj2jg70dHahs70dubQe8PAg\r\nv4fq4wchFAFIn3abEfVNLXA5bGitbUJjYxsMBj2qG1swNDaGns4eNDfUoajgudfXXldXO4aGh1Dw\r\nvBDlldWYGBtHTnomLl+5g8qaRuTm5OH2tQeoqm9DY00diouoi1uHqtoK5GY9Q3MbX9ou2EZd3V2d\r\n7Sh4VoCioueoralFZlYOymvqWRdwUWERSiuqYbDaUFpchryCAnR09KCipAoupxMOq46FV1Q3wmRx\r\noKmuCSNDYyjIL0ZdQys7h91uZ922RcWlzCdgUeFzFBaVsi7rrt5htLe1Y3RsgnWpjowMse7ZpqZW\r\nVohtdgdKiiuRn1+CispqVJZVo6ig1OusurW5DSVlFejqG8LQQA/ae4bQWN+MwqJyTOiNrGG2GS0o\r\nLq9BT283Kpu6YDKYUZhfhqqmNowZDOx4tY2t6O7g+SipaITJ7oRhbBjZ6QUoel4Js92BptoWFndo\r\njIYKtGF8woCCvCLUNbWhs6sXw6M6GCgsvwzNze28XXtFlx5ajJDAorGw1J1vsljYcIrZgo6pKeD8\r\nBKAsdrQFII0ZDUj/kpBn+jMBKE0sc0iiT4mfAKQLkVAfbzJ8AtCH95hKy6xGWoFAMDWyAPTh8fLa\r\nCECqRJjPH81JByR1/GeN8mDfPFZ545MHAo8fjFAEIFfm0gQP5mSZn5Uv36Yx4UK+Jv6H93+TQY+S\r\nwueorGmCQT+K4ufFqKiog8POu0R5ROV1khNoQjqeOn9U8QbZlIeRf1goN5493/QKb3YVmzyzONgW\r\nuM93InoGGhGkjft44t+Cby6pwaVNPrLyuny5lzbpYGz2sSKeVtnRul7lxibeMBc+goUAlQCDyYjB\r\n0TGM6IwYmlBiUjBZmDLc93ffyAR0RgvXMy43XC4ucsjqJTuflUUgc6XEIvIXy8Nmy5NVTlsAypZG\r\nrTBluFZY0PReixzPF+WJ5YF5JKA8k9BzqI5JypV3O2mdSyuMIXk3YAPvpTFlPB7XfZJJ1qeP5TwF\r\n6sOAMGW4VphIP3nY1OlVz1KwIBECUIH612ZIKNJN95c4pQlJADJFQb+qHXDRihlshiidSzudF9mq\r\nS2+mYlNL14B0UmUsT3lXxlbnzeeUWWaqSoDvo4OyD6o45OFBDDfcLtUxWXtHF6PIn9+95ueihknK\r\npXcf+SP03kfa2NglelY8PsuLL5V0XO3nyJ+3fFN5mHQVksNqPr6CPR92X+S/aZUY3gDKF+29b77T\r\nK86jvj7BfMF9GbkwOj6KCbMd41YPRq2YlDGNsGAMG50YGjdwIRU4ud3bTaxsbNl3bwxeiavzrXx/\r\nlcJKK8zvXdcI88aV3k3lxvPE43kd57odbBJVQHrFMYOdS30d7J2RrtbtsWs64qXvXndUGmHKuFph\r\nIv3sp+eon6VgoSEE4DxCjfxkE0e8wlISgNxpslIABqbxwV9C77FloeJ1nhzYaPidW1kp++p7335J\r\noAQKFTme9jX5juP7lMUfs3Aw8eOfN9pkAcf+ZuHaglB9bmX++IGopuJmA+U9ko+tJvg5lNdDn5I5\r\ngvwaMsEn32OlAKTGU/tY6vMH3lfBfCALwHGdDhNmB8YsHoxYgFELMGEHzB7A6OGij8INDmDcyb8b\r\nHYDJw4XehA0YtwPDZg9GzOBYSAC6MDJu9P5Ya21uxZP4JCQmJSMzMwsmi5WVLiqylB3mzJ2GJ1gM\r\niA67gIdxyaxI81KoElvMnRL/kSqXL69Vn/0C4/Hkd51lQXp3uKXNh/d+kMunjh7cvHUbba18uAVZ\r\nAFkcuFFXX48Jk4WLRW9anj9+Hv7Jz8HrNp9QVLxX0nf6MjYyipTUPNgUIkMtQNjbpwrTEitaYVoC\r\nRqTXjqsVppWeE/g+CRYWQgDOI3TzJ7MA+vBZl9SzeIIT7EUMbuFSo678QyPYedWoK4tQ0swcVltJ\r\ntZf2eUO9v8GQ768W6riCxcLohAFjJifGLG6MW9zQWT1oau/D6bBInLlyF106O+xWO0qel+BpcR3I\r\nI2Z5aSkuXr6FToOFjX/NLq3CiCQCvRidGB038DIJ4NihfTgXdg2l5RW4cPYkdn15CjRIg/3EoPXG\r\nuZZCTkoStn26H2OUljlTp7W0JREoDVBwuexeUyFZ5JgIU/6ck9aFlD2e+qx7PI6VLekohUjJ7KYe\r\nbNi8Bdl5mfhs2w5Y7fzHGheZduzcsRYV7dxLAFxOb0InKVcpf/yLky2tx6IpfHY6yY+StNFxaRsZ\r\n7MeT+Fj4rt7Dl+WjYTBSkMvJh7LQ8ZkzeWlFI7UFMlidphUealiw8FDDgoWHGhYsPNSwYOGhhk0W\r\nLljYCAE4j5CVh266OjyQmQrAly+sfIR6TnX+Qkkzc7wCUF4GL+Ccod5fwevEsM6AEaUAdHjwNCkd\r\nF6KvYdX772J72D20trXhB//pP2HFnuPQufTYsHoL9h49hfA7cTh4cD+eVdbD4J5cAJ44tAeFJeQL\r\nErDr+/DxBysw7gEykx/hy/1f4kJENIaGBrBt3cf4zV9WoLq6BTWl+fjqyH4cOnMOQ2PjKC9Jw7mL\r\nF3Eh7CL6h/pwIfwCDh38Ek8z8mGy6RAVGY6wixHY8+lWFFfwcz26fwO79+1FdHg4zDYnkhOSsP/w\r\nIURdiYbVxgUlSTOnQ4ddO7fg1v0HOHIqDA42pMLJxukBFuz+fD3KOvq5iCQXE3Y77t64jsMH9+Lm\r\nvScge2ZlaSZ2fnEQYWERuHrlNgaHR3A1OhwHTl9iLrVuXo1EVOQF7P7sU+QVV8OkH0BC0mP0D3Th\r\ncsQlXDx/Hrv2HEZnzxDcDj0unTmDgwcOISoqDClp3A0WrSquJQAFAoEPIQDnEV8Xb+A+f15EABJa\r\nAudlE0xYySitYWrxFyzN7KEtAJXnnc79FbwuKAUgxwWTNH/qy8824+i1OFgAXA4Px+ovTkDn0OOT\r\nDZ9gz7HzWL5mE1Zt3Y4TZ86jsLIREw7e/cvwCkB+rOMHd2PjtgO4fCUSK//2B9yLS0Nrcyk2b96O\r\nwZEhXL0aiVt345D0+A6+OheFieEerFm7As3tnUhNus8skveuHMHa7fsAjwMXzn2FS9cfYHSgG2s/\r\n3YWG5hL88V9+g6a2fpQUJmHbZwdRU1yAjRs+x7hFj+7eXpQVpGPT1t0YHx/FxUsX8SAuiWeOLIk2\r\nM/bv2YD/+INfoGVgBHG3o1Hv9RhgxZ7PN6Cyg1a64ReU+PghDh47i9GJQRzcsw+ZBUVYs3Ytqtt6\r\n0NVSgrd+9SZa2tvx67d+iazaZpitQ/jTr5ehuq4FdVXPsGbLF+jtasSmTz9Hc2s1/vi732JQZ8TD\r\n27dx/FwUnsbdxL7TZ5kV8+KBL3DoQBQ7LxtKMi3xp2WlDzUsWHioYcHCQw0LFh5qWLDwUMMmCxcs\r\nZIQAFMwyWqJKCYmrqccgvnyCCUCBIBC1BXDEBlhcwJVLp7Dq02MYk3pb79y5ho17TrBu2/q6ely7\r\nfRdr1q3H+xs+wZmoq9i0Yxd0Dj6GkI0HVAnAE4d24/bDDAyP9eH4of14nJqP5xl38d7qTUhNTcGD\r\nuw9QUlWF5JSHOHH1JnpbqvCn9/6IhKSnePzgLjLyCnA36gjCbj9ix9v+ycc4GXkH8YmJuH7nAbo6\r\nqvHJ5m0sf8M9Dfhs707E3YvCsUu3JBEHZNy9iA8/OYDklBTcvnsXZeWV0h4PIk4dxIPkbDQ3lGLn\r\np59h65ZtGDPLncg27P18Ixp6R73HOvnVLhz46hgSkp/i7u1HKMzLxupPP2ULNwJGbNz4MRpamrBy\r\n+WoM02xixwA2rN7AxlIaRjuxZccWdHc0YNsXe9DUWo09e3azW1VTkIGvjp1E2KmDSMnm/lcLs27g\r\nq5ORPKc0MWbSoR5KtOokEjNaPwa14mqFve7pBYsBIQAFs0wola26UpkPhAAUhI5aANLEj+yU+/hf\r\n/pf/Das+3Ycrj9PQ0FiB3/3u1/iPP/gZHmdWM6vUlagI3I59iovh57B62+fYd/wM9E4SgHwyiVoA\r\nHt69Fek5XHANdFXh45WrUFdfhk1bNqC5sxuNNfUYGR9BQvw97L8UDbNtCGs2bERRTQNaWprR1TeI\r\nuxf34/jV2+wY16PO4PylK+gbGkFFZR0mRtqxatVGWN3AQGcDNu/Yioa6MqxcuRH1LS0oq6hA2fN8\r\nbNy8Fe09vaiprsXwoLyuNXDq0Be4cScOI8ND2L1lBX71zntoldbTpjGAWzd8iOuPUlBc9hy1jdVI\r\nT4zFgX2H0TPQj6rKUkyMdGPzqvVIzC9DWVEW3vr5z9HY1oZ33/sYA3Yb3PZeLP9gLXQ2D8YG27Bu\r\n03p0tTdg445P0dhcje2ffsocYJXlpGHv/lMof56FFevXo6TkGbat/ysOHOMCkC9nIPuImeo9l+uk\r\nUAWQOq5W2OueXrAYEAJQMMtoVbZyZRKsUpkPgglAZV7VaQSvKz4B6GHiTW8F2rv7kfKsFEk5BSio\r\n70BXfy8y854hKbcAFc0DMNidqGltRb8FGBjXIzm3CF1jFjZ7mGYNEzQLeHTC6J3MkJ+TjrZOGkNH\r\nmwOJCQ/QN2FARXEOzp6/gMiwCPQND6OttRY5pRUsVmd9GU6fP48LYedQ29aOuopnKKzkKwI57Cbc\r\nv3kNFy9G4uGTRFjME0hKSmZj94wTI0hOS2GnLshKx7FT5xBz7yEsbjdKcp7iwrkLiIi+jMGRESk/\r\ngH6sF5cjLuD8hYvIyipAXXUFW0KKb27Ex97F3kMn8dXh/bgQFgar2Yz4hDs4c+4srl67w+5JT2sT\r\njp+NwN1bD/AkLg4jY+OIe5wAI40ZdBqQGP8UNictgTmB5NRk6CZGkJKRgZHRQTZGkPLb39WBrJxC\r\ndtaqogzcuB6DiJirOHzqJs+Kkw/18D1D9XuuJNg7ryVqtOJqhYn0goWPEICCWUZLVMkViZL5riyC\r\nCUBlHtVpBK8jtA1PcAEoj90bJlcwNkDv4ow7uKDz/m3n8eiTunvJFQyFj9l84/8ofMjkwvCE0evG\r\nRN742GD5L8UO9TbZLqVHcjlM/lTsk69REeD/txQnIJ5io3003i5gUx9aHSCF8g86h/xVKx7flHkf\r\nGBhEzJ27qKwqxc7tm5GQybuDSQCqn6NAIPBHCEDBLDOVqFooAmsyASjGswh80DaiM2DUZGf+/CbI\r\nr5/EOEFCzwKMKVD/LYcpw+n7sMGBEVkAStorlMlhXAgFhi9YXkZ+ycLpsKOs+BliH93Ds7IKNraR\r\n+ToMcFAvEAjUCAEomGW0RBVBDZoSdbq5JpgAXCj5EywUyDJntjkwODqBoTEdBsf1XobG9Bga1WFA\r\nxWCQMKJf+ps++0cmYLaSo3BuB2OuS+T1dCU3Jmrk2a3q8NcV5UbvrrwesW/9YfE+CwRaCAEomGW0\r\nRNVCJJgAFAj8keYRMLHBxIXLH8cMoPVz+Xl4t6b3HJMIQMHk0L2j1YRAa6cTQgAKBJoIAcjgyxaR\r\nR/qpLUCyWJgsjg95uSN1+KtLMFG10O5DMAG40PI5u1DDGNi9SH8rLCXMhxo1ooFL0vHuNQoP/T0g\r\nBcXdL6oH5i8OFIvHeJe8mk3kY8vHp/kLJAzV8QShQfcu0A+g+n1/HQgsywKBEiEA6U2Bky0zZIUd\r\nLlpkaJIxavJAbbb0ksZ+ZTxppA7cbExZYJxXE60KaCGOqwtWWS7EvM4Sbm4d4ZYm7inD7aIuR1pj\r\n2s7WmXa53HBRmMvNV35gKz242WoPtPgWDwOctAoX617Tvlc+occXemaTMultWKQCUFqOm31XCw6B\r\nYKHB2yZaoYWGF0z9I03wevL6CkBJydEg4s6+YVipomdz1OgftW5SoybNXJPTuVw2DAwNsl+YpBz8\r\njysLCS78zGY9RsfH5dEpUvxX/WUMJqqCi+r5YTIBuNDyOjl89qVUUtnFSCVOCvfF5WumDgwNKSx8\r\n1GDQ2ql2OD1OJvxoc7rs6Onp53+zbjQnDHoDRkb42tVkSfSwxoWgtWj58eV8KLvdyGLotFsxPDQk\r\nxfHdb56CvsvxZQvsQnpPaLVdgmoGyQoqECxgWM8TvaPUFS6/dC9jIo5gUfOaCkB6FVxISctCS3sH\r\nnhWWw043w2GCmxpCJ1lDeENIL5LVzpdjJyuh2TKCQ8cvwcC831MD6mTjTkg8Otx2/sKxuWhASXEW\r\nIm/Fs+9Wq5VZVrhwZG8i3C4nnFK3mtwFxzKn7BNabMjTGeUpjQy6LmYyCow/XyjzudDzOhnMokYC\r\nzA0bK6dMncFm56sz2C02Vm5lVTg20oVjpyOl8VJ0qVQG3UzgGKw8TXp6Ntq6O1HwrAQOOy1xQXuB\r\nrq5eVNfWIT4hBSMGMz83aCybC26qSKh72eNm56TzkbWRCTkAuv4+nDgfzr7brWRpl94vlxt2B60L\r\nQT/KHFKj5ZQ+Na53LpGslbT1mp1I7THjaY8Dib0uJAkEC5inPYQD2QNOGPmrxrbAtlDwOvNaCkD2\r\nIrgNWL12K2LuxeF+Qgpi7z7CoQPhOHDwNKLD7+P42RiMjE/gQlgUDp25isKqZpbOZdNh9dp9OHYs\r\nHDG3k5CclIvSmmaUlpUh61kxizPY34azJyKwZ9thhN/KQmluNsLOxeBk2G3kP3uOjMx8DHZ3IC4h\r\nhcWnhdTlrjTvgKNFi1JYqfctJFQCMGD/IgFAZXEBduw+jTPHolFb3YiYqPO4EHELyfHpOHUsAifP\r\n38LY+CiuRVzGkYOn8Pn+i3ianI3Wjm48z89GYWkt4hLScOj4OTy4FYcNaz/Hnce5ePQwA3eu3kDv\r\nqB4piZl49CQNj5NSseKjrbgTm46HT7KgGx3C7ft82bGJ4V7s+vwkTh+5joT4TMQ+SURnbz8KMzOQ\r\nk5WDs5E3kJ2egxOnriH6TgJGhwZx7nQEzp6JQVMzrSdL1kYbPC4b4HYwIRtwvXMM+x1A93jMgfAW\r\nIKoNiBQIFjhUTsPbgGttbgzbhQVQoM1rKQC5BrQjLOI6ymvrcCgyBmdOR6GgvAXhEVdRUt2OS9ev\r\n4Ub4DezYfQGPHj7F9n2RzErisIzj891nYHfacPr0ZcQnZyHq2m1ciYxBSy9fMin22gMUlNaipqoK\r\n0fez0NbQgIyMAqzbvBcVFRU4dfYqbt+OQ1Fpo+Kl5NYSdQO0+FgsourVEYB5Kam48qgAA72tOHvy\r\nCs4eCUNvTz8OHg6DweZCxuNYnDh5FRHX7sNg1ePkxRhcuxyPuqZuZKak4e6jZJw4dZnZrUf7BxF+\r\n4SbqWjtw+twtJCcl4sH9JESei0Jqeg6uPnyKiAuXMTLRj+OnwxF3PwFJqXxFhr6eHhw4ehlOB3Dq\r\n6FEcPR2N6u4BpDyMR3xSMsIu38Kj2Mc4dOgM7idl4u7lWzhy9DruXL+NI6fu8hbKZYXHTSwQAUjv\r\nJgnAUTuiWjy40gZEt784lzXCpoNIHxg2HV719PJ+KqckAm+0ujBsEwJQoM1rLACBS2GRyMzLx7GL\r\nN3D67E2UN3Yh6moMals7EX79Mlu8fNsXZ3H9dgKu3HjCGgKbbQLrNh5AQ3UzDh46j4GRcZzcewyH\r\nT8TAwTqCgeyEWMTcj8fDR0m4cCMJxw4cx53b97F85S609AzhxuUb2LblIBwObl5Q9joFND6LDmXv\r\nqRwmd3EvpHF1Uj4D8irncyGNQQsObbmpyTh86RGe5eTi8uV7CD9zG2PjZhw/FYGyinpEhl3CrTuJ\r\nOHn2MkrLy7H3YDju343Fo/hsnD8TjdiEbJw4cQl1dc24c+sxTp+7juKSChw6cQ39o8NYvXwLYp48\r\nQ/Xz57hxLwEXjl1Az6gOaQ/uYuW63Rgy8q7jwZ4OfLLrK1Q0NOD4idOIirqB2PRnuHjwAp7EP8XJ\r\nsGsoLK5AUlIqNnx2ELcjr+Pw4bOIuXYfsU+SpRaK+27j/tsCr3c+oF8IzToH7rS6cbMduNnuEQgW\r\nLm0exLS7EdPpQFyHHaM0wsJvLLBAwHlNBSBvOOtqapCanoWismqUFFdhYHgcFZXVGB4fR1lFGVuj\r\nMisrH9dvJqGjo4+lcbuMSEh4itsxsSgsa2Jh1yOvIy6TFnAnJQHYnCY8fpyKKzdiUVHfjZLiQty7\r\n+xBxcZkYnjAhPzUN4defSg2e/3AzrwDUyPPiQClo5bAFKgA187r4BGBO+kOs2XkSsQ+fYkJvQFlx\r\nOYw2J/r7B3Hlyi3Ep+ayHyalBYW4fvUB0tLKMDE+ihu37uLR/TT0DYyiubkNUZdvoqKxAy01DcjJ\r\nKkJeYTUbq5eVmYPekQkM9XShqakTxYUlqKhpQVVpCb48d4e/F7RaRnc9Nq37BNF3H6Guqw/Do0O4\r\neusxEu4mo62tHaVllWhpaMHVG4+QkVcBh82GlKdPEXP3AQaHBvjrIA1aV1/n/GKHw+2C3ubBmNWD\r\nUYFggTNic2HU7oTB7oLTpS7PAgHntRWANAg+cOOD3eUB8/KHvMkuLJRbc2MNjpy5AqtkzZO0m2KT\r\nj8k33cgwThyJxMCYif2tFiJTWQD9fVtNHh5qWLDwUMP8w33X4gvzCcCp008/LFj45GH+990X7hOA\r\nk6efOjzUsGDhoYTRVlxYgDh5DVRWaGlCBhe18kazdZWbYjnVgIKu/ItcwPAvNBnEt8dp0uHEyUhU\r\n9wwyN0q0Z6SvA1euP/DF8Tss/8MvyG1V/hGS6FZf/2ThoYZNFk74fpQpTcbqzxcJC/Y91LBg30MN\r\nC/Y91LBg30MNC/Y91LBg30MNC/Y91LBg30MNC/Y91LBJvpPLJqpvQX47p36vBK8nr60A5Pi7nqAX\r\nx/se+b1LSqscffiO4XI5uANp/2jSdx6Hh/G09DK6XE7W5MlhyuNNZQGUvd0rGyv6LodrhSnjaoXN\r\nbnrf9WvF1Qqb3fMHhmmn9z1fZV5DT68dVyvsZacH+ehzOuFxcbcP9Emza6ms8XVlyfkz+frjYczP\r\nn9vl/Vtee5Y7ePaFgfn/o+MxXzHs05uGVrJw0Pxi7m6C+5NxsnDyLUjpmTNj5nuQ3My4+Cx47k9F\r\n8i1Ix6SJFrLontpCrHX9M71/Wun98X9HBYLFgFzOlWVdIFDymgtANQrx5/9janKrnOxYVyEqJms0\r\nJhuP4RWAQc4VagM20wbwxdMHiqrppQ8MeznpXyEBqCgzrNxIYm0mkPjz4XWE5xWLDMoHWReYAJTP\r\nz9NzIUmWSN/arCQGmUcZP3gaPu7Pf9KHfH1KtK5/pvdPK71AIBC86ggBGIDKqj6JAGQNoLfx4CJi\r\nKvE3FbIiUYfLyOdUN2DqMGW4VtjLS++7fnW8wLjBw15+en8B6Ivr88k4efrJw6Y+/+Rh00nPYC5L\r\nVEKQQQJN67sSdbg6jfKHEfdlyfbJ+fBaC33CU7ZAKuFi0XccJd6XTuM9m+r6tcKU4VphoaQXCASC\r\nVxkhAIMyuQCkxkK2GigJPI5gYeIv8n3hoXdHLkS8AlBj34ujvlf+94y9FxpWRD9roSwAA+63QCAQ\r\nCOYDIQAnRRaAgZaJFxeAfNzhZFaOSQlI93IbU5+QkAfpTwffcfji7D6rmqof8IVga9MG3I9Q0RYz\r\nXPhpr2+7GNAqqzNHfa/U94xb9HxduJKFT16Syq8sqNMuLjRuwoxRn0MgEAjmAiEAA1BagHjjxSpq\r\njUbV13UkzbiaUjSwOVlMYDA/Z2zpLDldaLBGlh2LZ8m3ALgsQAPTqMXYdOCtuYPDXAVPB5rs4qTF\r\nwviEAI+bzQyl/Ja12pBVbUVOzXSxMTJrLRgy0Tq0UjellF+1ICe0u/bU7bAcrhYsCx/ljxGtMOX1\r\na4VNnd53n3yLzfvuGT1XBzmMoXdF4VibLatIkz9oL/sRoHW/tc+/kPCzYlLXtosmtMwO3Cq6uMqb\r\nQCB4NaA6SAhAP9TiicSab3B6YHyCKnA5vnqfD7ZOKjWKIMe55J2TBFKgZSs41LLySSSET/zNvgBk\r\nVjqPB0aHE4N6B0Z0dozop8ewwYohvRVjZiccdDg3l4V0FefidPjwnAsrL8o4Q4DHXXHRjTUX7Gjs\r\npaPRsmFkseP5lu+DkukJwMWHloCaCwGoXkyFSqhcornzGPpLLucyUhlWlEnls1Jf20KARBqt5T06\r\nOobhMR2GxvSzxuCYDhabnb/RGucWCASCl4UQgAGoxZP/7ERlXGokeUMaqgCkZaWcaB00I7VCj4xK\r\nk5fMEEmvNiK1woTGft5ovCwBSJYbaqyrOzzYds2Grdenz5brNmy4YsXNbCP3/yZNKCUJcDFBjxVh\r\nLqyJdGF1pBOroiZnpfS5NsKNNRFurL/kQlOv1BXMLEs832SN4miLHR/BBODis8hMLeB84VphWunl\r\ncG88msghPTvZtkvuj8zjPdC1VmA09wF67x1AX/RnGLiwGc1he/AopRvXChx4km9AWoUZpe0OdI3Q\r\nDwIH2YS9UpF1uZM1XBo3qL6++Ya2CZ0OepMVExYXxiyeaTMuERjmwrjeqHALJSOXS6kXgtVBQe4N\r\n2yXdw6A/UieD/PLQS+QbQUDPmu9T9IAw3U6ufSTfcsHyM1vQ7HE2skBlhZXed7/yKRAIpo0QgAGo\r\nxZO2AAzWwE4FNXip5Xb87YIDH1904iMijHCFxAeXnPjgrBMPnpMV0cMbY4VlxidGZ1Y5s+48eFDe\r\n5sKKS06siPBgJQMKtMJ8UJoPwtyISpcc/spWJLhxLsGMjy55sCqSAFZPwkoFqyPdWB3pwdoIOxr7\r\nSERIs1K9eadrD2UMXzABGGr6Vxte3rnoYEMU2JhLwO6wwtBejuG4C2jf+RvU/+1/RudvvoPuXy1B\r\nxy+WoP3nS9D1z0tQ/a//H+w704K/hQEfh7nwYRiVIxfWR7ix7YYdxxPMeFrpRMuwE1aHBYAZ8Njg\r\ncTmm9T69bHjhAMZ0BoyZHBgxuzFk9ngZNgPDFvj+thD8b/rkeDBsBUYIswcjJs4oxTG6MDyulwQg\r\nt5v6b/QeW5iVO+jyeC5ywUj7uZ9FjuSiRx1XDT1jxbmYJHcBdib22IG9e8knJI/Gu8JlN0Fs0o/6\r\nuDOGLsIJm3QafloqgzTsA9yX5QvUvwKBwIcQgAG8fAGYXuXAR2FurA53MVZFeAJETzBWRLlZF2hs\r\nCXWtaQlA+RperFKWf1VzAQhUtLmwKtyBVUx4EXJeKM9ymFb++f6PL7kQnekvAJ1w4WyCBR9e4qJu\r\nKgFI+5UCkETjmggbGvvo6rmFwHcNymcXeH0+JhOAoaR/9WGWIP7kYBvrw0hsOLo2/hBNv/u/oeUX\r\nS9D5iyXo/tUb6Fz6bbQt+xZal34Lbcu+jY6lX0f1n/8dDl5owfJIYI0k8qmcL49w4aNwN9675Ma7\r\n4U6sjbbiaJwVWQ0OTJjoeVoBt0OyLikJzN9cIFu+RnUGjJicTNgNSpCw07mBcTswZHFj1AGMO4Fh\r\nqxvjDmDMCQzR0lx2YITF8WCEAS9DRqdXANKWlJiAw4dP4eSp4zh89AjqGxu56ZwEoNSxThvLm7RR\r\nqHliFMdPnIHRRCu2eHexTRlX/tt7fQCGB3pw8vhRHDh2Ah19tLIL77hnAhBAQ10t9u3+Art3fY5j\r\nx45heHBIeTC4yVm4pniVBqsE5Ic/T1VgQFhFSS6irj9k3zs6OthnfHwckp+ms+/yGalfheos9Taf\r\n5UYgWAwIARiA0oImC0Bf34gy7ot0QVCTmlHlYFYRWQCunoYAJCG28qJHEoButggX/RpnXSVMYTml\r\nZbto4gZbciEEKCXPn+z3V65QfQJQFnzK/HDxx614HN8+WQC6NQSgmwnAj6YhAGW0BCDl2fcsQrWA\r\nBhOAoaZ/9aD756TvJL6kBtYy0oHBK1vR/u7/E22/+AbafrkETcu+jqZ33kDHsjfQtewbaF/2TbS+\r\n8x20vfN37LN96TdQ9ed/h0MXW7EiigtA+TnS38ujgI+j3Vge5cGKCOCDSx72Q+HLG248KbJg2ECW\r\nHhscsMIlT5jSyO9coBSAoyYnE31DZNWzAjqzDeGRl7Dz5GUm+Dq7e7Dh07346/IVeJxThGu37mHl\r\nxu2o6RhEemY64tIKYHABoxYfagF4aN8uPEl8hgmTDgWFGVj+4Ufo6Blm+/S6MbQ0t8Lm4uXeabei\r\nobkJQxNGuOxmlFdWwc775tHS2gadbhxmiw02px02mw2DI6No7+rmkknqSqUtJuIUohMykXw/Arce\r\nxbEwj2T5Gx3swN/+9iGKnhfBqB9HTlYquiQx1tHWjtHhcZ4XqxF2iwndHR0wmEyw24xob2uR/D86\r\nYLPbMDwywtJKo0DhctnR0lyHYZ3O+0NjYnQUjS0dsDtdGBvpR1trJ1qbq/H+Rx+hb3AEvT096O7p\r\nZ3FNuhE0NjfAStZPjxtGqxV6vQ4tLU1w0Ko0bPIRr+PUz1UgEAgBGBLBBOB0IUvVTAUgwQUgn05B\r\nFkiHxw2bx8m66pjwc9uZFYV3G02Nx+2A02NjcpIma3CLYigCUBJoUR6sjHIzfOGzJwD9CRSAtO6t\r\nvwU0FIIJwNcXb/kmi59Zj/7Y42j/4H9lwq/rTRJ7f4+2pd9Gy9uSte9tgqx/3AIo0/H2ElT9+R9w\r\n+GIrVjIB6F9ufGJeIoJ/fhxBeLArxoSEMiNMdio38qz3+UEtAMlqR+KPrH7dfX1Yv/wv+Nm7W0Ar\r\ne+/buQOfHz6N1Lx8lNSUYcW6rbh28wEOHD+Hz3Z8gvr2bhic3PIXTAAeP/wF0vOqvH/fuH4RF2Me\r\nore1BnsPHEJk2CWcDouCxTSG/Qe/wumIa7h48QrGxvuw98uDMJjMOHFoHw4dOoFTJ7/Cug2fYHB8\r\nGKtXrsOR8xH4bPs2XL15mx3bIfWtdtZn44N/+yN2HjiGrv4hdA+NwUnCG0DC3Uv46uQZKTc+m9v5\r\n01/hq2NH8MWOzcgpLEJrTRFWf/gxLp09i9WrVuHw8ZM4sOdzHDt5ERbrONau2oDDJ8/i0J6duHDp\r\nMlwuC/bsP4BjJ49h27bNKKhvR0tjPnbuOoCIsAjEJ2WivroQ4WExSH5yDT/86T/jXmwykhMTcD8p\r\nBf3tDdi7dQfOnDyOnTsPwWgxYN+X27Hn4GF8dXA3vjxwGFSj0Qx0Yc0XCLQRAjAEZlcAumckAFl3\r\nqEoAUrVsdbrwMF+HsGQrLqUQtimwewlLseFiih3R6RaMGMmhh5YAVHcBK/NE4s8VRABqdQHPVADS\r\nRBC1BVBqqzXuuzZCAAbCH5OxKhsdG36ChjeXoPNXS9D59rfQsvTvGc1Lv4Ompd9mNErfW5jw+6YX\r\nLgD/dyYAuQVQu9yooXgbohxYE2HB6gs2nLhvQ8cAH+sq92sG5vnlElQAmp0wOjwoL8jAOx9ugcED\r\n/PV3v8Z7q9bjzx9+hJsJyThy/AS27NiHjz7+GH9bsxVrN27E9fvx0Dm5+BujY6kF4KEvkJZb6f07\r\nKSEOxy6G4fjBzxFx+S4a62uwdfNOlDzPx8q1G/GsuBq6CROsjgmsWrsRxc8zsH3rHpZ2ZKALf3nv\r\nIwyMDeHDdz/CuMOD4a5KrNm2i/khYO+M24Ur167isy2bsW3/MdTWVOHouTCv1LsdeRxh165Jf/H3\r\nrbG2ENu2fc6+D3QVY8Onu1BSmIntO/h59326CY+zCgG7AWvWrcHI+DCWv/shBs3UM2HGJ5+swcN7\r\n9/D5wRMsfnV5DnYeOoKijBjs3vkFmls62DjE0mfx+GLfBVisQ9i09RMW9/7daITff4TTx/fjaW4Z\r\nC7t4+iQepOTgs882Ib++mXkG+ODjFeg0mLkbKo3nKhAIhAAMCS0BOJMxgCQAaUIHiT82q1XRdSqP\r\ndQsmisj65ROAdH7eNFpcLhy4rcf7FzxscgUjDJMgx+Gf1A23OtKOgTFJVEl5rWhzSgKQzh9cqAZ2\r\nAfP4/hZAugczFYB8PNkaNgmE3wPWlSWhvt8Cf7zL7kqw5duYf0rA5rRi+P5JtP3L/x2Nby5B89Jv\r\nomXp19G+9JvM8tfK4NY/L17rn1oA/gMOXmzDx1H8mQU+Rx9rIsiiSxN7PNgQDqxjFl43loe5seGy\r\nA0kVFskPpT3gel42fgLQ6MSoNHmDxvLpHG7kpsXhV39ZDp0LWPG3P+Hi4zQ8vnsRK7d+hTEA2dnP\r\n8Pnnn+KT7VtwKy4ea7d8zsYEkgAcJxFocGGUBKAkvo8f3I1nxQ38D3iwe+enSM7JxZc7P8GN2Ay0\r\ntDSjvr4ZZqsDfd0tuH37Bj7ZvAstXTXYsulTlBZkYeu2L1jq0YF2vPfhCmYB3LxuM0hmDvWWYtNn\r\nu9gkD9ra6sqxbvsB9r0g/R7++Sc/RGJ2vnR+oCI3Gcs3bGVztmmjZOVFT7HzMy7ezMNtWLVlG4ry\r\n0nDg8EkWdnTfHhRU1sFlGcP6DRsxODqAjWvWs+5vevs/3bEDly9H4uiZcyx+V1MBtmzfzspgWUkZ\r\nTp05jaOnLqC0IAVfHbwAk74X6zZuYXEfPLiMKw9jcfir3ciu4PfpVuRZ3IxLwd4vv0BFZw/gtmHj\r\nxg3onKDJRdwrgBjXKxAEIgRgCCxMAcgngZAApE8SgIfv6pngCj4xQ4ncpcuh426MtmOICUBeaQYK\r\nwOnz8SWPJAC5qW3mApDHVwpAKatCAIaCz6MId6chmXrc5hH0Hf49mn6xBC1Ll6Bx6dfQuvQNP2EX\r\nKiQAK//8D9gX1o4Po6d+viT21kbwd2FdBFkCffuo/HwUZsH1HDNMNnrec9uIKwXgmNGBUbOLQRM8\r\nqtq78Pu//gX/7ae/xLHIu6ioKMPf/vYe/vDue0gsa4IOQGREFPLL6pGY+ATvr9iAqLuPMebi3cAk\r\nAMcNLoyN+QTgicN78NHqbThz+jw++2wLDh89ysILM5PxxfbP8ejJU1y9eQ+D/T24fjUKqckJ2PjJ\r\nFjS012HL+q0YNxhw8sAhfHloH04f3oXf/fl9DEyMYPP6zdB5gMGeCmzeuQt2NuADmBjrxfoN63Dj\r\n7iNER5zHilWrcODQYRhNNCubrt+E44d3Y922HQi7dB5bd+xBRWUtDuz8HNFXr+Pg7s9w61E86p/n\r\n4MuDh1lev9q3F/mVNbCbx7Bh4ycY1Y/iX5f+FqcvRePi6cPYs+8EJnQj+GTLFlyPuYVPt29hFsOm\r\n6iLcvHYDt29fw76DJ1BSmIwj+88xq+GqDz/AvdgE3L5zGzfvP0ZVeRY2b92AW3disGH9dgwM9eKL\r\nLzaivLMbcFmxZd1a9EzQNdBYaJsQgAKBBkIAhsDcCEDOTAXgcoUADBhr5Tf+aq4F4OQWQK28BkMt\r\nAGduAfR1BfPnyvuUlXHkSSYvMvFnoSBdIL82N431JK+UgHNiAL07l6Ljza+j+Z1vo+ntb6GJBKCf\r\nsPON8WuVLH40+UNGaQXsXLoElX/5BxwIa8fyaGANdQOzrmB6bj7k57mWufUhESgJQMW+lREurIig\r\nWcNOnHxihZ7NFKYSFHh9LwO1ABwjAUgzfi0uDFmc6DU6MUiTQ3QmTDgonh39eidGbWQxtGDA5ILB\r\n5oHJ5sbQhBljNBvYxgUgdQGPGF0Y8XYBuzDU14O8omI8e5aP2qZGPrxDUunNLXXIzs1FS1sn88fX\r\nUF+JvNwMdLFJER70dPXC7AIsRgM6WhrQ3lyFdZu2weSwoqenD2ZyxG41obOvBy442V2kI9Nki7xn\r\nBSiurmWdvH3dHbBZaRwxXTu9u0bUVBQiLSsTdS2N7H5Y9BPIyytAdU09r390Q+jr72H5HBjog85i\r\nhcdtY+Mkx3Sj2Lh2A8qqa1FamA+dnTqgAd3YCLJy8tDQ1MpcQ5mM4yh+XoL8gjwYLFZYTAb09Q6w\r\nuIO97Sgqq8bImA5jYyStgc6mauTl5mFoiGytbnT19sJqdcDltKOruwkOB+WBrH+yWychAAUCJUIA\r\nhoCWAHxRtAUgiTByiDz1WKlQBSCLpyEmtcLkmbzzJQCVqNNroSUAZX3jW48iVJQrrHCTmFoAKsX+\r\ni4j+hQSbUUuzSMmPGjXtY13o3fJ9tP1iCRd/y76J5qVvoEVh/WtfSq5dvsNoXfYdtCz7NhOBrUu/\r\nwaBJISQaG996A41vfQPNby5B8R//V3x5th4fhzmwIsyK5WE2rAizY/UlO9aEO7Am3MW7fbUEoPJZ\r\n0/jYCDdWRnrw0UUPLjx2sO5P9tznYOymPDCSBOA4Wf6YE2c3xiwujFqdGLO6MWojMedhwnCMxgda\r\ngTGzGyMWJ0asXDCS02ed1YMRqwfDNp9fwCGTwg+g5HZFudEsWofbCRfbJ5lr6Zsqrjyjl7J79eoV\r\nhIVdxO7du/AoNskbxyH/UGIReZmXLs+78fqE7ybn0m42ocx3XraPuX3xJWSOoSWRSu8Fi8OOxcP0\r\nhgkc+PIw7NJx6H+auKU8NR2DJp95/2bH4t+divPL3yi+vPE1waVOauYLkVJT+ZbGSGs8V4FAIARg\r\nSMyuAPQgo5o7fvYXgMEnWfgTqgCkRjNQ7GmFvQoCkFoTm8OJgXEz+ifMGAgJE/8ct6FfYkRvlQSS\r\nz1rwSglAyU0Q3TKXSYeOPb9B85tfZxM5aMxfK433I7cuTAByi1878+3HaVlKYu+baHz7W6h/61uo\r\ne/MNVP7ymyj9+ddR8pMlKPnREpR9fwky3vp/YOOXefiXQyP4w+EB/OXIMP52chQfnhnD8vN6rLxo\r\nxcowJ1ZdcmNNOF/dhd6F9SoLoD/kdNyJS0lWGK28fKqvb7aRFdKYzohRo51ZAMkf4IjJjmGjhUMW\r\nQJObQRNF2GQREnYM/n3E5GYMmZwYNMu40auzYkRn5M+DypZCyTEHy15nyw7mmoVm7JNbFSZ4JJ9N\r\nzFOVBG1Uqff09mJgeETWRNxAzk4iB0iDh+mDrMEquCNpEoB0XnIIzfNBzqW5axcfLrfHm46+83Bf\r\nmN3lgNFkhYPWP1bGVfgvlfHPB8UlYei/so8aEsM8r5RPWhmI55HSLuZ3VSB42QgBGALBBOCLdAdS\r\njZtZRat6uLEqnA9+J0GjFkKTsUIxCYT9SqYuGSYADUxwhdIFPLkApIp17gSgdp6C4y8A+RJltNEy\r\nY59Em7Exyo1NRPT0WB/hwZnHZriocVV0F6m7f1/kuS8oyKrisKD70N/Q8fOvoYXN5OX4j+fjjp1b\r\nlv0dg2YAN779HTS9+R00/eJbqPr515H/kyVI++ESJL313yPpr/8eyRt+haIv/oJnRzch+lY2jsSU\r\nYfelEnxyrBLL9zfgz3s78JdDnfjg+CBWnDJgzTkb1oTZsTbcgXXhLj4JZDIRSH4Ew9y4nGUhL2/M\r\n1xtbqUR9jbMM+aUbN5gxSkKQYcCITichh03OyIQBwxMGDE7ovYzoTXCQ2PL+sPCJWnlYAxdrZDIj\r\ncePi18uWYqOufHlcp/RdIVq5+KOVXHg94Y2jiksfXHz68C2/pj4XXwJOFn/8u386vzB2XRRPEofy\r\neeQ8qeBCUJkXn4gLjrQsnZw/CpPSLur3VCB4yQgBGAJaAlCusKf7C5N+gmdVOtkycCsj7Fgd6cDq\r\nCCdWR5A7mKlwYmWkHcvD7HhUzCdWSJoSFpcbh+8a8fEljUZzSmQB6JAEIF+ubS4FoDrdZKgFoDxD\r\nsWXYijXhNqwKp67DwKXpgkFxV4fTkmXAiccG5jyWPIipn92rALOykBPf+k5Ub3oXrW//d2hZ+jW0\r\nvPMttLxDoo8sf2+w8X887NtoeOfvUbf071Hz9t+j6q2/Q+XPlqDwR0uQ9fb/iJwtS1F0+yTaKgox\r\n0jsEncEGg8kOvcUJk9kAk2kUExOjGOgbRlV9D+6n1+FQVDnWHijGB1/W4MOjI1h51ojVYWasDrNj\r\nXZgHa8OlcYIaz57GEq6KAtZG2JBeZ4ULdrg85Ost8FpnF74iiUKVzRr+q8/ITMe6GewYMyHY+dXx\r\nFgLznddg5xcIFjZCAIbA7ApAN6oGHDhb4sCFUifjYqkLYSUhUOrC+TInzhU7kd/LhZoQgL6xQy0j\r\nVqwLtwUVD8Gg+GtJDF7y4CQJQD56KODZvQrQUx2Z0OFpXg4yM56j7vBJtP/mf0Tb0iWSQ2cSf99g\r\nYrDpne+gcdl3UPv2f4eqt/4eFb/8JnJ/vARxv/5/oej4JnRW5GLYNA6Tywmbww271QWHxQmH2Qm7\r\nxQmLxcZw2mxwWsxw2qyw2u0Y1ZtRWduN8DvF+PBwCf6wvwsfnJ7AynMGrL3gwOowLsi1nqE8oWRl\r\npBvrr9nQMERXFHids4nX0sROJVvjXja+LtqpeRl5CnZ+dbyFgFZeX8Y90YaXE+mU3vaAfxcIFjJC\r\nAIaAlgAk5IZBHX8ySLA06uy41u7GjU4wrnUCV0LgKtEBXGvzoHyMWiMhAGdFANJEhAhghSwAvRbA\r\nV+wXPvMX6cazsgrEZ6cj/lk2Ep8VIz/6Khr++h/Q9aslaF72HTS/8wYbE9jAxN93UPPm36Hqn7+G\r\nzB+/gcydf0BLZSGMFhcsDgsMNgNMFiPMFiMMViOMVhNMFjPMZprFaYPFbIPNaoPNbIXVbIXJYoHZ\r\nZofF5oLB7EB1QzcOXy/HX/bV4f2jfVh5ToeVF2hsIE3+4K6MSPB5n5UkAJdHOfG3MBeOPDbDTOPT\r\n2JJxge/obCC7zOEvGxecLx86D3PJHgIvI0/Bzv8yzjVT1HmUUcd7Wcj3it8bX7vAi4yva9sH69V/\r\n5Ql8lwQLCyEAQyCYAHwRqIKom3AiutXDxByjHbjSJkHfg9EGXCZaPSgfpWPxF43qICEAVQIw2Bgy\r\nDQIsgK+iAJQG69e2deJJZhYScnIQn5eN2LxMxOeVoOhuBlrWvoOOt5ag/+2vo3HZt1Dz9neY1a/g\r\nR19H4rL/CaX3wjBOq07Y3bBabTBbjTBZzTCTqLNYYLHSp5V/t1hhZVj8oDRGEo0U1+ZgE3dGTeO4\r\nn9GMDw7V4y9fteH90yNYfsGGlZdoZjwf9+d9VrJLmSgqk058eMmBtGpyK0IuP6TxauprnykuD6w2\r\nD/rHHOged6Jj1IaOUfvLZcyGjjFriLyE/Gie/yWcZzaYz7yO2dE1ZkPPmI2NQR7RWeAh34PMwTqv\r\nn4UAFCxUhAAMgWAC8MUsgCQAHYhudeOKJABlcRcg+NQECEA6PxdWfBKIiY1jUwucqfEwdxskAAfG\r\nHfw3LU0tnKEApDQkAKMCBKBLEoDkqkZeQSRUJhGAw1Y2NmzaFkBJMMoWQD6pwF8AvsizXkhQ3ieM\r\nJqTk5SMhOwfxOTl4kpuNx7mZeJSTjsd5BUhNK0Hl7jVoXvp3qHvrmyh/81t8rN8f/gGNWYnQO41w\r\nWU1wm00wW22wW2ywWfinQwH722yB02IKwG4xwGbVw2Y1wmaxsPRWuxkmuwHPynux7mQV3j3chuXn\r\nRrH8og0rwh1+z18WgOskq+3HkcDOa3aMkWdmkMNfbQE4k+fnggdZDUZsvmTBhmgSpXaseak4+GeU\r\nLTSUaWaFYOdXx1sIBMmrct9LxYENkXZsirBhY5gVu6+Mol9v5XUdGaaFABQsYIQADAEtAfjiYwAl\r\nAdjiDhR4IXC5HYhq9aBslCSP7K7FAYvLjkN3jPj4Is0ulvGExOpwN3NJszHKhp4JB3MPywWgiwnA\r\nlSQAJYsac+brtcIEh6w2NFifRF5kppVGabFrp1tALmjPJprwUTitIcxd1iidUk+OWgDyiQ302TZs\r\nYWsEv4hYJT4O9+DEEwP3x0bWJO+z9lXci62CkzPrhAeVzc14kpmN+JxcPM7JQVxuNmJzsxGXQ2Th\r\nUR4JwxLknziBsl//Tyj8wRIk/eF/Q3NpEWxOwGa1wmo1w2oxwcIgS58aCjdq7zfTp1mCrIU2honG\r\nCtrscDrsKK/tweajlXjvQDs+PDOO5ReNzHfg6nAnXzdb8bzYD4cI4P0wM+IK+I8MehvoWum9lO+B\r\n8l1V359QoC2pzIwPL3qwgiYNqWauc3g5FrxmMD+VfMwqTT5bF2ZHyzC56GK/or1thlz+XqTNEAhe\r\nFkIAhsDCFoB0XDfrAr5bbsOpQhfOFDlxptCN00SBa0rOFDhwttCOS89tzD8ZdYD6BKALqyKsWBVJ\r\nwsqG1VH2EHFgVZQTH4U7EJlpZlaUlyMAZTcwHrTKApAq5KANtTZMAF4CjnsFIP/5zp/1IhaAkvsO\r\nvdmElGd5SMjODRSAZAnMzkJsVgZuZyXjXmom4s5fQNyfv4/mrERY7R5mrbMzATiJwGPQvsn2c6ir\r\nmISfEj5e0IDsimZ8fKgUfzoyhI/OT2BlmDVAAMqii74vjwB2XLdgWE8/MzwgG7bynZwNAZhYasF7\r\ntM42zRbXxCN4DVkeTj0HwIowYPklYE2YA60j/IepEICChY4QgCGgJQCJF+lWmp4A9EhMLQCtHg+S\r\nely42grcaOPEdHgQ0+GekpvtHtxoB+50ujFip9FvdKl8DGDzhBsXK10Iq3LiUrUTl2pCpNqJ8GoX\r\nS5ve6ZIWZOeiiY0BTDQquoDVIm8yZAHoRGMfdwDDBSDQSl3AkRapq9CNVdFurKLPKVgd5Wbxl0e4\r\ncPwxCUB61iQAeRcwf87qbpvAZ7sQYZmm7vHOdsRnpvOu35wcJgAfk+UvlxObnYVHGWmITU1EzJPH\r\nuBhzG5n5JTDarLBbLHBY6NMqWe9I3JlhNVsY/uLOt987NtAPq2QJpLGCfLwg/6RJIhbYTCbozBN4\r\nmNWAP33ZjPdPjmDVRStWXXJoCEDfkICPLzgQW2pkPzS8w/El1y3azy8UpHsIF+o7HTj7wIJj9004\r\n8kALI448FLxuHGXP3YTDD804ct+Ia8kTmLDwulMuR8ofkNoCUHbjox6+IA9BmSquVthCSC9Y6AgB\r\nGALBBOCLELoAJOFHcQifCNQSgCTWbB4P4npocgmYCCSutYXG1TYgqs2D620uDNvJCYrcWLrRZHIg\r\nus3DJqpca5cmrXTQBJbJud7BRSUdP2+Ijum7B9RFd/qJHn+74GFjBJeHebDiohvLFawIc2PlJTUe\r\nBv3aXnXRhYZe3uFH65rSveg1uhBZ4UB4pRsRVS6EVTtDIqLKicgqJ8IqnXjcbGcrLsDrDHpxV2zU\r\nArmcThQUFzMB+CQniwk/JbE52XiYnYn7aam4/TQJl27dxL0nCTAarHBYnbCbbbCbLLAZTV7Bx8Sa\r\nRKAI5MKPZvyyWb/KfWZu6bPQLOEAcShjxuj4OI5GVeEv+/vx0VkjVobZsYZ8YaoEII3dXB/pwrpL\r\nbuyP08NE692Cypj87OQGTC3uQoetusFmGTvY+rYujw1uJW76tApeU1we7ouSr85CE5FkZ9eBY/+0\r\nBaC6rBKyqFLXP1pxtcLmO71gMSAEYAgsGgHY60K0hsCbCjpuVBtwvZ0LQGY9kf5rNjrZ+WjySUgT\r\nVSTouDdagSstQO4gHZOunxpUXgHeKbHiy1QHDqRxDobIoTQn43CKHW0jFtbhJ69aMmR143abCzfb\r\ngZvs2ty42u7CtSDI+260uRHT5sTVVidS+6iRdzABqF0BLi5oGx8fR3JWBuKzM/BEJf6IR9lZeJCZ\r\njjspT3H10UNciolBTXMbHDYPbGYHHNQ1azT5C0BJBGqJv5kLQAtsdjOqatqw/GAF/nSsHyvOW7BW\r\nQwBSV/+GSGBjJPBJpB2dA3wMqxMkypSNUqCwCxW2ugU5m3bTjwNeNjjyGmxcHApeV1xSYZFWRuEr\r\n0mmIv8kEoFzfyGGTCTB1XK2w+U4vWAwIARgCWgLw5Y0BVAq/0AQgvXh2jxtPetxMyAUec3LIAkji\r\nLqbdjRFaMZ6yKQnANqOLuaxhAlAjbTCYxZDNWAZyBsjmR5UIPy4tIZU94Ma1Tg9uEF1u3OhyTYET\r\nNzpduNkBTjvQbeJjAOn64XFg0OJCTKsL11uB6yy/8r10KVDeVx52lSycbWDW0+ReWldUdvAqE/gc\r\nFwPsOQKo72jH48wMPMnO0hSA1P37MCMddxITEXXrFp6kpUFPfvusTljMdq/QU4o9EoAOmx0uhxNu\r\np5N90t8UrhSBAV3AkgC0We2swrHb7QHij6BuZ4thHGH3i/GnAw34+Mw41l5yetfNJvG3KpIEoQdr\r\naWWQSDdzHRNfYWLX7Jt0RO+tVJ4Zvr5g9f0KDr+PvCqQu5P5UAYGfaexrYLXEmU7wNsFf7GnRWCb\r\noVXXhBoWLDzUsGDhoYZNFi5YyAgBGAJzKwDV4i80AejwuGYkAImbHW6MkgCUG0u40W5y4XKbh51X\r\nnS4UKD/ZA2xYvp8ATO+fWV6vtXrQbebOXrkAtDMBeK2VBJ0kar3plKJaK4zfX8rP015aVN43AWQx\r\nw58g8KyyHLFZmQHCzysAszJxLzUF12MfIfJGDGpbWmGy2bkzZxJsbOyfQpzZ7axbub+3FyXPi5Gd\r\nmYmi/Hx0tLXBarWwikQt6JQC0GZ1YGRkFDU1NWhrawuMw+Arh1Q29uODr8rx7rE+rDpv5Usi+glA\r\nmnHO179eHubC+ac04ci3sfugJQCnZc1XWgR5GFndaegBg75764NAa49AoGY6bYZA8LIQAjAEtBqN\r\nlycAX8wCqCUAKa5auGmFBRWAnoUnAOUxi8EE4PVJBSC/Dn4tkwlA3qWjfnaLDdqsDjvSivIRl00C\r\nkMb/ySi6gDPTcTMxHpF37uDukycYMdCKHjZJAPqLP5vNBoPBiMiICPzLb36Ln/zoR/j+d7+HH/3g\r\nh3hn6TLs/HwnysvKNQQdx2qxw6A3Yfu2HfjuP30XmzZtksL9z2O0GtmycSa9Cfsv1+HPB7qw/JwR\r\nq2g2sJYAjPJgRbgHu65ZMG7l187mBIcsALUsGMowLQEo/ZuWAOSum0ILDzUsWHioYcHCQw0LFh5q\r\nWLDwUMOChYcaFiw81LDpM502QyB4WQgBGALBG43pM7UAnJxQBeDldg+iO9wM+i6n1wp7ZQWgxrjF\r\naAmt63kVBeC4XoekPBJ6mczpsxeFCKTu35uJCQiLuYHsoiIY7Q4mAL2CTLIEUretyWTBgQOH8N1/\r\n+j5++L0f4o//9kdsWLsBH3/wMd78xZv4p//yT/jtO79FZ1snnDYnbJROwmq2weP04Orla/jxD3+C\r\nH/3gR9i0YTNzBm2z2P3i0tJxDrMdHqsViSl1+OveOnxwdgSrIsjpL3ceLncBk7/JVdHAyihgQ7gb\r\nzYP+AlDLgueP1hgmKq9aY6Cm4kXOpRUW7PxacbXCZiM9hREvmn6m518s6ZVM9fwFgoWDEIAhIATg\r\nIhWAGulfNwHY09+HJ1np/uKP4S8AYxLi+eSP1lafALTKFjkuAF1OD2JjH+OHP/wxfvyjn+LQgcMY\r\nHhiGy+6C2WhGdWUNdn2+Czs/2wWrycpEHYk+GbfTg7LiMrz1y7fwzz/5GROBm0kAmu0BAtBhssFp\r\nsgEWO2oauvHRoRK8e6oXK2mpPy0BKIlA8hdY0CCtPDMtASgjh2kIAOmoWht/s73DLifZ6MWSHdXw\r\nzf9ck5zfL6/KsNcxvTKuVthcplcyVVkTCBYOQgCGQDABKA/6VcefjKkFIAkzGfW+0AUgj0vCzf84\r\nctjcCsDASSBpcygA5W5f4nUTgC3dnYjTFIB8TCBNCnmUnoZrDx/i8p076Ozrh8lqh4VZACWffWwc\r\noB16vRGrVq7B9773A3z4wcfQj+uZRc9udcBhdTCBZzZamCgkwWcxkW8//umwOTE6PIblHy5nlsOf\r\n//TnXgFopeXgvGsHS/4AzVbmYoaWlOsdHMbmM8X424kBrAq3cdGnFICR3PpHInD5RReSy6WJINJ9\r\nULy+QRpmubFXNvSETwDQe2am+8Imw5APRBnZSurDZLWxMZRGK2HzQuE8jZF9Uhe71Wr3Exv0bnjz\r\n5J2J7ssX60JkLkZ83/2XLlRfk5xeC/U9CCUsUBSx7nAPdYUTchcn7Q/Mvy9fWmFqUaUVNln6YHl9\r\n2emVaAnAqdIIBPODEIAhoCUAX94YwMBxf0qmIwBD5aULwEGaK0n5VAjAPtcL5fVFBaAs/F43AVjb\r\n3opHmWmB4k/qBpYF4JX793DzwUMMj00woUNj9XwuW2xw2F2oqqzBL37+JhOAl6OvsOOT8BsbGYN+\r\nwgCnnWYCO5k1j0SfxWSRIH+CDpw4dpJ1EW9ctxHvv/cBvv/d77MuYDb+z2ttlOEOpWnZudGJMey6\r\nVIR3jwxiVZg9YBYwE4ASH1/04E4+twDK94FeXXlcnnYDHRw5st5kQe+IAQMTFvRNmNHn9yl/5wzo\r\nrBjUW/mnmgkrBsYtGBo3MwZGdDCaSLDKIkE+txtg/iipLPqEg9MNFR5WXrXEip+Y9IoxuVvX/1yB\r\n6ZVhk4slEqFOt5vhG+fmZn7x1HG1z6+d/8WJVvl6la5P8CohBGAICAE4GwKQGoE5FoASr6sApNtd\r\n3liP2KzJBeDDtFRE3bmDh4mJmDCYYGGWLp/4k7t/U1LS8KMf/QQ//enPUJBfhGc5z7Bp/Sb85U9/\r\nxQfvfYBjXx1DW0s73A631/JHkGUwMy0TP/3RT/HbX/8L6mvqsX7tenzvv33PKwCtVrVfQBKARrb0\r\nnNFkwFc3avDnQ33MIfSkAjDMg8vpUhewdB9mLAABjOoMGDW6MGoFhq3AiIphCzBiAds/avFg3OyG\r\njj4tbkxY3WxiyrgVGFMxYnRidFznJwC9G5Vr5mfQlx+l+KPrkQWg/B64JNHH6ieWjr3IXISRUKQZ\r\n7lQy2N8k0vjyeVoC1B9luFoAcvGnFIBkAXST42y2pKT8OOS88u5v9TG5JTPwGSwutMoXXZda9AoE\r\n848QgCGgJQCJl9MFPDlCAE5DACrSKbuBg13LqygASxvqEBu0C1iyAKalIvL2bcQlpzBLF+/qDBSA\r\nd+/cZ+P/3n5rGY4eOcYE3ff/6fv48Q9/zD6Jd//8Lpobmpk1kEQgWQR7u3rZZJEffO+HePTgEVwO\r\nF1avXIPvf/cHUhdwMAHILYDEqXvN+P3BXqy4GIoAtLFxdsp78SLvKsHeexKAE3qMGZ1M0PlhdmPM\r\n7MGIHRi3AxNmF3RWwGgD9FbCDZ2N4oIJQPocI6EoMWxyYWTcwAUYE0fkuHsUjQ31mBinl5yEEV/O\r\njt51pQDkVRKJKgf6BnpZN7PL7euKpTj0XnR3NcFiJYfFPD51P3toxQqXhzmQtxitMNu4Q3USjaye\r\nc3FxyIUa6VA6D30PFIBcbFJaqo8kccrEJV+hxzg+hp7+AS4z3W42vKC3r897TEpP4tHhIgGrtFz6\r\nf18caAlAQi2kBYL5RwjAEAgmAF8EpQAMJkQmQwjAFxOAofBKCsD62qkFYHqaTwCarUEF4K2bd/Cj\r\nH/4EP/vZL/DjH/0EWzZvRcnzEmbRC7twCb/8+S/Z+L4dW3cw8We38okdX+z8Av/lP/9XfLFzNxsv\r\nSN3CayQBGIoF0GYy4tTdJvxbgAAklzBaApAchNPybRr3ZJrIAnBknASgA2MWN0YtLoyaOSQCSfDV\r\nVtWgsq4dRicwPDSKkppO6G3AiN6Mjv4xTJDwM0tWQi0BKFnqcrPTsH7DDpw+dRrbt29BadlzyX7m\r\n2+gVJaHl21w4eeoIGnsGlIF885jx+Y616O4Z9AZFnDyEA8ejvH/fuxyFpLxi79++zYOs1ERYmZLk\r\nG1npvHuZNTFwo7xJt41thdmPcezUNe/fHV1tOHnqgmxc9W6selCFsfBFJQKDCUCBYOEhBGAIBBOA\r\nL2JV4AKQVtcALncCVzr55+WOKaC4HTw+dWGWjFHVyAUgdRUxAdgLREnHDPm4dEyJmC5gTLUSyKwK\r\nQElYzrYAZAf2ODA0AwFI1xcpCUCyosyGeJh3piEAo+7cxqOnT6EzkfDis3e5+xeOy+XBnTv3mAWQ\r\nuoHfe/d9jA2PsdvvYooEOH/2PJvYsfStpWhtamX7Ht5/xEQhjfkbHhxmDTrFX7tqLb73T9/H1k+2\r\n8rVTXa4AAWi2UHe0CWajCUduNuD3h7qw8qJVEoC0FBytCsKXhuP+AIEVYR5cTbfwmbbq+/EC+ASg\r\njgtAsxujDBKAbrb2cNilCHy8eiM+fP993LjzBPv3HcL7K7YjK68Yl65cRlzGcxjdwITJ4yf+/C2A\r\ndB4rNq77K8rbuFiz2UyYGKMX3YncZ/m4GXMTHZ29bJ/eYMC9h4/xKDYWOoMe9Q210FvNMBmH8ODB\r\nPWSmPUVdfROMpnHs3LEanb0+AXjh1Cm889s/IzOvlP19+eRB3ErLZd+zs9Jx5+4dDE8Y0FRVgn/5\r\n2U9xNyETbS0t6O7vZ3G6OprZZCHaWttb2LjRseF+3L5zF2npaUwAjowMo7K6Fk9TUpESdxPHzt5g\r\n8QuLSzE2Ooaa+gaYjAbU1TUgJSUTjx7FwmixszglZWWIuXUXtTXVaGvvYGHq57JwCSYAhQVQsPAQ\r\nAjAEtATgi48BBBqHxnG/vBX3qzrwoKodD6o6Q+JhZSfiKtsRW9aGih5mApTy54aDXKs0duNeZSse\r\nVNGx23C/siNE2nG/sg2Pq9qhs9q4OwuW1VkWgC/JAsjFqgvDtBJIm2vaeZXHCEYwAeiA/VUZqwOg\r\nsqVJWwAq/AA+SE9F9IP7iImNxZhOL7lv8VnkaDk3u9OJtIwMJv5+8IMfsS5gmgEsu3ih79kZ2fgJ\r\njRH80U9RUlTCun7/9be/w49/8GNs2bQFMddicPXyVURHROMPv/sD6zr+65//iqjwKMQ+iGVOn2WH\r\n0HROI60lbLNgVGfGzshy/PFwJz6+YMTKSx6sCgeD1gJeEwGsi/IwVoW5cTvXyLtU1ffjBVAKwFGT\r\nk3XfkhVvxMLFnMENHNizG8fC72Lv/r34/MgZrNn4KaJu3MDW7Z9hw6d7kJBXjtYxMwys+5csiEoB\r\n6GTWRakQI+bKBXyyeSvuPX6ClpY2du6U+5fxxb6DeJabhfUbNqG3bxi7P/8UV24/QGrKUzS2NWPv\r\n7u2o7erEwT3rcOVqDLKS4vDLN99CS1cH9ny6Gi0DPgEYeeoM0tOSsXXrenSMTeDmhSO4l1uA2Fsx\r\nuBAdjcKCTBw+eBB1dRX42++W4cmzKjzPS8enB46y9NtWvYsNe/n33Z99gvKaOuz8ZD2S0zMQfvIA\r\nIm7cRXZGHJb+7g8oLqtGdtJDHDp7DdciLiDq8k30drdi68496Olrw7Jf/wZp6Tk4e+wIzkXfQVN9\r\nKT5atR4FpRXYv301Pt97gp1H/VwWLloCUIwBFCxMhAAMgdkWgB3dHUjKTEZSdopEKpKy0qaAx3ma\r\nlYGE9FTUNTV6K0Y2oNtpQ0FxPhIpTnYmnmZnsPj099SkIz47Hcm5WdCZTVwAsqMvIgHo5gLwapvb\r\nO8kjVKLI+tcBhLdzC6BNGnOlfnaLDdqaujtDEIBpuBL7CFfu3kXf0LCmALTabWhqacGyZb/G9777\r\nA+z7cj8byye7eqGewdTkVPzoBz/GP//4n5lPwPLSctbNS2P/vvvfvof/8p//C/6vf/wv+K//+b8y\r\nkfiLn/0CP/3xP+M//8f/zMYI6if0bKURrwC0WmCyW9E91INTCc+xN6EbB5LN2JPgwvZ7Lmy87sDq\r\nKAtWRzix+pIHq8M9WH7OjSelZAEMvB8vgpYAVAo4vRu4dPII/rp8O/707rs4czsOyU/isPvgMXy8\r\nciU+WLMNGz/bhV3HzkHn4hM/1AJweIILQBrrx55ZfSXu3L2NdavX4klyJr7cswvV7V1sX9SlM7gS\r\nfRMrNu+QplLwd3XPrm3Iq6jGmnVbQB3gdLwNGzehvr0Ve3asQvPAoDTZw4mIY8dQVFuP5vos7Ni9\r\nDxdPH8ejrDRsWvkhoq/cQvyT+9i3ez/6xkaxc/NKDJld8DgnsHXTdpSUluLgl/uwc+8uVJTlYf/+\r\nw6goy8befcfZWW1jTVi741PEx97G/mNnWVh5Xiz+8T98Dwekv/u7GrBl51509TZj244tLKy9uhC7\r\nvzqNiMgw3E7MYmGVhXHYvfcCv0aNZ7MwCSYAxSxgwcJDCMAQ0BKAxHS7gFlcAM29vYjN5ktyPWFk\r\nhgj5bctBbGYmqltapIqRuj/dcLpcyCorY/sTcnMRn5sjHXtq4nKzEZubjcRnudDRAPHFKAA9NCDf\r\niTutDtxsc+Nmmwsx7YRzSm60u3Cj3Y1rbU6k91rZwHj52fqer7JiX/iwvAPoHh7C4+yMQAHoFYFZ\r\nzBH0jSePEXbtGuqbWtg4PRKAVhJ+Zi7GzOSmxWrFZ599hu9+93v413/5HZvsIRUTWIwW5gCaxN7v\r\nf/cH5guQLIARYREIvxiO8LAI9j3yUiQuXbzktQD+6fd/Yvvv37kPk8HMVgXh57RyAWizoqa1BydT\r\n6nG6TI/LrRZc73TiOpWtRjcuVNlw+rkbhzLc2PvUge23dChu5rOAZ/b8eLrgAtDDxNyEw4P3P/gI\r\nkQ9iEXHxJFZsOcDiZyTF48tTV7DnwBc4HnkVGz/bh3GXPEtYJQDHdfDQZA+3E40NLTBbzOwYSfH3\r\ncPDgeRw7dRSJ2Xws4Jdf7ERsSibWrP4QvWN6OO0kmHX44rPNKKhvxdpVK9E0Oga7eQi/++Of0NjZ\r\njs+3r0JLv2wBdCL86CFklVWzv+IfR+Gf/s//hITcQuzduQ65RcWw2EwYGR6E26bDhlUfomGYZikD\r\ncdcv4k9/ehc5ReWIj72OP/3bb5GYU4D+zkp8sulzdqtaqvOxadc+JD9+hANHueAryriHNWs+xbbP\r\nv0BhZQuG+hqw4bMd6Oxpxvbtm5lgbSjNxO6DR5D6NA6fHT7Gym70hf3YtvskO4a6Ll24BJYhrYkz\r\nAsFCQAjAEAgmAKeL3Cg39fUgNosa4Bw8zsmVPn1rs04GicC4zAzUtPLGl0+A8MDudiG77Dme5GTg\r\nSV4WI6DBn4S43EwkPcvRFIDRC1oA8kqVtnG9HqkFxXhKFD5HQmER4qcgobAQSQXPWZr4/GKk1jWC\r\n1i2hLhufhVctDhY+bDYmgDGjAQnqZeBU0FrAt5ISERETg7yCQq8FkBwxE7KzY6ogKioqsGzZMvzg\r\nBz/AX/74Fybqbl6/ybp4yar3vX/6HlvqjVzBkJBkcwZkpDGgZDlct3odvvdP38XWzVu94fJycfRJ\r\nE09IABqtJqSWtuBYeg9OVxgQ2ezAtQ7geidwrcPj/X69C7jaAdxudmLYyE828+enFIB6lQB0Y9Tq\r\ngs7pQU1NPXZ8uQdfHjiO0o5hmFzA46QMNPbrUF5XjwNHTqKgsgkTDn/xR4yYnBgiAchulBtx9+5h\r\nw6bN+GzP59i+fSt6ewfQ39eDz3YewP59B3DmbCTLW17iHWzfsh2fHziBsto6hIedQNPwGHKe3sOa\r\nrXtx+sRBbNy0GT0DfTh37it0D42y8kAP4sH1y6hg4p1uvBnHdn2KjNJGdLXm44tPt+Dw0TO4GH2X\r\n1QHXLp3Clj3HoDNYMNDTjPffX4ERiwuDvU1Y8fF6jBh5d/vNG5E4uHcvdm7fier6Zjx/loGo67fZ\r\nGUsL03DtdjLMo104uHs/CsvLcSbsHPoGe3H2zAkmAFsbynHxUhizUl4KD8fnu3bh4P6N2L+Hi0h1\r\nXbpw8S8/AsFCRgjAEJhtAdg8AwEYryEA6dg2JgCLuaXwBQQg8TRAAHrQbpK6VDUmj4RCZDuQNegK\r\nFID9syUApWdEYkc3geTsLCTlZCORrJvZGYzHOT7kMBLK7O+cdCRkZyIxKwtPMtORU14srcDgc73x\r\n4gJi/nBKAtDkdCC18BniglkBSQBmpeP200RcuXcP9x7FQjehh52JQC7+yBIodwfb7XZkZWXh97//\r\nA+/Wlbp0/9v/9d/ws5/8DKdPnIbZYPauA+zvEJqOZ2OrhXz0wcf4x//4j9iwbiM7FzmKVi4FZ7Hw\r\nlTNI1F/NKMWJ3EFEVVpwpcnBrH83OoBrivLA/D22AQ/bHTA5qVxYZkcAEl4LIM0CVgpAB0YsDow7\r\nAJrGYfQA4zZuHdS5gTE72ExgqwfQOYERs9YkEMkCyFYB4RLNYjNiwmjik6YkmeZxuqA3GHm3r+Qu\r\nhq00YrEz0eRk6cn9DWCi7nMb/+5x2+HyWFke7NRTQLBZtdztjDzny+PiHcfUCEzojHAq3MCYyZej\r\nm1zMuGF3k7sYcvPC8+Fgx+PnMhsNcDnk87phl/0vknsXeibkvsZlh91mg9NFP1rJ/Qu9v9yCTzmx\r\nGCdQ19gAvdGEO1dP4VT4LX48jfp0YeJffgSChYwQgCGgJQBlcfAiYwDbenvwOKgAlBpmxRitqQWg\r\nGzaXE1mlzxXdfbx7b1JkESD9/VTZBSypwP5xPeIqGhBb0YLYylY8rGzHg8qOkKDJJXfLW1HS1kte\r\n2SSXNdy3V3qfg82EZjN2NYTeZJA18nqrG71m7mdMUqsY1+uQmM27yQn5nsld3IRWGMWNz8lFXFYW\r\n8spLWavFRYP0bBXP34vGs11IeMsndcFVVyIuMw3xuVmIz8lkUNe//NzJAngn+SmuxsXi4o3rqG9u\r\ngY25cAkUgOSuhSqKvt4+PLz3EKdOnMKRr44g/FI4iouL2Rg+h92h4daFL5PGrHwmKx7HPmbWw6eJ\r\nyZIbGD72z4cVNpsDNa0dOJlUijPFY4iqs+Oy5D+TrH1yuaFPLgY9SBtwwM5+ZTinGKIRKPaCwcrW\r\nxAR0Jhvz5ce6cRV4HUIrnEHLf5NglCeOsHDpu+w4etjsxsgEWdHoXCTKSM5JrlZYUSMhRg6c5Z9k\r\n/B+FkciXonEjqjzTlL0TklmVhCFI+FGxpjLBjbHymDTZ+bJct1Fc9o9+BLkprXwC+lvqwnRJwo35\r\n/pNXIpEzw37h8Q+6r1JW5HQ8o/KPK++r5N1IREZdvoajR08g7Pw5DOtJWk/+fBYWWmVK7gIWYwAF\r\nCwshAENgTgWg1zIzPQFodTmRWaIQgEEEpA+1AMzG07w8nwCUGpzekREk5aQhJScFyTmpSMjmE0ZC\r\nIicdTzJTUV5XA1oNmHUEM8uaCxl9dlxuVVhwNIReMEgA3mh1oc9EVgvqAueNx7hBj4SA65xaAMZJ\r\nzyE2KwvPysvYIfmqEYHPX6ssLESUArChsx2Ps9KRECAApXuRncVmAt9IjMelO7cR9zSZWWBsJMLk\r\nNW4l8ScLO7vNzmb+0iof9J1EPVUgZrMZJpOJfQYIQDamkHfzUjqmT5we2GiNXJVgpPWBdToj7udW\r\n4FhWK8KqjIhsoDKjvUIOCcDrrU5UTTi4rzq/+xFsFqa6oQ6OyWTEyOg4hnQW0BJvL0r/hMUL/9vE\r\nfC96RQ79Y/VEYB6UUBGUVzdR4i82ZJGnXKJNrrPkeOQvUVZrFO6CCzT8wXev5C569rw08qLE934o\r\nxV/guyR/ZXnmry8Pk62eUv3jvS+LBiEABYsHIQBDQKvRf2kC8AUtgCQAs5QCMIiA9DGFAJTq356R\r\nYSTQBJHcLAa3rFGeQyCXW9XK6+ul9oPuAV+uKr3P7u0CZrNxNbqPgxFF477aPOizSAPLvAJQ5ycA\r\nlZNcZOQw2i+Hyc9BLQC9FiQ/4cctHIECULK+vFBYsPBQwwLDleVzzKBHojSRSEsAEswKmPIUNx7H\r\nIfLGDTQ202QQEmtmrwVQKQDJN6As5kxGLviUMBHIfPn5C0E2ucQLTy87gqbJJtR9aTGbmRPpmpZu\r\nnE6pwZnnowivNeFyswtX2gIFIP2AoDJ0q92FAbIKs2UypmqAlQ11aCLDZrOzySkm6p5+QYxmqx9W\r\nGwlW3zlkweO1CKqetVwmlc9XifJaScxxJhOAfK1huTxzAcjTePP0ogJQcX+975ICr2iVhB57rdjq\r\nID7xR3+H+nwWBlplSqv8CQTzjxCAIaAlAF8U2iYXgJMzewIwEFkA8u4kXgF3Dg/z2cc0qzh3enkl\r\n4rIyUFVX6+2O8ngcrNsoq2scVxvHcKNpHDebJkImpkmPG016xDQZFJNAeF6VApAEjpbY0QrTEoC+\r\nLjN1w8WtJv6VuVaYstJXNuJacbXCZpqeQ5Y5alCfV5ThcWYaE4FaPzCYFTAtFXcTExF96zbiEhKg\r\nm5iAnUTfpALQ6hWAJPpkoWcym2CyGBlqEegTg4ECkHz/2axW6HVG3M6pwKnMdoSX6xBRb8GVFg9f\r\n31klAK+TU/VWIKkPsDqUXY2TvbPTF4Ava1Ofh5+LPuXn6nv+/mVSLh9yGfH9LQs5tZh7MQLvk6Tq\r\nOAHxlekCfyyrxausL9l3xeoilJYaqMDjLmQC75VAsFARAjAEXlcBSLklAUjn5AIw9HzKkACsZAKQ\r\nN2o0FpC+5VZV42F2FmLZMUMlD3E5+YjNycejnHz0T+i59WDOBaCWKJORw5QN8lRxtcJmml5CUvI9\r\nA/14Qv4evTOCA8tHbEY6HiUn4+6TJ4i8ehUFz57xcYCSc2ZZBAazAJLoCzbpjtIAAMNsSURBVFUA\r\nalkAabwhdTtbTQbkllbjWEoDLj4fxuVqE6KaHaz7lyZ6+Fn/pIkg5PqnVs/HxfHhb1MJFGVDHVpj\r\nLRc1dfhsIgsfnwD0f/5aFjwtFoYA5KgFn5rJBOCrsxawQLDwEAIwBIIJQK1ujamgbXIBSA2zTKCg\r\nmg8ByP0PBsYPBbUAZHrEAzyrqmT7uFDzkaBAGc7JRkJ2LuKzc5GQnY2RsYlJBCDdK55OmXdf2OQC\r\n0K8LmA1kkrrK2KdalMmNsbqx0hJlWnG1wmYjPYc2s82KrIJ8xE9SPsgKGJuWhgdJSbh27x6ir11D\r\neVUVbHa7QgCSmCOhZ/bOEjaT5Y/G/CnG/bGuYAt1A/O4AQKQpSf4WEMa82cx00ogejyvb8WppyU4\r\nVTiMyCojrjTYEd3qZv4o1dY/RhvwqMuJCSddv9xdOZVAUTbUysZa+15KHifnfZMvL5S8yMLqpW8B\r\n99afqQSgF0ns8UNKaV8JAahdpgSC+UYIwBDQEoDqbg11mmDQNqkAnMEkkJcmAJnT6sD4oUAir7y+\r\nltn9+BhA3nrlVVVKrnD849P1MYujxrH4/lwGCbjRsXF+D6R2KFAABh5LKyyYAPQ9f3JhoWZxVea0\r\nNba2sG5grS5gL1mZeEhdwUmJiL5zB1G3bqG2sZHN7qWuWauVBJ2RiUAu4MywmEywmsx8wohGV68W\r\nVosRNrMBVgthhY2cT1vtKG1uwbHUMhzPH0B4pRHR9XZcbnYzX5QBwk+m1Y2SCZq6oLJMvZAA9FnR\r\n2H2TXgS92YT6jjY0dLSj/jWloaMNze1taGptYTS0NKOzp5utnR14f32EKgC5e5pAAaj8e+EzdZkS\r\nCBYKQgCGwLwIwCANdMgCMEj6yRACMIgAJKufWgAuosqcNaIeDwxmM9IKnyE2m5aG036m7FlLIvB2\r\nQjyi79zG1Vs3UV1Twy19Nm7ZI+HH3cRMXwCyGcKsa9kIi9kIs9UJndmN0rounE4tx9G8Dlyo1iO6\r\nzoarTS5cCTLzly3jx6x/LhiZ7z9+vTMXgL7xlCw9+e5sb8PjjFQ8yUxjLnVeV2g2OQ0loM+4jDQk\r\nZmdAZyI3NsFFmhCA/mVKIFgoCAEYAuxtVglAwtdFGDq0TSoAJ+n+lQVMSAKQicDJxaSa+RKAylm6\r\n9Lda/CnFXKgCUE6ndSx1WDAB6C/wqXFSEvhsFyrebjSyAnZ14EFmCmJp9ZeA+5CNx9lZrCs4LisT\r\nD1JTcDP+CSLv3MblGzHIz8uHbnwUdpsk5EjQUVfvJG5f1MJP6SLGarbDbrYyJ8vJZQ049bQcR591\r\n4Xz5GMJqTYgm8Ud+/zStfx5EtXsQ0QLUksdlqWPU39oio/W8gglA/+crC8Cm9jYkkCsdxUzq15En\r\nuUQW+6T6JTEvC+PGqX31yXXlZGh1AS8+tMoUsfjqDcGrjxCAIaBlAXxRphaAkzOZAPTzA6jkhQQg\r\nFwzyGEB13FAJVQCq/fQpmUoAygowmB/AqQkUgMEngSxe6LmaXA6klT/H/ex0TQHIxJ8EPZ97JAIT\r\nE3D5wT2ExcTgYXoO6jo6YDDpYKPxgJLbF7XYmwwa/+e0GmEx6dDQ0o1r2RU4kFKJE88HcKFSh8g6\r\nK6Ia7YhucU+yBKEHEe0exPU5YJVEGr9OtfibrgD0RxaArV2deJyeyrrQYzNTX1MCLYIkCifYcnDB\r\n72GoyD9U5GPNxjHnnqnLlECwUBACMARejgCkCRC0YgWJGWp8Zcvf5NAEhseZ6ahp8QlAl8cNi8IC\r\nyJaDU/xSl61ek0HHfprHVwKRLYC0dQ0PISGbT5qYLiyvKgHIjusB8hWTQDiBeZLhwk+aBJKTy8nO\r\nwohsAZQFoJ4sgL57pc5PcPhzIJ+F+WWlbHwfX7mE/Kdx59WBFkAlL2YNnmuYlYWce+sn8CSPi73J\r\nBCCzBmZl4X5KCmJSknE5vxhHM9txNLkcD/PL0NDShomJCdisFjjsFtit3GcgTehgkzro02pnWCQX\r\nMjaLBXqdHvVtnXiQX45TKVU4mt2D08XjuFRtwuV6B642eXClhU/uUAs/edWP6DY3rrc70GlmKzcr\r\nrlMt/tQCUGmJCa2hps1ktaKpq4OPAex8fSGn4o1d7WiUvrf398Luou7NwPs2XdQCcHESTAAqy51A\r\nsDB4rQXgbG7yjLupoK21v5f9eqY1aeOzM/Ekm8bVpIVEAomm9FTUyRZAWr+T1tCEA9klhYjPomPK\r\nM2pJMIUCd5mSnJcNvUValUDKa//wEJLIfQjLa+gkZGcgkfKSkYYKJgD9Zy8+ryxn1hQWPyeDda2F\r\nAi31lpSdjadZWRiR3MDIxxwzGdh549gav4F5Ck4mv2eZ6SgsK5ac1bDVi6VvkyPnYTZKlLqMzjYk\r\nAmlr6upk3bxqASjjXR4vOxcPMjLxoKgCkfVmhFWYcapwFIcyu3AwpRqRWSVIrapHTWcX+ofGMD6i\r\nh3HMBJPeBp3BinGdGTqdCYODg2hqaUdqWT2iM2twLLUZh7M6cLZoEBfLdQivsbCVPqKb3Mynn1f8\r\nKUVgG9g6wNc73LjeYkH9BF87d3rCmwTh9MdjiS34Nr37H5xXVwC+WJkTCF42r6UApI0Wte/r65sV\r\nevp60dnbExI9vb0oaWlFfGU1EqpqkFRVg8TKGiRUVIdEUkU1EsurUNTQiO7eXnT19qC9txstfV3I\r\nqK5BfFkV4strGAkVtSFCx65CckUVGju70NPXj57ePvT29aKutQ3J5dL5Kc8hkqjIa2FDE7r6+hh0\r\nryjPeTV1LE58OeU3dBLLaxjJZTVo7OhGd18/Ovt60d3fi4buTnbMJ5XV/P6GnOdaJFTWIam8BnnV\r\nVejubUd3Xyc6+7pDoAvdfb3oYdcWWDZCpbe3FwbD1GOpZgPabG43CutqudjLDRyCIAvAx9nZeJBf\r\nhlsNekQ1uxHRYMWlWhMuVBhwtmQMR55142BGPQ6nVuJiWg2upVXjZmYNbmbX4XpOHa7m1CEiswYX\r\n0qtxKrkShzLqcSivHaeKB3GpYgzRNQZE11txudHBVvog8Res25d8AEa1AzGtbuQMumBnk3PczPGz\r\n+hqDo7QMqvcJ5pNXWwCKMidYeLzWApAa3dmgp7cHXT2h0dM/gPrM+yg/vgrlp9ZMj5NrUHFyDSqP\r\nrkRj4lXm3Lenp5sJqs6uVlRE70H58ZUoPbEGZSco7lpUnpgcilN+ci3KTqxG+ZlNaKuvQE8vHbcX\r\nPf196ChKQ+XJNag6tQ6V06Tq5FpUHVuJugcX0M3ELxeBXT1dqLl1GlWn1qDy9DpUEKekz8mgY55a\r\nj+pT61Fxcj3ay/OYoOzu6URnfy+aq4tRQtdycjXKTvL7FTprUXlsJaqvHUJPZyt6ejpZPkOhm9HN\r\n6KFn/AJ0d3dDr9fPWePHxgM6HCiqqkJ8Fu8KVgpB1u2enYmHuXm4XzuIy61uRLZ6ENnsQkSTA5ca\r\nrQirM+FStQEXKsdxpmQQpwv7cDy/D1/l9eJQbjcO5HbhYG43jhX04VRhP86WjOBcuQ4XKg0IrzEh\r\nqs6Kyw12XGl24WqLB1dbPWxZN+rmZZ9k/WPLvLlxtY3vi2wHkrod0DnI4upkEwf46Ay5G95vxAaf\r\nzOTXIJPIUHcLCxYCr64AFGVOsDB5LQWgzHxtIw8Po/NHS9D1iyXo/MUSdP1yenT/cAlGIzZJR5Mq\r\nTIcBHcv/AV3/vATtdMxfLEHfL5agfwooTjfl4+dL0PbOt2HpqfHLq/XZHbav75ec3l8sQc8v+Gcw\r\n5P10/N4fL8Hgod97j8e7St3o/vRX6P7nJeh+cwm66bqkPE8G5ZMd++dL0PKLJTBXJUtH5V2Bhsbn\r\naKb783Mev+fn0+THS9Cx6fuAh2aVKjt2Q0HZyf9iG5VJvnQbR11eZxPebQdYbXY8Ky9HbDZNGFKM\r\nBczJQ3x2Ou6X1uN6GzlhduFKu+SShZZkowkaLS5OswPRTXZENdsR0WhDeIOVWQpl6O/IRiuLE93s\r\nRDRZ+prdXPDJok+CVvVQwyZ8dHgQ3uZBQo8LY07eQU8WQAc9fT93IvIMbh+BIlCwEHl1BaBAsDB5\r\nrQXgXCPPrBiMPY6mXy5B87KvoWnZ19H8zjfQEgTaJ9PyzhtoeeebaP75EgxGb+eqgXzS0Vg1mx7N\r\na/8jWt5agsZlb6Bl6RtoX/bNkGhZ9m00Lf0mGn73P8DYXS0dl4sZU/4DNC39Ftrf+Q7a3/k7tC37\r\nDlpDoG3Zt9Gx7Jto++US9Bx9VxJJbIItnB4n2r74LVre+jpaf/13aHnn79C87DtT0iIfe+m3Ubfs\r\nOzBWpUqNhY1JL11TCep+TfG+xu5d27Jp8uYSNG39KTxOK7uvvoHbyi6cqQh87gsVt4saXcBgt+NZ\r\ndRWb9MEnBJE7mGzEFZThZouFdcleY65YPGwChhevSKNwmpThCco1CTaGzy/t1JAwDGvzIKnbBZON\r\nr8jikiwqbGILswJKk1yEAFy0CAEoEMwtQgDOMUwAxh1nlqq2ZV9H67JvoHXZG2hd9k0GCTyilZDC\r\n+H4SKW+gbdm30EiWu8vbue2JGkISVjYjmtf8I9p/9TW0vP0ttC79FtpIgIVA67Jvo+Xtb6Lpd/8D\r\nTF3+AtCYH4vGpd9G2zvfQRsTa99Cy7Jv8U8tpH2ty+j830YLWeSOvitNlwCz2DiYAPwXtP3q65Ko\r\n/DaLHwp0/e1L35AEYDoXlR4HswHqmsrQQPlc+rVAcTcpdF+/yQRgw/afwO2ys8sn4SAvCRc48zeY\r\nMAx85gsT/ojd0o8Sq9OJito61vVL7ngS8p7hUUM/YuSJGG1AtMa4PH9IJLqnQJ0muOWPROb1Vjeu\r\ntzqQM+CAxc5bVp5/n4XUf5a+8s/ZnZn9sq2yglcBLQGorCvU8QWC+UMIwDmGtoG4E2h+kwtAPwGi\r\nEoA+kUb7v4H2ZW+gY9m30UDdoFe0BWDnm19D+9vfQtsLCMDmIAKwgQTaO9+RrHUk8Hz5DA6Jwe8w\r\nS2fXsb+CHKuQ9c9G4y/hROsX/+oTgO98OyBPkxEoAJ1+ArD9BQVg65tLUL/jx3C57JIfQKUFSf0s\r\nF7sAJHhDJW8kcFq625GQn4+7pXWIabfjOrPAedgEjKkFIKEWfGrU8YMLQD7r147KMRfsVHjI+Kfx\r\nLNQCMLABnj1kS/ZsbupzCBYzWuVPCEDBwkQIwDmGtsFQBKCf6KH9vEvXKwA1LICNa/8RHUwAfptD\r\nXbfMYjYJsqVOtgBKXcAe6lYjAZj3AE1vLkH7W0vQ9vYStL21BK0hQPHafrUErf+8BJ1H/8QEIMsn\r\nswC60LHr1+h4cwk62TW9gfalXw+JzqVfR9fbX0PD0m/CIAlAsmIxAdhYgoZlJAC/jraldF9JCNJ9\r\nnoyv8bhL32AWwMZtP4LTbZccQAcTf8RiF4C+hsorRNgTsmFEb8DTHj0uSV2/N0gAttMEDP6pFnAE\r\nhfN9PisgTd4gfOKPp1cfgyx9NwjFWMArbS7Ed5vRaXIyX4xOjxs25keS8s4tsOSfkflo5KZMaX1m\r\nZeMrW2rV1z5NyC+k0wm9wYCxCb0GWuHBwvzDJ/QmOJyzkEfBAkEIQMHiQQjAOWYqATgZJNaCWQCd\r\ndiNq1v0jF11MLH0DnUu/hc6l356SVhpfuHQJmn7338PQXc2nNFCjS86Vi+PR8NH/gZYV/z+0rPwP\r\naFn5f6Bl5T+gZeW/m4J/j9YV/wEtH/zvaI3awTuApesnW2DbrmV8QsvSN9D1NvGNkOl+62toeuvb\r\nMFRksTy6aOk2APrGYrS+/Xfo+dXX0f3WG+h+i+LS98n4Brp/9Qa6f/VNNnmkZctPmAWQRIfPqvQq\r\nohCASqOW9IysLg+qRq140OFCNI3/6/DgagfNxtUWf2QdVFoIlWFKwacVdq2DhKGHdzO3Ane7PaiY\r\ncMHmpMk4vCvX5R2TyRtSNzlAl/7R98AGVtnozkRg0TrKLuh0ExidMGLc5MSoHy6MmtyqMILCaJ9/\r\n3DGzG2Nm+nRh3OLGkM6KMd3srKQhWAhoCUCBYGEiBOAcQ9usCECFBZAsdU67AQ2r/z26fspnwHbQ\r\nGEMSgyHQTpY4iv/r78DYXcX1gDQIzmk3wW4ag91sgN2sh92sCxE9HGYDHGY9nFYDv3av0HDB0FUD\r\nXc0z6Grzoaulz6nR1z6DsTYfxpp8jNfmwWQc59Y/ZrED7IZRTFRkwVSZA1NlrvQ5NWZGLowVGZho\r\nLfYKB4UJMOA5Ln4UAlCx+UQhlSoXJmweFA7bcafDzsRZFHPL4hN5PrHnYUxXANIn+faLbnPiXqcd\r\nJSNuTNi5A242vUnKL8/U3AtAdh/cLoyPjUJnsmPC4sGYBRiXYN+tKuQwVTxNzB6MKgSg7zlI5+d/\r\nBeQrZCTLbkB4CKjHUNL3F8mP+ppebYQAFCwehACcY2gbfHxcEoC8a1ct9CaDuoGbycWKqgvY7bTD\r\nVHgPxpQIGNKioU+7jIn0ayGhS78MQ3oUDFnXYDeOSgKQix+SAczVhgQ1ylwahBYmh3NRwb9Qnvnc\r\n5enjbUykfHlc1AVI/uCYVzi/vIaKnE8Ob/C9s0BeAwHIi6Uc5ttHt4BZwOCBzu5Gnc6Fx/0uXO3i\r\nLlnIN2C05JxZxk8UdnCuENIybrIQpO7kS+0uXG13IKHXgqpxB/Q0yUNxv6kbnj55RiRYNy8Xd2yp\r\nPnpiXrGnFnpqUTh9+M1wY3xchwmjE+Mk2CzwYfZgwgLoLS4YrMCI1QOrFdCbAIPVjXE7MGIma6CH\r\nMWL2MWoGsxTKFkAqfc31Vegf4/4gqXS2NdVjQmfmZV56ATxuF1wuN7OKMlHmcrBZ0Q6F6GD3jgSz\r\ny8VmSVMtQQ6z6T2h94XGuPr7TZRnUdNx6Z2iH1b8OBSX8DgdSElJwZCRRvLyoRcEOyd7PL77Rs+E\r\nnYtW6BnpR2pGDl8JyO/e0qBOaWDnK/OeKd8rOSxY+RQI5hchAOcY2gYfH2WzY2kyAxt7Nh1ozNrP\r\nlmAoaqukp6hS4RUOm2GrQC10gqFMwytp/wqMNwy+BpmH8WkdaguML0xZ2SmPOdPKkAsA5fl9PuDI\r\nakT/aNyYMlzpFkTpM47D809LNcnLNb1eFsDAfTK+ZyTLY5vHjQGbB1VjQFavB/e6HIhsd+JiuwcX\r\n2zwIa3MzcRjBfPeBEd4m0QFEdbpwr9uD1D4HyiesGLQ4YXHRcANmp2L5kTd2XoIJchlft7xcLmdz\r\npq8afoOA0XE9Ro0OJvpGJOi73gmcjwrHX/72IX77hz/g0o1U3L91FSvXbkdl2xDSs1IRn5IDvYPE\r\nnsebVk4/TF3FOr4CDG0Hd21GUl6l9JcDR/ftQlFxg3e/201vLA17oJ9Q9ERc0nwtG/tRpd5iroSh\r\nsKxe8lDJ3efwI/i8VpLQo01+yrTRu8LiSBOs6E+XzY4H9x9iWGfy/mDgkaRjUnlhbqm8c8jY1t5S\r\nj08+3cV/sEllSrasqn9sqe//4kPrvdKyUAsE848QgHMMbYOxXzER1/kr4mvTouOtJej4yRIMR2wK\r\nEICzD89zcAFINjctAeiUwuT46mPORAByfOfnkwT8BaBaGIYiAJVwIfjqNEpaaD/ryZGUgGyL9Xhg\r\ndjnQaXGiwehGxagDxcNOFA65UDDoRP6AA/n9Dva9ZNSNKoMHPVYHzJJViqxKNLGDngsdWznjmh+e\r\nn5cLhHkSgNIPgJFxPUaMDtZtq7QA6uxAa08vKmvr8bO3/wXRt+Kxaf0O3I65jt0nj2Pbji9Q1TwC\r\no51bC/2sh5IAHPFaAIFDu7bi6TNZADpxZN8XKCpvQFrSE0Revo4D+/bgzq07bG95ZQX27d+Ho0eP\r\no6F3EM01Zdiz9wtEhIcjMuYeysoL8dff/AorNu1Dc2cXigpTceTIUZw5fw4j4zqMTuhw8PBXOHTk\r\nEKKio1BRVQuDyYQTp05i/+6duP84AQ54cDPqCk6cvYj4lCQkJT1C59AgYq6GI/zSJezetRsZ2fkY\r\nG+7DiVOncPjwEZSVlbH83Yi5iT1f7sP5Y0ew/YsvQCM6fa50XjcBKNYCFiw8hACcY2ibGGhHX0Ei\r\nxp4nYOL5E4wXTYd4jBc8gbmDZus6qV/GZ6maTRR5pj9lAaWs3LRmYXrD/K7bl44fnzvz9R1fsuYp\r\nKkh/C6P6eL44PrgQ9f3NhYF/NxehDFeKB25Z5GLSP736vK8GymepbKwmh/0IkASgwlgn244Vf9NB\r\nFV23zIcLNfZOeNwOON0uOFgXpot1HVJyn89FNXwiBqHepx1/9pDfhWACkDB7gJyUBPzLBzsw6LDh\r\n9OH92L71SyxfvhrvbfwcGzZ+hqsP0zBBVsApBODhnduQ+qxC+suNg/t3orC2CQd2bUPk9VhYzeNY\r\ns+pDtHY0YvmqNahq7cToyBD6BruwYfUKlNe1YKinCb96+zdo7u3F8f1fICmjFCN9dVi1bh3aeoeR\r\n8Pg2zkdeReSZU7h2Pw5Opwmb1q/AvYSniAg7hai78bBZJ7B9y3YUVVbjvX/7LeIzC+BwmbDlk7Wo\r\n79PBabWiu6kBq9auR2tfH/Z/sQXxGfloaa7C9k8/Q1FOMjZs/RQGhxOPYs7iww3buHXRJYk9dn/5\r\nO6e+54ubYO/Uq3itgsWOEIBzjNzJIn+bLl4jDDsILYjq8B+vNovIeaY/AwWgr4LTSuOPUgD6xth5\r\njy95CaR/vnNOLQB90P7JulgC8xwMtXXwZVuY5g/tZxkScvmbYgtIJyGPHfNZg6bKx1TP9+XByvUk\r\nAnDMCkwY9PjXf/sjHqZXYxQU7kB+1lNs3rkPG7btwq1Hj7FyywYM2vjEj0AB6OsCPrbnUyRnl3j/\r\n3vnFJyiob8D5r/Ygv7KVhX25eztyniVj5fpPvM/COtaIdWvXQBotiB1bNqBlcBjnjhxCflkT2ipz\r\n8Oe/rcDjtEzEPXyE3PwcfLZtK6o6ulmKq1EXcCfhCfbt3orarmEWdjP8NO48ScLWDWvROEzjEu34\r\nbMcatA6bALsFB77Yh/LGDtZV/cFff48bDx8jMf4R4hOe4ObNqwi/cYMdp7O5FJ98/gXvolbUF+p7\r\n/WowVVkWCBYOQgDOMV4pxypCbhGZHrK1jWoYsgDOlwCkffxX7dSVui+dVwDOggXQRzCBoPzVHVql\r\nrBZ/r58ADM1SEcqmThMcrXwoCfZ8Xz6sXE8iAGkMYEFuClbuOIpRG0DD44wOB8Ijo5FR3YHkxIdY\r\nu2I9rj5Mhy4EC2BWSjxWrt+K2oYG5GTE4aOPP8C4w4ojX36GvOJ6Fmfblg1oaK7C+s3bkJj1DHVV\r\ndejqasW2LevxNCsftWXP8MOf/AItI+OIOHkIF6Puo6+rChs3bUJ1QzNamurQNTiMhzeu4fMvT6C0\r\nJB/v/ek3eJiSybp2j166gY7OVmxeswHl9TVYt+oDNPeTtLVgyyfvoqF/BF/t3YWTZyLQ3tKIkZF+\r\nHD+8C/cS09Db24Ha+jrUlxfh47Wb0NLTi8vn9uO91ZJYlesXjXv9ahCsLIf2XgkEc4kQgPONNKvR\r\n111G4oiEnXfZA6nrSw7jgsu/UXy5FYu/AJTDfeefegyP71K0BObL4cXuj1r8vX4CkJe1uRVbWvlQ\r\nsnAFIDFkcmLEBoxa5TA3RkxONgOY6NfZMEFjADXS+glAZt53ITHhEY4cPoaTx46jrZlb/bKys9Dd\r\nO8i+Z6RnQG8woaenF2fOnMWlc5Ho7h9DX28jTp85hZgbMbj/+CkGDRaM9DTh+PFTqGvtRFttGc6f\r\nPoWwixfR2kaWOyAjIxMP7j/A6RNf4X5CKpvMcf1GDE6duoC8/HI2uSQh8QnGDWb2YzMl9THah4YR\r\nceEkwsPO4/zZ08gueA6zbgDhUZdx+tx5pGVwB+2pqWk4ffo0Hj16hPTMnDl+/+cLrbI8H++UQDA1\r\nQgAuOLREi1YD+GIC50UQAjAw3uJnMgGoLmsvG618KJmPPHF8AlAXVAAS1BXsFyb9TbN9x6nrV71f\r\nglzEeAUgvRMu7vxauTmcfGatbEDX3uS5vYrN7dCcGSxvDU3NuP8wFtWlBVi/dj0qGrqlASq+jS6f\r\nfdIZZMNvgAGYO433C9HIqNslj/eci/d/vtAqy/NXfgWCyRACcF5RVxSElmiRxYw8OYHqT1/cYBMW\r\nJgtThmuF+afx6Tb/fb5KTW4o1Wk5vkqRt2L+YS8H//yFivJeTHZPFj9a94vwlbXANC8TdT6UzFee\r\nfOV6dEKyAJKQm0UGjQ4MTxi48U+eJOPkPQEklmi0BLlpcdCsaZfkd4/Nh5E+3QDpQ4+LfGH6JmDx\r\nH23c55+bVlFxkV8/7puPjklzMUxGM57n5OPRgwcob+SWRtqvnDWv/PHH3gXZ96C3t8LNx3Oy5fp4\r\nXvl55GdF+x1wMWTvAPPzLOeGhfROCQSTIwTgvBGsAZ68glRWzHIYVciytUorTClitMK00vujlc/p\r\noL7WuUKdD4EPca9CQRaAFrsTfaMG9I0Z0RuAAb1jEy9Ez+g4TA675NBaevddNLmLxB4fLsuWOpQ8\r\npvj9GpOgeKxOYCKSBBcXYEwQkmBjnxz5uriIU1noJP9/pD8Jua7x/k3np/9k5cnGMvucRqth6Um4\r\nkuNpNvObHFYrXUcF3u/Fj3inBIsHIQDnjWANMFWMwceLCAE4HdT5EPgQ9ykU6AaRwCHtY/d4YHe7\r\nmTUuEO7WZro4SbAxQST5nlQIQDo9iTs/bzoaApDCZe8q8uxqJvaYRVC+FuV3f5iAlNLTJ1kaHcxi\r\n6BN/BOvVZUqUJqPJPvzIUukTmD6kY7Pjy6KUJnoJASgQLBSEAJw3gokV+pWubf0jWIXqjeezFvrC\r\nteJOHjZZOCdYPie3Vk6efirU92e66QVaeEWDqptP3N/gSIYujbI4O/dNUm5eaHlDtcgLFbYcm0b4\r\n5PBzEmoRR8g/Dn0/EKUbIgtAxfvP4klp1NdJyH461eGvDlplQllXquMLBPOHEIDzxkwbkOkIsJmi\r\nlc/pnF8rfSio79F00wvUeIWCEIAhIvWN+qEWUK8OTPip3mftHgKfAFS6dNLqYXi90HqXhAAULEyE\r\nAJw3tIWNd3H1KZmOAJspgfmc3vm10quhY6iPo75H000/d9CmDluIsIaeffqGccluKeX7+/o23tqw\r\nRU2k7lEucHwrxgSD+bGcAVx0+UT65ATmaTrpeVy3NBFFee38ndISgEoLoBCASrTqKiEABQsTIQBn\r\nyIs3/FoVBZ+hx+rUAOETGPdFoNaMHro6fHJmev6p0lN+/Mc9+t/X6acPxos/r+BQxrzfX8LxZwtq\r\nlP02NqlAQtqYIUj6VF4XIW/q484E9TGlv1TxuMCY7XOHCm1DY+PILStDVulzZJYVIrOsyEuW4rsy\r\nTB2uFRY8fTGyy8pCguLOJH1eaTHySgrR0tnmfR78GQT/gcdeRtlyqHHPXl+mqqsEgoWDEIAvCP3C\r\np81mtfnNrgsdZUWhbgCVy71px5sWNEjdQQ/XBbvd/gL5DTw/WSrlil+5BabVTu+P7xcyFUjKo9Pl\r\nhNVmhYvGJk2ZXm6oggtAebPZbKygq/e/KLRRfgn1voUGbe1VtUg7E43nT1KkaaM0pt+F0eFR5haE\r\nHuvouA5OF5UZh/fHAsXT6fRwOPz91KkevxTmXzbY+RVlWg6nzWa1snvn+5s/H2U8+rTZ7BgdG/cL\r\nU2/q650taGvq6ERsRjoeZ6cjLicVcTlpLwk6dirisjMQl52NuOycKaA4Gb50L5A+PisD8RnJeFZc\r\nqPgtQNcuBOD0maquEggWDkIAviBUQT4vKETMg1gUFhVL/WjBBUgggRUFbckJ8ejsHobNPI7YpEzu\r\nyNXPb57yGJOLHi+0HmdHC6IjopBbWAy7nVYVUR9rMvzzStvwQB8KKyswODCAxwlPYTXrkVtUwDXF\r\nFOl9BDYu1BXV2dWJ6OgopGU+YwKBN+5a6WVkARnYUBHMmgUXEpOeIjcvH/0DA9IxA+OGivwDoLen\r\nCzfvxyE5ORkWM63pqp2H+Ua6CSi6ehv7/uf/E9Hvr+WNPADDhA5trW2orKxCV3cPauoa0NnZjZbW\r\nTjjs5KAEGB8bR0FhCYxGM3QGMxNk42OjzOeb2WyFTqeDwWCG0WRmZdbmdMHhcsDmcMDh9sBqd8Dq\r\ndGKMRCT5oLPYYDJb0dnVi76BYVhsXAS2trShpb0LVum5T+gNcDidqG1oQlVdI8wWK3R6A/sRozeY\r\nYLVYodcbYbXZNbowZweWr44OPElPQ3x2BuJz0ueATMTnZCM+J2cKKA7FnX76J/SZnY2E7EzEZ6bh\r\nWUlREAGocU/kMqUSgPJkMtEFrCyLk9dPAsF8IQTgC0Jb7N27iE/LQM/ACPfE756OFUhdUfBq9/zp\r\nr3Al9hnqijOw99hZ7wLqwSuVySsWqp+5PcWGuzduYdhok5wxc5OMOr42/nmlzWoZw7X7D5CTmYwL\r\nYVeQ9SwTOcVlvOmYIj2H8ix32/rcXNjJFQaAO3fvoG9EsUJCwDFDRdY+Vpw9fwGpWXkYGhvjtyAg\r\n7nTgTWVNVQmu37qDlpZWOF0Okn8acecXPtALKLnzCHf/9X0c+w/fRdSPlyH90HEYxqnsAoODA6io\r\nqEBv/wATgPn5z1FUWoP2tk7YPB4M9AzgeUkNampbUFnfgZqaBjQ3NaC5tQ0lJTUoq6pASVk1yipq\r\nYHR4MKYzoLG9mx2ztasP9Q3NKKupQ2l1A6qbOlBSWY/y6npU1jagoKQSPf1DLB/NTa2oqG1GbU0N\r\nWltbUVZVi5qGJjwvr0RZbQOq6xpQV1+H1rZOPCsqR3NzG8qr6lBZXc9cl/iXsZnDBQ7Q19uLp5np\r\nSMzKQGJ25itFEhOA6XheVeHredB8jxX3Rb43KgEoxgBq1XVyPa0tpgWC+UIIwBcFHvSNjKHgWTYu\r\nhoXB6bSzpZcC4gUlsKKg7f692wi//hBXL1/G/dgnUldrYNxpCUB2aBtuXr2BIYOF1+7ewf+BaQIJ\r\nPD9tKXFXEXY+Ag2VBdiz5ytMmBxBGo7A9MEEoFOyQdy8fRM9w3q5JdI4Zqj4BGDYpQgmOnQmkzTO\r\nTR13GlB+4YHFqkdjbTnOX7iIhs6+l2aFmglMAAIYbWzF9T9+iOP//p9w5vtvov5xAtxwwGI1Q6/X\r\no7yiAuM6PQaGhlFZVYXKmhY0NDTCZLfDoDOgrbULDU1dGJ4wo6qyFga9DmWVNSgtr0N3fx+z3DW2\r\ndGLMZGfDDnKeVzDBl5+fh+b2Hjwveo6W9j7UNXcgr6gMbV19KK+uw+OkNIyM6Vgem5pa0N0/hKbm\r\nFhQWFKKythGdvf1obu9EQ1s3Szs80I3S6no0tXaiuakZ1bUN6OzuZc6H/cvYzGEHpBU4XC7ojAbo\r\nDa8qejY8Qrmp70XAfRECUAOtuo7quNDGKAsEc4kQgC8IbdV1jYiNjUVpWalkTlOMpp+iAtWqKGir\r\nb2hCc0sLqmvq0dra4Q1Xx+WQiAou/mS4APKgqqIKZguv5NVxJifw/LT193eioqIKVosR+XkFkxw3\r\nMD1HmXe+X56NWFNbC73JEqRLebrQMVyoqq6Bg8YUzlT8Scekezo2NoLE+ASkpqbCZHcsSAHIkLqA\r\nJ9racesvq1Afl8T+pg5eEgANDU1oaWmD0+lmXapmswVdvf3o6OyACx42HpO6gUfGxmG12zA0OIzG\r\nxgaMjk9gYHgU4wY9hsfGGSa7k92H/oFBNp6wr6cTFqsFo8PDaGhsweiEAZ09/Wjv7MHA0AhbZ7en\r\nj3fLj4+PobG5BR0dnTCbzGhoakVv3wDGxnXQmazo6OpGe0sDxvQGDI6Mwmo1o6WlGb19vYHXPEsw\r\nCzTBcvgKb6oLVN8Hv3si3Re1AHy9u3+Jyeq6qetqgWAuEQLwBVHPqJz+y61dUag3n1uYwLjTgVkS\r\naZPOod4/OYF5pTFY8iZnO/jkksD0kyEfmzqDyXpJBix1nBdh+tc9NcptwYo/CV5mPbCOjMHjdHKx\r\nrXiO7Bp4FOl6PHyVCvY///RNHfZdO31z0HOS9tqllSX4eeXj8086vpxaMm5Lxmg+/lN9bG8aefUx\r\naaP4tLQYz5N0BGFhmTHKTb3PLx57KIECUDC9uk4gmE+EAJwBsuDx954fuO6mNloVhe87W57JO6ZJ\r\nK+6LM1XlHoj2+fl1Tt4FPVn6yX4Vy13XsykABXQjSaKRRYsv4cXD5Qafw350sHVhyaccdcrTEl58\r\nGS+3m3dlyWvMUnr2rKS1Y2m8KRODbFEL+Zx8ghR9stUlpGfqv94snYviywLTtynFHxeOJExJMPJ8\r\nsb/EGKtZQbmp9/nFYwUlUAAKC+D06zqBYL4QAnDeUFYU6spioaGVT2WjO1XFNv30skjgjmoX+v1Z\r\nHHgbbC/qZxIM5bMK9sz4sfyfGYefS142jMcnkcDj+jssDjy379iB5UgrX+q0gpcBewgaAlCMAVSX\r\nUYLKpRgDKFh4CAE4b2g1aAsVrXxOLuBmml4IwNlHLf58AnCq+6sWWcHF1vQEoMyLCkB1frTzJJh9\r\n2EMQAlADdRklRPkULEyEAJw3tBo0NQul0giWz1Dz92Lpfe1L4D7Bi6EUgMGfixpZrMvdWPJ3337u\r\nA5MvG6bQBYpzsj5hHih1DbupK5kR7Fkry4dWfpV5UedJ8DKRn6NaAMpdwEIAKsuyKJ+ChYkQgPOG\r\nVoOmZHIL2dwyWT5DYabpBbPPVOUvdLzrFyosfP77tZiqfE+1XzCfsEKjIQAFs/NOCQRzgRCA88ZU\r\nDfBCagAny2cozDS9YPaZqvyFDpvg4SZH6EIAvi6wQiMEoAaz804JBHOBEIDzRrAGWG70lMx3A6iV\r\nz+k00DNNL5h9pip/oT8TdgCpi1e9j+1XCD9fOHctw9zLBD0XhQfbJ5hP+DMPFIBiDKDWO6Ws69Tx\r\nBYL5QwjAeWOqBlgIQMHLZKryF/oz0RZ4k+8n0Te1ABQsVFihEQJQA613SghAwcJECMB5Y6oGWAhA\r\nwctkqvIX+jPREnhT7RcCcHHDCo0QgBpovVNCAAoWJkIAzhvBGuCFyEzzOdP0gtln7sqflgAULG5Y\r\nodEQgIK5eacEgtlACMB5Y+4a4Jkz03zONL1g9pm78icE4KsHKzRCAGowN++UQDAbCAE4bwRrgOXu\r\ngoXULaaVTyLUbo2ZphfMPnNX/rQEoOwIerKuQq1NHWcy5mJ7mWcJfF8WDixzGgLw9fQDqH5nFu5z\r\nEwiUCAE4bwRrgGVRtJCEkVY+pzOGb6bpBbPP3JW/yQQgW/9XrXwm2dTHnoyXsQXet5enAgOfzcKB\r\nZUxDAL6eYwBn/50RCOYCIQDnDXVDIodTJbLQ1o3Uyud0BNxM0wtmn7krf8EEoNPtht3lhN3hgMNh\r\nh4N9+rDb7TOCH0d9XOeMsNsJypsPhz0w3sxxweWie6V+PgsDlikhACVm/50RCOYCIQDnjWANMImh\r\nhSaItPJJhJrXmaYXzD5zV/60BCAJNJPZDJPJBJPFImGGUcZMmGaAmR3PYDIyKIydz2ydEQaTBQYT\r\nHZc+OUaNeC8KHUvGZLHBYnPA6ScEFwbyWtLqNaUVmvA1gp7P7L83AsHLRgjAeUOrElmozDSfM00v\r\nmH3mrvwpBSBVODabDSajEWazGQ67HU6qhNzuQFwuOFTYJRxkOZwEb3ynAxa7DSarLDJtPpFF36eF\r\nFQazLAA5RkISaxyFoPOGaUPHI1ga73dpn5RHEphmi01lDZx/ggnA15fAci8QLHSEAJw3glUgC/GX\r\npFY+iVDzOtP0gtln7sqfUgCS+CPhR59U+bA4ko5Q6gr67gTgUu2j+G44vYd0eaGuR7cCaTICHcPj\r\nYWLQ5nBwoaWytE0Hr9XPZIXeZIVOvd9iZ/gEXqCI9Im+QFHoJxDl45ossFjsC0oEBhOAr68FUCBY\r\nfAgBOG8Eq0QW4ngSrXySSAh1DN9M0wtmn7krf+wEbg/cThcsFhIzFp/4U8GFHJ8EYQYJOFmQyvkk\r\nSUjwJYg9THxQWrkscdwa+adzWmx2r5BTi7vQoPR2mEw2WCxumC0eGEwO734SajYrXacNBosVerMK\r\ni4lBlkT5WP6oz0dWR47VQc8l8J7NB/IzldWeHP56jgEUCBYnQgDOG5M1wDLqNPOFVj6nI+Bmml4w\r\n+8xd+ZPFgkOy/tH4P7fWusFM8IF1/7b39mJsYgI9A8PM+keHkLeO+mZUN3ZIU2V53rko9BeAdA61\r\nELE7XDAy8aUUWRYmsOTvPnwCjHftUjwau2iH0eJA19AE2obGYCWLHbP+WTGmM6G5Z5gJTa8ApK5j\r\n6buBxiWSAGTHk45lpvT8Ox8HKJ+bf1I6nYl3XwcTznON/EyFABQIFi9CAM4bwRpgWRhpNJDzhlY+\r\niVCFwkzTC2afuSt/JBI8LjdsFgsTgAEihlQfAIvTwT6Npgks37gbTxOy8MXeq17hd/v6A+SWNqDi\r\n+TNkFZSzMJedizy4HTC7Hfw7AIeNH4sJTcXkE4fLzUSVsotVb7ZhgoksAxNgFpMNTmkSid5kgstu\r\nhdmgh4X2WV0srdVuxJWENuyMbwacZowbJ2CyGVHSPIj3wkugN+pgs1lhsDlgoUkoeh3sNgsTeQYL\r\nTUrRMSshO5/RAoPRBLPJhDGjgXcjeyfBmJm1UC+JwYB7xwj2zLTeL624WmGTp2cPzSsAfen9/QAG\r\nTz/T8y+s9ALB4kQIwHkjWAO8EJlpPmeaXjD7zGH5IxEmCUCT2RRo/YMNl8OisW7zfqxavh3peWVY\r\nvfEYEhPT8NneSCbkxob78dZP3sa/rjyEBzce4VFqAU4dP439e49h44a9OHM8Gqs/OYLhMTPu3b6D\r\nDZv3IfpGEutCZgJUOpfD5fETgGTd01F3rcOGW/FNuPV8GLllo9j+qAtNI3bsvF+Ph8/68Odzdfgw\r\npgmtPSZsDK/DqphWbLtZiX1P63HmUQOuFA3A7LGhqnUYPzvwDO9F1mJrbCt6R03YebkKvw2rxY3n\r\nA7ie2o7IogEklw3gWEorziU24f2wSpzL7MKWa83YeLMGlX2jsFlI/BlgNPMZzLJY1RaAslBR7pOF\r\nilqsaMXVCps8Pet/9wrA6aef6fkXVnqBYHEiBOC8MYcN8IyZaT5nml4w+8xh+fMKQOr29BeAtA12\r\nN+Ev722GyWbBupUbcTMhBxs370NiYjoTgHLv71e7v0JsUSViYyJx4vIjbPhkB0oqGvHJ2k+QVFiG\r\nnTuO4O7jVPzr79cj5vZDfL7tGPQGK5tOIp/P4eQWQGX37oTZAaPdjmc1o3g/uhqbY1rx/UMVOBRf\r\ni73xjfi3U5WoGzTi2O0GHHzSjX87XoGSHiMepjfh/7u9GO9fa4HewSe2VLUM4Z0ThSjuc+CPp8tx\r\nNKkX2+7WoXvQgN8dK8bWG3U4nz2E1Nx+bLlbg11XqxBd1IGuzlF8cKIUB9I7UTNkgtmqh8Er/kIR\r\ngOpxm5MJGHVcrbDJ0wcKwOmln+n5F1Z6gWBxIgTgvBGsAdaqdOYbrXwGqyC1mGl6wewzd+WPncDt\r\ngd1qZX7/qNKhje0DoB/qw/t/2YKneaX44+8+xJ34fKxYuxuPn6Rh22dRkvwDjh89g/3h93EtOgxH\r\nox9iw9bPUN/Sga1bP0VZXQsOfnYKcQmZWPX+Fjx6nI28/BLY7NRYS1lwA3YnjQFUjvXjrl2MzDpp\r\nxbtHn+HXUS0IT2zF//vTZyjuG8eaC5UILxjB6ktVOJvTjz+frkSz0Y6bye1482Qd/nyqDLkderjt\r\nQH3DBP7t/HP0TbjwtxNFuJI5jg8u1eB2/iDevViJU4l92HqjBTuud+KTO3XYcb0OtxpGMDZixr2M\r\nDvz2ZDG+yuyEwWGBnlzNSPk0mawwBxWABD0v9TMLNSxYePAw+Zn6xgDycP8xgMHTz/T8Cy+9QLD4\r\nEAJw3pi7BnjmaOWT8hdqXmeaXjD7zF35k8UCE4BGE6toZAHI9gMoy8/HifMxuHbtPupbepGUlI3m\r\nxjakZ5R4BWB/Ty/OR9xCWnYByiprkZyWgaHRCaSnZWJwaBzPMgrR1z+Mppo6HD95CWmpGUz0ESwL\r\nLsDGJoHQLGDuzFlpDbTbrCgo60ZSfR86hsy4lNOLCbsNjT06fPmoAxfzB9FvsOJJTgtGDBbkNw4j\r\npbUPWXU9iCnshNVuQ8+gHjeKWjFicOB2ThcGJxy4m9OPzY8aUdyjR/+oE0eetOBMah+yq3qRWdKD\r\nil4D+nR2nM9sw4mkVjQP6zFh1rGJH/LkFDMJQNNkAnBukZ+pmAQiECxehACcN+auAZ45WvmcjoCb\r\naXrB7DN35U8WCzQLmCyAtCSbcr+bRASb/ytviim/9BeN4SMV5x8a5E/ZOZ30F/nOUwhAq90pCUD/\r\nmb6EyWSGm0Sq3QiLxQowi6URJpsZbocVbjs5rzbCbbPAatLDaDfBZnXAYTPAZbNARxM3rEY47bTq\r\niAmwmWClCSW2CbicOlhpFrTFDJfDDqfDDo/FBFhMsJussBudsDqtcDuc0FvsGDOa/ASg0Ujuc2gW\r\n8Ow9l5kgP1MhAAWCxYsQgPNGsAZ4ITLTfM40vWD2mbvyJ4sFl9MJs9nEZgJTZSPv57NGfcKGzyol\r\nd88uuEAzeyW3LgweSiLD/zxSejbnwyf6CKYPPYDT6YbZqu1rT0ZvdkJvdknuXmjpOAt0FgsmLEqn\r\nzyTM5O5jOYyOS+E0e5e6bM0wm/gkDj6Wj6dh7mKktNStS+lphi9ZJPXMv6CD+RXUGWxekWow0Xcb\r\nbDTj2ev3cH6Rn6laAAoEgsWDEIDzxtw1wDNnpvmcaXrB7DN35Y+LBTLHeWC32ZkjaLYMnMoS6A8J\r\nQAf755SkoO+fE27m80+dRroWEkleoUSiyQ2nwwUrrdChIfp82KA3e6A3Awaz1FUs++EjP37TXkWE\r\nhB/Bl4sLjjTOz2yH2eSA2eiAwSsAyVpJawLTcnkv/1mFCn+mQgAKBIsZIQDnjWANsNw1ujC6ejha\r\n+STk7kJ1fDUzTS+Yfeau/HmFAq0G4nbztYCl2a3UJWqz22F3+GNz2GElnPyT/lajTmO3O2C3O2G3\r\nu9jkD7vDwcKp65WseUxksfWAfevv+uDhRgt38kyfPIwmiPDl25Tr9k4NpeW+BIOfk+MVgBbqIiaR\r\namNLzbG1hpk/QhtzX0MrpAS+Q/MDy4iGAPT3AygQCBYyQgDOG8EaYFkULSRhpJXP6Yzhm2l6wewz\r\nd+VPKRbob68ItJLwockYJhhMRhUUNhXqNP7pmPsUC3eozPb5uVUJhmy1CyXubOF/PoME3RuaWELO\r\nq8n65xOA6mc29yifKX2Xw8UYQIFg8SAE4LwRrDKnhneh+ZnSyud0BNxM0wtmn7krf0oLoBxGAoGW\r\nfLM7nbA5HAHWvdmAWRAltMIWClp5o78dLj7WkYSfjPYzm3tYBoQAFAgWNUIAzhvBKnM+AD4w/nyi\r\nlU8i1LzONL1g9pm78qclABmyKxhpEq9ACd0jeeKLb4k19b2dL4IJwIWWT4FAEBwhAOeNYA3wQmSm\r\n+ZxpesHsM3flL6gAFEzCwraQBxOAAoFg8SAE4LwRrAGefQvMzNHKJxFqXmeaXjD7zF35CyYAhbVo\r\nMhanABTPVCBYPAgBOG8Ea4BnfwzWzNHK53QaqJmmF8w+c1f+tAQgiQQxXmzxEkwAimcqECwehACc\r\nNyZrgGXUaeYLrXxOR8DNNL1g9pm78icE4KuHEIACweJHCMB5I1gDLAujhSSKtPJJhCoUZppeMPvM\r\nXfnTEoCE6C5cvAQTgPIzFc9VIFj4CAE4bwRrgBciM83nTNMLZp+5K3/BBKBg8RJMAAoEgsWDEIDz\r\nxtw1wDNnpvmcaXrB7DN35U8IwFcPIQAFgsWPEIDzRrAGeCGOi9PK53TG8M00vWD2mbvypyUAxRjA\r\nxU0wASieqUCweBACcN6YuwZ45mjlczoCbqbpBbPP3JU/IQBfPYQAFAgWP0IAzhtz1wDPHK18TkfA\r\nzTS9YPaZu/InBOCrhxCAAsHiRwjAeSNYA7wQmWk+Z5peMPvMXfnTEoCCxU0wASgQCBYPQgDOG3PX\r\nAM+cmeZzpukFs8/clT8hAF89hAAUCBY/QgDOG8EaYLlrdPa64GaOVj4JubtQHV/NTNMLZp+5K3/B\r\nBKDwF7d4CSYAhR9AgWDxIATgvBGsAZZF0UISRlr5nM4YvpmmF8w+c1f+tASgGAO4uAkmAMUzFQgW\r\nD0IAzhuTNcCzuxbrzNHK53QE3EzTC2afuSt/QgC+eggBKBAsfoQAnDeCNcAkhhaaINLKJxFqXmea\r\nXjD7zF350xKAhOgqXLwEE4DimQoEiwchAOeNYA3wQmSm+ZxpesHsM3flL5gAFCxegglAgUCweBAC\r\ncN4I1gDPvgVm5mjlkwg1rzNNL5h95q78BROAwlq0eAkmAMUzFQgWD0IAzhvBGuDZH4M1c7TySSIh\r\n1DF8M00vmH3mrvxpCUAxBnBxE0wAimcqECwehACcNyZrgGXUaeYLrXxOR8DNNL1g9pm78icE4KuH\r\nEIACweJHCMB5I1gDLAujhSSKtPJJhCoUZppeMPvMXfnTEoCE6C5cvAQTgPIzJeRNnXYq3O7AsjfV\r\nsSiNVjqBQBAcIQDnjWAN8EJkpvmcaXrB7DN35S+YABQsXoIJwGBMJc6m2q8UgLLYUzKdYwkEWmiV\r\npVcdIQDnlblpgGfOTPM50/SC2UcIQMGLM5UApIbUbrfDZrMFxWq1wmq1SJ8KNOL64lthsVgY8veA\r\n9CrU8UPFdww6t0zw44eC//ECjzUV6uNNhjqtP5Nf03TP5cVsZVgtUx9/9pi9czkcjtdKBAoBOOcs\r\nxnFvWkJhOmP4ZppeMPsEE4Cz/0y0BKAYA7i4CSYAXW43HC4XLDYbjGYzjGaTHyaLJSTMCgGjFhlm\r\nszkArXCTyRSA1n6j2aKJycQxmqwwmul6iMB4/sjXaobBbGHI+8zseFYYTfKx6Ljq9Mp7Rt/V+7XO\r\nFRyDKh++a5osD9NHPq7BZGPQ8eXvBrM14F4YTcr7Hzra1zLV81HeU/U+GRMMJiMre1a7nZVjdZl/\r\nFRECcM6hxnV2Z1m+fLSEwnQE3EzTC2YfIQAFL45SACrDbQ47jBYSHVzs0d8kCBluF5xutya0zxuP\r\nGiWXy9sl52ukXOy7jGypUXYFK/drQRYeEpVKUcgFAIkIf8wmwgITExZ2icB4/shCg+6BFXomfqww\r\nScczMeElH0sWYEq4GPGJFfV+rXjBIQGoY/ngx+LXROkny8P0IWFL6I2y6LND78XG7gPhS0PibfoC\r\nUHkcOh+7Fr97Gpg3pQDkYpSfX2s/lV0mAm22gDL/KvLaCkC3x80AfONL2BgTuAE3CTTaP53GyQ2w\r\nRtMND1WM0kaVknxkOV5A4+qNo2yIKVwSi26X36/s2YD/cJfyEez8VMl7w9nlSeHyNYQqFuS00xWA\r\nvudD99QVIFYEL44QgIIXRykA5bqJ6jqzlQsTsqKQsJOfscuj/B4MUO0Lt8cFt6JeZqdgAi+0H83K\r\nLjz1Ju+n7mmvFXAyoWWSRZLSYsbxiQm12ODIApCHc6sYEx4mh0J8cQuViYXR8XzpSTT6jsvP7S9g\r\nlOfiKMNkkWMwkyCT09tgsFgZ8jHp+un8zDqpOIf29SmtZlKYycaELRO3TADa2X1Tiz+lAOTnpOum\r\n61TnO/g1+R9HOueUz0e+n2ZYTGSJ5QLVdz20nwSg7zwUlwSRumy9ary2AtDpccIFFyxmPXKznuHu\r\nwwRk5JdAbzQz0eGEr8KS6rgp4CLKI1VcA709SM0sAOBEW3MzhnRGrmVYDScjVaAAslIK0NU/zmsp\r\nb2NJBdAhiUc3PC4JjeuZNrKwki4gMzkXfcN6v/PTNjI0jK6OHh5OeSEx6nZKn/6Ne3A0rnlK+CkH\r\nuzqRlVrCvjuley3HCbgmwTRQl1/1/tlD+VzV+wSLEy0ByESVycQsbC82jop+MNOb7mJ4yyb7bU07\r\npB/mbn+rX+BxpobSeS2BGgKQWZfMRiYY+H5/0SOLO9nCJ4fLFjYupmSrlB0msoiyrmoTYHHAYHYq\r\nxJAdNjuJEn4uwm6jLm1ZlPjOq3VOZV7U18GFJ88DdavbrbIF0HdNVosJLrMDdit1r8oii4QbF3H+\r\nIlC2xlG+fOdg3fCsS9YMq9EonUM+jzpP3CIqWw39hS4n2P1VWi7p+bB7HeLzoXPZjGY4zGbYLLLY\r\no2tRpKMuZUmg0rACdbl51XhtBSDpCJNuGDu37MHJiBgkpGUh7NIN7P3yFMYNRskWqLIOKhpMv3BJ\r\nrKSkZaGtp599rykqwtbd59j3uJi7qGjq8AlAb0LfgfZ+egCZ5a2qfW7Yx8fwKC6LJeN1rn+Fp9yU\r\nYao9AWn040N4lPhU2m/H7q1f4Hljry8JVewAKkrLEB+bzMM8Ft+R6aKVgk3Oi/dvxXF8hjzpb8VN\r\nUAkEXzj/qCoqxKdfhElhTv4pxMQsIASg4MXxe29l659kUQuwnLB31/e37CKGHUd+1b373JgYGcDg\r\nyKj0zlOYCw6bCT29PQHH8tZtijrOV6/KYfwcfnkiI4DTKYmsQJFC3b4Wmx0miyRWZKuVNw4fi0Zd\r\nq16BQaLBRJDI4t2SdBx2LKuZjYvs6LUiu24MOiuJGBrraMXAmB2pVaMwk6ix2DCksyO7YhhjZB2z\r\nkHBUiRTFOdViR3kNfKwciRqydtowrjOhpWcYJoMDFiPljcZZOlDeNIT/f3tfAWbHcWU9yUKyDP9m\r\nN7DZ3SS72Ww4WYfWwd0kjoO2w2Qnlp04hphJsiwLLYZhDYiHmVHDzMw8b+YxM8yc/7tV3e/16+mR\r\nRrKkSPa0vqPpV13cVbdO36q61Tajx7xKC7PFDptbJE4iAaQyiHUg5ofyJtYJxUOEzA0XhRXceZ2E\r\n6iv0m4cR10SG1+vaMikRQPLv9rhgD+ZBTIPfs/BBTWeoPrwuJ5aXDJhRG+B00VpQvi406MfB77mG\r\nUqEtv87whiWAdFVmpeNofJ4gLPilt+jg9rpgtdng869gamYG/cMTCNBHqcBX6FqYW0T/wChsHi/7\r\nbTVo8ewzryC94CK0OjOG2jrw4u5Y9sxpc8LrpobEidPk6CyGRqbh8wdgsViYoDrw8lHU985jZmoa\r\ng6PjjHwG/D5017fggcdexcjkDCOmQUEmkCWz2YL23kEs6YxC/gJwWO3w+32Ym5xgeXfT9Cl9U69w\r\nbSKtpWmorsAjT2zH5PQcfA4z9m99Fe3jKkyNj6N/YhorgsqOvuqtDk+Qt85MzWFgYIQJLpYekblV\r\nwOfxQW+xcNJM6fk9MFitLF0qeMDrgcHI88/jmUX34DDcPiJ1PA66Ziem0T8wARfNBwEY6mjHi7sS\r\nhVB+aDRL8Hr9zL/8nW7iSiASPxGiuzg1f3WaFSWsRwCvbInFJm4myAkgDSTiJgupv0BgBQEfzaYI\r\nspNmD0i6MFkEeHw04+JjMy4rIFm6guyzcTh2Op89d3rpoxNYnuzH7x7fBkfAz0RFgC/WgcfH42FZ\r\nIm0gaQdZtvxM3vkClJ4XAYpHWPYj5o1IK2l55JojgsftxvmKceT1LsHlX2HaM7vNCrvLBo/dApfD\r\nCaPVBoeHpk49sLrscHo9bAbJ47LD7jJzMmR1YsXjQnnrEk43zGJ81oTzDdPC2sIA3C43Zpa1SK+Z\r\nRt+EGbvyJjFvdOBs1QS0Dg+8bjvsDhuLi3ZCm5xGGLwemJkGi+ddzLOUKEnXHNq8bnjdHrQPafGz\r\nqHboAqtwuWxwOTzwez1o7VGhuHcRj0S2o3dmCR6vBVYPrZcjkFbXwmbKTA4rLC47rLQ5hzbrWA3M\r\nncpyPGcAHQtGNHQvIapyiq399DvtsFrN8HpoZ7ATbocNNpsZHrsddqsVXqcLPtq5S2tG7Ta4iVwG\r\nNbKhckmJIZE/WmPosrlwJGcErbMW+FkcNjjsVF9eWOzkRhpJK1wuC/vNtJweN+BxIDp/HC8UTgKr\r\nXpidJhg9PlhcwvSxqAEkYulwsPFP3vZfT3hDE8Dmyny8sOc0PF6B3fFvRvb3dHIqXt4Rh+PRSTh0\r\nIArb9kTC5CBhE8C502exa3cMYiJP4ZltJzClsaC7pQU//8nDeOGVSJRWNWOwvRMv7k5gcR3dfwy9\r\ng6TdCyDmSCR27k5EVMw5nHj1JLbuS2ApHt6+D4++GIuY6HPYtW0/DsSmMmFy8ng0vv6jRxGXfA6j\r\nU9OCsON5HOhsxdPbDuFE/Ck8t3UfCqp7mHtaQgp27IxEbGQi9uw8gJf3nYSD1uCAhC1gMltw4sA+\r\n/PjHDyMh+TxUiyrs2foKnnopEvHRZ/Dytv04kZzJ/NbWNiD2dA67Tz6dhl37oxEVnYTIY2fgsHlI\r\nBGMFHtiNOjz38lEYiZwBaK9txF2/fAm2AKeO9dXVSL5QxO7PJV7A/mOncSI2CQdePQ+LzYOVQACx\r\nUadx9EQyIiOT8OqR83DBi9HOVryw5xwLV5JVhEPRafBTnMJ0svy9bmKjWI8AimsAN7beaiNQIoCb\r\nawBvbYQRQJJsAgGUT5vRlXk6DTm1PWhtrMeBY7nQq9XYf+wUSkur8PBvd+KpV05hbnkZLz1zBFv3\r\np2DX/kgcTylGbORxZFY0szg0s6P4xj2P4JFn92PnoXOwmE3Y8fIh3Pub3Siu7kZBTgGySmrQ39GN\r\nY4mFSEhIwAPPHkN6ThX2vbwHW3clYXSJaxXFvInTwFICSBonh9uNBY0dt2/vxJeO96NkRI+HTvXh\r\n7tgRlE2aEV82hy1nZvDzhCFkDZjh8vgYwYkqGscPkkbww+hB5E6YcPqiCt+LHcTukgncc2QSH93d\r\nh8jGRRwqnsBTKWMY0PmQU7OMo2Uz2JU3hecyp/HOZzpwvGUW23OHMaqx4bmUMfwqeQTV01acKpvH\r\nj5NHkdA6C4uXa6r4Gjk5SeLkz+3wwu/2Y2jMil9HT+KH8eP4Tmwfuqes+GXsKH5xZgRPZI4ipXke\r\n51qW8GjiAHYUziO2agbLJg+eTJuA2uWC3mzF7+N68XDKJH51dgS9Zg8O503i1yen8ZOoERytU+OD\r\nzw7hx4nT+O6xcfzHywPIGtFhf+4IfpYwjJReA44VzuAXCUPYXzqO++IH8NDZKTxXOI6eOQceShjE\r\nc1njmDRY2dQsLSPg6wLXlosIoNvjQ8+YDv/2ZDu2nBvFoZwp3Bs/hDOtCzieP4WfJI0grUOH4yXz\r\n2HJ2FD8/2YeqSSuymzS4O34Q//dqN3aUL+J8+Tx+nDSOhNZ5WLziGknahU6aWFoC4NwkgK9n+P1e\r\nnD+dhaee3o8DB+OQllUOndnGhETU/qPYeTCV3dN14VQqEjPrMD8+iedfOAxhMhKNVbXYeZRrqKKP\r\nJ6B7bIbdEwF8QSCAr7x8GK2js+isr8aOA6I2C7hYUIifPLKT3e96didOZTbyBys+PP3EK5i1emEz\r\nzOGp/ceDmjO6mBbQa8XTT23D2IKOudkNi3jyyZ2w+31I3BePQzGiZtOHp17cj8FpPr1L5aZLOz/O\r\nBK0Y43OPvYC0ElqzCKy6nXj88Zdg8QO1pVU4GJ2G1RU7fvebPbC5ifQBLo8bXi99TdNaSl4b+/dG\r\no7pnhN3HHjmCxx7bj8ZeIr6rOLzrVQxMLWGwrR27D58R0gXyMzKQVdSI1oY6HI0OuZ89k46S6i5M\r\n9fVi555TyMvKx3EinWwNJG2M8a15n5u4ElyKAF7bXeqbBPD1ByUCKJpjCfMHoK+7DY9s3Y8Dr5zA\r\nd3/8AhLj0hCZlINf/fZFzBntOL4vCtGJpfj1L7dhRGdFWVoyPvvFH+GpHaJ8AtQzw/jBfc9gTq3C\r\nIw88h/joNGw/mg6DZhIP3L8Vew7HIza1EC31zXhqVxy2v3QI58p6oZ2exr0PPIWos4VY1JCsDOVt\r\nPQJI8Pu8ePn8AM4NarAvZwTH6ufRM6LH/fG9eCFlCEeb1eiesOIHxwdhDvigUrnxg8NdmHO48FBM\r\nNw5VLeGug92YMDugc7gRWzKL3WXDqBjR4bcpo4gsnsLuwhnclziIzF4T7ovuQfWwGo8kjGPZvIJ7\r\nIruxs2gWP47txtGCXhwtH8PWlEE8kjaO0n41LG4/HE4fHC4f7KL2KowAeuB2+AF/AC+fnkBcuwbV\r\nfYv4aWw7njs3jKSOBVT0a3FX/DgOlE5iT+UUHk7sQk6vHvdFDWJf6Sz2lkzB5XdBb/ThWwfb0WO0\r\n4kDmJH57ZgY/jh6ExuXE/Yf6kDZoxEMJHWiZMyPv4jy2Fw6jflCPLx1oQmzFIHZkDeDZ+H5EtSxg\r\ncEqD7x7pxKjWjfuOdyOlTY/vH2/H8YuLmDE6mebVJUyNixrOEDgBtLu8jNzeF92M1gUjdl8YwaEa\r\nFXpGdfjanjbEVI3hlYwBPHFuBEea1CitmMMTmWP4UWQ/OjQOHD4/iu0lC3jpQh8eThtE6cAiLLQe\r\n1OmHw0XT/iIB3NQArgnwegFNSfDJW8DhsGFgdBQZGbl45LFXYHC7kXwsHtWNnMzQNTHQhz2Hz6K8\r\nvAYxKSXMjSYj7Pp5PL7tVUbKjh+KQ9PAOHs21N6N5wUCuHPXMbRMzCM7OQE5VW3BOJfmpvD09oMs\r\n7L5XDqJxcIFPhwZ82LVjL8YNDpiWxvD0nmPgE66hy7Q8j6e2RcJLpVglDaYPB/cewuj8PE4fSUJR\r\n7YDgcwV790ehXSCmVHa6VJMD2L7nGJ+ihR+vbN2L7ilav0hCw4mXtu6BxuVFU2U1jsRwIpyTUoyX\r\nXzmJuFNZGJhWMSWcd3UVPmERZGtzJ47F5sJoWMJLBxLR3d2HY9G5MBsNeHFHJKOJFxLj8bsndiLq\r\nZDpioy9g765I5JdfxKm4ODz2zEGciEtBdPQFvLQzEuVVzZgfHcD/fuYuPPWCSJyF9wffJnF4TViP\r\nAIo7vOX+rx5KBJCwOQV860KJAK6nAaTNY7/94RZseeIQziUl4yP/+yDmlrV47Pc7kFXWhO1PHUNG\r\nfh1+9eBuWLxA3plz+PmDu/DgQzsxOq1hUSxMDGDLb1+Gx2fDAw9tx5nUEjz63D4UF5fioSePIOV8\r\nLp7YdhT7Dx/F73fHY++2oyjrGIPbbEFJZhl+/sAzTBvIsiPkLUQAQztAxWnHgM+NQxkjeKZgCkeK\r\nx/BM6iROlk/g2bQhvJI6hsfSRxFVPoUtif1w+ANQ69z46f5GZPUZcM+rPTjUuIxfHG1AStcyOqeW\r\nkVqtwUPJY7jQrsGW8/2YNzjwP8/U4pmcOUwtOvDDE81omdDjW4f60Tppx0+jWhFXP4ufx/UjpVeD\r\n1mkdqnuW8ULGBO6K6oaeCBLtuHbx9XlyAsjL4WHLjA7lDeLZ3GHElc3g7ph+7Cwcw6N50zhcuoDv\r\nRo3j1cIpvFK9iF/F9qJ3WY8TmaP40LZWDOhp3aINJqMDX99Th/g2FX4V24ZdxSr89HgP8vsN+PrO\r\nHqQM2/DYyTYca15CbuMSfpzQjbweLb51pA2nu9RoHDfjmbhupI9oMDmpw0+je7Fk9eD+Q12oGTMh\r\nvmYW39zbgYwhM7xeD1y0ZlLY4SuHuAbQ7/bh0eguxLSq8Oz5IZzv0WJq0Ypv7e9AYocejePLeOFs\r\nL1J79CirncYjmUN4NK4TiW1L2BIzjKcKp9Dcv4wXM8ZxV1Qn9DTFL9bnpgbw9U8ASTaRsUf5tefl\r\ng2jon0XSiSRkF7UH3Tua2nAkOg2tza14NZZPSdK1ODuBZ7fSZg8vovcdRfMQn6Ydbu/Fc3s4aTmy\r\nPwYt4zOoKSpAQjInj3T1t3fiwcc5edz9ygHU9s/xBwEvdu7YjSmDA2bVOJ7bdSKocRQvp2kZTz29\r\nFx5BABNxe3HrAczqTUg+chJ5F7sFdx/27otE2ziPm8pO1+LEILbvjRb8rGDH1t1om1jiBNRvx7YX\r\nd0PtcqOrvh5RcSFNqNmiRX97F556Yi+G5rj2kZnTIULtdGHHzihcSMlCSnE9i2rfrsM4n5aP2Lx6\r\n5jc/NR0J6ZXsnhqceJ07fQ4pxU2cVPp9wTWIw93NePyJPTi0JwqZhRd5esIO7bXvdBMbx3oE8Npj\r\nPQK4iVsX6xFA+RpAcXFve30rGrtGoFlexoW8MrbUZnFuAUePJiG7sB5OtxsF+TVw+gIY6B9E+/Ac\r\n+tq7kV/Vyj5SLUYdCktq4A04kFlUCa3Ng+Kicuw/eg5DCzq4bWacTDyPpAu5qGrtRkNdEyZUerjt\r\nNqSey0N0Uj5bg0yXmLdwAihC0KC5XZhcsGNf3hg6l2xILJ/By0XTmDU7sTdlAr84P4mdBTMYUpPW\r\n0web14+6IR325E/hROUc+lR2dE8YsT1jHFk9KqgtDpwomkdqpxYFvfNw+b3IqpvG4KwFGoMTKY1z\r\ncNh9OFc1j/SOWeS3TMFo8yGrZgZb80fRqjKhpm8Ru/JGUTBigNNrgtnthI0RwLUaQCKAFlpH53JB\r\nZ3QiumgChypUSGlZwKLFjaPFszhaPouU9iXUj+hwcdyI/JZ5LJqdSCqawq9SpmD3+2FzWRkB/On+\r\nDjxXsIATtTOwubyo79diV8EUjpXPYFDtRNuUHa+UzGJIb8fhonlUzZhQ1LOErdkTqBkzorBrEe1q\r\nKxZ1NqS2zUPnMCOreRiDC1ZElYwjqnoKc1balOGFy0lT6j44afOKDCIBdHrc6B434GjJLLJaltE7\r\nZ4bP60dF1zJeyppE8YgGZT3LaF+woW9Kj6rBJUzPGvFK3gz2VcyjZEyLRlafYygYldXnJgF8/RNA\r\nurqbm3A4Ngl9AyOYnJpFdeVFPPL7V9ii0ISjx/GL+3dgcHwUY+OTeO7J7egYmIXXbsejz+xEfVsX\r\nVPNL2PfKEWSX8qnTlNgYnEhIhdHkwGBLN57cwQnW4d1RaOodg89pwvPP7EdafjWam9qxa+te/O65\r\ng8zP9m2voLaXa+kQ8OOFrTsxprPBb1Xht79/GZ3907AxEzVc9tJ6wsSoGCSczYdao0FuShr27OLp\r\nxe+NQ06VSABXsHPXCXSMiBpA7mrTqvCbh19A38gsvB4Ptj33MlrHubmXVb8bTz/zCpZcbnTWNuBE\r\ndApbo5dfVI6h2QUsLSzghef2Y3CGE8CgeReauo1Nxpe+9SjmTdykTMapM/j6N3+HCT2ZuFmFcXke\r\nTzx3AC0dg1AtalFaUoOpuUXoVNN49tl96OwZxdycGoUlDZhX6zHU2YJndybADx+O7z2IuNMFbF3h\r\nWruCm7gyrEcANzWAm7g85AQwuAvY6Vxjh0/8G7r88DHzVuJF5q24Hz+b6wityabLLQku+gtbE8M2\r\nhPClKeGXS9h0EopPuuSAFAAuwW5hyAZcaArV6fbA76cdvC74fFas+C1Y9VmRWDCBgmEDsOqB1eOH\r\nzRGAzeFjGxoCfto5aoPf6WUbEuBzwuH1wemywu93YsXtYZsizC473H4X2x3scDkBOurO4Qa8dvg8\r\nVqx6rHA7XFjxmQGflRFSl9cO+Ozweng90y5WIity8icSQJrKJhLocgboqxrwerDqod8uwOfAqtcJ\r\nn9cFj9sFv9sK+LzoHzHhoTO9GNbb4KPNGS47NGYrXjjfiyWHC/DTZg0vM1NDefH5bfAQUXL7sOpb\r\ngdXtxYpvBW6PGx4/+Xey8rp9vB6pvPA64HTZEPCa4HHZsOqjTYu0ucQqmHehXcveNdo/qc0/uve5\r\nXYDbDbgC8Lhox7IDXo+PKTDomdtDpm/oPdrg9djh8NhZ/cLrZptEPB4bVv0O+Kg+2Y5gAieAtAmE\r\nfpPhcN6Wr71cvBnwhiWABNpVVVdXhxPHkxAbnYa4uDTMLWmZoKAFyKfPFeDMhTRERl1AU3NvUIgs\r\nLqpwMuEs4uLTUFHdGnS3mEw4GXcGhSXt0C1qUNXAiWFrYzdUS3rux+5ESUEF8orrMTLQj5f3nGCy\r\nrL62GnMavpMXgRXUXGyA3k474PxM+3jseCqmZvl0COWdhJ7Pa0Zmej5OxqUg9XQ+HDa+Y66nvj84\r\ndUKisb6pA2q9KWhKRtzS21RVjWMnLmBebUFtXSOWDGZOBgIBVFc3wez1Y2lGjeaOYaaBbK5uRGxc\r\nOuJOZqKtidcH8y8M7HRppqaRmV0laCxXoVpaQEZOFVbIZZVPui/MLiEh/jzi4lKQnlkMi93B3Mcm\r\npxETdxbx8anIyK2E1eeCTrWMqrousOEiYEdebjHGFkn4yonLJq4M6xHAzTWAm7g8wgig4EaDPh2n\r\nReuDQ6Ze5O2Lm3oJkLFn+h1mx08cZPkudG5Y/zLtg30IygZnwWB92I5fwbC/2ObISLWLLfxXNgMT\r\nvu5MJFmirT7arUrTxfyYs5B/wf4fMzQcOqJM9CPd0Soe0cbvhbCCeZRw+3TS0yuku32l+Vsf3IyK\r\nrBzCTldpfNxuoQdWB2k0nWx3csi4Mi+zmGbI5Ep43KKx6fXKvBY8PnG6OuyouMuCx6E0/S03CC2m\r\nsdZfKJ41vx38KEJqO+wD5RrLxJsFb1wCKAge+SVOSh4/fAxV1UOSJ/zIIoUggjAMmTKhL07xm5Ps\r\nJYuXx+PGrGhUmXbYVpXj4LH0kAcaIH0BrPoFhkbT1CQ8Qz64s5B/+VcwM47gE6e1Scj54QsQdaId\r\nwH4m+ISZ1bCPbEbOhBhW/asMooPoTTSDI71I9lP+pOCp0/RKgH2Ti/VJUz5kIoYZcw6LRciOUsWS\r\nrWnh1hMIfeNTuvxdKLzXTWwQlyKAm7uAN3FpSAkg+y1OA7voPFgigbSzX0oC18bxhwA7di7gZ1PO\r\noWlfORG4PEQ7d1cT9uYFL4vcdl+423qQErMbXSfXPj0qLxEi3m7Ej5JrJxOVcWP7CZPBIgEMvNEI\r\nIFsDwokKf7G0qSDASAxdF86noLV1mAswslJF9qeE6Q4xPNt8QVMM7JOTzpr08xkR4auU4mP2kok8\r\n0Ro5nwMJJ89hz/5DiDoehZe3HcPckpmRHBJMK8SO/AGssni4nSvKmzhQhg2gdFydSAIZOCEKBHxY\r\npTMzKT72lU32sDj5Yx/rAgFk9rKY3SxSONI5nT5eFxQuIHwls7V2PC5mzYWxMTqWjtcFz4uMRDD7\r\n0DxNv2CTiy8RJApKE7mrbOOIn2kBuD/+pU7hQiSQ3gM7SipAxHsVPpZX8uuDT3hf8ve5iSvBegQw\r\npIFZG+bqoEQACZtTwLcu5ARQhI+MK5ONOAdNp7nhdnuZ3U6v1ydAes/h85Gb3H2jblcS3icYdyaS\r\n6mBGf7kZlWtPIDZx64KmgD1evsmQrzW/9jIxHHxNux9OBNi4xsdzftqWCOE3HYbAxmlhLFeIi/GS\r\n4F9+jCwfiMPBOACdke33S0A2fDle9wQwHOHTCJwR+wSSRRsj6Bg0IntSDQl9IYjwIrBCC0Y5IQsR\r\nIiJa4QpCm90CrU7PSZVAdhjJYgec+9kuYBY/ETC6F88ClhwDR+SVNQB2hcpBcRCkXy1E8BTev5Av\r\nIT5p+Rl5FIxHC2tlOFkUCfDlOwL5p3Dh7rwOxEGf+WF5FRokqzx+Ub744fGUf27UlZHeYL3L497E\r\nlUHeHuTPrx3WI4CbuHXBBUhoYJE+oz7tofVXNBVnd8Jud8Fhd4cgHgEmQsltPfeNuq3jTgO8eNzX\r\nJjYRDm4D0Ovnhstv1AxFiM3R+ldaxkXr593wr3jgW3ELcMG7SpZxaR6MZvW40XRGN6RxhZFGKXkM\r\nl8MMAZrtC2DF75dgNYg3GAEMh0CrhNGRm2bhDFxKAKVEkAiKT0L+Qi9G5JAMLG5qVPzAc3FHa4ho\r\nEQEUztqlZ2TvTjh3V7pehhO3IF8KupPGbIURRYJ4dibdywd8kQCG51WMS9RAsg7AyB9Pmz8Pb3RK\r\noDDSxeAsrCT+df0IF6VPGkCmGSXNHyOAAjF+na7HuPFY21avBzYJ4OsPXICsJYBi/2aae/8KfF4i\r\ng34G7x8aXj/cEnh8AQF0v4lrDe8lIPf7h0eAET+abQotabr+BFBcj+VecaJ73onoWgceTbXgW0ct\r\n+PwuEz6704DP7gjh669a8LvTThwrd6B5ygUzbXphC634KTdryd8lCCDJ400CuBGI6lc58RMhkphL\r\naaXk5IvW5RFIO8c1btyfPG5hqlc2gHL1tLBGMCwdKUG6VH5uVkjqKNj5REIrhTzcJjYGeZu9/lAi\r\ngOL0yvUWsJu4PliPAAaXGN+0ZD+U9WD7E/K8iWsHiW5C8RKpz00DSXuQ43rIJ5Yg/DD7vYitd+Jz\r\n+5z4q9/YEHHvCiLuXUXEr7A+7ltFxL0B/OkWFz70shv7KqzQOchCiI0pqmjZFimNLivrieyKU8CB\r\nN/wU8KVAFSgnZhuoYEWEyI2UAIaey+MOZ/CiP95ghY0XYSTwavJ0M0FKlOXPNvHacePbxyYBfP1h\r\nPQJ4q7xTafvbxLXH5d7/rVT/lyvLlYKUPzSN271ox+dfJdLn56RuCxDxwOoGAUTcLxDCX/rwXy9Z\r\nUDpMJNAD/6qfYSOy/o27C/iKIG6oWEvOLlfB0jg4QuQmwM7n3QAB5DsrrhEBvNk1aJsE8Pricu3j\r\n2mOTAL7+sDECqCRrlNzWc9+o23ru67utJSC0FEeyHOeSbvLfcrf13JV+X85N/vtq3Dfqtp77pdzk\r\n4M/X79PXov7lbuu5b9TtUu6XKsuVg9IgnWPzjAvveNKMiF+tcDL3gB9/pETyGOTuq3jzFjC86UHB\r\n7Ver+IvfupDWSSbVvMJ+gbWynsoiLc8mAdwApI1VdAsTgHJd8hoIu4WFtXzywVDJTQrl51KitB5Z\r\nUnpODeJmXkOnlGd5WTdx9ZDX9/WHcvvdxK0M1pjE96rwnA86awcgZfmj5HYzh5f/lodVchPjk/++\r\nXHzy3+v5W89to+ms53ap8EqQ5lEJSmkouV0qXblfJbfXGv76gEjCsn0Fn3jRw6Z63/xAAG96YAVv\r\nepBDJHhv2iIheetqBqXuK0wb+K7futCzyO3tKpVfTmqJAJJZJBGbBFABr50AShdnrh0MldykUH5+\r\nuYF9vedio7j+jf3qoJRneVk2cfWQ1/f1h3L73cStDNaYxPeq8PzSA7Bc/ii53czh5b/lYZXcxPjk\r\nv9eLT3RTims9dyW3y6VzLcIrhVsPl4vrStK9lNtrDX99QBs+ns+yI+KXfrx5S4CDEb+AAJEAcvLH\r\nCaAS8ZOTQjAiSdPBPzhmhZ82pJJdYFn5NwngVWAjBFDQ7MpHW0FA8sbI7QauFZrSuORps+eKA2hY\r\nVBJ3seHTX/kz+fO1af3hsR5ZWVu1m7gayOv7+kO5/a6djtjErQPWmBRkmfhO+XtVGlSV5I+S280c\r\nXv5bHlbJTSnsevFLw8p/r+dvPbeNprOe20bCrxdOya8Y17VI91Ju1yL8tQVtfZkz+/COJ6xMW/em\r\nLaT9I9IX0vyFyB0ROtICyjV9nOhROHpO5PBN5EZEkfxtAf70QTdqp8icDFkuCS9TeP8UpoBF8rdJ\r\nAJVxOQJ4+QE21PCVBkMlNymUntPPS68BlDf8WwWXq8tN3GpQbr9rv0Y3cetgPQK4+U43sRbSMUnE\r\n9SVbNyOIAJ5qcCDiPheb+g3X+gnEj033CtO+9wUQ8asAIn7N1/ixjSK/JlLox5sfIA0iJ4hBTSER\r\nxgf9bIfw05k2biuQjA2vsccbgrgGUDQEvUkAFXA5Aqhk+y8c1OD5GgOlwVDJTQql55cmgDdmPcP1\r\nweXqchO3GpTb7yZZuJWxSQA3sXHIyd+trKC4GvAlYCvw4ScnbYj4ZQBvJu1dkADKNIBbgD/b4sH9\r\nyW7E17uR0eLH6SYvnsq04a8e9QkkEHjT/asMa9YK/gr43B4rvAEPI4Dhm0zDsbkJZIOQT1etJwCl\r\n/sOFIb2E9V/EpaA0gMqSl7hffTo3By5HAJW+IEMaVmU3qV8ltzdS+BsP5fa7tk9t4taBXACJ7pvv\r\ndBMixDEwfPwTsdb/6xX8+DYfrAEHPrLLxjV6DxLx868lgFuAP3rAifhGG3pmbXgxzYKfxjrwxHkX\r\nqsbcKB714u9/5+BTyPeL4JpANg18/yozD/NPj9kxoaWTRfjxtPI8idgkgFeJ9QSgiLUE8OqhPIBK\r\nidL6L/jWw+XKpERqroQAKbm9kcLfeCi3303cyric/NvEJsIJ4BsXbO0/PJjVO/HO3zsQQSRti3QK\r\nWCSAK4j4tR9f2WdDj8aDf3rMxDaLRNxLtv5W8ccP2FE25sbPTtsR8YtAkAC+WSCAjATev8II4Fvv\r\nt6JlhuwC+i5plH2TAF4l1hOA4hfwjSCAkuQl7jTY/2EH/NeG1y8B5MfeiW7SOOR+RcjdpOlL3ZXc\r\n5OHFfN14KLffTW3RrQypAJI/e30j1L9oao0m9tZrw9wUR/jxlwT58ZevVyhrANf6e32D9oBSG/Bi\r\nYNqBv9niQgSRtC1E+kSI079EAL34+nE7Xip1s/V/b9qygj/eAvwJPf+pD68U2bCzkAigP6QBZNo/\r\nASxuMhDtwtlmO9sJzI6GXaefbhLAq4ScgYnuIumTYj0BsVEoDaD08w+9BlD+5S8XdFeHyxHAjWI9\r\nAqTkJvUb7sa30l9OcK0fPhzyfMjfk+hGEAkShRHdpEJUdJfnTRqvUrrKUDqX+VpBuf1eu/6xiWsH\r\nsQ1spC0E3+lKqP0oQXrJ47gZwPrZOuVlJ8KL96y83JzXyqofXnBcbo2V9AqmIzlbXX4puYbnaWOX\r\nPC9K4GfKvzbwZiCVVzztEAFUknVvFHArcGQipGvSgbducQobPUQD0HJzLqt4829W8ce/lZA68vNr\r\n4G8etqNi0oE7j1oQ8WspcVTAvQHsL7SwdFcD/DjZtXnbJIBXjZubAMrJyGuDeInCjAhFUMgIAp78\r\n0QHwSoKUhIz0Ym4Cgm7BcNykzqUIoHgppRUCPZPWg+hXiRSF+w19sQbYGYnS8vJrNUxIh4eXxssF\r\nHxOAzFaQUh5DAlPqRnUm1ptYzlB63B+7lwxQIsT8U+dfWaFzHulsyLX+WPjggC+822B51voP4XLP\r\nw6Hcfq9d/9jEtYN4BSQfBGFugRX4fD7hfHJ+QhHdK5E+ar9yAkRXeO8JuYb9EtvnmjzK257Qftf4\r\nuxKs8D4icROvsPwHCSAnfV6swstsf/FLHi+rC6Z9CZeX5K5Uv9xD+K30OYtP7PeyfEovcqfBXJ4f\r\n0T/9pXKRvA66SRIOuiiE55C+A7FrizKdyHFIxocI4LUdk24dhBPAtzwgJYAKxI3cBZMu4g5fInPv\r\ne9qFilEXYuqd+LMtbmEDiTysCArjx65cvUAAeX9dm7dNAnjVWI8AhjpCCPKwVwqlAVSWvMRdJCPK\r\nL/xKQdfM9ARS0rJxKjkZ5TWNTEBMjQ7iXEoakpNO4mJtG9OUFeWmQa03cCkiaXB0tTQ34kJGDnIL\r\nClBVUwO318vyONTbjryCcr5OAcKxdywIn1oRL2lc89Mj6B4cDXMXn3E3vvCV8iSKsxXqCFQn3Adb\r\nHMuEHI1hwZCc7IX4qhc5WRnQWmhLPb+a6muQll2EgtxsZOfkQaOj8lLeeb1z0kYvhKfNS+VHbm4W\r\nTGZrMB7yxb6WAzSNJCYoEe4IQKdbRFNdM7cxSeWeGkZzM9U1j2F0sAfjU4vBMgqRirGw/5ub6tHd\r\n28fjZlnj7h6nGdX1DfDTFwQb1/yorq6F1UFHCa0d1IL3PJHwQZzauRhGgbgrt99r1z82cW1AhKCt\r\nqQ7VtXWCSVM+QLQ01KDqYg3rTS6HFenp2fCKnUSiAaRjrjyCc2dbEyanZ+GwWVGYk4HUjGykpKYi\r\np7hC0rrES2xLQt9h1wpaW5uhMZj4EzGPwceUN5Fw8K9GURPHB1yxT4TKJ17sN4UXOpZZr0V2bj4r\r\nnxi/y2lGTm4Ozpw9g4zzJzG/uCyE5kZfSQPIpn8BGA0GeL389AXpRXVVkJMNh4eM8vLL57Ej9UIa\r\nXESiJXniF//d19WM4ZnFYD3VVZViYVnL7gN+J2rqamB30wJ/5iIgFN7j8yIlJQ1ujxtYJZrKy0zX\r\nQE8HpuYWgzJuZmYK7T39QngxxWBvFupPvOWygsvO8Cs03hGx5X5DBPDajkm3FkQCGOAawI0QQLZD\r\neIXZCSTzLx94zoLOeTdeyHbhTff78Kdso4g8nAz3BrA7V+g7TAGgXPebBPAqIWdg8ufXEsoDKM9C\r\nCGvDXQvQNTE6gvnFJbgcZhw7chATKj0mxoaxuKyG227GicMnsKxV4/TpOIzPTEK7rGINiBEgIY7z\r\nZ5PQNTgB7+oqnH4/EzB6vQqpidHYvvcQPMT9VgPwe5xw2IzQaTUsnFanhdXGCZgYV3drKTJKasLc\r\n6FpeXobFYubpMmHrwLJqDi6vFz4vF1putw1LSyp4vD4G8ktCWbU4D7eP/w6ma9YgMf445o0iAVzB\r\n+eRY9I7OweF0oK+nE1HHjsLocMHnccPr88G1sgqbxwXfSgBenwcOqwVGoxGzszNwud3weN2wOxxQ\r\nLS8z7RylRwd3U95tNgdcLhfriIFVL9xuM6KOHofZSkY9gYzzCdi9ay/cTCvhRmJCIlQqPRuQllQq\r\nWF2Uz1X4vR543C6YzGaUFOejpqmFudvsdjbI0+UwzeNIfJxkMA7g8JFoqPVEUlexbNBDq+WDDuXH\r\nTQMOCQyfHx6Pjw14Pq8bWs0yPP4V2K16LC4tsTpd04YU2+8mbibQNTM7i4TIQzgRGx+kYVNTU0iI\r\nPIiouJNs2Hfb9YiNScKS0Qy1Rsf8UHiu1VoF0ZLF+Qk8+/tnUdPcwdqV2bAMk8WKgqJCXMgp4q3N\r\na4fRoIHZZsfKqgvLqmW4fJ5g/6Nwp08lYnSOPnBC/dzndmNhfgEOl0iqVmE16qDW6uD1uOD1cCJm\r\nNhuh12rh9/rgZ/0asFnMULN+52XN0e/zYHlZhcXZScQlJpPVNDKdy+I8k5iIyopauFxezIz14siR\r\nI9DZXHB7PPCwaRcf3B4nPB4Xkk7Gore3l+XR7w9gcVEFu90Br9+LuZlZeHy8n2uW1LDoFxEbGQ8z\r\nCTysQK1WwSJ+YApF7+2qR2xqPuubTosB2595FEVlF9mzpdk+xCYmMM9m0zKW1cv84xNueHwumKxm\r\naAxaRB2Pgd3jxIrPCqdLJItAYU4KmoOED2hvb8bZLP5O/B4bVKqFIGH1ejzw+vzs3XrcblY2r8cJ\r\nu90Kvd7MZkeWVEswmqzBD7mAogZwbXt74yBEADsm7HjLFsdlCCCBngf4RpF7vTjX4sQLBSZE/MKn\r\nOGWsiHv92J0nEkD+wbM2b5sE8KrxRiGAfDpHpAleJEcewoKWSBag0Wox0NeN5KTzcLlsSIg5guTz\r\nZ5CTdh4ZGTm88QlCLeX8KaTkFCMzJxv9I1x7R8TFY9XhcGQMI4AUf8qpeGTmFOBcUiySkpJQVFiA\r\nE1FR0AiEkK7e9kpkl9UJ8VM+gZycXKRnZODUqdMYGhyH3WpEbFwM8gpycTYhGhlFlbCaDUiIO4H8\r\nogIkJ5xGaUUjLA4DslKTUV5ejPTsTLg8LtSV5yHpfCpK8tKxZ9fLWDbTbiq6VpB6LgHj86G85GWm\r\noKFrEBUFuRidXkQAAWSknYPWaEJifBxSzqZhYGgA+dkZUJtNOJ0YhwuZRchIOYPc3DymRUhJz0Rq\r\nWhayM7MQExMLr8/LpojoKsjJRENXH9MmnDqXgdzsNIzPLMGkmUNscjq8PgdOnTuL3LxCnEw+C5VG\r\nh6aLRTgadRJNTS0oLSlAa0c72pprUFxSEcy326rC3uMnMDw2hamJKYyPDWHfviPQWZxobarD6Qvp\r\nOH/+HC7W1kGjUbP6pWtidAgV1c0YH+nDocMHUF5RisGhPpw9cwFFxQVoaSGyGd4eldvvJm420LU0\r\nO4qYxGSuARTaILnFJSYxcuRzWrBz536k5RXhVPIp1NbWMz98LRngdtpwLjUTGRn5aGjvElrbKgJe\r\nG6Ijo2GxOWE1qnHyyF4UF+bgRGwMMtKykZ2VgqRT57lGml1+nD93CmPzKuE3YLOacO7MKeRmZyMp\r\n4QwsZisG+7uRlBCPkuIyHD50BBNzcxjr7UZc0mmUl5bixJEjmJyawfjEONLTUlFSVIjy8kr4vC6c\r\nPn2GteuM03E4ERPPykdiyGTQ48Shg8L0L89PfuYZtPUMoqAgH5PLOmDFg/T0TIyOjmHXy9twISUV\r\nGrUGGSmpKC4uQnFJOSNKmSkpcHp9yMnJQXpaBoqzzmP/7gOweldQUlyMktIS5j41PcPSYVpWlxWx\r\nkZGw+wPobq1DWVEhUs6mYgV+VJemob67D/0DbThzOg5pmWkoKCyBx6tFZFQkzqdnYGRsCKdikmDQ\r\na5Fx9iTmF0J1WJqXhszCMkxMzWB6chp5uZlIza+A123DmaQ45OflIykpGWaLBY0XK9DVP8LCFebl\r\nYV6lwrmzUThzNgN9vcPIz89HYWExCgpLYTBxskFaVXE82iSAhNAUcOe4E2990LUBAijgfuAtv3Hj\r\ndJ8X73nOLYSjHcQ0TazgPwhaM+hCXLOgOGETa/J8cWwSwKvEegTweqxrUhpA6eel1wAqq3yvHKEp\r\n0fKCQuQW1PIfqzSt24yk5JOITjoDl8eGM/GRGJ6nqRI/Yo4dgNHpDE5HFhfnI6usBsNjIzhyNBKT\r\nS0vM3WlaxtHjkXAzj16cjDyKJYMdmrk+HD4exUKXZF1AS9cgT5cRwApklwn5ALAwO4r4k6fYvUmz\r\ngMjkVFSXFaCsqoq59bfV4kxGMaorslEoTKF21lYiq6AStVWFyEzLg2pJg9RzSWhpbUBU5Am4/MCq\r\nz45DB/ZhyUTTonStIPVsAsbm1cG0a8ry0dBQj4yMs+ieXGBlT4iPwrJOg8MH92JWY2RuSfFRWDCZ\r\ncDI6EvMaMxAwISYyDlOTQ4hLSmJxWQ1LOHT4GFzUKYXBd3ZiAHGp2ejv6cDFmlZMT44gr7QaTfWV\r\nqGntwFhvM85nc7I9MdiFnJxClOefQUE5J8g1F8uwf98+pOYWCSSbX27rEl7YvRep6TnIzcxFVnoK\r\nXtq2E8saNWKjYtkUPVaciI2LQu/gCM6eOcvCDfW0I7uoAgPdtUhKTmFuA501iD9zAarFRfhIAygc\r\njSi2IT7PzhfPi27i4HCt+8omrh50LUwOIvpkEl88IbjNTw0hNiGRaQC9DiMOHImG3RuAUbuM+JPc\r\nnb/zAErzMzEwPo2LNUWoDS5XAOqrcpBfUMLu9bp5HD4Rw6hVZVEGcoormXtybAy0Rlq4TqkLBFBC\r\nXmqrSlFe3cTuu+pLkZOfjVMJcZhVc/KRHJ+MzqFhnI87jjk1106eOpmATmq/8dGoa+rDzNQkEuJO\r\noaOpDmcvpDE/85P9OBEVw8pBvW55aQExUVFB2UVXZWEmGlvbkJ5yCiPzS8CqG5GxJ2F3uZB7IQnT\r\npMF0WBB7/BU2O6K3e5i2/2RUFMbnJhEVG8s1evTBezASM7NTOHL4KCbnVaivq8H5zHyWjrgcJDMt\r\nF319/chMTYDWbEFudgYmJqeQeCoearMVCdGRUJtJLvmQmBiDqYkhHHj1IEykGV0NIHbvXhyMjMXA\r\n+BSLT1xPXJ6fgQOHo5CdlYu8rGwcP7wfmYUX0dZQhvJK/oHY2VCJvLIGXCzORnM3l7vnzyZicm4B\r\nccd3Y5J9AK8iNvYkOrt6YLEYea6FcYk1G2Gs2uzbfAqcbAHOql145xMuZsNvLWmTg84J5ruE/+x3\r\nTnb/x2xDiNyfAmjX8BY3GsZo5oiWGW0SwGuONxIBJLHUUlOG7OxSJgzoCghTqnRlppxBS/8ozp6N\r\nw7Raw6Y046JOQGt3MKHnp+lQf2gdTHHmeZS197J7v1OLyMgoYerFh9PxsVBb3Via7cWZ81xAV+Sl\r\norFrOCiMe9vKkVfZEIxvfqYfp8+ks3u3RYPI5HRUlBWgvJpPm/S3NeB8ZilqStNQ09LJ3Doba5BZ\r\nVIWqklyUF5RgeVmDxfklLC5N4lBskpCSD8ePH4ZKqgE8m4DpZSJ1dAWQGHcUU/NLSE1JxPAUDVYr\r\niI6OhtpgQHR0FJaMNKXqQ+LJKCwY9TibHA2V2QP49UiKTcLUaD/iEuNZbA6DmpFjGyOAfC3Tqs+G\r\n+ISTOBYdhyWdCT6PDYmJiYiKioHJYUVvYyVyCspZ+LmpQbZWs6rgNCqbufaluqoEL770LNKyisJW\r\n7jhMCzghEE9++RETfRJzCzOIjjpO1qNY+RIS4tA5MIAzpzkB7O9sREZRKQa6a5CaWcDcaB3j1OQY\r\nCvILkJGeLdnEI5CITQJ4S4Au9dwY4pNO8yYhuC0vjDMNIF0eux7HYpLgXlmFUbOAk8mnQRO31GEM\r\nOi2ijr6K4pJCHDm4AwdOxMPgcMPpNOD4kb3QWPmHlFY7h8gE3p4ulhegpqWdRXAq4SSWjTS7QNLA\r\ni3NnT2FGIHJ0VZVkorqek8rRzmZcyMjCqaRYTOv5jMT5hNNoHxrC6bjDWNDytblnEpPQNjyO5JgT\r\n6Owbh2pxAVq1Dr1tzcgQtNo61SQio2OCGkCPx4ZDhw5Dbwqt/Y2LicTE7Dyyzp7AqIo+AN1s5sLs\r\ndCLtdDzmF/lUNZHbxrpy9lGn1qiQFBuF0akRxCcncVnoMuPEsTiMjQ6xmY3ZZQ3m5xagMurZc7ae\r\nkabjJ4dx9MghnE3hxHB4qA8xkSdwIbsIAXiREHkYJhef7k4+k4SRoU5EH4+Gmalp3Yje/Qr2Hj6G\r\n4YlJ5idIAAsy0d0/JJSKppvbkV1YjcaqPNQ2NvO0ehqRUVCLi8WZaOrmfk8lxWByToVTMQcxo+by\r\nj6bUW1uakBAfh9EZTtTZOkBekDXt642LFaz4fbC7nbh9h4kd6Ua7e9cQNznuB/7yYQ8ezfLg3c95\r\nuf3AjUwB3w+883EHppZdNFAHNyKtzdcmAbxqvFEIIF2D3Q14+KFHkZaRjaycXMwtzKG2sghZGXko\r\nLsnCwRNHoTMZcS45EfNqDVtCHB8bA73dIRCpAOrra3AqIw+FhfmIioyBzu6AXqNC1oUkPPnkU0gv\r\nzIfdbsbZhATorS6oZodx9nwqC12en4mWLonQ6riIHa8eY1MQWZlZmJmcwOlz8SirrEH6udO42NgB\r\nq8WMyJh45OTl4VTUYZxNLYTNtIDoqDjkFBYg9ngUMgsqYNAuI+lkAppbWlFRVgiTzYTMjAyk55Wg\r\noqwYL23fCo2wBo+uM0mxiE44h6J8moY6ybRxdLXXlyPp5HnUXKzEjpe3w2A2IzYmChqm0fAj6SSR\r\nQT0ST0ZCbXRiNWBGTGQsnA4rzqem4HxqOnJSz2Lvq4fhpI0hAgGkq7QwFbsO0hQVr838tNM4Ei2Q\r\nRrMOMfFxqKqtw+mTMRgZHUdNQSouNnOiW1VRjPr2NjTXVSMtNQt+th4JsJvViEpMgI/WatIXot+F\r\n6BNRMFosKCnMQEpOIUpy05CSmQun247jx6NQWVePmOOHkVVQjP7uJmRmcwI4Nz6B0ot1qLlYjAvn\r\nzknI3yYBvFVAF01DnoqPwjPPb0V5VQ1zp3WBp05G4alnn0dZdR1sJh2i4pLgWwGM2iUkJZ8GNaGV\r\nAB9MaB0eranNK8pFZQ3XQleXpKOgnGv56NJqFxCbyElmdXkRGlpaGVlLOnkSGiNp8/j6uFOnEhCd\r\neIrJnMLScizMTiI2Jhm1jTVIiI7CmGoZg11NOBWXiLLCYhx4aQcGJqcx0t+DmNhEFBdnYe+O7eif\r\nmEVXewsuXMhCc3ML6mobYDMbcSwqHrV1Dcg4m4Bjx48Leke6VtDb0YGj0YkoLa1EelIM0vN4W6+p\r\nyEPcmQuoLM3D1u072Hq50tx0nE3JxNLiAsqrKtHV0YDYmBNYWppHQmwUbE47ks+cRk5JKUrzs7Hn\r\nlVfhcjpw7vwFJrMuVlVicEwgakQWmEbVga3bnkVdC18u4/HY8fzzj6G9f5z9vnixEKcupKCytBCn\r\nz5yDzabBscMnYPWsYNXrRlJ0DNQ6NU4mJqJ7kE/j0lVWmIOObtoUxq+OtiZk55fAYljEidg4VNZf\r\nRGL0cUzP6zDa34FjscloqKnCju0vYHZRjaTYQ5hX67EacKOyqhodHR04E38MPRM0+7FJAJVB/SMA\r\nf8CFB8Wj4MTp3HXACOKvgbf93omULic+9LINEffTySGXnjqmzSOkYfz8Xivsbh9WaQ1ngNZlKvOB\r\nTQJ4lViPAF4PKBHA8EFWSgCvLegym0wYn5jEyOgYBodGYDSb4XF7MTY2gYGBfhhM/ItQr9OxzQEU\r\nTqvXwyc0PCIAtKB4fGwcA/39sFr5bli7zYKxkSGMTU5ieGIcLq8HOgOF87MpSJ2RphZWYbaYYHeQ\r\nUUu6VuGw2zE6Norh4WEGis/t9mBoeARzc3PMDxFgq9WCJfUyutsqmbaKSmMxWaDRaNDc0IacQq45\r\nMxq06Bvowdz8DFt75/d5MTJCcc0zgkiHZIuXVqfD0PAwRoaHoFbTNDave3/Aj/HxSczNzkKn07DO\r\npNdp4fNz0qPTGdhidL1OzeqFpstok4U/EGCbKuZVy1hcnEdkbALcAdoYws/xplfgdDmhM5uZhoKW\r\ne9vtdujNJkae6LJYzejv78fSooaX0WyCze5gga0WEyw2XndziypWT3TRRhEqCzfnQcZCPdBqluD3\r\n0wL5ACYmxjA6OgyvlxaQr0Cn12N4ZBTq5SWYLVY47FaYTFzz4nY7MTo2hOHhQbhcbskUMIdy+93E\r\nzQS6dDo9a9fj4xOYmJpm639NJhNGR4YwMTGBqakZ1o+pLdAHCk33U7umjUUhcyk8Lup7NruN/Vpa\r\npnbnYjtn6eOUNk7o9DpGFqxWMxy085xkBvWHYF+jPqPG0DC1q2Ema2jXr9FgwkB/H/RavgyDTNKY\r\nNDqYDTqknU3H4OQsy4JGq2ebTNLOJWJwdJb5nZtbwODQMDSCVtFssWFoaBTLKhX0LD+CpQA6uovW\r\nOGu0GBjsx/T0VNC0DeVvZGwcM9OT0Oh08AVW4HE5Wd+w2WyYW5xH/2A/NDo9i0uv0zMTS9RHBgcH\r\nmQbSoDewQZk2Vo2OjDK5SFPJrKsIoEtvMMDh9rD3Q7SQ6sPj8bDOtbrqw+T0OAvvZRuvAlCr1Wym\r\nZXXFz9YjMtnhdEO1rIaPBnuSDSRLneKMBuC022EU5Ldap0Pv4AArN7tWVzA7O8/WCOt0OiandBod\r\ne5f0TKNewvDgAFTzC/y1Cx9zmwRwLVj/WPUhucWBiPvcwgkgawmcIu73IWILbQAhyE8PkRPAACJ+\r\n7sZLOWQCxsc+8GmGZnMK+BrjjUIACUqX3FnqT7wXpzTYb5l/UkvLIxGXXHPNUOieXRvIk/SyWy1I\r\nz8xEcWkZkhKSMLWwBJtZj7yMHJSXlCIh6TRUtJibiVZOrShF2pkrCnvx4tPg66fJzb/Iw4h/xY00\r\nkuIGzdFwx+rKi8grKseps2fQ0NzKnvlDZtaCg4KflGhMlS8s0A+q9sXIyIn/4HHwdNjuTdr1KOSH\r\nQfRH90RI6eBwQfMiLauoTV7v4u9C4l8kf2EEMEQC5W1rEzcHlGzSEUmRu4m/qf+SUpcpdwUzMHK/\r\n/EOM74Blny4Se3AsDkmfkfcfuojkSNsWM1Up/hT+jo2NIyUrG2U5GTh1Ph22ADA9NoDMzFQU5uYh\r\n/XQybPRRGoyFh2XjcViSYv7ElYBSCP2E5VOSH9asJbJN+Bv8Kf5m5FgmH0j+SeLiNSSBJMMB+kAT\r\nTL2w6cSwPi+G5PeBAJWV/w7QEbSCmSvPKkk5XoZQUEG4CHJWWgxyDqsz9kAIHfAxW4i8AgVf7HaT\r\nAK4HZsMx4MO02Y33PmNGxK8DXFsXNqW7nlZQPDf48gSQtIT/8FsTOmYc7F3QhM/mGsDrAN551hJA\r\n1gGu8bTWegRQkrzEXRRkyirfq4VMEkgIjuwRc+NhQgJSmn8hv3TPJDq348XvRPIXDnldioONNF9r\r\nnrNpExc06mU4XYJQJO2Dy85MTrjdfNUhM1ZL5mdW/Ewzx4StaKw1QOpzMR2elpimNH1RKHOQNk2w\r\nLyiEXQ88MB9MtToDTBaaLuZVJfLjYJnYgBsCG0CEeg11bm7/MITQVCtpFAnB9IVw3CMxS1o8zjU0\r\n8sF6TZ6FK9xdvBfzHUJwRJMJoWvdTzZxfcHbt8RNIPpyAig+532Gnq1tU/y36C+8LTEQmVmhc0x9\r\nbGcpJxb0TIxWlCsBmE0Gppn20hS00IFsViM0Wq7hZk1QCE99UjSyHgLvt6H8cWIT1v6FtEP9fIXJ\r\nDG7kOFQW1t+YwWb6y8GINIufa2JYeSX9Vuyj68k8JpPIKL2Ql6D8Y+GpxJy0Ul7pA5bbJBXIX4D6\r\nPfX/VbJyGoqbV3pQfkhlheiHZ1TCBtlgw186qxdKi7HMkJ8173ETQXClRwA7i62IuFc06aJ8GghB\r\nPAlE7i4nf39EdgGZ8Wg/In7pxIOJRj6TRUQuaAJGmRNsEsCrhJTU0L3ortSBXyuko7roxkjCJdcA\r\nhg/cf0iE51+U3XQvCC2yxK8gBNery3UJoPhPaOjixcKv+PiXkDSMICCpX9KmC651k6XDeJbIZELh\r\nuZ91BF5YOSVhROEvybsYT/AKcxchI5hMSyk97i1UH2Kb4Fhbl8G0CcH3Il2jp4S1gmN9SMstFEeB\r\nAMoHm7XxbOLmhvw9y59LIf+guHyb4ufsiv/I6DKBSJBoIF5oWEwNyVfvURhamyjV7HF5EMqH2I/C\r\n+9Sl8yItZ3g/9AkIfTRKQRp4JcgJn/w5QTwpRA5pWdYe+SiFkG+maFSWAxsdv0JqSel7Ft+poGJc\r\n83wTa0B15F2B1u7D5/caEXHfCiIeFIjcg6Jmj37z8335SSBEAqVEMZw00q7gP7kf+NP7gYj7gPc8\r\nb8aYysqmkAJ+8aOJIG0XIWwSwKtE2AAqcVfqQK8VV04Ab65zF6V1FT5g8LxeGQEUpkEFjZy49ihA\r\npIjWHEos/ItfsSwO9lz82ueCVJhFZXG6ycCxLzTHxIYY9sXO/4ozHexeGFRCWi/xYegPcxO/nINh\r\nRYIqPJeSVSGOULp8kFo7UF56ML06AsjJnzIBVDpv+FIQ328ImwTw9Qj5e5Y/l0Iqk6SQ+wshnADy\r\n/uwPCHvThf5E050iEaTpYrGpBfvamjh5/6dO7fF4haMrBfImloH1Ozo7VRpWKCP7QBTIGJM1pHmj\r\nvxICKKx7pnyIRI7++mjN5Iqfu4l9UZBN/oBA+kQySGUXNIcUXkoGQ3lSkgPyupV2c6H8kv4m75ME\r\npT6pTPBCBFT5+SaUQAcFBFbcGFw0479fsnESyAgeJ4DczMsK+0sbRQjcTUlTKDwjLeEvV/GOp2yo\r\nGHbDv+Jjmj/W1MPG2rV9bpMAXiXCBlCJu7SDXStI0wq5hyUvcVciDX9YKOdfhEDGLoGQX7GspN52\r\no76+DkWFhRgcmcDI6CBKCoqQnpaFnoFBjI32oaqqHEaTGaqFScwvzrOxQhSk0ouMRheUlENtEM27\r\nkLAXJVqY13UvVk5aqK3RwCUhkuKlWVpmUzDSKxBwobGpMXislllvgsvjxeL8OObFhdhrLmkc4uAX\r\nEvyheqNBjU8d8Xt5XcohJZxyyP3KIb4X5QEgRDTD3S+fp03cvJC+c+X3Ho4ra1MhAsincPt7h1CS\r\nV4Kq6ga2u7GvrRkFeRmobG6FzeVEbUMNmlpa4A2sYHxgGE6Hg38MKqxjHB/uQU1dM9vUQP2D+hAz\r\nvE7lkMgGOkGB/RXDS6LxBrwI+D3QqLRrRITdZYea2f8MXRTrwtIsugfG2G9/wIP5pWVm929kaEiy\r\niUYShgivRFTJ62htnW68fqV9Ut4/L9Unwwni5dPZRDh8RPDZR4Ib81obfhVtwVu2eBBxn18w7hxa\r\n30eaP679E6d9Zfek9SObgls8+N+DFnRMk3UJP7yBVfgkCoDQu1r7vsIJIN1vEsANQc7A5M+vJeQd\r\nlONKBfAfDsr5vxqEpncGBnrQ0tLMdh4brQ62fg8BF8pLSzA5u4CaizVYWBjHxfpm1Dc0QGe3sqlO\r\nUcAvzs+hrqEFSxojOpuqcPpCKgx2J9MKzEzPMIFNR0npDUbMTIyhrrmdHTNHuwUdDjesZiOW1WrM\r\nTk2gtasHdqcbXrcTZ5MSUNvWBZfVirbWVvQODMOq1+BUfDyGxyZh1KnR1NqK/qEp6PV6lJSU8mPw\r\nVlZRkJGN0uoGzKqWoDEaMDExjfb2LoxPjKCzoxMzM/y0gLGxYXR1dbCdhVyLKP/yJ1BnF93Wdvxr\r\ni0u3w2v3/jdx8+D6yh9OAPm0L62dMustWPF4UF1aglmVlp2r7fJaUFpchM7eXjT3j6Kzsw3tbZ1o\r\naetigyzFQwOcx+tFV1cnOjq7YHM6kX42ARdrW5jS22LWsF3KNIU8s6CC3mgS+u0QnN4A5ufmmVZu\r\nfm6GnY4xONDPdvOS5m9+ehQnoxMwt6DCwsIC6hsasUw7h7takXzmPIwm6sPjrA+PTS5gdHIQzW09\r\nrA8vL48hOi4ZE9NzmJ+bg8mkx9DgINrbOzA9OYn6lmZmSsrlcKK3swvj4+MKWsCNQU7yLgV5WDmU\r\nNISbuAIIa069PrIN6IbL40BJnwM/j9Lj7U96EfFrPyLu8yHiPjoHWCB4v15hm0YifrWCiHtXhGcB\r\n/MNjXnzzqANnmx2wO1yAzwWvn7TJfBPhRt6VSABD7YqvCNokgBvARjvNa8X6HfT6CN9rjfXzf6UI\r\nEUCyt5eXl4/Kqiq0CXattKopVJVXsy/ypoZK1NbWID+/EMUF2aiuqcX4JJmIAawWCwpKytj5u2XF\r\nJejoaEZJRQ1bRE5XeVkJlnQa1NZcRF/fICqq6qCaG0NJRSWamlugUmkxNT6A2oYG5GWmY2Bihk3j\r\nrAa8KMjNxNDUIrPtNT4xgeaGWnS3d6IoNwfLah2KCsuxqJpHcW4++gdGUF5RDbdg+eJiaRXaB8bQ\r\n096C/vExpKZkYmZmDmdPJ7Jjm/Jz8zA+OorikiK0tjajoUE8Dm+TAG7iD4H13/lrBQ1atJSDLedY\r\nXYXb4UBZaSnOnctkGkCP3Yzignycz82HWq9HZXUVqqouIisvDyUVF9FQXQ+rlZ+N3d3egs7uLvT2\r\n9aGxpQ1VpUXoH5pgAx2dYV1QXAabWY3CiipUXqzG6PgUGpsb0dU7xI6TI7lQVpSP0alJZGakwWDg\r\nRqaN2gXkpmdiYUGF4uJiLKsWUVJShoH+LpQVl2N2YQIlZZXMDEtqShpGxvvR0d7N+qzNvIjUtALo\r\njDpUllVgZHQABYVFGOjtR1ZmDob7+lBZW4/qqlK0dnWjqKiQnftLF9fobwy0gYRtQGE7/ZkZgTXg\r\nG1KEaWbZO5C/l42Qik1cHmTSiDRuHr8TXr8JdpcNU4smlLSbsD9fjd+eM+Mr+z34+A47Prrdjo+9\r\nbMNnXvXgZ8k2vJRtRGaLBUMLBticNqx47Mwcko+0eMIhAoSNvCu6aBykowrJrm52di66u3tY01iH\r\nAPLBSnqt9XMpyENfafhbB0qX3M96fq+XYL31weunobEZjZ29WF1xIyu/CP7VACqLsqBW83N66auG\r\n7JY1NjShuLwWRs0iauv48XHa5SWUVfBTQqrLCtHZ24mmDuF8YgCqhWmk5eeisqUNMxNTaGilUzW8\r\nyC0uR21DI+YW1RgZ7kVtQxOqy8vhZLsc6VplAlttdKCwOB8Wj4ednXuxuQ01FRWwuTzs3EwqQkdT\r\nC3oHB1FaUcm36gNobWrBwrIGw11t6B4ZQklZNbPrVZCTi4DPj9KicrQ0NKKishIz09NYmJ/nqa6p\r\no5sP13K6V37Jn2/iyiG/5M9vNDgBFNc4r8LldDGi0lDfgIHhSfi93BZdRUUh648+jxud7V2or61B\r\nc0szRgeHMDNJxpX9aKgqwIJazWxw0tnWbU31WNDogusF25uakZOfg8HxcRSX5sPiDmBqYgQNjQ0o\r\nLymEL0B9MAPD4+Oob+BnH1O+3A4LasqKmc29auHYydKyXGZLsaGhA/OqEVxsJCPXQH5hAQZHhtDa\r\nxgmg32dBXmEpvCtulJeUYXh8EB3dXdAuL6Omth4mvQZ55ZXIz01D78gIRsaHYbIYEVildYS+awyR\r\nNPByUf2z9YhC/cvfzSauBYSNQmzq1Quv1wWf2wqfywSfywiPQw+rUQWzfiEI+u20auB16pkfr8sC\r\nt9vB7ECKtjj5etT1DT/LQZfZbGanV+3duwd79+7FwMAAexaxdl2BsDhdDrmfS0Ee9krD30qQl/NS\r\nZZX7u5TfNzjocthNqKooQXFlLfrHJmExqdHYxI+HW/HzdUMDfQMwmiwYGR7FxaqLmGQDArfBVVtb\r\nh9rqi2htbcXS8iK6hriFfVHFeDo5FROzNLCYUVVVgaqqavT09WNpSY3C0goUFhSgr3cAHW3tcPvE\r\nxeir6OvrRENjJ8bH+1BZVY7C8grorTa0NNajvbMbnV0tqL54ETlZ+Zicn0VTSxtoySBRyNmJEVRW\r\nXMRgdy8mZ6fR2NwOj8+DhosN8HrcaKxrhVlnQE1NDZobG7EwxwmgfBrn9Yyg+QwZ5P42sXHI6/Jm\r\nqFOm+BMXsa+ssn5KWvXykhLoTFY0NTagprISVWXFcLo88HuJALbD7XKioaGRaQONZjJEHYBKNYvi\r\nilqUlpVDtbSEwZ4uaJgWj190pF1s/Gm2dmpidAzl5TWoKquAyaJHU30NOy0kLzsTC4sqph1hXY7J\r\nEQ+qSosxPkqa/gbUXqxDS1MrnDYLCgtyMD07jcqqEtTVVSKrsABTs7MYGCQ5Q7LCj4qKcgwM9qCt\r\nrQMz81MYGRuFUa9HV1cvzAYD6to6MD49zk4uaWtvh81hZysiRc3oNQXTGPHq5zuHJRsMpe/iSnC1\r\n4a4VxPSlkPv5Q0E0n0SbNUj++1fh8wXgcfvgcnrgdLjgsDlgt9klcMBhd7JnbpcHXg+RRyKSYnxX\r\nV0a6hodHsX//QZSVljM3vy+AiGAPCbv4QLcWSpfSc3k4+fPX0yUv43rllPvZqF8l91vpei155r3I\r\n4xXOGBZbMmvVa6P1M3/hjj43nXLBL+m2kPnpWdRX1ga/kChOn5ufu0mXz+dhBH1NOuSfBKlwTnLA\r\nS1/XwvzuKn3l8VM4vHQaB0lWvm2OP+YhQnELhl95OUM+uNMqvC6XEMfmtXm9Ti9q3uK235VVeOkE\r\nC3FXBOsD/AQRdglHGorMZcUr9B/R6LR3BV7RjWzXsb5Kyzb86GhuwEBv6Lg0P8kFio9HwPu+Yl+j\r\nKVUPVui0HJIRdEqHeNG6KrJJs+KG3+3iskTo8kFpQ5vZfJIwzC3U1UnzSRfJLr83JH+u+yUvqiRP\r\n615KzzcSbvPiF2sbko8g2qHu9bOxhP6u0JFuvgBWRTUt+wJRwNVcQlga9zxOasu8z0UYbXbIYbDa\r\nFLDW33pYG/bKwt9KWFvOK4M8vvVA9XelYW4GhMq69tl6kJeV/bXaYLLYYaJnFhsDc6Mw4nN2b4fJ\r\nYoOZ/BJsTpisDuauozhtNpisVna6wLJGz54ZBL8sjJnCWmC2WmEi/xYrdBYb9GZK38aeG812GC2U\r\nD8obj5vlx2KFycbzwvJBeRLjYWVywGCzw2SnfFh4nq0ODpsjWH69zQ6dzcHOUtaxew6t1XbLgOpa\r\nCXJ/yqCyKkHu7/WPK6u3S0Fel3/4OtVZ7dBb7NCZ7dBZ7NBTH7E52F9yJ1CfYb+p/5pD7krQWam/\r\nOFh96S1W6KnfWm1Y0hsxMDbJ02Dxc3epnGFuzD+PR099lfow68+WkB8JpOF0TE5Yw+NjoLwLskyQ\r\nC0GQLBDuSXaJEOXZtQbJslA+SF5KnpNclP7eICjM1YS7YgjylSPkLq23611/VwOWH0meDGYprNCb\r\nLBxmK38/4tgmQiHO9SAtf2jclcBMY5E9LN2IrtklyNE5vYiOqXB0zqj4M5nf7rllhq5ZwpWH3wgo\r\njBxyP3LI/V9rsDRmltApKyehfWoB7ZPh6JhaWOOX6kkaXxBinbJ6FdNSoWOag9K9ZmWkMoiQ5+Mq\r\n6zSU56U1ed4oumXomlWjU0D7rAptVB+zKqGu1KH6mltG54wa7TPL6JjVon1Oz9A2p0Hb3BLa53i+\r\neoLtVo2uWQ1rvzydJXTMLjC0zy6ifX4ZbfMUl1rICw/TPadB15yGuYvlpvx0zFBYVbAeOud4Pinf\r\nXXM6dM1pWVhKv2dWg94ZLXpnteyeQM86CPNqtM8RltnfttkltEwv3jJoXgdyf0ponVGtQcs0Ya3f\r\n1zuap1UMvPxXVwe83tfWKa/Xtf5vFFpJLsxrBGgZWNsX+hX97VrQsb+dBOaH+++Yo+cc7bPLDB30\r\nl/UXuud9nfX52SX0LCyje57GKwqzjA7BnfwF7+eW0D2vRfeMDt3TOvSwvqlG7+wyeubV6KQ+SX2c\r\nMLeEjvll5kbxMXeSJ/Sb3Em+zJNsUaOTZJEgY7sp/ySjSI7Mqdk95UH8Tehgsn7xmqGdxhnJ+MvS\r\nozywfAhyW/xN5aL0mXwV6oc9F+7FZ8JzFobVwRKTyW0zi6wurz1UMnB39h5kWBv2+iFYR9I8hNUb\r\nvXueZ6k7gcchL5fgTyGuMDfWhqndSfIhln96EW3EQQTQPeWB8wkaH2k85ojo19kgx6DWhiGCjmBh\r\nGNBZ0L8O5M+G9NY1GNBb14S71UHllpfzSjB4iToZ0K3/7FqC3guDwrNrgT6tWcDaZ+thUAKx/VGb\r\nFCG20wFqq6yN2llbDT13BNGrs6FHa0OPQjtn4SXxsjjYMwv6grAxiP4H9HYOHb0/nvYgQU/PeZug\r\nOMhtQG9j73iI/tJvrY1BmiaDJB+8z9kxpOdlCt7fQqD66TMoY8BAdbUW0vDDAuhe6TnVificv3sZ\r\nJH4VwyuA/FC+1/O70efstzw/csjCrRunwYEBoxv9RjeGDD4M6z2KcWwkzRGjEyNmD0bNbowYqP6s\r\nGKb2K49nvbjWeR5Wbvlzsa/In0sgbwcMFC/1B6EOgvXD4rRhyEB9yowhPZe/VJZRHQfdDwZlJ/21\r\nMtkzqCU5YmXjWki+WIP9j+Ie1jswbHCw+wGNFYMa7p/A26RjTf6D9aAV5TrVKa/bYYpTS7AFIdYZ\r\nKyOTEfSbZIcd/XqOUH3zuBiCcm5tHW4I0ne2EYhyKejG5ZNUhpE8FGUpk5NakvdU72tl7WsFyVKx\r\nLcmf/aHAxx9R/vPxnCDNK2u79J4VwrM4gn1k7TM5eLzh4eR+CGvGl0sgok9LHWQ9hAbwfq05OMCF\r\nBnVlUOcT/SpB7v9aQ57erYB+3dpySEHP5WGuF+hdv5b0lcJfCcT2IyWQAyRgJYJHDmr4oXZLHY4I\r\noB29WuslsbbNh9AvAfntob86G0O31oweljdpGGkeZNBY0KuANf5eB6B6EtEt+0312K+x8oGE3g/V\r\nJ7lJ3mPYO9VzyN2V3zuHNK71wlPbkLYfGsB6ya9C25LHJXeXhpcLYJFASN2kYSmMGC4sTb0dvRoz\r\nWmcW0DW/jJ4ZDcbU/Fmv8BEUlgeqUwFEXMS06e+o0cW0ZsWd/ajsH0W/xoRhAw3kfLBWKqvoLpIg\r\naVmD5ZGVWwyv1Baob4SnEV7/SlB+f/SxSrLIiAGdiZG4AbMLfTYv+iwu9pzkRS/JU/aBLZQnrI1Q\r\nvzVxWaOl+IS4hYGbpStvU1J/UgTr3YIBjZmDfbCG3kcYgmG5fBLLRfd9OgdDyA//MOeyMJSPy+bp\r\nBkGpnghyf9cT8rRvdPohhN7V2meXR/+lxg6JTFsP670LJUjj2jgBlGho5AO2HKK/MFIghdSvAHkc\r\nVwJ5eGlaSnl4LW7ruV/ObT13abzycl3LMq3nruimUK/sPSn5VXJTyP+VQFpW0Y0IoHwADe9A0nbL\r\nBSrTAAodq19rQa/whUro0REZsTBixsCe2xl5XNsPOBihUZvQrzZhzGDFpNGGaaNjEzLMGuyYMdgw\r\na7BhXm/BrN7K3GYNVswEYcGYzoIetRFdGgurWxrk6D1zYbqWAATfsfBu2SDK3ldI+LFBUYhjTXjW\r\nVkhDRNofc1ADFBKi1ObCBxAxHNNwMIJIxEUcuCk8tc2Q/0Et1wZxSNwlxHBt/Hzw79c50Wtwocfi\r\nRcuCDpnFRYg+th35OckoyjqHsynpaJtR869/SRyirCaCQW25h4iG3olesxuDZi9O51XgG9+7B1/+\r\n6lfx2S99Bfc++jiqeoYwIotnLXgd0/2QzoEhrUhaqIzS3+HhQmNH6EMrRHS4pmhYa8awUOd9Ok7G\r\n5OnL318wfgZex0MmO3qGRtCWmIr+3EpGDrsN1Fb4u2RtgsUlfszR+zJiSEP3NvQZ3ei1+NBn9mCQ\r\nNHyCpl7e9+VlDGIdAsjan9geFQkgr8dQvVyaAIp9gvmVtnV5fm4w5PVEkPu5nhDrYUPv6rpCfFdX\r\nV36xra4HuVySg/erteGUIK0fRQKoqCGhDIqdT8FvWByCv/BOG9IAhGVa0qHlcUrjVXJj7kwjI3ML\r\nfnUqp6XktlbAyMoqKf9Gw0vdLpf+5cp/vdMPCy9oQuR1KuJy4ZXqX/r+5fEGB39ZeLnfKwUJeBK0\r\nAzonn4rRWDGstWJES39pSiY0xTxCAxIRRw3XGsrT79YY0b2kxaLVBbMnAIefsAKbb1UC+W/5MyXI\r\n/V0KryXsjYHdtwq3dxWuAGD1AzbPKmwuH5xUZ55VDi9g867C6l2BxuFmJKpDY0SPjpP/4LS/pE1Q\r\nGxO1hdTfCSJhZAOAzoJePdf8sEGeBmIiRdK2KhC4YYMFw0YDhgxGDOoMGNQbMWgg0uQSPmZ4ulyD\r\nbEeP1s6IJidDnAD2GvzoMfrRr3dhwOhDn86FQbUFI2rSwFH6JuGjiafN0hfakpgngkgMO80e9Blc\r\nGJtYwETXAMqzU5GbeBQP3/cDPP3QL5GesB93/+DH2Bt/HqNmF596FctG7VNPaVnRo3eizexEv0qF\r\n6YE+VJdW4iOf/CR+9IO7EHnsCL765S/i/f/+PvzuiWcwqjaFxSNHLxFSKiMrp5uR016ji5V5WOPC\r\nmMbJiCCbymRhOFnhH21U/lD9s2lWRoAdGNHZ0arSo2TWhG5W/9qwd3U5DBmcGLf4MOlawWxtA7Tv\r\n+3d4IiJge/NbMf/7xzDE4iIix+uaywLxnVDbsaPPSGTPivHhMUy0D2BkeBEDWl4+qeyTpy1HUNZI\r\nSJ4oF5XkVygsb0fhv0OEW4712k/ouVIaVwfl/CpDXr6NhLkekOfhavPC+2poalWMRzq+XQ0u937k\r\nJFaO9dJXen65uKS4AgIY+hpT8hsWh+A3jFRIBtVQpUjivAwBUnITwysRQNGfUlpKbmF5DeZJRgCv\r\nMHzYS7lM+pcr//VOP8wvreEid4U6Xe/9ScOTnzUEUIFUSeOVh19T/g1C+lVMBILIXp3GgxdGvHi4\r\n34PHBvz4XacTh4cceLDKjB+WW3BPiRHfzzcgbcSKUaHc0vz3q80YXNbB4HLD5yWzNCtwen1w+1fg\r\nWQWcfsDuDcDuXRH+BmAT/kph8/jXQvCrBGlcHKH4pWndFPDQ3xXYVgBTYAVWhwtWswl2uwlWL2Ah\r\n0uehegrB6aG69LK/o1ozutQGRgKla7SkbY0G9CW7D1avH1avDza3FzanG2a7g+2sXjCZMaoxCwRM\r\ngQAy8mBH3pwL9za4cWedF3fU+fHVJAO+9ngPcrpNGDQZ1iGAfHAe1DoxoPdiaKoFY817MNT6Msba\r\nDmB4ZgADeqBfF0CvLoAeXQDd+hX0GLxr+neofXJS1G/xYXRoDAvbtkN7152Y/r/PIvPJLTiflYDH\r\nHvolHvvx93A2ajc+9/kv46s/2cLKEKyT4F/qs04MayyYO38OS7/4CRa+9mUc++IX8c/vfheeevJJ\r\nvPjcC7jza1/Ff3/8w/i/b9yB5qFxtjZQzE9YXekd6Kb1cIPDmD0bB3XcDhjzk7DQ1oRhtQHdtK5V\r\n0AIOkdaThZUSQAJfD8vKSh9cOhumjE6Uj9nw39HteF/qDO5r0iFzVsfWqUnLtB4mLG4MjM8hM78M\r\nKZkZmPrqV4CICOBNf8L+Wv/0jzFXfhFDFn8wDJMLTENnYgRtyLiCgfoWzDz9e8x/5/8w/6XPYvHb\r\nX8Xs409iuKkTvSZPUJZcLj9BuSMngHpaexySI/J3f8UEUKKVlD/jz5XSuDoo51cZUr8bDXMtQR8w\r\nrL4V8nGleaG2OmUyYdasx7TJhCFJPJdrB5cDhRc1wkpxie9vyECzGpJ0g3/XhiGEymllyzpGjJSW\r\nONO1tj7kUCSAhDWDrzClsqayBcEaLKB4L+vMwXDygkshkjoJgmlK3STpiHHKWa+Yf6o41nlY2PXT\r\nV3LjeVIuV3heZQxcIV4lN7m72ECk2j5pWpcKr+R2JelL3cT0yV25TiX1r1B+5iZr6MG4ZHnhfule\r\niFMQdMG0ZP4vCVmaRCDGdFaULbnwjVYfPtvkx6fr3Ph4mRm/azXiY6k6vOusGv+UtIB/iJzBnkYN\r\nhk00rSXkX3gXg0t66GxOeIjw+VZBNqHJ9N/skh5NnX2YX9bBS0SQiCFpurx+2L1+OH0BOD1+uLx0\r\nHNAqu3e4+TOCzeNbQwjt5McbgNO3Aqd/FQ7fCvvt8K7C7uFgWjUv4fIkkBFHilfh2ZVAiZTSX6d3\r\nFWYfoCdtn8sNw9QwZutyMFN2BrOFidDUZUA30AyjVgOdHzD6wMrI4YPL54PbuwKLZwUjAmmjBfv8\r\nLxfgJJhHjC6MG90weVeZeSyysB/w++EjAumww+GwQm22YJStfyPNIC1FCG8/g3oL2rRefDnXiD8/\r\nrsZfRGnw1mgj/uiHo3jrHU149MwsBi0O9ItClJE2PsXM16zR4OzEoNGPgabfYzQuApMJEZg4GYHh\r\nkq9jeiAWE72RmOg9ioneIxjvOYiRmUb06d1cqyC0c2mfGDA6MdU3iolffAtLn/oAtLd9CItf/CCO\r\n/uwuPL5nKx554Gc4+Mzv0FJyGif278BzL+0UpjeFMlEcbO2ag5HoyQMHof6f26D6zPuh+sJ/4YX/\r\n+Qze897349GHH8MTv38SX7r98/jMp27DV+/8FpoG1hJA0uYNGdzoNTkwUZYHzTM/g/k3X4P16buA\r\nIw8hcPgRGNKPYWhxDv16DwY1tE6Qk3M2hR5cZmFmGrYRvQ2jOifToNL7yxnW4/0HGhHxXAX+8ewi\r\n3pnvwXeqtejSU91K3pesL49orJg1OXAqJRs//v7P8B/v/QA++K/vQfVb3iIQwLdgNeJP4Yh4K2Yz\r\nizBg8/E6FuTIgJbIn41tgJkuqsDUN/4Xs595P5Y/+1/Q3/4h6D/971j65H9i4o7b0V9Vgz6jk228\r\nkNaNEnh+hTWtApj8kCklRPByhdpmKK4QAQyVnw/sInj7WZuHYF7WxCkZvyR/5eHkUKr/9SD1u9Ew\r\n1xLStMU6Zppf4V3wjSwSv2HlF6fhLRhmy1Fc2F5gxG/PW7GtyMRkBS194PGJbTNEysht1ODAmNGB\r\nQY0FIzobxk1cOy+vB5Jp5FcEaalJTvE4Oai9VfaMsvwOm5wcZqcwvobLDV5mO/o0DgbaXFc/ZUDF\r\noAY91IZI5rAP1/A05FAkgLyi5G6hwkj9yV/IjYZyXte6ie70Vx7HlUIpzpuhLq4VLlV/cvdrVX5p\r\nvGI6VxtnqIHTzkAzyhbtuKPRg9vrvLitwoqPFmrwSIseH72gxj8nL+PtJ+fx/45PYXeDDqNGLoBZ\r\nXPQFrzZiSmtih8YTGbP7AiDT0qW1bXhm7zEcjj6Jp1/YhuraRn50FBE/rxcOrwcurxceXwBTM3OY\r\nmZuHy0PaLh8cXh/TINLfIOEjQuX2w+EJwOVbgcZggc3lZfcEIlp29wqD1SNiLVGTw+rxM7xWEigl\r\ngPzeD5dnBX7vKiwBO5wrJmiHKzCdvRPT2bvRlfwMCvfci67k7dCUxGC+8Ah0Y7VwOOZgtltgdTlh\r\n93hgpzpgdQYsWT1Mg8U2HQjaFFqT1bdkQn5DOzKrGtA3NQ+D2QKDTgudVgONRgOz2QSr3QKVycSm\r\n8cUpSXqPIQ01aX6sSB9fxgeS6vD+xFq8P7kKHzlZjh/sH8cD+5fx+J4lFBW70NdtwZDawqeTg+0q\r\nNAXcb3BjZjQZ+sY7YWm8C9bGu+Hv+jbQ9zWs9vwv0HM70P1ZrLZ/AsvjcejTe9n6vrXt1Iouiw05\r\nka9g/rZ/xcIXP4HFndvQkVaC4rPncDbmIB6970c49tKjqM06ifhXn0BS8hk2BSrmS9w522dyobq1\r\nDt3f+BzUt30Yqnu/h4m0DPz8u7/Af7z/A/jWN7+Nn/zwJ/j0bZ/Gd7/zHfz6ocfQP6fFECNeoTwN\r\nm9zoKCtAz1M/Q9fdH0TXt9+Dvu98EDO/+Spw4jHg2CNYPfwgdMVpGKHNGMK7kssFIiwNS2Z8v2gc\r\n25t0GDTbkTigxbt2NyHiqVL8+UsX8cF0Ff4t34fvlFvRydZzrtVasDLqrJgz2pGWVYBvfeO7+OHd\r\nP8I/ve3t+Kd3/Ct+/5dvhy3iTYwErkZEYPm/v4Tx8Vn0GHn/DcomrRmDWhdaFudR/tvvQfPf/4qF\r\nb9yGhRPH0Z9fDkPBXljPfwb2uP/AcsGPMahdwJAupEW8EkhlorxeOEIa0lC4EAEM+ZOurb46Wbg2\r\n7auL52aFvGwEca3tmNGFCbOHa9kVys80/ExzTh8XRnTqbPiXZy14y+9W8d5n7GjT+TBJJEwge2J4\r\ncXyhNbSNw1M4nHwB++JPY29sMhJyStCtMgQ3E1E6w/SRZ/Egr74NhY0d6JlTo2FoEp1zal4GUjIY\r\nnagdmMKdP92C0s4B5DR14ExFLTKbO/jSGMnMXaisRACdGDH48WrJOP7x7pP4m69G4t79Vehilicu\r\nv6xCkQAqQYkAEuQR3mjI87kRyOO4UsjjI4QGiqsDa1Qb+Dq7EZCXbSO4FuWXx0mQ+9soeIc3Y1Rr\r\nRMm8DV+qceATFQ58uNiE/8xZwgN1y/iP5AX8Q/wS/iZyBn9xcAI76rTsa06Mg4RI/7IRGgvX/tG6\r\nP7sfWDBYse3AAYwtLcDmC2BkahaPPfks9EYr88fJnRfuQAAt7e2ovHgRgyOjsLvdcHo8cBIR9Hlh\r\nsjvgIA2hnzR7fkYAab0c/S2trMHk7CLXBJIWkLR/CgRQPm0sR5AAKjy7GtD0q2MFGK/pQHXcWXTW\r\npkFb9gTMxT+ENvNOaC98E6qUb2PuwjcxnXYf2k9txWDaXgye/inmsn6EhZZkDI2NYlGrhdPvh5Pq\r\nlRHLVehcAQxrzHwNF5uyszANVWXPCL7wjW/j01/4AuISEtHd3YnW5kZ2VFh9fT3m5uZgthgxp9Oz\r\nxf3ipgwpASRh2Gdy4kh/Hb6evgt3Zu7FNzJ34qWmDHTrdeg71I2q73ch564Z5Dw4i8FxMlkjal8o\r\nvhABJI2efjYNGP4ZMPxTYOgnwMA9QD+RwG8BPXcAPV8FOr8I9eQZ/jWuMLVHpkUqVbO45/yvUPzt\r\nD0Oz9RW8nGvHJ/b7cceeGTz+7CF85yufw/O/+Rn2Pf07ZJyOQcPYLPolpE0kgP0mB56ojsb+3/4P\r\nVN/+KkrzR3BH1Aq+eF8yPv3pz+CnP7kPv3nwCbywdSdikhJQUN+EUTLJI+0zlCeLD61xr6Lnex+C\r\n6swJjB99FjX/9170/uiTnACeeBw49jjc8dsxQceeUbkUCCDVd/WiHf+W0IuII724I2MS/7SnCRGP\r\nV+I9e6pwpkeDn9ep8U+ZDny7zHwZAmjDjN6Gn937AG7/7Bfx/NMv4O1vezv+/m//Fnd/81so/OGP\r\nUPKPb8Poj+/HdPs4+k0u9LI1iLS5hOK0oU/jxqjOh7iRGvxqz9fQ++X/wkBMGh48ZcFn97nw0Fk7\r\n1JPpQNsn4Gz5b0zOVWBA5w+rn41CXoa14GskL08Aqfw3HwG8WcYpgrxsBJLbExYvsuo7cPBMOiOC\r\nbMe6rPx81om06XZsy9HjuyddeOejVvwgwY63PWzG3TEOPJ2jZmuPh7XGsM1mQ0Ynitr6sPVwFOLS\r\n83HiXCZi0nJx/Hwmtp04ibZ5LUuDyF9F/ziOnM3A03sPM6J4ofQi9sQkoX1KhT4134k+bHIhtaIR\r\nH/ufr2Hf8QQ89ORW/OJ3T+Hhl/Ygq7YFY2ba4S4vswn9OhO6Fz344C9OIuIzxxBx+xH8yeePIaV1\r\nNmwsWw8bJoBXAnkiNwJyASTHlWiTpF9w8mc3Akplea0E62qwHimTQh5mPUjjkj+7HuDp0W5DE0oW\r\nbfhxox3frbPjOzU23FmuxzNtGnw9ZxFfTFvG587N47aTEzjWpsUomccQ4iBNUp/GBKPTC6fXD4vP\r\ny0jg4MQMjkadgJ3WurlJg7WCF19+BWNT03AFaFrWDwdpCldW0NLZgZyCAuiMRqjUapSUl6O8+iKW\r\nNFqUVdWgqLwafcOjyMgtwOjkDIrLq9DU3oXcwlJk5xchr6gUVhdpFIn8EUkkTSEngrTujk8Py0Fa\r\nRSKhXLt4ebf13ENupKGkOqBpW7tvBaqZJfS2dWJsrAeLY61Q9xdh5OwzGDj2W7QffxR9cc+iK/ZZ\r\nJG79OTKOPou+vBgMVKTD6fdBb3ehe2gUY7ML6B+dhMXpZWsCjZ5VDKuNGNSQeQ9OBIeNDpR19ONL\r\n/3cHbr/9dsTHxaGzox0tjQ1orK9DbW0tJicnYDDqMKvVYlBNBFBcS8VtQbK1e/RO9U5EdkTj6dIf\r\nYGvFz/BS9XeQP1uGqTEd+n+Tho578nHxezWo/EU1BkeM6DdK2yofoJl9Sb0P+pmzQP9dwMDd/G/f\r\nt7Da+w2s9nwd6PoyVjs/h5X2D0MzHoMhmjYO7j6mOHlcg3oXCsYH8d+n7sJvXvkyajMq8endVnzg\r\nRSPet82I38ZMoOzMfaiM+Qhasn6Bzuk5vmlDmAoUNUzUTvv1Fnwnbxs+e/iLqI16CQ+fMuEDzztx\r\n+1Yd7n6hAieOHUJp4n3oyP0ROkc7mG05GjyCO/eFNcZDVi/aY19F+5ZvYbq+GnNlqaj7zsfQdtfH\r\n4Nj7AFx7tsC959cw7vsNRnt6WJ0qEUDCiM6Bwkkn3hk9gohXBxCxqx2fjGpG9bQJI2Y/flytxT+m\r\nWvCNEiM6hKk2JVlHax4H59T4wlfuwL+86z34r3//L9zzvXvwmy0P4kMf+gg+9fnP4+t3fB2Z1TUY\r\nsfr4buigFQM+3TqgcWBM78KO5nR8OPZORG//PtIL1Pj3F634yFYzPvScE2m1M/B0fgG+hndjcSQK\r\n/TrPmrxsBPJ6YGWSyD3uxsluKNyl1wCuh2D8Cs9uBOTlDC/TjYN0zB41OpF2sRn3PvMSHtl5EDti\r\nTgXXmIaFEewb9mgs+OizBkT8DPjz+12IbjLha4eMePNPffjwc2p00hSxhACS+S7aMV7WPYyk3BJG\r\n6uIzCxCdkoOd0Yk4V1GPhslFpgUku5t7k1JQ0NKNuoFxHEw6z7Av7hSqeobRs6jja9VNDsSm5yE6\r\nOQ3fu+fn+Ju/eTv+8u/eiZ898Ag+f+ddqOoeZqRTWs+9pNXWG9E4Z8I/3xOLiNuPIeKLh/Hm2w8i\r\noXwWo0ZPcCPUenj9EMB11lyIkM6hXw5/6LLI887yfxPl5WrqRzpAyJ9da4iDY7feij6DBRVzVvy0\r\ncB7fy53Bd7Km8a30CWytm8G3LgzjK2fG8OXTY/jyyUFEtS5hhExISKYQezQm6OxuptUze12w+3ww\r\nWxzYvmsPenqH4Q4A9S0deOr5F7nmz+eHhaZ1SWvn88Hj92N2YQFZeblIyUhHblEB0nOy0EQH39c1\r\n4WxqOi421KG7tw9NrR0YHp9iRzcSEVxU61BacRELy1qmBeQEkKZLV9mUKf8bIn6cpBH4FDMRtpAb\r\n3YvuSm5Sv2vdQkTRx7SWVD7a6etZWYETgHFhEv0pe9F+8jm0H3sGxXseQvJTP8DZnb/BxXOxsHts\r\nbMev1QeYPSuY15mwbLJhaGIWJjsRXE4AR9QGDGkNGNQZMUR23kwOlLf34Utf+F987tOfwcm4OHQz\r\nAlgvEMA6TE6MQ2/QYkatxjCtSaONGsHBlMB/0waR2q6HUXvxfWiofw/aOv8HXaZOjFf1Qv3LA1j+\r\nSRxU91zAwLN5GFo2oUfyMRC+RisAzfRprPbdCfTfAfR/Bej7H6D3U0DPbUDXJ4G2D8Pf/D5oR05g\r\nhBFAYWMLa/8CATS4UD49jP9Jugsfj/8/xNQU49sHdPiXZw1475MWHCnWwT/2M6Dl77E8+HP0myzo\r\nJ8IlWytHBLDXZMGPc1/Ce6O+gOfztmF7qgP/8rQF73vGhe8ctUEzfgKBlrfB3fJ+TKmHhP5ItvRC\r\nBJA0HUQAW0+8iu5ffAWTeXFo+dFXUP2Zd6Dyi/+Knh98CkP3fAojd30cnT/4DIZamjFgcCkSQE5O\r\nbXi5dBxvfb4OEXv6EHFgBP9wrAu7WtXoMnnw4yo93nbBhK8VG9BBWs115AMN3qMqHb7x7Xvw7nf9\r\nG/7ur/4e//kfH8BXvvx/+PM//yv809vfgY9+6MOoJK2mPrSIXp6nEYMDh1qz8IG4O3HnqZ8isXoS\r\nH3nRgn971oIPbTOjtLMLvtaPwVP/NkyNnUAv7Qq/Cm2XXEayvEh3tCvKwtdIABXq7UZAXs7wMt04\r\niOM/ka7W6SX8bserqB+dY5rAF47GIaW6CSOmkBaNh3FgWOtAj86Cj283IOLeAN5yfwAfetGB/3zG\r\ngogHnPjwDgvaWdskAihpVxpONFvGZhGTmotDyReYVi+1og5di3pmwJyRUbMbx9LycCIlB9k1zdh/\r\n8gyOnUnDzsiTbBq4V6Vj/W/U5MDR06l4fudBvOcDH8N7/vOjePf7P4J7H34CDzz1AlonOKGU1jOZ\r\nMRs2mFHYr8Pf3RmHiM8d4STwc0ewPXUMo2a+DvZSeB0RQOXGKOJKvpCkAkT+7EZALriuNP/XEvJ8\r\nhOXpCurnRmoAxbyRVmTUYEHBjBnvS1zAX8eq8VfH5/FX+yfwnew5/O2+UUTsnEbEK1OI2DqGJyuX\r\nMEZrhyTCmgjgotHOCI/F64XZ44dzBRgbHcHW7S/huW3b8bvHnsQPfvJzpsFzrwBWYb2g2w8MjU2h\r\ns68fhaVluNjQiOyCQrR2daOuqRVlVbVIy85DbVMT+oZGMTQ2jbyiMozPzLNnS1ojKmoaMLekgYtM\r\nrHj8MNtdKK+qhdlK09KAy0MEjaZRpZBqA5XclLBeeP6MaRuFtNiUtODG1u8FfJhqKELnyRdQeeQh\r\nlGz7JZKe/gmG6nOhmhmBTqMLklbaCUwbWBxUNxNzmFvWw+kDI4A6hw+jGiNbkM1OgSEzPSYHKjr6\r\ncfv/fBG3ffK/8fJLLyEvJxvpKam4cP48zpw9i/bObkwvqjBMEEyNhBNAB0Y0bgxonRharMTyyG9h\r\nrf88XMX3YC47CdrdO+B47EVYH9wBx88PYP5CBYbMJoyweMR2JWoAaQqYCOAp+Hq+gdmGb6Ol9Pto\r\nKL4L9UXfQV3BN1GX/RVMl30K7rp/xfLQUYzoXWxHIT/RJkQAiTy1ajS4M/VXeE/Ml/C9tCdwomUc\r\nj6Y48Uq+FZ198Vitfze89f8PU2PH0cvIDW2oCJcHpI3oMznwfF0s/j3qq/ho4l040FyOJ9NMuDfJ\r\ngoLWNtjbvgZ/zV/A0fEdjGvmBBkTMu4uEsBhqxdNkftR9bl34uLX/wsXP/L3qPzk21H2hfdg4Puf\r\nxujdn8Twdz+Ert98A6NTk1zDqkAAScNYOWPE257OwrteKMXeFi2+eWEGES/34E17OvCjnEl8u9iA\r\nt5+z4KtFRoEAyrViQvloCtjkwMt7j+Bf3vk+vOMf3oGvfPEruOeu7+Mf3/Z2vOtd78b37/kBxuaX\r\nmaknpiGVEED620mnhhgcyJpsxsdP3on/iLoDjxWdwMHKWdx/yoYDVSrMdz+GQO2fwdHwXowv0uad\r\ncMKwUfB0w6ezpe9LeXx5jQRQ4dmNgLSMIuR+bgTE8YW9d40F/WSSiW3k4Vq+7iX62JGH4bvYe7QO\r\npPZbEdlgxbufsCHil8A/P27HkUYHUvv0bK1dD/V7yXsjAkhG0slqRO+CDs+8egyJeaUYVJvCN1bp\r\n7ehc1LPp4t/vOoDDp1OR19iByNQctE8tMpuypKkeNTmRXtWAx7fvw1M7D+CpXQfZlPHT+46gum8U\r\nYybXmnomkPuB8y3452/H4Z9/cBbv/tFZ/OPdCbjj+Xy27pifMrM+FAmg1IP82ZU+FyHV0MmfXWtc\r\nLi9/aNzs+VPCjXx/VwO5BlgUiON6O7KnLXhfzCzefnQBbzs0jb/ZPYzvZU7jH/cP4607R/GWV0bw\r\npq39eLJSxQigqK0RjZSPqbkpE5qmtDESFIB3hdbl+bGsNcEXAHIKSvHCSzvhXQEcRGgIfkBjsmNo\r\nYgaLOhMzFzO9qMbUghomhxfjMyrMa4zQmOlQehd/rtJgWqWF2mSHxeVnz8xO0rpxLRwdEF5X34ix\r\n8UmYzDb4vYDbw9OzMft6yrB6ViVrB0XQTuKr90t1YiWzL/OT6Dy9F7VHHkXGtp/j2INfR17sLlYv\r\nNF1Mdebw0A5pWsco2AL0rGJmQYPZZT3MTj/sPmBOb8UIm/7l747I0rDZgaqOfnzmc5/HJ//7k/j4\r\nJz6B2z71KXzik5/ERz/2UXzgg/+J5NQsTNA6P40paD+QCJfUjAxvIwQvuk2Aqv0iAs99Dc7vfxL+\r\nnT+C+8DDCGx9CPYdWzHRP4UhQ/ju9mD7oo0bOi8MU7Gwtn4Vdyem4q92T+Mvt/bjL15ow58/3Yw/\r\n+n0HfrhvDyxVb4dqcD+G9G7hSDBOasXykdHfQb0He9tS8YHor+FfIr+M25Pvxi+LnsYjeb9EX+U7\r\nEaj7Y2haP41R1TAGye4ekS02xSnti0RKXcieGcdnkn+Jfz3+FXw09tu4L+Mx/Dz798gu+jh8tW+F\r\nt+7vMTd1Gv060mytrRtmIYFMzAyNoTEzBae/92WkffxdSLnt3cj76gcxeM9nMPq9D6Lv7g9hMCWR\r\nTc0qrdtj/Y+ZQDHgVPco8qZUGDZZ0Lloxg/OjyPilW6Gd8Uv4p/P2fHlXD3ada51CSCBFtx3jc3j\r\nlz/dgi9+9gt44FdbcNsnbmPk7zOfvR0F1fUYY0evCca2ZYaX+c5bM3o0BtyX/SL+7fgX8N6or+Ob\r\nqffj/qyteCX3R9DW/C1Wqv8Iqo7fMYPSbCZAiIcZnRZOV5HnbS02vm4vJK+UCCCF33hc1wOh/P1h\r\n0r8aiB9IwbYkHtWo4JdABG/EaGUG6f/reSMi7vPj/S+40Kx2Y8zAbUfKP3DENk4fG/Rh0TqjZiST\r\n7uXxU9qkCWybVaNpSsXCdMxr0SMjpXQMYeusGs2TKoamiUXmT24aJgRqn250q2xomTHjsRNV+Opz\r\naSjuU6Fj0SAcfCC+v7XlJtw4AniZ59cSl8vLHxo3e/6UcCPf39VA3kHEAY4IYMaUBW8/No2/3j+H\r\nt+4axx9tG8C3M6bwd/vGELF9HBFbhxHxbD8eLVdhzMTXag2x46b4EXj9agMWzA5GUmi9n7hGjrRy\r\npOUjMuMJAHqzk2vqmHkWAplxAdMKEhkU72nqlH4T4Qv+JQLnoY0m/DeZeKFNHvwZESfaIcwJYHtH\r\nJzODMjI0CpvZAbeXNGiULjcPI/0rguKm+KQgtzX+LuFX6o/BtwLtVC/ak7ah+uBDyH3pF0h46A5E\r\nP/MzLKvmmWaPCB+HsG5RAsqz1U2bS1ahdfgwuGxgC/fFd0okjszylLX04P3/+WH823vfg3/5t3/D\r\nu979brzjXe/C29/xT/jrv/1rRCWfx5TFHVxnp2RIWooevQ9j02oYnv4NdI/eAV/eQ/CmPgzHqSeh\r\nrstmu1uJrEkNGYvmiYgAdus90E3GwdTwv/jioSz8ybPt+PNHK/GnD5Xgjx8oQsT9ZfjKs7thKf5/\r\nWOzfgX6dm9nKkxNAVkYy3mzQ4sXqKPzHiTvwtqO34W+PfgJHLrwdKzV/CVvDxzA1XY0hnZdtcFEi\r\ngNTWuyg+vQ/JvRfx6YTv4Z2HP4f/d+hT+G70f0Bd8ScI1L8NqtFXMainHcRrByk2YDJ7hTb0Gh3o\r\nsLlQ29WKiifvR9v3Po/u796Goe/ehvb7vo628wno1+rZzkR5v5Oil96D0YQho5EZ6qZzesmm4s/z\r\nZvCmbV346+hFvOuUBQ9dpF2OnJSyvqvwzogckkmZnskFHI2Jx/e+/0Pc8e3v4qmt21DV0ooJ9s5s\r\nzMh0kABKZBURwF6NkWlEqhYWcE/6drzr2B141+HP4YMHP4n67L9F4OKfQdX+UwwtTfAdlmpxM1L4\r\nucBr8rYGGydtIXl1kxPAm1TuK0HaBuXPlMDbm5GZCSodNCKrV4+CYT26mIkVwWSPQvteE7+C+Zdg\r\nGmK7FqZx+cdo+HMWn3gGuOQcbXmaIVD+3BjQeTFosuPiuAZ5PdPCLAWdbEVrYC/9/i5LAMWMSitA\r\nLMx6lRJ8vl4lXGeIebsRaV0NQvmjuuL3cj9K4A1xrfuNws1cpwRpuxTdaKdl9ZwRd54dxqdOjuK2\r\nmAF8/EgXHiyaxu1xg/jYiUF85Hg/PnykF/ubNWwNIJ1MMcTsmJmY/bBBrYltTpg3u2Bimj2aBvUx\r\nuHy0To7D7ScTLmRuhTaG0MYG+svB1s75JBDdhd/Mn8cLm8fL1hlaPR4Giof58Xjg8nhgsljR2tbG\r\n1gl6PB50dnXCYrPA46d4+O5iAt2HwesRzK4IEO7X+PNRvtf6pfBSP2wHr0WPuuTdKN7xC+S9+DOc\r\nefRbOPXU3ZjsbWNE1+4mY89k/1DQ+hHpk4A0qqRF1Ni97FQK0tDw3Zt8wGOaPIMN7dOLePlwJF7c\r\nd5DhBcLeg3h+9348t3sfmyKm9V0hu1+i9k+pX9EzMkrswsi4CuPjgxhbHMbM9BBG5ifQY7Azg8Vk\r\nt0u0Qyja7+P298g+oAMTy2OYnKnChe5pRHXoEdeuRWybFtGtGhxvWUZ62wAWxjIxNTOIfi2ddkJT\r\nwHKtJJWTdqqTwDfh3HATHi6Iwi/O3I+hlp9gZmw/RhbH0WtcYe2aSIh8upXiob/syEONHSN6B0rm\r\n+vF0zWl8+8zjOF92N1SDj2B4lna1utCr8yjUiUTOCyeu9Gts6Dd70L6oRnttLdqz0tGUm4O2vj50\r\nG2nTCQ0uygqA0DggbMIQiAxNSVF/HNGb8WSZCvdkzSKxj44B9PCNLBoOyo9ovy34Lpmc5JqcCdLS\r\nqzQYWNRgwmjFmEFYLkBTekSgyP4Z5V/cLMNsMNLifX7k3LDOyqblTrRn4yeZT+O5zJ9gtvtJzI6l\r\nM4PvZAif+j2TtUTMhL/cvNBGILY9pfYnr3dxcFYigLy9biSe64XwsWpj488fevy9uvRpfa0Fo0YL\r\nxo0WjLHjBMWjREUotXFlriMHPZeHZeFl4xXb0b9OWmtB/vgRkux4TJryNtGHl5l9cInLEC6Vt8sS\r\nwMsV4HKQx7OJcIj1dDkSKBf6m7g8WJtl93zHFJ1e0Esd22BHl4Zb6u8mjQ5phdj6LtJChI4BknZs\r\npnlRm5mZkgWLEzqnFya3Hxa3j8Es+Wvy+GAmeP0h0Po9QvA398f9is+F314/TG4vTB4vu7fQyRcu\r\nFxwuB/QmA5qbmzAyOoz2rk7UNDdh2Whg5llYmuuA4jW6vWGgNOT+mF+ZP+ZXwZ/Z48KibhHT/T0Y\r\nqCpFW1k2lhcnYPMBJvcq2+zBEYDJHYDRTeXiMLp8UFnd/OSOJQPTtPA2Lmo8OJhGT2/FhM2PCfuK\r\nDAFM2v1sd5yyBmU98Hfca3Six+BGj86Nbr2LLfoXn4l9MtQ/pfkiTaAbvfoAxgwuRkimLHbM2OyY\r\nslgxZTRjzGhHr35FIFyUp/WnoHgbc2Dc4MWkMYARkxPjZid69CvMhiDzI8uPVBbIn5FR6CETaQVc\r\nGDeRds2Pbn2AawY2cORa2ICmd6LH5Eav1c/OzO03uYXpNF4n8vxIIeaL4mEngegdzKA3LZ4fNnuY\r\ndmPEYBamkmktIe0opuPl7IK2ja+bpL+8/uj90LomB1vQT9NqbHqMTdXz9z9IRqeZKRXxXG8RNrZ7\r\nM1hHWjtG9V4MGt0YIkJpDKDPIBiPFjcUhJGyK8HaOr08rqT93nhcyfgjbQPyZzczxDZPH3i9wrnM\r\ndBIQPyP+0vznSsZvJcjDi8SQ4TLcS55WWBwK7lJsnABepgLWgzyeTYRDrKfLfVlJ61/+bBPKYB2H\r\nSJ+wfmeMpojEaRzmZsKIRocxjQ6jtKOKLRgmAkCDCH1V8b8MdNoBkcBlM3oW9Oie06J7ToOeGYIa\r\n3VKQO63xINC9HPNa9Mqfz2uY23ronNOgbU6NtmkVEtILkFFSg+zyiyht6cCgSo++OS365nSXRO+s\r\ndg3kfq7EX8+8Hl0LRvSozBheMmFkWY/uJXIXy09/l9Ezv4TueRW650Qsst+9i1q2CJoIHiNVwfYt\r\nIX8C+AAp390rHSyvzQAqrhVa+xEgJYDSME62mze3tRcnC8uR19bDjA7zo+ioX3MCcrn+TSAyUzc6\r\nizMFlThT3Yj2ZT1zl8tUuXyV/mYDicHKdhdmljciqbAadSPTQc2jOKDI074cmDZOWEslIhifDGI+\r\npARwxOBEw9gcEgurkFLZgD6VFsN60rqQNpG0bJcggEwLSO+VyKcLXSoTzlU2IKm4GjWjs3zqjX24\r\n8fe/HgGU1hF7H3on8pv7cTa3CkVNneyMaN7WxHJvEkARUhIifyaHvH3eaiDiJyV/GyKACvFIcTkS\r\n91rCy/1eCRQJ4CY28XoDCXw6sooTaQ42OJFNJ9rsQdoRYaqIT8uHg8chLgjnGg2a1mPThGytUOgs\r\n0HA/60DQilzWTQANar0CKe3V8OO6KnrH0Dy5gGE9P2eVCCz9pSOF5OE5eH5DkD9X8ivey59z8Okx\r\nItPi+jY+dRryI7rxeg6BBlseNrgpIviuZJCaPdkowsIrPFeAXDhK3XgewvNC7kSE6GSOuPxyPHc0\r\nFnF5ZcKUZ0gw8zYk+8JXEPqk1Spo78fW4/HYnXQOTbPLzI+8LV8KFC8RyfY5DfYlXcDWyDgUtvdh\r\nyBi+ozWMxCmUfaOg9OR5kIP8kUHcos5BbI1MwKunLqBjTsPMuwTrX5jiZdPA65Jl2jTjYEZ29ySn\r\nYFtUIgo66Axm6TopeRhZfmW/Y/PLsO14PE7mlV1yo8Am3jiQy4X15MPrAZsEcBObuAXBjJHSmZIG\r\nmhK79IHoVwuRtMh3WN8IiAJX7r5RvNbwGwWvHz692MOs+oeEq0hA6V6qMZP+loPiFOMR3+u6JFZO\r\ncoW/0rR61TS1Hopf+kxajjVxXwmk+VCC6Ef4Ky6WZ/cKdSCC/MjdxDKIi/NZHYlHfWloo4dcQ3t5\r\nUH1THaz3TjaxidcrNgngJjZxC0Jcz0SdmAZK+fNN3BhQ/Yv3ImGRk6v1oESApPFcLUTiKGr55OlK\r\nIQ97vSDmhbST7GSP10i2xPikbpwEXnmZ5PFsYhNvFPx/ITAMiHc47oQAAAAASUVORK5CYII=",
    "RulerGuidesX" : [],
    "RulerGuidesY" : [],
    "RulerShowing" : { "type": "bool", "value" : false},
    "Title" : "track-deep-work-rescuetime-m1",
    "audioNarrationNotes" : "",
    "autoSavePath" : "/Users/xavier/Library/Application Support/TechSmith/Camtasia 2024/AutoSave/9CA72CBC-62B1-4511-B03D-3AD4BC309DB0-34405-0000434A5A720069.tscproj",
    "calloutStyle" : "Basic",
    "firstMedia" : { "type": "bool", "value" : true},
    "hasNotifiedAboutHFRMedia" : { "type": "bool", "value" : false},
    "projectDuration" : "10:30"
  }
}
